<?xml version="1.0" standalone="no"?>
<!DOCTYPE svg PUBLIC "-//W3C//DTD SVG 1.1//EN" "http://www.w3.org/Graphics/SVG/1.1/DTD/svg11.dtd" >
<svg>
<metadata>
Created by FontForge 20090622 at Sun Apr  3 21:26:20 2016
 By deploy user
Copyright (c) 2004, SUDTIPOS. Expanded and digitized from the Bluemlein Script collection by Alejandro Paul. All rights reserved.
</metadata>
<defs>
<font id="MrKeningbeck" horiz-adv-x="500" >
  <font-face 
    font-family="Mr Keningbeck"
    font-weight="400"
    font-stretch="normal"
    units-per-em="1000"
    panose-1="3 0 5 6 4 0 0 2 0 2"
    ascent="800"
    descent="-200"
    x-height="264"
    cap-height="745"
    bbox="-462 -467 1067 953.333"
    underline-thickness="50"
    underline-position="-50"
    unicode-range="U+0020-U+FB02"
  />
<missing-glyph horiz-adv-x="250" 
 />
    <glyph glyph-name=".notdef" horiz-adv-x="250" 
 />
    <glyph glyph-name=".null" horiz-adv-x="0" 
 />
    <glyph glyph-name="nonmarkingreturn" horiz-adv-x="250" 
 />
    <glyph glyph-name="space" unicode=" " horiz-adv-x="250" 
 />
    <glyph glyph-name="Scaron" unicode="&#x160;" 
d="M402 932q-9 -8 -22 -25t-29 -34.5t-34.5 -31.5t-38.5 -16h-8q-15 0 -30 15t-27 35.5t-20.5 40.5t-11.5 29q3 10 10 8q4 -1 11 -12t17.5 -24.5t25 -26.5t33.5 -17q19 1 38.5 11.5t36.5 23t29 23t16 10.5t4 -9zM519 485q0 -32 -14 -45.5t-32 -13.5q-19 0 -37 15t-32 34.5
t-24 39t-13 27.5q-7 19 -10 19t-4.5 -5.5t-8.5 -5.5q-5 0 -8.5 5t-3.5 10t3 8q9 13 15 30t9 31q4 17 5 34l-50.5 36.5t-46 28t-45.5 17.5t-50 6q-26 0 -44.5 -7.5t-29.5 -20t-16 -28.5t-5 -32q0 -41 28 -86.5t70 -93t91 -97.5t91 -100t70 -100t28 -97q0 -27 -7 -54.5
t-23.5 -49.5t-43 -36t-64.5 -14q-54 0 -102 20t-87.5 51.5t-71 70t-53.5 75t-33.5 67.5t-11.5 47q0 17 8.5 27t16.5 10q3 0 16 -11t27.5 -26t26.5 -30.5t12 -23.5q0 -6 -4.5 -9t-10.5 -3q-4 0 -9 2.5t-7 2.5t-2 -4q18 -37 50.5 -77t73 -73t85.5 -54.5t88 -21.5q23 0 38 7
t24 18t12.5 24t3.5 25q0 49 -28.5 97.5t-71.5 97.5t-93 98t-93 99t-71.5 100t-28.5 101q0 37 17 63t41 42.5t49.5 24.5t42.5 8q66 0 128.5 -30.5t111.5 -76t78.5 -98t29.5 -95.5zM483 493q0 13 -11.5 37.5t-27 49t-30 42.5t-20.5 18q-4 0 -4 -6q0 -21 9 -47.5t22.5 -49.5
t28 -38.5t26.5 -15.5q7 0 7 10z" />
    <glyph glyph-name="scaron" unicode="&#x161;" horiz-adv-x="300" 
d="M279 494q-9 -8 -22 -25t-29 -34.5t-34.5 -31.5t-38.5 -16h-8q-15 0 -30 15t-27 35.5t-20.5 40.5t-11.5 29q3 10 10 8q4 -1 11 -12t17.5 -24.5t25 -26.5t33.5 -17q19 1 38.5 11.5t36.5 23t29 23t16 10.5t4 -9zM278 249q0 -5 -3 -13.5t-14 -8.5q-6 0 -8.5 4.5t-4.5 8.5
q-15 25 -31.5 40t-30 23.5t-23.5 11t-12 2.5q-31 0 -43.5 -11t-12.5 -27q0 -21 13 -39t33 -34t43 -32.5t43 -34.5t33 -39.5t13 -47.5q0 -35 -14.5 -56t-33.5 -32t-37.5 -14.5t-26.5 -3.5q-38 0 -63.5 15t-42 34t-23.5 37.5t-7 25.5q2 8 7 9.5t10 1.5q3 0 9 -4t22 -9.5
t44.5 -9.5t75.5 -4q22 0 22 8q0 11 -12 23.5t-30 27.5l-39 31.5t-39 35t-30 39.5t-12 45q0 14 6.5 31t19 31.5t31.5 24t43 9.5q28 0 51 -13.5t39.5 -31t25.5 -33.5t9 -21zM214 5q0 4 -8 4q-49 0 -76.5 3.5t-32.5 5.5q-4 -1 -4 -4q0 -7 7.5 -13.5t18.5 -11t22.5 -7.5t20.5 -3
q25 0 38.5 11t13.5 15z" />
    <glyph glyph-name="Yacute" unicode="&#xdd;" horiz-adv-x="529" 
d="M430 786q0 -14 -8 -23.5t-17 -9.5q-19 -1 -42 -12t-43.5 -23.5t-36 -23t-19.5 -10.5t-4 9q8 11 25 30t38 37t43.5 31.5t43.5 13.5q8 0 14 -6t6 -13zM498 507q0 -28 -1.5 -54.5t-5.5 -46.5q-2 -12 -4.5 -43t-4 -74t-3.5 -93.5t-3.5 -101.5t-2.5 -99.5t-2 -87t-1.5 -63
t-0.5 -27.5t-1 -18t-4 -35t-9.5 -42.5t-18 -41.5t-29 -31.5t-42.5 -12.5q-29 0 -55 16t-49 39.5t-43.5 51l-38.5 51t-34 39.5t-30 16q-8 0 -12 -8.5t-10 -8.5q1 0 -8.5 4t-9.5 14q0 6 5 13.5t14 14.5t21 12t26 5q22 0 43 -15t41.5 -37.5t40.5 -49t40 -49t39.5 -37.5
t38.5 -15q21 0 33 21t17.5 49.5t7 58t1.5 46.5q0 85 2 168t5 155.5t6.5 128.5t6.5 87q0 9 -3 9q-4 0 -11 -17l-16.5 -44.5t-29 -71t-40.5 -81.5t-49.5 -77.5t-56 -58t-61.5 -22.5q-27 0 -47 20t-33.5 51t-22 69.5t-13 75t-6 67.5t-1.5 47q0 29 1.5 47t1.5 23q0 12 -2 12
t-8 -10l-13.5 -23.5t-15.5 -26.5t-12 -18q-3 -3 -7 -6.5t-9 -3.5t-9.5 5.5t-4.5 9.5q0 5 6 11l40 61l28 43.5t14 24.5q1 54 9 97q3 18 8 36t11.5 31.5t16 22t21.5 8.5q12 -2 15.5 -8.5t3.5 -15.5q0 -11 -3.5 -27.5t-9.5 -36t-14 -41t-17 -41.5q-1 -13 -1.5 -27t-0.5 -31
q0 -38 2.5 -81t8 -86t14 -83t20.5 -70.5t28 -48.5t36 -18t45 30t51.5 76t52 101.5t45.5 107t32 92.5t12 58q1 0 1 8.5t0.5 18.5t3 18.5t8.5 8.5q8 0 12 -29t4 -85z" />
    <glyph glyph-name="yacute" unicode="&#xfd;" horiz-adv-x="352" 
d="M314 408q0 -14 -8 -23.5t-17 -9.5q-19 -1 -42 -12t-43.5 -23.5t-36 -23t-19.5 -10.5t-4 9q8 11 25 30t38 37t43.5 31.5t43.5 13.5q8 0 14 -6t6 -13zM299 249q0 -6 -2.5 -22.5t-4.5 -27.5q-1 -3 -2 -23.5t-3 -50t-3.5 -63t-3 -62.5t-3 -49.5t-1.5 -23.5q0 -5 -0.5 -28.5
t-1 -52t-1 -54t-1.5 -32.5q0 -2 -1.5 -23t-9.5 -45t-25 -44t-48 -20q-25 0 -46.5 11t-39 27t-32 35l-27 35t-23.5 27t-21 11q-7 0 -13.5 -3.5t-11.5 -3.5q-7 0 -10 6t-3 14q0 10 5.5 17.5t13 12.5t16 7.5t14.5 2.5q17 0 34 -11.5t32.5 -28t31 -36.5t31 -36.5t30.5 -28
t30 -11.5q17 0 26 19t13 51.5t4.5 75.5t0.5 91t1 97.5t6 95.5q0 9 -3 9q-5 0 -14 -18t-24 -40t-35.5 -40t-47.5 -18q-17 1 -30 12q-11 9 -20.5 29.5t-9.5 58.5q0 19 3 41.5t8 42.5q4 23 11 45q3 14 15 14q13 -3 16.5 -6.5t3.5 -8.5q0 -2 -1.5 -11t-4 -22.5t-4 -30
t-1.5 -32.5q0 -44 14.5 -60.5t24.5 -16.5q12 0 24.5 12.5t24 31.5t21.5 42l18.5 43.5t14 36.5t7.5 21q5 11 9 17.5t11 6.5h8q5 0 7.5 -5t2.5 -10z" />
    <glyph glyph-name="Thorn" unicode="&#xde;" horiz-adv-x="692" 
d="M792 186q0 -37 -12 -68.5t-33 -54t-49.5 -35t-62.5 -12.5q-38 0 -84.5 22t-87.5 58t-68.5 82t-27.5 94q0 18 7.5 27.5t19.5 9.5q9 0 23 -7.5t27 -20.5t22 -31t9 -39q0 -5 -2 -5t-10 11l-18 24t-21 24t-19 11q-5 -2 -5 -9q0 -13 7 -31.5t18 -34.5q27 -40 57.5 -70
t59.5 -49.5t53.5 -29.5t39.5 -10q13 0 32 3.5t36.5 16t29.5 36.5t12 64q0 34 -14 72.5t-40 76.5t-62.5 73t-81.5 62t-97 43t-109 16q-3 0 -6 -0.5t-6 -0.5q-1 -48 -1.5 -99l-1 -99.5t-1 -91.5t-0.5 -76v-137q0 -27 -6 -53t-18.5 -47t-32.5 -34t-47 -13q-20 0 -47.5 17.5
t-57 44.5t-59.5 57.5l-56.5 57.5t-48 44.5t-33.5 17.5l-19 -2q-5 0 -10.5 4.5t-5.5 11.5q0 6 5 13t13 13t17.5 10t18.5 4q22 0 48.5 -18t55 -45t57.5 -59l55.5 -59t50 -45t41.5 -18q16 0 26 16t14.5 37.5t6 43t1.5 33.5q0 19 -0.5 61.5t-0.5 97.5v64.5t0.5 77l1 83t1.5 84.5
q-32 -5 -64.5 -19t-58.5 -39.5t-42.5 -65t-16.5 -94.5q0 -33 8.5 -76t36.5 -88q3 -5 8 -11.5t5 -13.5q0 -2 -3.5 -9.5t-12.5 -7.5q-12 0 -15 7.5t-14 25.5l-14 28.5t-17 42t-14 51.5t-6 57q3 59 28 109q10 21 26 42.5t39.5 40.5t55 33t72.5 21q1 45 1.5 84t1.5 68q1 34 2 64
q0 8 6 15t14 7t10 -4t2 -18q0 -2 -0.5 -19.5t-1 -46t-1 -66.5t-1.5 -81q8 1 16.5 1.5t17.5 0.5q82 0 145.5 -20.5t111 -52.5t80.5 -72t53 -79.5t29 -74t9 -55.5z" />
    <glyph glyph-name="thorn" unicode="&#xfe;" horiz-adv-x="416" 
d="M518 169q0 -2 -1.5 -4.5t-3.5 -5.5q-2 -4 -4 -7q-39 -51 -75 -85.5t-69 -56t-63.5 -30.5t-57.5 -9q-39 0 -67 8.5t-46 21.5t-27 28.5t-9 29.5q0 16 25 16q10 0 19 -8.5l18.5 -18t20 -18t22.5 -8.5q18 6 33.5 21.5t26.5 36.5t17.5 44.5t6.5 45.5q0 31 -14.5 53t-47.5 22
t-57.5 -19t-42 -44.5t-30 -51.5t-21.5 -39q0 -1 -0.5 -18t-1.5 -41t-2 -52t-2 -52.5t-1.5 -42t-0.5 -19.5q0 -20 -0.5 -48.5t-3 -54.5t-7.5 -44.5t-15 -18.5q-12 0 -18.5 9.5t-9.5 24t-3.5 31.5t-0.5 33q0 33 5 71.5t12 76l13.5 70.5t9.5 54q1 7 2.5 30.5t2.5 56t2.5 69.5
t2.5 71.5t1.5 63.5t0.5 45q0 10 -1.5 12.5t-3.5 2.5q-8 0 -14 -9.5t-11 -9.5q-9 0 -9 14q0 12 5.5 21.5t12.5 19.5l14 20t10 22q1 3 1.5 14.5t1.5 25t1.5 25.5t0.5 15q0 13 0.5 31.5t4 35.5t10 29.5t18.5 12.5q13 0 17 -9.5t6 -17.5q0 -22 -4.5 -47.5t-10.5 -47.5t-11 -38
t-5 -19q0 -4 -0.5 -28.5t-2 -60t-2.5 -76t-2.5 -75.5t-2 -59t-0.5 -26q0 -5 2 -5q4 0 17 17.5t33.5 38t49 38t64.5 17.5q47 0 67 -28t20 -67q0 -27 -8.5 -56.5t-23 -55.5t-34.5 -46.5t-44 -29.5q3 -1 7 -2t19 -1q16 0 40.5 5.5t55.5 23.5t67.5 51.5t75.5 89.5q3 9 11 9
q7 0 13 -5t6 -9z" />
    <glyph glyph-name="Lslash" unicode="&#x141;" horiz-adv-x="421" 
d="M759 -98q0 -2 -1 -6.5t-8 -8.5q-49 -21 -83 -26t-59 -5q-38 0 -80 14t-83.5 35.5t-80.5 47.5t-71.5 50.5t-56 44t-33.5 28.5q-3 3 -6.5 4.5t-5.5 1.5q-3 0 -6 -3q-1 -2 -2 -3q-12 -34 -28.5 -53t-35 -28.5t-37 -11.5t-32.5 -2q-17 0 -53 18.5t-73.5 53t-65.5 82
t-28 106.5q0 46 25 64t63 18q25 0 52 -10.5t54 -25.5t52 -33.5l44.5 -33.5l32.5 -25.5t16 -10.5q4 0 4.5 5t0.5 10v167l-90 -44q0 -1 -1 -1h-3q-3 0 -7 2.5t-8 10.5q-2 8 -2 10q0 4 2 8q1 2 3 3l106 52v137q0 62 7.5 103t21.5 65t33.5 33.5t43.5 9.5q21 0 54 -17.5
t64.5 -45.5t54.5 -63t23 -70q0 -21 -5.5 -33t-13 -17.5t-15.5 -6.5t-13 -1q-18 0 -32.5 7.5t-25.5 18.5t-17 23.5t-7 23.5q0 9 5 9q4 0 10.5 -7.5t15.5 -16t19.5 -16t23.5 -7.5t13 12q0 18 -20 45t-48.5 52t-59 42.5t-50.5 17.5q-18 0 -28 -12t-14.5 -32.5t-5.5 -48.5
t-1 -60v-129l92 46q1 1 4 1q5 0 11 -6q3 -3 5 -6q2 -4 2 -10q0 -3 -1 -5l-2 -4t-2 -3l-106 -54v-220q0 -11 4 -15q2 -3 5 -3l52.5 -39l69.5 -51l80.5 -55t85.5 -50t85.5 -36t79.5 -14q34 0 52 10.5t24 10.5q5 0 8 -6t3 -12zM160 109q-6 3 -22 17l-38 33.5l-48.5 41.5
t-52.5 40.5t-50 31t-42 12.5q-23 0 -34 -13.5t-11 -36.5q0 -34 23 -82q11 -23 31 -47.5t44.5 -45.5t52 -34.5t53.5 -13.5q28 0 46.5 14.5t29 32t14.5 33t4 17.5z" />
    <glyph glyph-name="Zcaron" unicode="&#x17d;" 
d="M425 863q-9 -8 -22 -25t-29 -34.5t-34.5 -31.5t-38.5 -16h-8q-15 0 -30 15t-27 35.5t-20.5 40.5t-11.5 29q3 10 10 8q4 -1 11 -12t17.5 -24.5t25 -26.5t33.5 -17q19 1 38.5 11.5t36.5 23t29 23t16 10.5t4 -9zM870 -50q0 -14 -26 -29q-5 -3 -18.5 -10t-34.5 -13.5
t-49.5 -12t-65.5 -5.5q-63 0 -122 14.5t-113.5 37t-104 48l-93.5 48t-81.5 37t-68.5 14.5q-23 0 -51.5 -7t-54.5 -29l-10.5 -10t-10.5 -5q-4 0 -8.5 4t-4.5 12q0 4 9.5 16.5t41 47l90.5 99.5l157 174l89 99l77 86l55 62t23 27q6 9 6 12q0 2 -3 2q-5 0 -43 -11l-92.5 -28
l-118.5 -36.5l-122 -36.5t-102.5 -28t-60.5 -11q-5 0 -10.5 6t-10 14.5t-7.5 17t-3 13.5q0 7 16 11q116 27 209 52l161 44.5l110.5 31.5t57.5 12q24 0 41.5 -10t17.5 -26q0 -12 -15 -36q-5 -8 -32.5 -39.5l-68.5 -76.5l-372 -414q-6 -8 -6 -11t5 -3q7 0 21.5 4.5t44.5 4.5
q33 0 82.5 -10.5t112.5 -39.5l82 -41.5t100.5 -48t109.5 -40t110 -16.5q34 0 65.5 8t60.5 28q4 2 8.5 4t9.5 2q11 0 11 -9z" />
    <glyph glyph-name="zcaron" unicode="&#x17e;" horiz-adv-x="346" 
d="M332 452q-9 -8 -22 -25t-29 -34.5t-34.5 -31.5t-38.5 -16h-8q-15 0 -30 15t-27 35.5t-20.5 40.5t-11.5 29q3 10 10 8q4 -1 11 -12t17.5 -24.5t25 -26.5t33.5 -17q19 1 38.5 11.5t36.5 23t29 23t16 10.5t4 -9zM348 17q0 -5 -6.5 -10t-14 -9.5t-13.5 -9t-6 -10.5
q0 -3 0.5 -5t1.5 -5.5t1.5 -12t0.5 -24.5q0 -18 -5 -45.5t-14.5 -59t-24 -64t-33 -60.5t-42 -47.5t-51.5 -25.5q-10 0 -21 2t-20.5 8.5t-15.5 20t-6 36.5q0 36 12.5 70t30.5 64t40 56l40 46l30.5 33t12.5 17q0 7 -6 13.5t-15 11t-18.5 7t-15.5 2.5t-15 -4.5t-17 -10
l-14.5 -10t-9.5 -4.5q1 0 -8 3.5t-9 11.5q0 3 2 7.5t8 11.5q12 14 36 39t47 53.5t40.5 56.5t17.5 48q0 8 -4.5 21.5t-18.5 15.5q-27 0 -52 -10t-44.5 -26t-31 -34.5t-11.5 -34.5q0 -5 6.5 -11t6.5 -14q0 -15 -10.5 -25.5t-29.5 -10.5q-10 0 -18.5 7.5t-8.5 21.5
q0 19 15.5 48t41.5 56t60 46.5t70 19.5q13 0 25 -2.5t21.5 -9.5t15 -19t5.5 -30q0 -6 -2.5 -21t-11.5 -36.5t-27.5 -47.5t-50.5 -54q-4 -4 -7 -7.5t-3 -6.5q0 -6 19 -9q21 -2 33.5 -7.5t19.5 -11.5t10.5 -10.5t6.5 -4.5q2 0 6 3.5l9.5 8t11.5 8t12 3.5t9 -3t5 -6q2 -4 2 -8z
M264 -65q-1 10 -7 10q-8 0 -20 -11.5t-25 -31t-26.5 -43.5t-24 -49.5t-17 -50t-6.5 -43.5q0 -11 6 -19t14 -8q6 0 23.5 15t35.5 45.5t32.5 77t14.5 108.5z" />
    <glyph glyph-name="brokenbar" unicode="&#xa6;" horiz-adv-x="229" 
d="M144 347q0 -6 -11 -6h-5l-3 1q-11 4 -15 11q-2 3 -3 6l-1 361l2.5 2.5t6.5 1.5l11 -1q5 -2 9 -5.5t6 -5.5q3 -4 3 -6v-359v0zM144 -243q0 -6 -11 -6h-5l-3 1q-11 4 -15 11q-2 3 -3 6l-1 361l2.5 2.5t6.5 1.5l11 -1q5 -2 9 -5.5t6 -5.5q3 -4 3 -6v-359v0z" />
    <glyph glyph-name="minus" unicode="&#x2212;" horiz-adv-x="380" 
d="M331 175q0 -6 -2.5 -9.5t-4.5 -5.5q-3 -3 -6 -3h-258q-3 0 -6 3q-2 2 -4 5.5t-2 11.5q1 10 7 14q3 2 5 3h258q7 0 11 -10q2 -4 2 -9z" />
    <glyph glyph-name="multiply" unicode="&#xd7;" horiz-adv-x="448" 
d="M336 162q0 -7 -8 -16q-6 -5 -13 -5q-5 0 -6 1q-1 0 -2 1l-78 78l-78 -79q-1 -1 -2 -1q-1 -1 -5 -1q-3 0 -7 1.5t-9 6.5q-4 4 -5 8t-1 6q0 3 1 4q0 1 1 2l79 79l-79 78q-1 1 -1 2q-1 1 -1 5q0 8 6 14q8 8 15 8q4 0 6 -2q1 -1 2 -1l78 -78l78 78q3 3 6 3q5 0 11 -4
q3 -2 5 -4q7 -7 7 -13q0 -2 -2 -6q-1 -2 -1 -3l-78 -77l79 -79q0 -1 1 -2q0 -1 0.5 -1.5t0.5 -2.5z" />
    <glyph glyph-name="lslash" unicode="&#x142;" horiz-adv-x="366" 
d="M466 169q0 -2 -1.5 -4.5t-3.5 -5.5q-2 -4 -4 -7q-35 -53 -62 -84.5t-47 -48t-34 -21t-23 -4.5q-43 0 -74.5 31.5t-51.5 84.5l-77 -38q0 -1 -1 -1h-3q-3 0 -7 2.5t-8 10.5q-2 8 -2 10q0 4 2 8q1 2 3 3l81 40q-13 44 -19 95t-6 105t6 110t18 101t30.5 73.5t42.5 28.5
q19 0 29.5 -18t16 -41.5t6.5 -46.5t1 -34q0 -47 -9.5 -94.5t-22 -87.5t-24.5 -70t-18 -42q-4 -8 -6 -13.5t-2 -13.5q0 -11 5 -28l102 50q1 1 4 1q5 0 11 -6q3 -3 5 -6q2 -4 2 -10q0 -3 -1 -5l-2 -4t-2 -3l-106 -52q8 -16 19 -31.5t23.5 -28t27 -20t29.5 -7.5q19 0 37.5 15.5
t35 36t29.5 42t21 33.5q3 9 11 9q7 0 13 -5t6 -9zM236 512q0 11 -1.5 25.5t-4.5 28t-8 23.5t-12 13q-5 0 -11.5 -10t-12.5 -32t-10.5 -56.5t-4.5 -83.5q0 -56 2.5 -88.5t5.5 -49t5.5 -21t3.5 -4.5q3 0 11 17t16 49t14.5 79.5t6.5 109.5z" />
    <glyph glyph-name="exclam" unicode="!" horiz-adv-x="217" 
d="M160 577v-36.5t-0.5 -76.5t-1 -97t-1 -98t-1.5 -78.5t-2 -38.5q-3 -15 -11 -19.5t-15 -4.5q-8 0 -10.5 8.5t-3.5 15.5q1 10 1.5 21t0.5 23q0 15 -1 45.5t-2.5 68l-3 78.5t-3 77t-2.5 62.5t-1 35.5q0 13 2 17q0 8 10.5 16t20.5 8q14 0 19 -6.5t5 -20.5zM178 34
q0 -11 -4.5 -21t-10.5 -17.5t-13 -11.5t-11 -4q-15 0 -22.5 6.5t-11.5 15t-4.5 16.5t-0.5 12q0 6 2.5 14t8 15.5t13 13t16.5 5.5q14 0 26 -12t12 -32z" />
    <glyph glyph-name="quotedbl" unicode="&#x22;" horiz-adv-x="212" 
d="M186 608q0 -18 -3 -37t-7 -37t-9.5 -33t-9.5 -24q-5 -3 -7 -3t-2 2q-2 4 -2 16q0 9 0.5 22t0.5 27q0 24 -2.5 49t-12.5 42q-2 3 -2 10q0 8 4 15.5t13 12.5q4 3 10 3q11 0 17 -10q7 -11 9.5 -25t2.5 -30zM95 608q0 -18 -3 -37t-7 -37t-9.5 -33t-9.5 -24q-5 -3 -7 -3t-2 2
q-2 4 -2 16q0 9 0.5 22t0.5 27q0 24 -2.5 49t-12.5 42q-2 3 -2 10q0 8 4 15.5t13 12.5q4 3 10 3q11 0 17 -10q7 -11 9.5 -25t2.5 -30z" />
    <glyph glyph-name="numbersign" unicode="#" horiz-adv-x="394" 
d="M375 375q0 -10 -20.5 -15.5t-58.5 -10.5q-1 -26 -2.5 -54.5t-4.5 -57.5q17 2 34.5 6.5t32.5 4.5q2 0 2 -1.5t1 -3.5q0 -2 1 -4q0 -14 -15 -19t-52 -10l-7 -1q-3 -23 -6 -48.5t-9 -47.5t-16 -36.5t-28 -14.5q-3 0 -3 3v2q14 63 20 138q-50 -3 -102 -3q-2 -23 -3 -48.5
t-5.5 -48t-13 -39t-24.5 -21.5l-3 -1q-3 0 -3 5q5 35 8 73t3 80h-6q-9 0 -22 0.5t-25 2t-20 3t-8 3.5q0 6 6 11t18 4q10 0 28.5 -0.5t29.5 -0.5q0 29 -1 57t-3 54h-19t-23 0.5t-19.5 1.5t-8.5 2q0 8 6 13.5t20 5.5h43q-2 31 -5 60t-7 55v1q0 4 9 4q14 -2 27.5 -8.5
t15.5 -27.5q4 -36 6 -82q26 2 52.5 4.5t53.5 5.5q-2 53 -6 95q0 3 1.5 4t8.5 1q15 -3 23.5 -8.5t13 -16t5.5 -27t1 -41.5q3 1 12 2t20.5 2.5t23 2.5t17.5 1q3 0 4.5 -4.5t1.5 -6.5zM249 343q-50 -4 -105 -6v-58v-53q49 1 102 6q3 57 3 111z" />
    <glyph glyph-name="dollar" unicode="$" horiz-adv-x="529" 
d="M495 392q0 -23 -11.5 -33.5t-26.5 -10.5t-29.5 11t-26.5 26t-20 29t-11 20q-3 11 -9 11q-1 -2 -3 -4t-5 -2q-11 0 -11 12q0 1 0.5 2.5t0.5 4.5q7 8 12 19.5t8 22.5q4 12 5 25l-49.5 30.5t-45.5 21.5l2 -239q4 -4 7 -6l58.5 -56.5t51.5 -57t37 -56.5t14 -55q0 -20 -6 -40
t-19 -36.5t-35 -27t-53 -10.5q-14 0 -27 2l-25 4l1 -131q0 -2 -2 -6q-4 -8 -16 -12q-4 -1 -9 -1q-6 0 -9.5 2t-7.5 4v157q-45 19 -81.5 51t-62 65.5t-39 63t-13.5 43.5q0 13 7.5 21t14.5 8q2 0 12.5 -8.5t22.5 -19.5t22 -22.5t10 -17.5q0 -10 -13 -10q-3 0 -9 2q-3 1 -4 0
q19 -33 54.5 -69t78.5 -61v243l-54 52t-46 52t-32 52.5t-12 53.5t13.5 46t33 31.5t40 18t34.5 5.5q5 0 11 -0.5t12 -0.5v112q0 3 3 7q3 7 15 11q8 2 10 2q5 0 7 -2t2 -3l1 -134q45 -11 85 -35.5t70.5 -54.5t48.5 -62.5t18 -59.5zM464 398q0 9 -9.5 27t-21.5 36t-23.5 31
t-16.5 13q-3 0 -3 -4q0 -15 7.5 -34.5t18 -36t22.5 -28t21 -11.5q5 0 5 7zM235 587q-5 1 -11 1h-11q-42 0 -58.5 -19.5t-16.5 -43.5q0 -33 28 -70.5t69 -77.5v210zM402 78q0 23 -10.5 46t-28 46t-40.5 46.5t-48 46.5l2 -226q31 -12 63 -12q18 0 30 5t19 13t10 17t3 18z" />
    <glyph glyph-name="percent" unicode="%" horiz-adv-x="570" 
d="M275 519q0 -30 -7 -60t-22 -57q-10 -17 -24.5 -34t-26.5 -28q-13 -8 -25 -10.5t-23 -2.5q-19 0 -35 6t-27 15q-29 26 -43 62.5t-14 77.5q0 51 20.5 99.5t58.5 80.5q12 11 27.5 16.5t30.5 5.5q29 0 47.5 -13t32.5 -30q14 -30 22 -62.5t8 -65.5zM115 10q-1 -2 -4 -5
q-6 -6 -19 -5q-11 0 -14 4.5t-3 6.5l370 654q1 2 5 5q2 2 6.5 3.5t10.5 1.5q13 0 15.5 -4t2.5 -5zM542 199q0 -30 -7 -60t-22 -57q-10 -17 -24.5 -34t-26.5 -28q-13 -8 -25 -10.5t-23 -2.5q-19 0 -35 6t-27 15q-29 26 -43 62.5t-14 77.5q0 51 20.5 99.5t58.5 80.5
q12 11 27.5 16.5t30.5 5.5q29 0 47.5 -13t32.5 -30q14 -30 22 -62.5t8 -65.5zM232 509q-7 -24 -24 -47q-2 -2 -5 -2q-2 0 -5 3v3v2q12 20 18 43t6 44q0 28 -8.5 51t-21.5 35q-15 12 -26 12q-8 0 -18 -4.5t-21 -12.5q-11 -10 -19.5 -26.5t-14.5 -37t-9.5 -43.5t-3.5 -45
q0 -35 8 -64t25 -43q17 -17 34 -17q8 0 16.5 4.5t18.5 12.5q8 7 16 20.5t15 31.5t12 38.5t7 41.5zM499 189q-7 -24 -24 -47q-2 -2 -5 -2q-2 0 -5 3v3v2q12 20 18 43t6 44q0 28 -8.5 51t-21.5 35q-15 12 -26 12q-8 0 -18 -4.5t-21 -12.5q-11 -10 -19.5 -26.5t-14.5 -37
t-9.5 -43.5t-3.5 -45q0 -35 8 -64t25 -43q17 -17 34 -17q8 0 16.5 4.5t18.5 12.5q8 7 16 20.5t15 31.5t12 38.5t7 41.5z" />
    <glyph glyph-name="ampersand" unicode="&#x26;" horiz-adv-x="544" 
d="M619 495q0 -30 -32 -51.5t-81 -36t-109 -23t-115 -13.5q-8 0 -13 8.5t-5 17.5q0 8 5 13.5t17 7.5q44 6 93 14.5t90.5 18.5t70 20t33.5 18q0 12 -19 19q-40 13 -89 13q-68 0 -130.5 -13.5t-109.5 -36.5t-75 -53t-28 -63q0 -15 12 -28.5t31 -23t41 -15t43 -5.5q31 0 76 7
t119 21h12q3 -1 6.5 -5.5t3.5 -11.5q-1 -4 -17 -9q-17 -10 -49.5 -22l-71 -25l-79 -27t-73 -29.5t-53.5 -32t-21 -33.5q0 -20 20.5 -35.5t49.5 -26.5t60 -17t52 -6q66 0 131 21t128 50q2 1 5 2q2 1 5 2t8 1q2 -1 6.5 -5t4.5 -9q0 -2 -2 -4q-3 -9 -21 -20t-46.5 -22.5
t-64.5 -22t-75 -17.5v-95q0 -6 -11 -6h-5l-3 1q-11 4 -15 11q-2 3 -3 6v77q-23 -4 -46 -6t-44 -2q-33 0 -68.5 7.5t-65 22.5t-48.5 38t-19 53q0 27 24.5 46.5t61 35.5t78.5 30t78 30h-61q-26 0 -52.5 3t-47.5 12t-34.5 26.5t-13.5 47.5q0 41 24.5 72.5t63 54t85.5 37.5
t92 24v89l2.5 2.5t6.5 1.5l11 -1q5 -2 9 -5.5t6 -5.5q3 -4 3 -6v-69q29 4 52.5 6t39.5 2q18 0 44.5 -1.5t51 -7t42.5 -15.5t18 -28z" />
    <glyph glyph-name="quotesingle" unicode="'" horiz-adv-x="121" 
d="M95 608q0 -18 -3 -37t-7 -37t-9.5 -33t-9.5 -24q-5 -3 -7 -3t-2 2q-2 4 -2 16q0 9 0.5 22t0.5 27q0 24 -2.5 49t-12.5 42q-2 3 -2 10q0 8 4 15.5t13 12.5q4 3 10 3q11 0 17 -10q7 -11 9.5 -25t2.5 -30z" />
    <glyph glyph-name="parenleft" unicode="(" horiz-adv-x="257" 
d="M216 672q0 -3 -1 -5.5t-2 -4.5q-2 -3 -3 -4q-52 -59 -82 -121.5t-45 -119t-18.5 -102.5t-3.5 -72q0 -83 15 -148t33 -110q21 -53 48 -93q1 -2 2 -5q1 -2 2 -4.5t1 -4.5q0 -4 -7 -4t-13 5q-40 39 -71 90q-27 44 -49 107t-22 145q0 4 1 29.5t6.5 64.5t17 87t33.5 96
t55.5 92.5t82.5 77.5q10 6 16 6q2 0 2 -0.5t1 -0.5q0 -1 1 -1z" />
    <glyph glyph-name="parenright" unicode=")" horiz-adv-x="268" 
d="M268 327q0 -4 -1 -29.5t-6.5 -64.5t-17 -87t-33.5 -96t-55.5 -93t-82.5 -77q-10 -6 -16 -6q-4 0 -4 1q-1 0 0 1q0 5 3 10q1 3 3 4q52 59 82 121.5t45 119t18.5 102.5t3.5 72q0 83 -15 148t-33 110q-21 53 -48 93q-2 2 -3 5q-2 6 -2 9q0 4 7 4t13 -5q39 -39 71 -90
q26 -44 48.5 -107.5t22.5 -144.5z" />
    <glyph glyph-name="asterisk" unicode="*" horiz-adv-x="317" 
d="M255 533q0 -18 -10.5 -27.5t-17.5 -9.5q-14 0 -24 2.5t-13 2.5q-13 0 -13 -5q0 -6 8.5 -12t18.5 -11.5l18.5 -10.5t8.5 -8t-1.5 -9t-3.5 -12.5t-5.5 -11t-8.5 -4.5q-6 0 -12 6.5t-11 14.5q-6 10 -11 22q-7 13 -10 16t-4 3h-1q-7 -19 -10.5 -32t-6.5 -21t-7.5 -12.5
t-13.5 -5.5h-7q-13 0 -15 3t-2 5q0 4 3.5 10t7.5 11l7.5 9t2.5 4q15 17 19.5 23t4.5 8q-3 3 -4 3h-3q-8 -2 -15.5 -4.5t-14.5 -5.5q-8 -4 -15 -7q-12 -8 -18 -9.5t-8 -2.5q-6 0 -8 7q-1 3 -1 7q0 11 5 16.5t12 8.5q7 4 17 4q19 1 28.5 2t11.5 1q4 0 4 3q0 6 -6.5 13
t-14 13.5t-14 13.5t-6.5 13q0 5 2 8.5t4 7.5q3 4 7 8q4 6 8 6q6 0 10.5 -7.5t8 -16.5t5.5 -16.5l2 -7.5q4 -11 7 -16t5 -7q2 -3 3 -2q2 2 4 8.5l4 12.5q2 7 2 15q1 16 6.5 25.5t11.5 14.5t11.5 6t7.5 1q11 0 13.5 -4.5t2.5 -6.5q-2 -7 -9 -16q-4 -4 -8 -9q-18 -27 -22 -35.5
t-4 -9.5t2 -1q7 0 17 4.5t19.5 10.5t18 10.5t13.5 4.5t6 -3.5t1 -8.5z" />
    <glyph glyph-name="plus" unicode="+" horiz-adv-x="448" 
d="M371 246q0 -6 -2.5 -9.5t-4.5 -5.5q-3 -3 -6 -3h-110v-111q0 -3 -3 -6q-6 -6 -17 -6q-11 1 -15 7q-2 3 -2 6v110h-111q-3 0 -6 3q-2 2 -4 5.5t-2 11.5q1 10 7 14q3 2 5 3h111v111q0 3 2 6q4 6 15 6q8 0 11.5 -2t5.5 -4q2 -3 3 -6v-111h110q7 0 11 -10q2 -4 2 -9z" />
    <glyph glyph-name="comma" unicode="," horiz-adv-x="199" 
d="M174 51q-1 -34 -7 -60q-5 -23 -17 -41t-34 -18q-4 0 -5 4l1 3q6 7 10 16q4 7 7.5 15.5t3.5 16.5q0 23 -17 26q-11 2 -15 11t-4 19q0 13 5 25t12.5 20t16 13t15.5 5q8 -1 14 -7q5 -5 9.5 -16.5t4.5 -31.5z" />
    <glyph glyph-name="hyphen" unicode="-" horiz-adv-x="467" 
d="M421 162q0 -6 -2.5 -9.5t-4.5 -5.5q-3 -3 -6 -3h-258q-3 0 -6 3q-2 2 -4 5.5t-2 11.5q1 10 7 14q3 2 5 3h258q7 0 11 -10q2 -4 2 -9z" />
    <glyph glyph-name="period" unicode="." horiz-adv-x="176" 
d="M148 34q0 -11 -4.5 -21t-10.5 -17.5t-13 -11.5t-11 -4q-15 0 -22.5 6.5t-11.5 15t-4.5 16.5t-0.5 12q0 6 2.5 14t8 15.5t13 13t16.5 5.5q14 0 26 -12t12 -32z" />
    <glyph glyph-name="slash" unicode="/" horiz-adv-x="279" 
d="M-13 -200q-1 -2 -4 -5q-6 -6 -19 -5q-11 0 -14 4.5t-3 6.5l316 884q1 2 5 5q2 2 6.5 3.5t10.5 1.5q13 0 15.5 -4t2.5 -5z" />
    <glyph glyph-name="zero" unicode="0" horiz-adv-x="488" 
d="M458 305q0 -53 -12.5 -104t-38.5 -98q-17 -31 -42.5 -60.5t-46.5 -47.5q-22 -14 -42.5 -18.5t-40.5 -4.5q-32 0 -60 10t-47 26q-51 44 -74.5 108t-23.5 136q0 43 9 87t26 84.5t42.5 76.5t58.5 64q21 18 48 27.5t53 9.5q50 0 82.5 -23t55.5 -52q26 -52 39.5 -108
t13.5 -113zM401 292q-8 -25 -19.5 -48t-28.5 -44q-4 -4 -10 -4q-8 0 -10 5q-1 2 -1 7v3q26 41 37.5 85.5t11.5 86.5q0 55 -17 101t-44 69q-27 22 -50 22q-17 0 -35.5 -8.5t-40.5 -24.5q-22 -20 -39 -52.5t-29 -72.5t-18.5 -85t-6.5 -90q0 -68 16 -125t48 -85
q17 -15 33.5 -24t34.5 -9q17 0 33.5 8.5t35.5 24.5q16 14 32 41t29 62t23 75.5t15 81.5z" />
    <glyph glyph-name="one" unicode="1" horiz-adv-x="274" 
d="M217 620q-1 -20 -3 -69t-3.5 -113t-3 -135.5t-2.5 -135t-1 -112t1 -66.5q-4 -6 -12 -13.5t-17.5 -13.5t-18.5 -7.5t-15 5.5q1 27 3 70.5t3.5 95l3 107.5l3 107t2 93t1.5 67q-12 -15 -28.5 -33.5l-32 -36.5l-29.5 -34.5t-21 -27.5q-9 -4 -15.5 -0.5t-9.5 10.5
q-2 5 -3 10.5t4 10.5q21 29 45 55l46 51.5t40.5 51.5t29.5 55q2 13 12 18q14 6 21 -10z" />
    <glyph glyph-name="two" unicode="2" horiz-adv-x="416" 
d="M382 142q0 -43 -15 -69t-32 -40q-21 -17 -47 -24q-29 -6 -68 -6q-19 0 -47.5 2.5t-47.5 5.5t-33 6t-34 3q-1 0 -8 -4.5t-17 -9.5t-21 -9.5t-18 -4.5q-10 0 -10 9q0 3 3 7q65 50 125.5 108t107 117t75 116t28.5 105q0 24 -8.5 47t-22.5 41t-32.5 30t-39.5 15
q-26 0 -50.5 -10t-43.5 -31t-30.5 -53t-11.5 -77q0 -2 0.5 -10t4 -17t10.5 -16t21 -7q9 0 23.5 5t32 15.5t36.5 26.5t37 39q8 11 14.5 15.5t11.5 4.5q7 0 7 -12q0 -16 -9 -25q-3 -5 -19.5 -23t-41 -37.5t-53.5 -35t-56 -15.5q-25 0 -38.5 8t-20 19.5t-7.5 23.5t-1 21
q0 48 13.5 89t38.5 71.5t59 48t76 17.5q40 0 70 -14t49 -37.5t28.5 -53.5t9.5 -62q0 -38 -21 -83t-55 -91.5t-75.5 -91.5t-81.5 -83l-28 -26q15 -5 32 -9t33.5 -6.5t31 -3.5t24.5 -1q78 0 119 83q8 14 14 14q5 0 7 -5.5t2 -9.5z" />
    <glyph glyph-name="three" unicode="3" horiz-adv-x="415" 
d="M380 240q0 -53 -30.5 -99.5t-76.5 -81.5t-101 -55.5t-103 -20.5q-9 2 -22 3.5t-24 7t-19 17t-8 32.5q0 28 17.5 55.5t40.5 50.5t45.5 41t31.5 26q9 6 21 6q4 0 10.5 -2t6.5 -12q0 -8 -16 -17q-60 -34 -83 -69.5t-23 -61.5q0 -20 17 -28t42 -8q23 0 59 13t69.5 38.5
t58 64.5t24.5 91q0 46 -14 73t-34 41.5t-42.5 19t-40.5 4.5q-7 0 -12.5 -0.5t-9.5 -0.5q-4 -1 -8 -1q-5 0 -7.5 3.5l-4.5 6.5q0 1 3 4q73 33 101.5 67.5t28.5 62.5q0 14 -6.5 25.5t-17.5 20t-25 13t-29 4.5q-30 0 -49.5 -21.5t-19.5 -62.5q0 -7 1.5 -17t7.5 -26q0 -7 -11 -8
q-10 -2 -13.5 -0.5t-4.5 3.5q-3 5 -6 14q-2 8 -4 19.5t-2 28.5q0 22 10.5 40.5t27.5 32.5t38.5 22t44.5 8q39 0 63 -12.5t36.5 -28t16.5 -29t4 -15.5q0 -45 -27 -72t-88 -52q48 -5 78.5 -20t48 -36.5t23.5 -48t6 -53.5z" />
    <glyph glyph-name="four" unicode="4" horiz-adv-x="530" 
d="M556 187q0 -10 -6 -26q-2 -5 -4.5 -8.5t-5.5 -3.5l-18 9q-30 15 -75.5 32.5t-104.5 22.5q-3 -16 -5.5 -37t-4.5 -44t-3 -47.5t-1 -46.5v-35q0 -7 -12 -12.5t-29 -5.5q-10 0 -11 1q1 21 2 52.5t3.5 65t6.5 65.5t12 54q-26 5 -52.5 9.5t-52.5 6.5q-12 -20 -30 -35
q-15 -13 -36.5 -23.5t-49.5 -10.5q-13 0 -29 1.5t-30.5 8t-24 19t-9.5 33.5q0 7 3 15q6 17 16 26.5t24.5 14t34 5.5t44.5 1q14 0 26 -0.5t21 -1.5q11 -1 19 -1q3 0 10.5 11.5t17.5 30t21 42.5t20 49l18.5 53.5t19.5 61.5l15.5 52.5t7.5 27.5q4 6 7.5 7t8.5 1t12 -4.5t7 -9.5
q-1 -4 -8 -27l-16 -53t-19.5 -61.5l-17.5 -52.5q-7 -18 -16 -39l-17.5 -39.5t-15.5 -31.5t-10 -16q0 -3 4 -4q6 -2 30 -1.5t73 -8.5q16 29 34 55t38 49q5 0 7.5 -2t2.5 -10q-15 -26 -26.5 -50.5t-21.5 -48.5q23 -5 49 -13t57 -19q17 -6 33.5 -13t33.5 -15l1 -1l2 -1
q8 -4 14 -8.5t6 -14.5zM68 250q-17 1 -29 -3t-12 -14q5 -19 23 -24t32 -5t26.5 5.5t22 12.5t15 14t5.5 9z" />
    <glyph glyph-name="five" unicode="5" horiz-adv-x="383" 
d="M402 587q0 -25 -10.5 -40t-27.5 -22.5t-39 -9.5t-45 -2q-25 0 -56.5 2t-58.5 5t-45 5.5t-15 4.5q-2 -8 -3.5 -20l-3 -25t-2.5 -25t-1 -20q0 -20 5 -20h25q49 0 92.5 -5t76 -22t51 -49.5t18.5 -87.5q0 -53 -28 -99.5t-70 -81.5t-91.5 -55.5t-93.5 -20.5q-14 0 -23.5 5.5
t-15.5 14.5t-8.5 20t-2.5 21q0 15 4.5 26t10.5 11q8 0 15 -21q0 -20 15.5 -28t38.5 -8q21 0 53.5 13t63 38.5t52.5 64.5t22 91q0 16 -5.5 37.5t-23 40.5t-51.5 32t-91 13h-13q-11 0 -19.5 -1t-26.5 -6q-11 0 -17.5 2.5t-6.5 17.5q0 18 0.5 46.5t2 58t5 55.5t9.5 40
q2 5 5.5 10t11.5 5q15 -5 45 -10t61.5 -9t58.5 -6.5t37 -2.5q29 0 53 2t39 16q7 7 9.5 10.5t4.5 3.5q5 0 7 -5.5t2 -9.5z" />
    <glyph glyph-name="six" unicode="6" horiz-adv-x="431" 
d="M388 221q0 -48 -15 -92.5t-41.5 -79.5t-62 -56t-77.5 -21q-41 0 -70.5 14t-48.5 37t-28.5 53.5t-9.5 62.5q0 34 13 76t35 85.5t51.5 87t62 82t65.5 68.5t64 47q3 1 8 1q15 0 15 -13q0 -6 -4 -10q-67 -48 -113 -104.5t-74.5 -113.5t-41 -110t-12.5 -95q0 -24 6.5 -47
t18.5 -41t28.5 -30t37.5 -15q26 0 52 13.5t46.5 39t33.5 61t13 80.5q0 2 -0.5 10t-4 17t-11 16t-20.5 7q-9 0 -23.5 -5t-32 -15.5t-36.5 -26.5t-37 -39q-8 -11 -14.5 -15.5t-11.5 -4.5q-7 0 -7 12q0 16 9 25q3 5 19.5 23t41 37.5t53.5 35t56 15.5q25 0 38.5 -8t20 -19.5
t7.5 -23.5t1 -21z" />
    <glyph glyph-name="seven" unicode="7" horiz-adv-x="436" 
d="M513 556q0 -20 -21 -35t-54 -25t-72.5 -16.5t-76.5 -10.5q-5 -7 -12 -23l-15.5 -37t-16.5 -44.5t-14 -46.5q-2 -4 -2.5 -8.5t-2.5 -9.5q16 3 31.5 5t30.5 2q16 0 31 -2.5t15 -17.5q0 -8 -6 -12.5t-13 -6.5q-9 -3 -19 -3q-11 6 -36 6q-10 0 -20 -1t-21 -4l-17.5 -78
l-18 -82t-14 -67.5t-6.5 -32.5q0 -8 -3 -13q-2 -5 -6 -9t-12 -4q-10 0 -13 6t-3 13v6q0 2 1 3q0 4 5.5 30.5l13.5 63.5l17 79l17 77q-28 -9 -56 -25q-19 -11 -27 -11q-14 0 -14 10q0 8 8 16t14 10q5 3 27.5 13t54.5 20q2 8 4.5 16t4.5 13q5 16 12.5 38l15.5 43.5l15 39
t11 25.5q-26 -1 -41 -2t-25 -1.5t-17.5 -0.5h-19.5q-14 0 -46 2.5t-97 10.5q-11 5 -18.5 9.5t-7.5 18.5q0 3 1 11t3.5 16t6.5 14t11 5q30 -7 65.5 -14t72 -11.5t73 -7t69.5 -0.5q21 27 48 49q23 19 55.5 34.5t73.5 15.5q29 0 42.5 -19.5t13.5 -39.5zM469 559
q0 11 -13.5 15.5t-30.5 4.5q-14 0 -28.5 -8t-28 -18t-23 -19.5l-12.5 -12.5q22 2 45 5t42.5 7.5t32.5 10.5t16 14v1z" />
    <glyph glyph-name="eight" unicode="8" horiz-adv-x="396" 
d="M373 206q-2 -44 -21.5 -84t-50.5 -70.5t-71 -49t-84 -18.5q-17 0 -39 4.5t-41.5 18t-33 38.5t-12.5 65q0 10 3.5 31t16.5 45.5t37.5 50t66.5 45.5q10 5 29 5q9 -4 9 -12v-2q0 -3 -6.5 -8.5t-18.5 -10.5q-13 -3 -28 -13.5t-27.5 -27.5t-21 -41t-8.5 -55q0 -45 20.5 -71.5
t59.5 -26.5q22 0 51.5 12.5t56 34.5t44.5 52.5t18 67.5q0 31 -19.5 53.5t-48.5 39.5t-63 31t-63 29.5t-48.5 34t-19.5 45.5v6q0 43 24 78.5t57.5 61.5t70 41t61.5 17q22 0 35.5 -6.5t20.5 -17.5t9 -27t2 -34q-3 -29 -16 -62t-28 -61t-28 -47t-16 -20l-1 -9v-3q0 -1 1 -2
q35 -11 62 -29q23 -15 42 -39.5t17 -59.5zM287 496q0 8 -1.5 21t-8 25t-18.5 21t-33 8q-14 0 -33 -8.5t-36 -23.5t-29 -36t-12 -46v-1q0 -11 3 -24.5t13.5 -27t30 -26.5t52.5 -25q4 -2 7 -2q2 0 3.5 1t3.5 2t3 2q1 2 9.5 14t18.5 30.5t18.5 41t8.5 46.5v8z" />
    <glyph glyph-name="nine" unicode="9" horiz-adv-x="392" 
d="M374 440q1 -35 -9.5 -77t-29 -86t-43.5 -88t-53.5 -82.5t-58.5 -70t-58 -50.5l-8 -2q-14 0 -16 12q0 5 3 10q57 50 96 105t63 109t34.5 105.5t10.5 93.5q0 26 -6 53t-19 49.5t-32 37t-46 14.5q-24 -2 -46.5 -21.5t-40 -49.5t-28 -68.5t-10.5 -79.5q0 -9 1 -21.5t5 -23.5
t12.5 -18.5t22.5 -7.5q9 0 23 6t30.5 18t34.5 30.5t33 42.5q8 12 13.5 16.5t10.5 5.5q8 0 8 -11q0 -7 -1 -11.5t-2 -7.5q-2 -4 -3 -7q-3 -5 -18 -25t-37.5 -41.5t-50 -39.5t-54.5 -19q-26 -1 -40.5 7.5t-22 22.5t-9.5 30.5t-2 31.5q0 51 13.5 100.5t38.5 88.5t60 63.5
t78 24.5q36 0 64 -13t47.5 -35.5t30 -53.5t11.5 -67z" />
    <glyph glyph-name="colon" unicode=":" horiz-adv-x="182" 
d="M154 268q0 -11 -4.5 -21t-10.5 -17.5t-13 -11.5t-11 -4q-15 0 -22.5 6.5t-11.5 15t-4.5 16.5t-0.5 12q0 6 2.5 14t8 15.5t13 13t16.5 5.5q14 0 26 -12t12 -32zM154 34q0 -11 -4.5 -21t-10.5 -17.5t-13 -11.5t-11 -4q-15 0 -22.5 6.5t-11.5 15t-4.5 16.5t-0.5 12
q0 6 2.5 14t8 15.5t13 13t16.5 5.5q14 0 26 -12t12 -32z" />
    <glyph glyph-name="semicolon" unicode=";" horiz-adv-x="246" 
d="M218 268q0 -11 -4.5 -21t-10.5 -17.5t-13 -11.5t-11 -4q-15 0 -22.5 6.5t-11.5 15t-4.5 16.5t-0.5 12q0 6 2.5 14t8 15.5t13 13t16.5 5.5q14 0 26 -12t12 -32zM217 51q-1 -34 -7 -60q-5 -23 -17 -41t-34 -18q-4 0 -5 4l1 3q6 7 10 16q4 7 7.5 15.5t3.5 16.5q0 23 -17 26
q-11 2 -15 11t-4 19q0 13 5 25t12.5 20t16 13t15.5 5q8 -1 14 -7q5 -5 9.5 -16.5t4.5 -31.5z" />
    <glyph glyph-name="less" unicode="&#x3c;" horiz-adv-x="286" 
d="M259 64q0 -1 -7.5 -5t-20.5 -4q-3 0 -20 10t-40.5 25.5l-50.5 34.5l-49.5 36t-37.5 30t-14 17q0 7 7 13.5t27.5 20.5l58 40.5t97.5 75.5q1 2 5 5q2 2 6.5 3.5t10.5 1.5q13 0 20.5 -4t7.5 -5l-179 -151l179 -144v0z" />
    <glyph glyph-name="equal" unicode="=" horiz-adv-x="337" 
d="M309 206q0 -6 -2.5 -9.5t-4.5 -5.5q-3 -3 -6 -3h-258q-3 0 -6 3q-2 2 -4 5.5t-2 11.5q1 10 7 14q3 2 5 3h258q7 0 11 -10q2 -4 2 -9zM308 122q0 -6 -2.5 -9.5t-4.5 -5.5q-3 -3 -6 -3h-258q-3 0 -6 3q-2 2 -4 5.5t-2 11.5q1 10 7 14q3 2 5 3h258q7 0 11 -10q2 -4 2 -9z
" />
    <glyph glyph-name="greater" unicode="&#x3e;" horiz-adv-x="286" 
d="M265 208q1 -4 -14 -17t-37.5 -30l-49.5 -36l-50.5 -34.5t-40.5 -25.5t-20 -10q-13 0 -20.5 4t-7.5 5l179 144l-179 151q0 1 7.5 5t20.5 4q6 0 10 -1.5t7 -3.5l5 -5q60 -49 97.5 -75.5l58 -40.5t27.5 -20.5t7 -13.5z" />
    <glyph glyph-name="question" unicode="?" horiz-adv-x="356" 
d="M347 482q0 -23 -13 -47t-33 -48.5t-42.5 -49.5t-42.5 -50t-33 -50t-13 -49q0 -12 3 -21.5t7 -17.5q0 -4 -6 -5q-11 3 -19 10q-8 6 -13.5 17t-5.5 29q0 20 12 43t29.5 47t38 48.5t38 48.5t29.5 47t12 43q0 50 -23.5 82.5t-80.5 32.5q-15 0 -32.5 -8t-33 -24t-26 -39
t-10.5 -53q0 -22 6 -33t23 -11q11 0 27.5 9.5t39.5 35.5q4 4 7 4q5 0 5 -8q0 -18 -11.5 -32.5t-27 -24t-30.5 -15t-22 -5.5q-24 0 -38.5 20.5t-14.5 45.5q0 51 17.5 86.5t43 58t54 33t49.5 10.5q27 0 50.5 -10.5t41 -31t28 -50t10.5 -68.5zM217 46q0 -11 -4.5 -21
t-10.5 -17.5t-13 -11.5t-11 -4q-15 0 -22.5 6.5t-11.5 15t-4.5 16.5t-0.5 12q0 6 2.5 14t8 15.5t13 13t16.5 5.5q14 0 26 -12t12 -32z" />
    <glyph glyph-name="at" unicode="@" horiz-adv-x="722" 
d="M701 182q0 -65 -18 -105.5t-43.5 -63t-53 -30.5t-45.5 -8t-36 8.5t-32 21.5t-23 29t-9 31v6q0 5 -4 5q-2 0 -3 -3q-3 -5 -19 -19.5t-39 -30t-50.5 -28t-52.5 -12.5q-28 0 -43 8t-22 19.5t-8 23.5t-1 21q0 30 21.5 68t56 71.5t79 56.5t90.5 23q21 0 40.5 -10t19.5 -33
q0 -20 -13 -40.5t-34 -40t-47 -37t-51 -32t-47 -25t-35 -14.5q-6 -2 -6 -6t5.5 -7.5t13.5 -3.5q5 0 8 1q8 2 23 7t33.5 15t39 25t39.5 38q9 11 16 15.5t12 4.5q6 0 9 -4.5t5 -10t2.5 -10.5t0.5 -6q0 -3 3 -16.5t10.5 -28t20.5 -26.5t33 -12q22 0 42 7.5t35.5 26.5t24.5 51
t9 80q0 70 -26.5 116.5t-66.5 74.5t-87 39t-89 11q-32 0 -80 -15t-92.5 -50.5t-76 -94t-31.5 -146.5q0 -58 16 -101.5t41.5 -74t57.5 -50t64.5 -31t62.5 -15.5t52 -4q42 0 75.5 9.5t56.5 21.5q27 14 48 32q4 3 8 3q6 0 7 -4.5t1 -6.5q0 -11 -8 -19q-10 -11 -27.5 -23.5
t-43 -23t-60 -17t-77.5 -6.5q-29 0 -63.5 5.5t-70 19t-69 36t-59.5 56.5t-41.5 80.5t-15.5 107.5t16.5 110.5t43.5 88t62 66t72 45.5t72.5 26.5t64.5 8.5q43 0 96.5 -12t100 -42.5t78 -84t31.5 -136.5zM458 212q0 14 -8 21.5t-35 7.5q-21 0 -49 -15.5t-53.5 -39.5t-43 -53.5
t-17.5 -57.5q0 -11 6 -11q3 0 19 7t38 18t47 26.5t46.5 31.5t35.5 33t14 32z" />
    <glyph glyph-name="A" unicode="A" horiz-adv-x="608" 
d="M657 -20q0 -8 -4 -12.5t-10 -6.5t-13.5 -2.5t-14.5 -0.5q-30 0 -57 14.5t-48 33.5t-35.5 38.5t-19.5 29.5q-5 11 -9.5 14.5t-7.5 3.5q-4 0 -7.5 -5.5t-14.5 -19.5q-27 -33 -56 -54t-57.5 -33t-56 -16t-49.5 -4q-60 0 -102.5 24.5t-69.5 63t-39.5 84.5t-12.5 89
q0 103 35 187t92.5 144t132 92.5t153.5 32.5q24 0 59.5 -6t68.5 -24t56 -51.5t23 -87.5q0 -17 -5 -39t-14 -45t-22.5 -46t-31.5 -42q0 -36 -5 -64t-11.5 -48.5t-12.5 -33.5t-9 -17q-5 -6 -5 -19q0 -14 15.5 -41.5t40 -54.5t55 -47.5t60.5 -20.5q9 0 9 -10zM492 344
q-3 47 -8.5 64t-15.5 17q-8 0 -14 -13t-11 -32.5t-7.5 -41t-2.5 -37.5q19 9 33.5 20.5t25.5 22.5zM491 308q-2 -2 -10 -7.5t-18 -11.5l-26 -16q6 -29 9 -45t5 -24t4.5 -10t7.5 -2t9.5 13.5t8 32t6 38.5t4.5 32zM553 472q0 30 -11 61t-33.5 55.5t-56.5 40.5t-79 16
q-85 0 -151 -36t-111.5 -92t-69 -125t-23.5 -135q0 -63 19.5 -112t50 -82.5t67.5 -51t72 -17.5q40 0 72 14.5t56 33.5t40 37.5t22 27.5q7 7 9 14t2 11t-4 14.5t-8.5 26.5t-8 37t-3.5 46q-22 -8 -41 -14l-33.5 -9.5t-24.5 -4.5q-6 0 -10.5 2t-4.5 8q0 9 11 15q4 3 11 3
q17 4 28.5 7t21 7l19 8t22.5 10q1 16 4 44t11 55t22 47t37 20q14 0 25 -18.5t15 -60.5q17 24 26.5 45.5t9.5 51.5z" />
    <glyph glyph-name="B" unicode="B" horiz-adv-x="571" 
d="M567 293q0 -42 -15.5 -83t-41 -78t-59 -68t-69.5 -53.5t-72 -35t-67 -12.5q-32 0 -44 11.5t-12 24.5q0 17 14.5 34t39 30.5t57 22t67.5 8.5q1 0 5.5 -1.5t9.5 -4t9 -6t4 -7.5t-15 -8l-23.5 -5t-51 -13.5t-50.5 -21t-23 -27.5q0 -3 3 -6.5t13 -3.5q34 0 81.5 20t90.5 56
t73.5 87t30.5 113q0 36 -14.5 65.5t-38 51t-53 33t-59.5 11.5q-3 0 -8.5 -3t-10.5 -12l-17.5 -25.5t-33 -39.5t-42.5 -36t-44 -16q-20 0 -28 10t-8 19q0 20 14.5 40.5t37.5 38t51 31.5t55 21q3 1 7 4q3 2 6 5t5 8q8 19 14 37q5 16 9.5 35t4.5 38q0 10 -4 25t-13 28
t-23.5 22.5t-34.5 9.5q-15 0 -33 -6.5t-39 -21.5q-50 -37 -80 -80t-46 -89t-21 -94t-5 -95q0 -26 1 -52.5t3.5 -52t6.5 -48t10 -40.5q5 -17 11 -29q5 -11 11.5 -19.5t14.5 -8.5q1 0 4 2t6 11.5t5 30.5t2 60v74.5t-2.5 86.5t-8.5 87t-17 77q-2 2 -3 5q-2 6 -2 10q0 5 3.5 8
t8.5 3t9 -5t7 -19q2 -8 6.5 -35t9.5 -66.5t9 -89.5t4 -102q0 -31 -1.5 -66.5t-7.5 -66t-17.5 -50.5t-31.5 -20q-10 0 -24.5 16t-28 46t-23 73t-9.5 97q0 87 18 178t55 165.5t92.5 122t130.5 47.5q43 0 65 -32t22 -76q0 -21 -6 -44t-13 -43q-9 -23 -19 -45q0 -5 13 -7
q6 -1 14 -1q47 0 79.5 -15.5t52.5 -39.5t28.5 -54.5t8.5 -60.5zM303 414q0 5 -7 5q-28 -12 -49 -25q-19 -11 -34 -26.5t-15 -31.5q0 -2 1.5 -7.5t8.5 -5.5q10 0 26 11.5t31.5 27t26.5 30.5t11 22z" />
    <glyph glyph-name="C" unicode="C" horiz-adv-x="588" 
d="M613 41q0 -8 -6.5 -20t-16.5 -19l-18.5 -12.5t-43.5 -22.5t-66.5 -21.5t-86.5 -9.5q-96 0 -175.5 34t-135.5 91t-87 132.5t-31 159.5q0 73 24.5 143t67 125t99 88.5t121.5 33.5q60 0 112 -20.5t89.5 -53.5t59 -75t21.5 -84q0 -23 -9.5 -32t-23.5 -9q-15 0 -34.5 8.5
t-37.5 21.5t-32.5 27t-20.5 26q-4 8 -7 10t-5 2q-5 0 -7.5 -7.5t-12.5 -7.5q-11 0 -11 13q0 14 7 38.5t7 48.5q0 14 -4 26.5t-14.5 22t-28 15t-45.5 5.5q-49 0 -96.5 -23.5t-85 -66.5t-60.5 -104.5t-23 -136.5q0 -72 29 -145.5t82.5 -133t128.5 -97t168 -37.5q52 0 87.5 12
t58 26t34.5 26t18 12q4 0 5.5 -1.5l3.5 -3.5l2 -4v0zM506 526q0 13 -15.5 38t-35.5 49.5t-40.5 42.5t-29.5 18q-2 0 -2 -3q0 -2 10.5 -26t27 -52t37 -51t40.5 -23q8 0 8 7z" />
    <glyph glyph-name="D" unicode="D" horiz-adv-x="588" 
d="M681 202q0 -7 -9.5 -12l-16.5 -9q-21 -13 -61 -18.5t-88 -5.5q-3 0 -7.5 -1.5t-7.5 -8.5q-13 -35 -39 -61q-22 -23 -58 -41.5t-91 -18.5q-34 0 -63 7t-51 16q-26 11 -47 24q-7 0 -7 -14v-17q0 -18 -1.5 -44.5t-3.5 -52t-4.5 -46t-4.5 -26.5q-2 -7 -3.5 -15t-5.5 -14.5
t-11 -11t-20 -4.5q-17 0 -31 28.5t-24.5 72.5t-16 97.5t-5.5 103.5q0 7 0.5 23t3 32.5t7.5 29t15 12.5q8 0 18 -9t15 -15q1 -3 7.5 -8.5l13.5 -11.5t13 -10.5t7 -4.5q2 0 3.5 17.5t2 40l1 43.5t0.5 29q0 3 -1.5 7.5t-6.5 9.5q-39 32 -72.5 68t-58.5 74t-39.5 76.5
t-14.5 74.5v1q0 32 15 54.5t36 37t43.5 21t38.5 6.5q48 0 101.5 -20t105 -55t98.5 -81t82.5 -99t56.5 -109t21 -110q0 -8 -1 -16t-1.5 -16.5t-2.5 -16.5q0 -12 16 -12q9 0 25.5 1t36 3t38.5 5t33 8q1 0 3 1q4 2 6 2q5 0 6.5 -2t3.5 -4q1 -3 2 -5zM482 243q0 59 -22 116
t-58 107.5t-81.5 93t-92.5 73.5t-92 48t-79 17q-27 0 -44 -7.5t-26.5 -19.5t-13 -25.5t-3.5 -25.5q0 -22 9.5 -46.5t23.5 -48.5t30.5 -46.5t31 -39.5t24.5 -27.5l11 -11.5q4 -4 6 -4t2.5 3.5t0.5 8.5q0 3 -0.5 19.5t-0.5 39.5t-0.5 50.5t-0.5 52.5t4.5 34.5t9.5 9.5h7
q6 0 10 -16.5t6 -41.5t2.5 -55t0.5 -58v-73q0 -12 3 -15q2 -2 4 -3q59 -50 116 -78.5t103 -44.5q54 -18 102 -25q6 0 6 8q1 9 1 16.5v14.5zM460 156q0 2 -5 4t-10 3q-7 1 -15 2q-54 6 -101.5 23.5t-84.5 36.5q-43 22 -81 49q-8 5 -12 5q-3 0 -4.5 -11.5t-3 -29.5t-2 -40
t-0.5 -42q0 -21 22.5 -37t54 -27t64.5 -16.5t53 -5.5q28 0 51 11t39.5 26t25.5 29.5t9 19.5zM106 80q0 8 -1 12t-3 6q-2 3 -5 3q-7 4 -15.5 11l-16.5 14t-14.5 12t-8.5 5q-6 0 -6 -10q0 -21 2.5 -49t6.5 -57.5t9 -58t10.5 -51t10.5 -36.5t9 -14q5 0 7.5 6.5t3.5 11.5l11 195
v0z" />
    <glyph glyph-name="E" unicode="E" horiz-adv-x="530" 
d="M580 170q0 -10 -18 -30t-48 -43t-68.5 -47.5t-79 -44.5t-80 -32.5t-71.5 -12.5q-37 0 -67.5 7t-52.5 23t-34.5 40.5t-12.5 59.5q0 18 7 46t24 61t45 69t71 71q16 13 16 16q0 1 -2 1q-3 0 -11 -2.5t-16.5 -6t-16 -7t-10.5 -4.5l-12.5 -4t-23 -6.5t-30 -6.5t-33.5 -3
q-36 0 -53 23t-22 52q-4 0 -24 -6l-50 -15l-67.5 -19.5t-77 -19.5t-78.5 -15t-71 -6q-6 2 -18.5 5.5t-25 8t-22 9.5t-9.5 10q0 2 3 4t12 2q21 0 54.5 4.5t74 11.5t85 16.5t85.5 19.5t76 20.5t58 20.5q23 46 57 84t73.5 67.5t81.5 51.5t81.5 36t73 21t55.5 7q26 0 41 -7.5
t15 -24.5q0 -23 -18.5 -47t-49 -47.5t-69.5 -45.5t-79 -41q-95 -46 -216 -88q1 -13 10 -24q8 -9 24 -16.5t46 -7.5q21 0 41 4t47 15t64 30t90 49q4 2 6.5 3t4.5 1q4 0 9 -4t5 -9q0 -7 -13 -14l-33 -22.5t-52 -37.5t-59.5 -49t-56 -57.5t-42 -64.5t-16.5 -69q0 -23 7 -45.5
t22 -39.5t37.5 -27.5t54.5 -10.5q47 0 90.5 13.5t83 36.5t76.5 52.5t72 61.5q1 2 4 5q2 2 4.5 3.5t6.5 1.5q5 0 10 -4t5 -10zM421 665q0 12 -24 12q-40 0 -82 -13.5t-81 -34t-73.5 -45t-60.5 -48t-41 -42t-15 -26.5q0 -5 6 -5t12 3q4 1 7 3q13 4 43.5 17l70 31t81.5 39.5
t77 42t57.5 38t22.5 28.5z" />
    <glyph glyph-name="F" unicode="F" horiz-adv-x="399" 
d="M590 501q0 -11 -5.5 -21.5t-16.5 -14.5q-5 -2 -27 -8l-51.5 -14.5l-62.5 -17.5l-61.5 -16.5l-48 -13t-21.5 -5.5q-8 -2 -9.5 -9t-1.5 -15q0 -2 1.5 -17.5l3.5 -38t4 -49.5l4 -53t3.5 -49t1.5 -36q0 -16 -3.5 -44.5t-14 -56.5t-30 -48.5t-52.5 -20.5q-35 0 -70.5 21.5
t-69.5 47l-65 47t-58 21.5q-6 0 -8.5 -3t-4 -7t-4 -7.5t-8.5 -3.5q-16 0 -16 16q0 5 2.5 15.5t8.5 21t16.5 18t27.5 7.5q31 0 64.5 -22t68 -48t68.5 -48t66 -22q8 0 17 3t16.5 12.5t12.5 27t5 46.5q0 34 -2.5 78t-5.5 84t-5.5 68.5t-3.5 31.5q-2 5 -2.5 10t-6.5 5
q-2 0 -8 -2l-24.5 -8l-54.5 -17.5t-74.5 -25l-84.5 -30.5q-57 -21 -104 -41l-82 -35l-56.5 -24.5t-26.5 -9.5q-8 0 -12 6t-4 22q0 26 25 35q4 1 23 9.5l47.5 21.5l65 28.5t76.5 30.5q42 16 85.5 31l81.5 27.5l67.5 21.5t44.5 14q5 2 11.5 3.5t6.5 17.5q0 8 1 29.5t2.5 46
t3.5 45.5t3 29q0 7 -4 7q-5 0 -28 -7.5l-55.5 -18l-72.5 -23.5t-80.5 -23.5t-77.5 -18t-65 -7.5q-6 0 -13 2.5t-13.5 8t-11 13t-4.5 16.5q0 6 5.5 10.5t19.5 6.5l32.5 6.5t67.5 14.5l87.5 20l92 22t80.5 21t54 18q3 0 7 3q7 5 12 15q3 6 19.5 25.5t42.5 41t58.5 38.5
t67.5 17q23 0 31 -10t8 -21q0 -28 -52.5 -68t-169.5 -88q-1 1 -4 -16.5t-6.5 -44t-6 -56t-2.5 -51.5q0 -7 8 -7q3 0 11 3q8 2 30 9l51 16l61 18.5l60.5 17.5t49.5 13t27 5t10 -7.5t4 -17.5zM484 774l-3.5 3.5t-6.5 1.5q-20 0 -44.5 -12.5t-46.5 -28.5t-36.5 -30t-14.5 -18
q0 -6 3 -6q9 0 33.5 11t50.5 25t46.5 28.5t20.5 21.5z" />
    <glyph glyph-name="G" unicode="G" 
d="M554 696q-1 -27 -25 -61t-63.5 -70.5t-91.5 -73t-107.5 -68.5t-112 -57t-104.5 -38q-2 -1 -7 -1.5t-5 -7.5l4.5 -10.5t16 -23t32 -23t52.5 -10.5q28 0 61.5 12t66.5 30t64 39.5t54.5 39.5t37 30t12.5 12q5 0 11.5 -5t6.5 -10q0 -6 -5.5 -11t-7.5 -9q-10 -24 -17.5 -62.5
t-13 -83.5t-8 -92t-2.5 -87q0 -76 -3.5 -131.5t-13.5 -92t-26.5 -54.5t-43.5 -18q-25 0 -50.5 18t-51 45t-50.5 58.5t-49 58.5t-46 45t-41 18q-21 0 -21 -29q0 -2 -2 -6t-7 -4q-6 0 -11 7.5t-5 20.5q0 7 4 17t11.5 19.5t19.5 16t27 6.5q29 0 55.5 -17.5t50.5 -43.5t47 -56
t45 -56t44.5 -43.5t46.5 -17.5q11 0 19.5 8t10.5 31q6 89 8 154.5l3.5 117.5t4.5 96t13 91q1 5 1.5 9t0.5 6q0 5 -3 5q-2 0 -12 -7q-6 -5 -34.5 -23.5t-68 -39.5t-84.5 -37.5t-84 -16.5q-45 0 -70.5 14.5t-39.5 31.5q-16 20 -22 46q-2 0 -4 -1l-6 -3q-5 -2 -20 -6.5l-35 -10
t-44 -9.5t-47 -4q-7 0 -14 5t-12.5 12t-9 14.5t-3.5 13.5t4 8.5t7 2.5t5 -1.5t4 -1.5q12 0 35.5 4.5t50.5 11.5t52.5 15t41.5 15q15 45 47 91t73.5 88.5t89.5 79t96.5 64t94.5 43t82 15.5q29 0 47 -8t28 -18q11 -11 15 -26zM514 702q0 21 -39 21q-47 0 -98.5 -19.5
t-101 -50.5t-93.5 -69t-77.5 -74.5t-53 -67t-19.5 -46.5q0 -8 7 -8q9 0 48 15.5t91.5 40.5t111.5 58t108.5 68t82.5 69t33 63z" />
    <glyph glyph-name="H" unicode="H" horiz-adv-x="568" 
d="M691 329q0 -11 -15.5 -20.5t-39 -17.5t-51.5 -14t-54 -10t-46.5 -6t-27.5 -2q-14 0 -14 -6q0 -5 12.5 -21.5l31.5 -40.5t40.5 -54.5t40.5 -64t31.5 -67.5t12.5 -66q0 -29 -15.5 -42.5t-29.5 -13.5q-18 0 -36.5 15t-35 37t-29.5 47t-21 44q-14 36 -24.5 77.5t-18 76.5
t-14 58.5t-13.5 23.5h-7q-21 0 -47.5 5t-49 11.5t-38 11.5t-13.5 5q-4 0 -4 -3v-150q0 -11 -2 -32.5t-9 -44t-20.5 -40.5t-37.5 -21q-18 0 -43 13.5t-53 34.5t-56.5 46t-52.5 48.5l-42 41.5t-24 25q-20 21 -43.5 32t-33.5 12q-8 0 -12 -10t-14 -10h-4q-9 3 -9 15
q0 16 6.5 26.5t15.5 16.5t19 8.5t18 2.5q17 0 33 -7t30 -18q10 -8 31 -27.5l47.5 -44l55.5 -51t56.5 -48.5t51 -36t37.5 -14q15 0 19.5 25.5t4.5 60.5v72.5v43.5t0.5 23.5t1.5 12.5q0 8 -3 13t-6 7q-4 3 -8 3q-50 19 -85.5 44.5t-58 51t-33.5 48t-11 35.5q0 16 13 33t44 17
q18 0 38.5 -7t39 -16t32.5 -17.5t19 -12.5q8 -5 10 -5q3 0 3 4t1 12q0 28 -1 72.5t-1 89.5q0 41 0.5 74.5t0.5 41.5q-1 0 -1 1v3q0 2 3.5 5t16.5 5q10 0 12.5 -2t2.5 -6q0 -5 -2.5 -12.5t-2.5 -13.5v-126v-48v-44.5t0.5 -35t0.5 -19.5q0 -16 4 -24q2 -4 5 -5q7 -5 27.5 -22
l44 -37t43.5 -39t28 -29q7 -9 11 -9q2 0 3 3.5t1 7.5q0 2 -0.5 3.5t-0.5 3.5v4q-4 43 -6 88t-2 84v46.5t1 37.5q1 18 2 34q1 5 2 15.5t4 20.5t8 17.5t15 7.5q7 0 7 -8q0 -15 -4.5 -57t-4.5 -96q0 -129 4.5 -187t21.5 -59q5 -1 11 -1q5 -1 12.5 -1h17.5q18 0 42 1.5t51 6.5
t56 13.5t56 22.5q10 6 14 6q6 0 6 -13zM349 312q0 4 -9 14t-20.5 20l-22 19t-14.5 12t-13.5 11.5l-19.5 17.5t-19.5 15.5t-13.5 6.5q-3 0 -4 -7.5t-1 -18.5q0 -22 2 -30v-8q0 -4 2.5 -7.5t10.5 -6.5l19.5 -8l31.5 -13t35 -13t30 -7q6 0 6 3zM584 -46q0 11 -10 36t-26 55
t-35 62t-37 58.5t-32 43.5t-19 17q-4 0 -4 -7q0 -9 7 -33.5t19 -55t27.5 -64t33 -61.5t34.5 -46t33 -18q2 0 4 2t3.5 4t1.5 7zM184 454q-28 18 -54 33q-23 13 -46 23.5t-38 10.5q-16 0 -16 -15q0 -14 15.5 -32t36 -35t40.5 -30.5t28 -19.5q24 -16 30 -16q4 0 4 6v75z" />
    <glyph glyph-name="I" unicode="I" horiz-adv-x="481" 
d="M480 457q0 -4 -5.5 -17t-14.5 -29t-21 -31t-25 -24q-2 -24 -2.5 -62t-5.5 -81t-15.5 -87t-31 -79.5t-53.5 -57.5t-82 -22q-31 0 -62 14.5t-60 36.5t-56.5 47l-51 47t-43 36.5t-33.5 14.5q-8 0 -12.5 -4t-8 -9l-6.5 -9t-8 -4q-3 0 -7.5 6.5t-4.5 21.5q0 20 15.5 34.5
t37.5 14.5q31 0 58.5 -14.5t53 -36.5t50.5 -47.5t50.5 -47.5t53 -36.5t59.5 -14.5q35 0 58.5 17.5t38 46t22 63t10.5 68.5t3.5 63.5t1.5 47.5q0 6 -3 6q-2 0 -3.5 -1l-4.5 -3l-10 -5t-20 -8t-27.5 -7.5t-31.5 -3.5q-29 0 -52 14.5t-38.5 35.5t-23.5 44.5t-8 41.5q0 45 9 99
t27 100.5t44.5 77.5t60.5 31q25 0 43 -29t30 -68t19.5 -78.5t10.5 -60.5q3 -20 4 -38.5t1 -33t1 -23t6 -8.5q3 0 12 9q10 11 17 22.5t12 21l8 15.5t6 6q2 0 4 -3q4 -6 4 -20zM382 365q0 24 -1.5 58.5t-6 72t-11.5 74.5t-17 66.5t-24.5 47.5t-32.5 18q-14 0 -28 -21.5
t-25 -52t-17.5 -64t-6.5 -58.5q0 -30 5.5 -59t18 -52t32.5 -37.5t50 -14.5q14 0 25 3t20 8q10 4 19 11z" />
    <glyph glyph-name="J" unicode="J" horiz-adv-x="470" 
d="M794 789q0 -8 -26 -17t-76.5 -22.5l-124 -33.5t-168.5 -49l-60.5 -19.5l-92.5 -30.5l-106 -35l-100.5 -33l-76 -24.5t-32.5 -9.5q-8 0 -11.5 8t-3.5 17q0 12 9 21q4 4 9 8q6 6 40 20.5t85.5 33.5l116.5 41.5l134.5 45l138.5 43t128.5 36.5t105 25.5t67.5 9.5
q16 0 30 -11.5t14 -23.5zM402 130q0 -9 -1 -31.5t-5 -50t-13.5 -57t-26 -54t-42.5 -40.5t-63 -16q-40 0 -75 13.5t-66.5 34t-60 45.5l-56 48.5t-54.5 42t-56 26.5q-8 0 -11.5 -6t-3.5 -14q0 -7 -12 -7q-5 0 -9.5 3.5t-4.5 12.5q1 11 4.5 24t10 24t16.5 18t25 7
q20 0 47.5 -16.5t59 -40.5l66.5 -53t71 -53t71.5 -40.5t68.5 -16.5q15 0 29.5 5.5t25.5 19t18 35.5t8 56q2 45 3 104t1 120.5t0.5 122.5t0.5 110.5v83t1 42.5v1q0 2 2.5 12t16.5 10h1q9 0 11 -7t2 -12v-506v0z" />
    <glyph glyph-name="K" unicode="K" 
d="M834 -96q0 -3 -1 -5l-2 -4q-2 -2 -3 -4q-35 -46 -76.5 -63t-83.5 -17q-85 0 -151.5 33.5t-117.5 87.5t-87 121t-58.5 133.5t-33 126t-10.5 98.5q0 93 26 157.5t64.5 109.5t84 74.5l84 53t64.5 45t26 50.5q0 6 -1 10q0 5 2.5 10t11.5 5q10 -2 14 -16t4 -28q0 -46 -26 -78
t-64.5 -58t-83.5 -50.5t-83.5 -56t-64.5 -74t-26 -105.5q0 -35 15.5 -93.5t44.5 -126t70 -136.5t91.5 -125t109 -91t123.5 -35q34 0 55 10t34.5 22.5t21.5 22.5t14 10q5 0 9 -5.5t4 -8.5zM198 751q0 -3 -0.5 -25.5t-1.5 -58.5t-2.5 -81.5t-2.5 -94.5t-1.5 -99t-0.5 -94v-137
q0 -27 -6 -53t-18.5 -47t-32.5 -34t-47 -13q-20 0 -47.5 17.5t-57 44.5t-59.5 57.5l-56.5 57.5t-48 44.5t-33.5 17.5l-19 -2q-5 0 -10.5 4.5t-5.5 11.5q0 6 5 13t13 13t17.5 10t18.5 4q22 0 48.5 -18t55 -45t57.5 -59l55.5 -59t50 -45t41.5 -18q16 0 26 16t14.5 37.5t6 43
t1.5 33.5q0 19 -0.5 61.5t-0.5 97.5q0 63 1 132.5t3 129.5q2 70 5 137q0 8 6 15t14 7t10 -4t2 -18z" />
    <glyph glyph-name="L" unicode="L" horiz-adv-x="421" 
d="M759 -98q0 -2 -1 -6.5t-8 -8.5q-49 -21 -83 -26t-59 -5q-38 0 -80 14t-83.5 35.5t-80.5 47.5t-71.5 50.5t-56 44t-33.5 28.5q-3 3 -6.5 4.5t-5.5 1.5q-3 0 -6 -3q-1 -2 -2 -3q-12 -34 -28.5 -53t-35 -28.5t-37 -11.5t-32.5 -2q-17 0 -53 18.5t-73.5 53t-65.5 82
t-28 106.5q0 46 25 64t63 18q25 0 52 -10.5t54 -25.5t52 -33.5l44.5 -33.5l32.5 -25.5t16 -10.5q4 0 4.5 5t0.5 10v345q0 62 7.5 103t21.5 65t33.5 33.5t43.5 9.5q21 0 54 -17.5t64.5 -45.5t54.5 -63t23 -70q0 -21 -5.5 -33t-13 -17.5t-15.5 -6.5t-13 -1q-18 0 -32.5 7.5
t-25.5 18.5t-17 23.5t-7 23.5q0 9 5 9q4 0 10.5 -7.5t15.5 -16t19.5 -16t23.5 -7.5t13 12q0 18 -20 45t-48.5 52t-59 42.5t-50.5 17.5q-18 0 -28 -12t-14.5 -32.5t-5.5 -48.5t-1 -60v-95t-0.5 -102.5l-1 -101t-0.5 -90.5q0 -11 4 -15q2 -3 5 -3l53 -39l70.5 -51.5t81.5 -55
t87 -50t86.5 -36.5t79.5 -14q34 0 52 10.5t24 10.5q5 0 8 -6t3 -12zM160 109q-6 3 -22 17l-38 33.5l-48.5 41.5t-52.5 40.5t-50 31t-42 12.5q-23 0 -34 -13.5t-11 -36.5q0 -34 23 -82q11 -23 31 -47.5t44.5 -45.5t52 -34.5t53.5 -13.5q28 0 46.5 14.5t29 32t14.5 33t4 17.5z
" />
    <glyph glyph-name="M" unicode="M" horiz-adv-x="667" 
d="M1067 -247q0 -2 -6 -12t-22 -21t-42.5 -20t-67.5 -9q-71 0 -128.5 25.5t-102.5 69.5t-77.5 102.5t-54 124t-31.5 134.5t-10 134v125q0 7 -3 7t-8 -10.5t-7 -18.5q-2 -9 -11 -42.5t-23 -78t-31.5 -93.5t-38 -90.5t-43 -68.5t-44.5 -27q-25 0 -39 27.5t-21 71t-9 96.5
t-2 105q0 39 0.5 64.5t1.5 43t2.5 30.5t2.5 28t1.5 34t0.5 50q0 20 -1.5 34t-6.5 15q-1 0 -10 -24.5l-23.5 -64.5l-32.5 -91.5l-37 -105.5l-37.5 -106l-33 -94l-24 -68.5t-11.5 -29.5l-12.5 -22t-16.5 -10q-10 0 -16 5t-9.5 12t-4.5 15.5t-1 15.5v46q0 26 1 61.5l2 73.5
t2.5 76t2.5 68.5t2 51t1 23.5v8l1 -6v4q0 4 -3 4t-10 -16.5l-16 -37t-19 -37t-20 -16.5q-4 0 -10.5 4.5t-6.5 12.5q0 7 10 20l36 65q14 26 25 49.5t12 33.5q1 55 2 99q1 38 2.5 70.5t3.5 37.5q2 8 6 13t14 7q10 0 24.5 -3t14.5 -13q0 -6 -1 -26t-3 -46t-7.5 -56t-14.5 -57
q-1 -3 -2.5 -33t-3 -75t-3.5 -97.5t-3 -100t-2 -83.5t-1 -47q2 -13 11 -13q6 0 15 20t22.5 57l31 88l39.5 114l33 94l28.5 83l21 61t9.5 27q4 11 14 21.5t22 10.5t17.5 -7.5t8 -18.5t3 -22.5t0.5 -19.5q2 -35 2.5 -86t1.5 -108t4 -113.5t9 -102t16.5 -73.5t27.5 -28
q8 0 19.5 15t26 47.5t31.5 84t37 125.5q15 54 28 109t23 101.5t16 78.5t7 41q-1 1 -1 3v8q0 11 5 20.5t25 9.5q3 0 5.5 -3t2.5 -13q0 -17 -3 -34.5t-6.5 -44.5t-6.5 -69.5t-3 -109.5q0 -79 12 -162t35 -162.5t57 -150t78.5 -124t99.5 -84.5t119 -31q27 0 43 4.5t26 10.5
t16 10.5t14 4.5q11 0 11 -9z" />
    <glyph glyph-name="N" unicode="N" horiz-adv-x="594" 
d="M843 723q0 -4 -5 -4q-6 0 -17.5 6.5t-44.5 6.5q-52 0 -97.5 -26.5t-80.5 -73t-58 -109.5t-30 -137q-3 -30 -4.5 -69.5t-2 -81l-1 -81t-0.5 -69.5q0 -38 -1.5 -60.5t-4 -35.5t-6 -17t-7.5 -4q-16 0 -39 35.5t-48.5 90.5t-51 122.5t-46 132t-33 118t-12.5 81.5q0 31 6.5 42
t8.5 11q4 0 7.5 -6t5.5 -12l87 -255l33.5 -94t30.5 -81.5t24 -57.5t14 -22q2 0 2 4.5v18.5q0 5 -0.5 28.5t-0.5 60.5q0 44 1.5 105.5t10 127.5t25.5 131t48.5 116.5t79.5 83.5t118 32q9 0 24 -2.5t29.5 -8.5t25 -17.5t10.5 -29.5zM251 628q0 -14 -4 -14q-3 0 -6 3.5t-5 3.5
q-4 0 -4 -8.5t-1 -28.5v-48.5t0.5 -76t1.5 -89t1.5 -88t1 -73t0.5 -42.5q0 -30 -3 -67.5t-14 -71.5t-34 -57t-62 -23q-23 0 -49 15.5t-52 39.5t-52 51l-50 51t-44.5 39.5t-36.5 15.5q-7 0 -10.5 -3.5t-6.5 -8l-5.5 -8t-8.5 -3.5q-3 0 -6 3q-5 5 -5 21q0 6 2.5 15t8 17.5
t14 14.5t21.5 6q27 0 52.5 -16.5t51 -40.5t50.5 -53t49.5 -53t49.5 -40.5t51 -16.5q22 0 34 20.5t17.5 54t6.5 76t1 86.5q0 21 -0.5 52.5t-1 66.5l-1 71t-1 67t-1 53.5t-0.5 30.5q0 17 1 33.5t4 30t7.5 21.5t11.5 8q9 -2 17.5 -10t8.5 -27z" />
    <glyph glyph-name="O" unicode="O" horiz-adv-x="631" 
d="M700 144q-14 -34 -37 -60.5t-51.5 -44.5t-61 -27.5t-64.5 -9.5q-27 0 -42 2t-23.5 4.5t-12 4.5t-7.5 2q-3 0 -13.5 -6.5t-27.5 -14.5t-41.5 -14.5t-55.5 -6.5q-60 0 -109.5 20.5t-84 59.5t-53.5 95t-19 127q0 77 17 140t46 112.5t67 85.5t80 59t84.5 34.5t81.5 11.5
q30 0 56 -9t45 -24t30 -33.5t11 -36.5q0 -14 -3.5 -23t-8 -15.5t-8 -10.5t-3.5 -7q0 -2 1 -4t2.5 -4t5.5 -4q28 -19 45.5 -46t27 -57t12.5 -59.5t3 -53.5q0 -62 -21 -113t-47 -89q-30 -44 -67 -80q0 -4 5.5 -6.5t13 -3.5t15.5 -1.5t14 -0.5q35 0 62.5 11t48 25t33 28.5
l17.5 20.5l4 5l9 11t10 10.5t7 4.5q7 -4 7 -9zM554 329q0 50 -11 88.5t-29.5 64.5t-43 39.5t-51.5 13.5q-38 0 -66 -17t-46 -46t-27 -67.5t-9 -81.5q0 -75 22 -126.5t48 -82.5q31 -37 70 -60q39 25 71 64q27 33 49.5 84.5t22.5 126.5zM468 617q0 9 -3.5 21.5t-14 23.5
t-29 18.5t-48.5 7.5q-25 0 -59 -7t-70 -23.5t-71.5 -43.5t-63.5 -67.5t-45 -95t-17 -125.5q0 -43 12 -96.5t41.5 -101t78 -79.5t121.5 -32q20 0 32.5 2t18.5 5q7 4 10 8q-17 10 -39.5 32t-42.5 55.5t-34 78.5t-14 101q0 22 2.5 50.5t10 58.5t21 58.5t36 51t55 36t77.5 13.5
h9t8 -1q5 7 9 15q3 7 6 16t3 20z" />
    <glyph glyph-name="P" unicode="P" 
d="M600 381q0 -37 -12 -68.5t-33 -54t-49.5 -35t-62.5 -12.5q-24 0 -47 7.5t-49 18.5q-9 0 -7 -21l2 -25q1 -11 1.5 -26.5t0.5 -31.5q0 -23 -3.5 -52t-13.5 -55t-29 -44t-50 -18q-20 0 -44 12.5t-48 31.5t-47 41.5l-43 41.5t-35 31.5t-23 12.5t-12.5 -6t-4.5 -14
q0 -13 -8 -13q-5 0 -10 13.5t-5 31.5q0 15 8.5 29.5t36.5 14.5q19 0 38.5 -13t39.5 -32t40.5 -42t41.5 -42t43.5 -32t45.5 -13q7 0 16.5 5t18 15.5t14 25t5.5 34.5q0 13 -0.5 35.5t-1.5 45t-1.5 41t-0.5 23.5q0 10 -5.5 20t-22.5 27q-11 10 -29 29.5t-36 44t-31 51.5t-13 53
q0 18 7.5 27.5t19.5 9.5q9 0 23 -7.5t27 -20.5t22 -31t9 -39q0 -5 -2 -5t-10 11l-18 24t-21 24t-19 11q-5 -2 -5 -9q0 -13 7 -31.5t18 -34.5q7 -13 18.5 -29t23.5 -30l20.5 -23.5t9.5 -9.5q3 0 3 9q0 24 -0.5 56.5t-0.5 67.5q0 31 1 61.5t4 54.5t9.5 38.5t18.5 14.5
q6 0 6 -11q0 -7 -0.5 -30.5t-2 -55.5t-2.5 -68.5t-2.5 -69t-2 -57.5t-0.5 -34q0 -2 9 -9t24 -14.5t34 -13.5t40 -6q13 0 32 3.5t36.5 16t29.5 36.5t12 64q0 34 -14 72.5t-40 76.5t-62.5 73t-81.5 62t-97 43t-109 16q-35 0 -75 -10t-73.5 -35.5t-56 -68t-22.5 -108.5
q0 -33 8.5 -76t36.5 -88q3 -5 8 -11.5t5 -13.5q0 -2 -3.5 -9.5t-12.5 -7.5q-12 0 -15 7.5t-14 25.5l-14 28.5t-17 42t-14 51.5t-6 57q4 70 36 125q13 24 34 46.5t51.5 40t71.5 28.5t95 11q82 0 145.5 -20.5t111 -52.5t80.5 -72t53 -79.5t29 -74t9 -55.5z" />
    <glyph glyph-name="Q" unicode="Q" horiz-adv-x="535" 
d="M864 -259q0 -10 -14 -22t-37 -22t-53 -17t-62 -7q-38 0 -70.5 8t-62.5 25.5t-60 44t-63 63.5q-21 23 -42 49.5t-39 52t-32.5 48t-21.5 38.5q-2 3 -3 5.5t-6 2.5t-13.5 -3t-38.5 -3q-55 0 -97 16t-73 39.5t-52 51t-34 51t-20 39.5t-9 16t-9 -3t-16.5 -9.5t-20.5 -16.5
t-21 -24q0 -2 -4.5 -6.5t-6.5 -4.5t-6.5 4t-4.5 12q0 18 13 32.5t29 25.5t29 19t13 12q0 7 -1 8t-2 5.5t-2 17t-1 42.5q0 69 17 126t44.5 101.5t62.5 77t71.5 53.5t71 31.5t61.5 10.5q6 0 11.5 -3t5.5 -8q0 -10 -10 -11t-18 -3q-38 -9 -84.5 -30.5t-87 -62.5t-68 -106
t-27.5 -162q0 -10 0.5 -23t2 -24t5.5 -19t11 -8q5 0 11 1t21 1q52 0 94 -16t73.5 -39.5t54.5 -51t38.5 -51t23.5 -39.5t11 -16q17 0 49.5 24t65 67.5t56.5 104t24 133.5q0 30 -9 71.5t-31.5 80t-61 65.5t-96.5 27q-26 0 -59 -11.5t-70 -47.5l-10 -10t-10 -5q-8 0 -8 12t5 17
l16.5 17t33 27t49.5 25t67 11q59 0 100 -21.5t67 -58t38 -85.5t12 -103q0 -64 -14.5 -116.5t-36 -93.5t-47.5 -71t-50 -49.5t-42 -29t-23 -9.5l22 -31l66 -91.5t81 -94.5t93.5 -74t103.5 -30q30 0 50 7.5t34 16t22.5 16t14.5 7.5q9 0 13 -8q2 -4 3 -8zM278 54q0 -1 -7 9.5
t-21.5 30l-35 46.5t-46.5 58t-58.5 40t-56.5 9q-22 0 -27 -2t-5 -9q23 -54 56 -95q14 -18 32 -34.5t39.5 -30t47 -21.5t55.5 -8q8 0 17.5 1.5t9.5 5.5z" />
    <glyph glyph-name="R" unicode="R" horiz-adv-x="611" 
d="M1010 -249q0 -7 -10 -17t-27 -19t-40 -15t-48 -6q-66 0 -121 25t-102 67t-86.5 97t-74.5 116t-67 123t-64 118l-31 11q-12 5 -23.5 10.5t-15.5 11.5q-1 -46 -2 -86l-2 -65.5t-3 -42.5q-1 -9 -5 -28t-14 -38.5t-27 -34t-45 -14.5q-29 0 -55.5 15t-50 37t-45 48.5
l-39.5 48.5t-33 37t-27 15q-7 0 -10.5 -8.5t-3.5 -22.5q0 -11 -9 -11q-6 0 -12 13t-6 35q0 7 2 16t6.5 16.5t13 13t20.5 5.5q23 0 44.5 -15.5t43 -38.5t42.5 -50t42.5 -50t43 -38.5t43.5 -15.5q6 0 14 1t15.5 7t13 18.5t7.5 36.5q1 26 2.5 58.5t2 63.5t1.5 55.5t1 33.5l-2 6
q-2 2 -3.5 5t-5.5 6q-5 4 -21.5 21.5t-34 42t-31 53t-13.5 54.5q0 15 7 27t30 12q9 0 18.5 -5t19.5 -11.5t18.5 -14t16.5 -13.5q2 -1 3 13.5t1.5 33.5t1.5 37.5t3 26.5q1 2 6 5.5t10 3.5q8 0 11 -11q0 -4 -1 -25t-2 -44.5t-2 -43.5t-1 -23q0 -5 2.5 -10.5t5.5 -11.5l15 -22
l30 -44l34.5 -51l28.5 -42q5 0 22.5 4t37 15.5t34.5 32.5t15 55q0 66 -33.5 126t-89.5 105.5t-129 72.5t-151 27q-13 0 -35 -2t-48 -8.5t-52.5 -20t-48 -37t-35 -57.5t-13.5 -83q0 -13 3 -36.5t9.5 -50.5t16 -53t22.5 -42l4 -8t2 -9q0 -10 -14 -11q-17 4 -31 24t-24 47.5
t-15.5 59t-5.5 58.5q0 36 10.5 82t43 86t91.5 67.5t157 27.5q32 0 75.5 -10.5t89.5 -30t91 -49t80.5 -67.5t57 -84.5t21.5 -100.5q0 -45 -22.5 -75.5t-49.5 -49.5q-32 -22 -71 -35l36 -60.5t63 -98.5t83.5 -114.5t97.5 -108.5t103.5 -81t103.5 -32q15 0 27 3.5t21 7.5
l16.5 7.5t13.5 3.5t11 -2t5 -7zM347 283q0 5 -6.5 18t-14.5 27t-15.5 25t-8.5 11q-3 0 -4 -7l1 -36q0 -8 6 -15.5t13.5 -13t14.5 -9t11 -3.5q3 0 3 3zM268 351q0 4 -0.5 15.5t-0.5 24.5v32q-4 6 -12 15.5t-17 19t-17.5 16t-14.5 6.5q-9 0 -9 -15q0 -9 9 -30t20.5 -42
t22.5 -37.5t16 -16.5q2 0 2.5 3.5t0.5 8.5z" />
    <glyph glyph-name="S" unicode="S" 
d="M519 485q0 -32 -14 -45.5t-32 -13.5q-19 0 -37 15t-32 34.5t-24 39t-13 27.5q-7 19 -10 19t-4.5 -5.5t-8.5 -5.5q-5 0 -8.5 5t-3.5 10t3 8q9 13 15 30t9 31q4 17 5 34l-50.5 36.5t-46 28t-45.5 17.5t-50 6q-26 0 -44.5 -7.5t-29.5 -20t-16 -28.5t-5 -32q0 -41 28 -86.5
t70 -93t91 -97.5t91 -100t70 -100t28 -97q0 -27 -7 -54.5t-23.5 -49.5t-43 -36t-64.5 -14q-54 0 -102 20t-87.5 51.5t-71 70t-53.5 75t-33.5 67.5t-11.5 47q0 17 8.5 27t16.5 10q3 0 16 -11t27.5 -26t26.5 -30.5t12 -23.5q0 -6 -4.5 -9t-10.5 -3q-4 0 -9 2.5t-7 2.5t-2 -4
q18 -37 50.5 -77t73 -73t85.5 -54.5t88 -21.5q23 0 38 7t24 18t12.5 24t3.5 25q0 49 -28.5 97.5t-71.5 97.5t-93 98t-93 99t-71.5 100t-28.5 101q0 37 17 63t41 42.5t49.5 24.5t42.5 8q66 0 128.5 -30.5t111.5 -76t78.5 -98t29.5 -95.5zM483 493q0 13 -11.5 37.5t-27 49
t-30 42.5t-20.5 18q-4 0 -4 -6q0 -21 9 -47.5t22.5 -49.5t28 -38.5t26.5 -15.5q7 0 7 10z" />
    <glyph glyph-name="T" unicode="T" 
d="M638 728q0 -15 -11 -29t-29 -26.5t-40.5 -24.5t-46.5 -22q-55 -24 -126 -45q-3 -1 -6.5 -14.5t-6.5 -34.5t-5 -47.5t-2 -52.5q0 -16 1 -44t2.5 -60.5t3.5 -66.5t3.5 -62.5t3 -48t1.5 -22.5q1 -8 1 -13.5t8 -5.5q7 0 32.5 7.5l54.5 16.5t53 17.5t27 10.5q7 5 15 5
q13 0 13 -17q0 -5 -4 -10.5t-15 -9.5l-171 -55q-8 -2 -10 -5.5t-2 -11.5q0 -6 -1.5 -28t-10.5 -45t-28 -41.5t-54 -18.5q-27 0 -55.5 15.5t-52.5 34t-40 34t-19 15.5q-14 0 -29 -2t-35 -2q-23 0 -51.5 6t-53 17.5t-41 28.5t-16.5 38q0 27 21.5 45t51.5 18q27 0 59 -14.5
t61.5 -33t52 -36t30.5 -24.5q5 0 19 2t31.5 5l37.5 6.5t37 7t29 6.5t15 4q6 2 6 18v8q0 3 -1 22.5l-2.5 48.5t-3.5 63t-3.5 67t-2.5 60.5t-1 42.5q0 18 1.5 40t3 41.5t3 34t2.5 17.5q0 2 0.5 3t0.5 2q0 3 -4 3q-5 0 -34 -7.5t-75.5 -17t-106 -17t-125.5 -7.5q-35 0 -71 3
q-17 1 -25.5 7t-8.5 35q0 7 3 11.5t13 4.5q4 0 6 -1t15 -1q16 0 46 1.5t68.5 4t82.5 6.5t86.5 9.5t81 12.5t66.5 15q18 43 51 76q28 29 73 52.5t111 23.5q14 -2 28 -16t14 -33zM595 730q0 10 -22 10q-40 0 -70.5 -15.5t-51.5 -33.5q-25 -22 -43 -49q0 -3 4 -3q51 16 91 32
q17 7 33.5 14.5t29.5 15t21 15t8 14.5zM345 52q0 9 -6 9l-120 -23q-6 -3 -6 -7q0 -3 1 -4t2 -1l10.5 -7.5t25.5 -15.5t30.5 -15t26.5 -7q10 1 18 9q7 7 12.5 21.5t5.5 40.5zM79 60q0 6 -14.5 16.5t-34.5 20t-40 16.5t-30 7q-14 0 -21 -6.5t-7 -16.5q0 -9 14 -16.5t34 -13.5
t41.5 -9t36.5 -3q9 0 15 1t6 4z" />
    <glyph glyph-name="U" unicode="U" horiz-adv-x="605" 
d="M582 -7q0 -9 -3 -17t-18 -8q-42 0 -72 20t-49 65.5t-28 121t-9 186.5q0 6 -5 6h-1q-5 0 -6 -7t-5 -16q-2 -6 -14 -36t-31 -71.5t-43.5 -88.5t-52.5 -86.5t-57.5 -65.5t-57.5 -26q-35 0 -58 28.5t-37 71.5t-20 94.5t-6 97.5q0 20 1.5 42t4 41.5t4 33t1.5 16.5q0 7 -5 7
t-11.5 -11l-14 -24t-16 -24t-17.5 -11q-13 0 -13 16q0 8 5 16l17 24t25 37.5t24 41t14 34.5q6 28 10.5 56t10.5 50.5t14.5 37t22.5 14.5q16 0 20 -4t4 -9q0 -1 -1.5 -16t-6 -36.5t-13 -45.5t-21.5 -44q-4 -30 -6 -67.5t-2 -78.5q0 -57 5 -115.5t16 -105t29 -76t45 -29.5
q23 0 49 30t52 77t51.5 106t47.5 117t39 109l28 83q1 7 3.5 12.5t13.5 5.5q6 0 11 -1t5 -9q0 -9 -4 -29q-1 -11 -3 -38l-4.5 -59.5t-4 -64.5t-1.5 -52q0 -47 7.5 -100.5t23.5 -99t40.5 -76t57.5 -30.5q7 0 11 -3t4 -17z" />
    <glyph glyph-name="V" unicode="V" horiz-adv-x="396" 
d="M797 795q0 -8 -8 -12t-16 -4q-77 0 -144 -33.5t-121.5 -89t-97 -126t-72 -145.5t-44.5 -147.5t-15 -131.5q0 -47 2 -75.5t4.5 -46.5t4.5 -29t2 -22q0 -12 -4 -19.5t-9 -11t-10.5 -4.5t-9.5 -1q-27 0 -47.5 21t-36 56t-26.5 79t-18 91q-17 108 -20 247q-8 76 -33 137
q-11 25 -26 50t-37 44t-50 31t-64 12q-11 0 -13.5 8t-2.5 20q0 14 8 21t28 7q43 0 75 -16.5t55 -43.5t38.5 -62t25.5 -71.5t15 -73l9 -65.5q3 -25 8 -57.5l10 -66.5t10.5 -65.5t10.5 -54.5q5 -26 14 -56.5t19.5 -56.5t21.5 -44t20 -18q4 0 4 8t-2 18l-3 15q-4 32 -6 62
t-2 60q0 100 21 191t57 168t84.5 139.5t104.5 106.5t115.5 67.5t118.5 23.5q22 0 37 -7.5t15 -26.5z" />
    <glyph glyph-name="W" unicode="W" horiz-adv-x="605" 
d="M579 178q0 -23 -5 -58.5t-22 -70t-48.5 -59t-83.5 -24.5q-41 0 -79.5 23t-70.5 61t-57 86t-39 98q-4 11 -7 11q-1 0 -4.5 -4.5t-3.5 -15.5q-2 -10 -5.5 -31t-10 -46.5t-16 -53t-22 -50t-29 -37t-36.5 -14.5q-33 0 -55 29t-36.5 72.5t-22 94t-11.5 94t-6 72.5t-5 29
q-2 0 -5.5 -8l-8 -18t-9 -18t-8.5 -8q-14 3 -14 11q0 4 1 7l47 105q2 4 3 24t3 47t5.5 58t9.5 57t15.5 43t23.5 17h6q6 -1 10.5 -5t4.5 -19q0 -8 -1.5 -27t-5.5 -45t-12 -56.5t-20 -61.5q-2 -2 -2 -34q0 -10 1.5 -43t6 -76t12.5 -90.5t21 -87t32 -65.5t45 -26q11 0 21.5 16
t19.5 41t16 56t12 61.5t7.5 56.5t2.5 41q0 17 2.5 24.5t12.5 7.5q3 0 6 -4t9 -20q7 -19 19.5 -50t31 -67t41.5 -73t51.5 -66.5t61.5 -48.5t71 -19q16 0 32 6t29.5 20t23.5 38.5t15 60.5q0 67 -19 136.5t-53.5 134t-82.5 122t-106 100.5q-6 5 -8 8t-2 7q0 7 3 15.5t7.5 16
t9.5 13t9 5.5q11 0 25 -11q6 -5 28.5 -21l49.5 -34l52 -33.5t34 -18.5q15 -8 15 -19q0 -9 -12.5 -19.5t-23.5 -10.5q-4 0 -9.5 2t-11 5t-10.5 5t-8 2t-3 -3q0 -4 8 -15q2 -2 13 -17t26 -40t32.5 -58t32 -72t24 -81.5t9.5 -86.5z" />
    <glyph glyph-name="X" unicode="X" 
d="M939 -259q0 -6 -8 -10q-5 -3 -18.5 -10t-34 -14t-47 -12.5t-57.5 -5.5q-66 0 -122.5 27t-104 71.5t-86.5 101.5t-69 116q-71 139 -119 316q-1 4 -5 4q-6 0 -12 -14l-10.5 -21l-21 -40.5l-26.5 -50l-26.5 -50l-21 -40l-10.5 -20.5l-10.5 -22t-14.5 -12q-11 0 -18 9.5
t-7 13.5q0 3 2.5 7t5.5 12q2 5 14 27.5l28.5 52.5l35 64l34.5 63l26.5 48.5t11.5 20.5q1 2 1 8q0 20 -9 51.5t-24 67.5t-35.5 73t-43 68.5t-46 53.5t-45.5 28q-8 0 -15 1.5t-7 12.5q2 14 7 17t9 3q25 0 48.5 -13.5t45 -36t40.5 -51t36 -58.5q39 -70 71 -158q2 0 6 4.5
t11 16.5l17.5 31l29 49l34 57l32.5 55l25.5 42t12.5 20q4 6 7.5 10t8.5 4t12 -4.5t7 -9.5q0 -10 -13.5 -35.5t-34 -58.5l-44.5 -70l-44.5 -70.5t-34 -59.5t-13.5 -37q56 -185 133 -330q33 -62 73 -121t87.5 -105.5t102 -74.5t116.5 -28q24 0 41 4t29 9.5l21 9.5t17 4
q7 0 13 -3t6 -8z" />
    <glyph glyph-name="Y" unicode="Y" horiz-adv-x="529" 
d="M498 507q0 -28 -1.5 -54.5t-5.5 -46.5q-2 -12 -4.5 -43t-4 -74t-3.5 -93.5t-3.5 -101.5t-2.5 -99.5t-2 -87t-1.5 -63t-0.5 -27.5t-1 -18t-4 -35t-9.5 -42.5t-18 -41.5t-29 -31.5t-42.5 -12.5q-29 0 -55 16t-49 39.5t-43.5 51l-38.5 51t-34 39.5t-30 16q-8 0 -12 -8.5
t-10 -8.5q1 0 -8.5 4t-9.5 14q0 6 5 13.5t14 14.5t21 12t26 5q22 0 43 -15t41.5 -37.5t40.5 -49t40 -49t39.5 -37.5t38.5 -15q21 0 33 21t17.5 49.5t7 58t1.5 46.5q0 85 2 168t5 155.5t6.5 128.5t6.5 87q0 9 -3 9q-4 0 -11 -17l-16.5 -44.5t-29 -71t-40.5 -81.5t-49.5 -77.5
t-56 -58t-61.5 -22.5q-27 0 -47 20t-33.5 51t-22 69.5t-13 75t-6 67.5t-1.5 47q0 29 1.5 47t1.5 23q0 12 -2 12t-8 -10l-13.5 -23.5t-15.5 -26.5t-12 -18q-3 -3 -7 -6.5t-9 -3.5t-9.5 5.5t-4.5 9.5q0 5 6 11l40 61l28 43.5t14 24.5q1 54 9 97q3 18 8 36t11.5 31.5t16 22
t21.5 8.5q12 -2 15.5 -8.5t3.5 -15.5q0 -11 -3.5 -27.5t-9.5 -36t-14 -41t-17 -41.5q-1 -13 -1.5 -27t-0.5 -31q0 -38 2.5 -81t8 -86t14 -83t20.5 -70.5t28 -48.5t36 -18t45 30t51.5 76t52 101.5t45.5 107t32 92.5t12 58q1 0 1 8.5t0.5 18.5t3 18.5t8.5 8.5q8 0 12 -29
t4 -85z" />
    <glyph glyph-name="Z" unicode="Z" 
d="M870 -50q0 -14 -26 -29q-5 -3 -18.5 -10t-34.5 -13.5t-49.5 -12t-65.5 -5.5q-63 0 -122 14.5t-113.5 37t-104 48l-93.5 48t-81.5 37t-68.5 14.5q-23 0 -51.5 -7t-54.5 -29l-10.5 -10t-10.5 -5q-4 0 -8.5 4t-4.5 12q0 4 9.5 16.5t41 47l90.5 99.5l157 174l89 99l77 86
l55 62t23 27q6 9 6 12q0 2 -3 2q-5 0 -43 -11l-92.5 -28l-118.5 -36.5l-122 -36.5t-102.5 -28t-60.5 -11q-5 0 -10.5 6t-10 14.5t-7.5 17t-3 13.5q0 7 16 11q116 27 209 52l161 44.5l110.5 31.5t57.5 12q24 0 41.5 -10t17.5 -26q0 -12 -15 -36q-5 -8 -32.5 -39.5
l-68.5 -76.5l-372 -414q-6 -8 -6 -11t5 -3q7 0 21.5 4.5t44.5 4.5q33 0 82.5 -10.5t112.5 -39.5l82 -41.5t100.5 -48t109.5 -40t110 -16.5q34 0 65.5 8t60.5 28q4 2 8.5 4t9.5 2q11 0 11 -9z" />
    <glyph glyph-name="bracketleft" unicode="[" horiz-adv-x="235" 
d="M159 -51q0 -6 -2.5 -9.5t-4.5 -5.5q-3 -3 -6 -3h-98q-3 0 -6 3q-2 2 -4 5.5t-2 11.5l2 167t2 152t1 128.5v96.5q0 77 -1 119.5l-1.5 64t-1.5 28t-1 11.5q1 10 7 14q3 2 5 3h98q7 0 11 -10q2 -4 2 -9q0 -6 -2.5 -9.5t-4.5 -5.5q-3 -3 -6 -3h-70v-730h70q7 0 11 -10
q2 -4 2 -9z" />
    <glyph glyph-name="backslash" unicode="\" horiz-adv-x="229" 
d="M226 -223q-1 -2 -4 -5t-12 -3h-3q-12 3 -17 8q-3 3 -4 6l-161 927q0 1 2 3.5t11 2.5h6q11 -3 16 -8q3 -3 4 -6l162 -925v0z" />
    <glyph glyph-name="bracketright" unicode="]" horiz-adv-x="220" 
d="M185 -52q-1 -11 -7 -15q-3 -2 -5 -2h-98q-7 0 -11 9q-2 4 -2 10t2 9.5t4 5.5q3 2 7 3h70v730h-70q-7 0 -11 9q-2 4 -2 10t2 9.5t4 5.5q3 2 7 3h98q3 0 6 -3q6 -6 6 -17q-2 -86 -2.5 -167t-1.5 -152t-1 -128.5v-96.5q0 -77 1 -119.5l1.5 -64t1.5 -28t1 -11.5z" />
    <glyph glyph-name="asciicircum" unicode="^" horiz-adv-x="299" 
d="M269 297q-3 -12 -10 -12h-1q-5 1 -13 15t-20 32t-27.5 34t-36.5 22q-21 -1 -43 -14.5t-40.5 -29.5t-32 -29t-17.5 -13q-5 0 -5 13q9 12 23.5 35.5t32.5 48.5t39 44.5t43 22.5h9q17 0 33.5 -21.5t30 -50t23 -56.5t12.5 -41z" />
    <glyph glyph-name="underscore" unicode="_" horiz-adv-x="283" 
d="M283 2q0 -6 -2.5 -9.5t-4.5 -5.5q-3 -3 -6 -3h-258q-3 0 -6 3q-2 2 -4 5.5t-2 11.5q1 10 7 14q3 2 5 3h258q7 0 11 -10q2 -4 2 -9z" />
    <glyph glyph-name="grave" unicode="`" 
d="M348 315q0 -9 -4 -9t-19.5 10.5t-36 23t-43.5 23.5t-42 12q-9 0 -17 9.5t-8 23.5q0 7 6 13t14 6q21 0 43.5 -13t43.5 -31t38 -37t25 -31z" />
    <glyph glyph-name="a" unicode="a" horiz-adv-x="464" 
d="M570 169q0 -2 -1.5 -4.5t-3.5 -5.5q-2 -4 -4 -7q-39 -51 -70.5 -85.5t-59 -55t-53 -29.5t-52.5 -9q-18 0 -32 8.5t-23 22t-14 30t-5 31.5v6q0 5 -4 5q-2 0 -3 -3q-3 -5 -19 -19.5t-39 -30t-50.5 -28t-52.5 -12.5q-28 0 -43 8t-22 19.5t-8 23.5t-1 21q0 30 21.5 68
t56 71.5t79 56.5t90.5 23q21 0 40.5 -10t19.5 -33q0 -20 -13 -40.5t-34 -40t-47 -37t-51 -32t-47 -25t-35 -14.5q-6 -2 -6 -6t5.5 -7.5t13.5 -3.5q5 0 8 1q8 2 23 7t33.5 15t39 25t39.5 38q9 11 16 15.5t12 4.5q6 0 9 -4.5t5 -10t2.5 -10.5t0.5 -6q0 -3 3 -16.5t10.5 -28
t20.5 -26.5t33 -12q22 0 49 17.5t52.5 42.5t47 52t33.5 45q3 9 11 9q7 0 13 -5t6 -9zM269 212q0 14 -8 21.5t-35 7.5q-21 0 -49 -15.5t-53.5 -39.5t-43 -53.5t-17.5 -57.5q0 -11 6 -11q3 0 19 7t38 18t47 26.5t46.5 31.5t35.5 33t14 32z" />
    <glyph glyph-name="b" unicode="b" horiz-adv-x="429" 
d="M523 152q-26 -39 -61 -55t-67 -16q-14 0 -31 3t-33 6.5t-27.5 7t-14.5 5.5q-2 0 -3.5 -3t-2.5 -13q-1 -6 -6 -26.5t-15.5 -43t-27 -40t-40.5 -17.5q-25 0 -48.5 17.5t-41.5 48.5t-29 72t-11 89q0 39 3 90.5t10 105t17.5 105.5t25.5 93t33.5 66t42.5 25q4 0 11.5 -1.5
t15 -6.5t12.5 -16t5 -30q0 -66 -12 -124.5t-30 -108.5t-39 -90t-39 -69q0 -4 1.5 -21t4.5 -40t8.5 -48.5t15 -47.5t23 -36t32.5 -14q2 0 10.5 3.5t18 13.5t17 28t7.5 48q0 5 -15.5 14.5t-34 25.5t-34 38.5t-15.5 54.5q0 18 12 26t26 8q13 0 25 -7.5t21.5 -18.5t16 -22.5
t9.5 -19.5q6 -14 8.5 -25.5t5 -21t7.5 -16.5t15 -11q10 -5 29.5 -13.5t59.5 -8.5q33 0 53.5 8.5t32.5 19t16.5 19.5t6.5 10q4 11 10 11q7 0 13 -5t6 -9zM194 581q0 28 -4 37.5t-9 9.5q-9 0 -18 -19t-16.5 -48t-13.5 -64.5t-10 -69.5t-6.5 -62t-2.5 -41q-1 -11 0 -19
q0 -7 1 -12.5t3 -5.5q7 0 20 28.5t25.5 72t21.5 95.5t9 98zM247 183q0 6 -4 17t-10 21.5t-13.5 18.5t-14.5 8q-5 0 -5 -7q0 -6 5.5 -16.5t12.5 -21t14 -18t11 -7.5t4 5z" />
    <glyph glyph-name="c" unicode="c" horiz-adv-x="334" 
d="M446 183q0 -2 -1.5 -4.5t-3.5 -5.5q-2 -4 -4 -7q-78 -102 -139.5 -148.5t-119.5 -46.5q-31 0 -53.5 12t-36.5 31.5t-21 44.5t-7 51q0 52 22.5 89t53 61t60.5 35t45 11q32 0 45 -15.5t13 -29.5t-5 -25.5t-11.5 -20.5t-14 -15t-13.5 -10q-2 -2 -6.5 -7.5t-11 -11.5
t-15.5 -11t-21 -5q-18 0 -28 5q-5 3 -9 6q-5 4 -5 11t5.5 16.5t12 17.5t13 13.5t9.5 5.5q6 0 8.5 -4t5 -8.5t6.5 -8.5t13 -4q10 0 16 10.5t6 22.5q0 14 -8.5 24.5t-25.5 10.5q-22 0 -42 -11.5t-35.5 -31.5t-25 -46.5t-9.5 -55.5q0 -18 3.5 -37.5t15 -36t32 -27t55.5 -10.5
q24 0 54.5 20t59 48t52.5 56.5t36 46.5q3 9 11 9q7 0 13 -5t6 -9z" />
    <glyph glyph-name="d" unicode="d" horiz-adv-x="387" 
d="M565 320q0 -8 -13 -13.5t-30 -9.5t-35 -5.5t-27 -1.5q-41 0 -63 7t-27 7q-9 0 -9 -13q0 -54 -11.5 -109.5t-35.5 -101t-60.5 -74t-86.5 -28.5q-21 0 -40.5 7t-34.5 21.5t-24 35.5t-9 49q0 57 23.5 90.5t53.5 51t58.5 23t37.5 5.5q42 0 58.5 -23.5t16.5 -57.5
q0 -12 -6 -15.5t-10 -3.5q-6 0 -8 10t-7.5 22t-18.5 22t-43 10q-33 0 -53.5 -14t-31 -32.5t-14 -38.5t-3.5 -32q0 -27 9 -43.5t21 -25.5t25 -12t21 -3q26 0 47 13t36.5 34t26.5 47t18.5 52.5t10.5 50.5t3 41q0 11 -0.5 21.5t-1.5 18.5q-1 9 -1 16q-42 18 -74 43t-54.5 51.5
t-37 50t-22.5 38.5q-20 36 -23.5 71t-3.5 60q0 21 16.5 32t35.5 11q22 0 50 -23.5t55 -65.5t49.5 -99t33.5 -124q15 -11 32.5 -18t35 -11.5t33 -6.5t26.5 -2q19 0 30.5 2t18.5 5t10.5 5t6.5 2q8 0 14 -7t6 -12zM309 394q-4 16 -9 34l-11.5 35.5t-15.5 42.5q-16 39 -34 64.5
t-34 40t-27 20t-12 5.5q-7 0 -9 -7q-1 -3 -1 -6q0 -32 20 -72t46.5 -75t51.5 -58.5t35 -23.5z" />
    <glyph glyph-name="e" unicode="e" horiz-adv-x="218" 
d="M320 169q0 -2 -1.5 -4.5t-3.5 -5.5q-2 -4 -4 -7q-39 -51 -70.5 -85.5t-59 -55t-53 -29.5t-52.5 -9q-42 0 -66.5 13t-38 33.5t-17.5 46t-4 51.5q0 23 10.5 51.5t28.5 53.5t41.5 42t48.5 17q26 0 41.5 -14t15.5 -33q0 -28 -19 -60t-42 -60q-26 -33 -60 -65q3 -9 12 -16
q8 -6 23 -11t41 -5q36 0 67 17.5t56.5 42.5t44.5 52l31 45q3 9 11 9q7 0 13 -5t6 -9zM82 221q0 13 -8 17.5t-14 4.5q-19 0 -32 -17t-21.5 -39t-12 -43t-3.5 -28q-1 -12 0 -19t2 -12t3 -8q24 20 43 44q16 20 29.5 46t13.5 54z" />
    <glyph glyph-name="f" unicode="f" horiz-adv-x="269" 
d="M319 38q0 -11 -28 -24q-3 -1 -18.5 -6.5t-39 -11.5t-52 -11t-57.5 -5q-6 0 -10 -3t-4 -15q0 -26 -1 -62t-4.5 -75t-10 -77t-17.5 -68.5t-27.5 -49.5t-39.5 -19t-42 14t-36 35t-33.5 45.5t-33 45.5t-34 35t-38.5 14q-12 0 -15 -6t-4 -12.5t-3 -12.5t-11 -6q-7 0 -12 7.5
t-5 15.5q1 7 6 17t14.5 20.5t23 18.5t32.5 11q18 0 35 -14t33 -34t31.5 -44t31 -44t31 -33.5t32.5 -13.5t28 20.5t17.5 51.5t10 68t4.5 70.5t1 59t1 33.5q0 3 -16.5 5t-37 5.5t-37 9t-16.5 15.5t5.5 20.5t11.5 10.5l8 -3t21.5 -6t29 -6t30.5 -3q9 196 9 375q0 45 2.5 95.5
t11 93.5t25.5 71t46 28q15 0 26.5 -16.5t11.5 -58.5q0 -29 -5 -69.5t-16 -84t-27.5 -85.5t-40.5 -73q-1 -1 -1.5 -20t-1 -47t-0.5 -60t-0.5 -60.5t-1 -49t-0.5 -23.5q-1 -4 -1 -11q0 -8 6.5 -10t28.5 -2q25 0 63.5 6t78.5 24q6 8 17 8q5 0 9.5 -4.5t4.5 -9.5zM162 552
q0 67 -14 67q-7 0 -12.5 -19.5t-9.5 -48.5t-6 -62t-2 -59q0 -22 1.5 -36t4.5 -14q5 0 9.5 11.5t9 28.5t8 38t6 40t4 34t1.5 20z" />
    <glyph glyph-name="g" unicode="g" horiz-adv-x="305" 
d="M404 169q0 -2 -1.5 -4.5t-3.5 -5.5q-2 -4 -4 -7q-29 -38 -58.5 -71t-51.5 -54q-10 -10 -27 -25l-33 -29.5l-28 -25.5t-12 -12q0 -3 2 -6.5l5 -8.5q10 -13 27 -38.5t33 -57t28 -65t12 -62.5q0 -21 -6.5 -49t-21.5 -53.5t-39.5 -43.5t-60.5 -18q-17 0 -41.5 7t-47.5 27
t-39.5 57t-16.5 96q0 30 8.5 57t22 51t31.5 46t38 43q-3 8 -13.5 24.5t-22.5 39t-21 49t-9 53.5q0 44 14.5 85t38.5 72.5t54 50.5t62 19q29 0 49.5 -15.5t20.5 -44.5q0 -28 -11.5 -54.5t-29 -49.5t-38.5 -41.5t-39.5 -32t-32.5 -21t-18 -7.5q4 -13 10 -26l12 -25.5t17 -27.5
q12 6 36.5 25.5t57.5 48.5q16 14 33.5 32.5l34 37.5t29.5 36t21 29q3 9 11 9q7 0 13 -5t6 -9zM238 222q0 17 -13 30.5t-30 13.5q-24 0 -41.5 -16t-29 -38t-17.5 -45t-6 -36q0 -26 6 -40.5t8 -14.5t21.5 12.5t42 32.5t41 46.5t18.5 54.5zM243 -339q0 37 -15 76t-32 71
q-20 38 -46 74q-5 9 -10 9t-17.5 -14.5t-25.5 -37t-23 -48.5t-10 -50q0 -39 12.5 -68t19.5 -41q2 -2 8.5 -11.5t17 -20.5t25 -20t32.5 -9q19 0 31 8.5t19.5 22t10.5 29.5t3 30z" />
    <glyph glyph-name="h" unicode="h" horiz-adv-x="467" 
d="M505 24q0 -6 -6 -14.5t-18 -16t-30.5 -13t-43.5 -5.5q-39 0 -70 15.5t-55 39t-41.5 51t-29.5 51t-19 39t-11 15.5t-8 -15t-8.5 -38t-10.5 -49t-13 -49t-16 -38t-20 -15q-7 0 -14.5 9.5t-8.5 29.5q-2 34 -3 79.5t-1 98.5q0 60 1.5 125t5.5 126.5t10.5 115.5t16.5 92
q8 30 24 45.5t33 15.5q7 0 15 -5.5t15 -19.5t11 -38.5t4 -63.5t-12 -90.5t-28.5 -100.5t-33 -89t-25.5 -57q-1 -1 -1.5 -15.5t-1.5 -34.5t-1.5 -43.5t-1 -44.5t-0.5 -35.5v-16.5q0 -4 2 -9t5 -5q1 0 4 11.5t7 30l8.5 40l8.5 42l7 37t4 23.5q1 3 1.5 9t3 12.5t8.5 11.5t17 5
q8 0 18.5 -19l25 -47t33.5 -61.5t43 -61.5t53.5 -47t66.5 -19q16 0 25.5 3.5t16 7.5t11.5 7.5t13 3.5q5 0 9.5 -4t4.5 -12zM172 592q0 26 -5.5 41.5t-17.5 15.5q-7 0 -13.5 -35.5t-11.5 -87t-8 -109.5t-3 -103q4 4 14 35t20 74t17.5 89t7.5 80z" />
    <glyph glyph-name="i" unicode="i" horiz-adv-x="164" 
d="M127 393q0 -20 -11.5 -32.5t-19.5 -12.5q-12 0 -18 5.5t-9 12t-3.5 13.5t-0.5 10q0 10 8 25t24 15q11 0 20.5 -10t9.5 -26zM124 248q0 -5 -0.5 -22t-1.5 -40t-2 -49.5t-2 -50t-2.5 -41.5t-2.5 -24q-3 -15 -10.5 -19.5t-14.5 -4.5q-8 0 -9 8.5t-2 15.5q1 10 1.5 21t0.5 23
q0 22 -1.5 46l-3 47t-2.5 42.5t-1 33.5q0 13 2 17q0 8 9 16t19 8q14 0 18.5 -6.5t4.5 -20.5z" />
    <glyph glyph-name="j" unicode="j" horiz-adv-x="173" 
d="M119 393q0 -14 -4.5 -22.5t-10 -13.5t-11 -7t-6.5 -2q-12 1 -22 7.5t-10 33.5q1 11 5 20q3 8 9.5 14t18.5 6q11 0 21 -10t10 -26zM114 284q0 -6 -3 -6v-114.5t-0.5 -67t-0.5 -38.5t-0.5 -30.5t-0.5 -41v-70.5q0 -32 -3.5 -71.5t-14.5 -74.5t-31.5 -59t-53.5 -24
q-18 0 -36 11.5t-36.5 29.5t-36.5 38l-35 38t-32 29.5t-27 11.5t-20.5 -7t-17.5 -7q-11 0 -11 11q0 4 4 13t12.5 17.5t20 15t26.5 6.5q25 0 52 -25t53.5 -55t52.5 -55t49 -25q12 0 21.5 7t15.5 26.5t9 52.5t3 86q0 142 2.5 214.5t2.5 89.5q0 5 -3 5t-10 -4.5l-15 -9.5
t-16 -9.5t-12 -4.5q-3 0 -8.5 2t-11 5.5t-9.5 9t-4 13.5q0 5 6.5 8.5t18 11t28 21t37.5 39.5q5 5 10 5q11 0 18 -6.5t7 -11.5z" />
    <glyph glyph-name="k" unicode="k" horiz-adv-x="417" 
d="M520 169q0 -2 -1.5 -4.5t-3.5 -5.5q-2 -4 -4 -7q-39 -51 -69.5 -83.5t-56 -51.5t-47 -26t-43.5 -7q-51 0 -83 21t-50 55t-24 76.5t-6 85.5q0 32 10.5 57t26 43t32.5 30t29 18q21 10 29.5 21t12 20t6.5 15t12 6q13 0 13 -19q0 -29 -10.5 -48.5t-26 -35t-34 -27.5t-34 -25
t-26 -29t-10.5 -38q0 -98 36.5 -146.5t96.5 -48.5q33 0 63 18t55.5 43t45 52.5l31.5 45.5q3 9 11 9q5 0 12 -4t7 -10zM205 613q0 -40 -12.5 -91t-28 -99t-31 -85t-21.5 -50v-62q0 -29 1 -63.5t2.5 -66t2.5 -55.5t1 -31q0 -9 -2.5 -19.5t-12.5 -10.5h-6q-8 0 -11.5 10.5
t-3.5 21.5l-3 264q-1 35 -1.5 78.5t0.5 89t5.5 88.5t15 77t27.5 54.5t43 20.5q15 0 25 -16.5t10 -54.5zM162 567q0 32 -7 45.5t-10 13.5q-5 0 -9.5 -10.5t-7.5 -27.5t-5.5 -39t-4.5 -45q-4 -54 -6 -122q0 -9 4 -9q6 0 14 23.5t15 55t12 64.5t5 51z" />
    <glyph glyph-name="l" unicode="l" horiz-adv-x="305" 
d="M405 169q0 -2 -1.5 -4.5t-3.5 -5.5q-2 -4 -4 -7q-35 -53 -62 -84.5t-47 -48t-34 -21t-23 -4.5q-41 0 -71.5 29t-50.5 78t-30.5 112.5t-10.5 131.5q0 54 6 110t18 101t30.5 73.5t42.5 28.5q19 0 29.5 -18t16 -41.5t6.5 -46.5t1 -34q0 -47 -9.5 -94.5t-22 -87.5t-24.5 -70
t-18 -42q-4 -8 -6 -13.5t-2 -13.5q0 -17 9.5 -42.5t25.5 -49.5t37.5 -41t44.5 -17q19 0 37.5 15.5t35 36t29.5 42t21 33.5q3 9 11 9q7 0 13 -5t6 -9zM175 512q0 11 -1.5 25.5t-4.5 28t-8 23.5t-12 13q-5 0 -11.5 -10t-12.5 -32t-10.5 -56.5t-4.5 -83.5q0 -56 2.5 -88.5
t5.5 -49t5.5 -21t3.5 -4.5q3 0 11 17t16 49t14.5 79.5t6.5 109.5z" />
    <glyph glyph-name="m" unicode="m" horiz-adv-x="698" 
d="M770 127q0 -4 -3 -8t-6 -9q-24 -41 -48 -65.5t-45 -38t-38.5 -17.5t-29.5 -4q-23 1 -41.5 13t-32 30t-23.5 39t-16.5 40.5t-9.5 34.5t-4 21q-1 10 -4 10q-1 0 -7 -13.5t-14 -37.5q-2 -4 -8.5 -22.5t-18 -39.5t-27.5 -37.5t-37 -16.5q-25 0 -37.5 21.5t-18 47.5t-7 47.5
t-4.5 21.5q-5 0 -13.5 -17.5l-20.5 -41.5q-17 -35 -35.5 -61.5t-29.5 -26.5q-13 0 -20 13t-10.5 34.5t-4 49.5t-0.5 57q0 14 -2.5 27.5t-12.5 13.5q-6 0 -16 -9.5t-21.5 -24l-25 -32t-26.5 -32.5q-5 -5 -7 -5q-5 0 -5 8t7.5 25.5t24.5 44.5q5 7 13.5 22t19 29.5t23 25.5
t24.5 11q13 0 20.5 -10.5t11.5 -26.5t4.5 -35.5t0.5 -37.5q0 -24 2 -38t5 -21t6.5 -9t5.5 -2q13 0 25.5 22.5t24.5 49l23 49t22 22.5q5 0 9 -3.5t6 -7.5q-1 2 3 -18.5t11.5 -46.5t17.5 -48t21 -22q18 0 34 26.5t27 60.5t17.5 64.5t6.5 38.5q0 9 2 15t13 6q7 0 15 -3t8 -11
q0 -6 3.5 -26t10 -46t17.5 -55.5t26 -53.5t34.5 -40t43.5 -16t44.5 15t35 33.5t23 34t8.5 17.5q3 9 11 9q5 0 12 -4t7 -10z" />
    <glyph glyph-name="n" unicode="n" horiz-adv-x="575" 
d="M607 25q0 -11 -9 -16q-32 -23 -64.5 -30.5t-58.5 -7.5q-36 0 -63 13.5t-46.5 34t-32 46t-20 49t-10.5 42.5t-3 27q0 12 -5 12q-3 0 -7 -9q-1 -3 -8 -17.5l-17 -34.5l-21 -43l-21 -43l-17 -34.5t-9 -17.5q-10 -15 -18 -15t-14 10t-8 19q-1 4 -1.5 14t-1 23t-0.5 28v29
l1 51q0 14 -1.5 25.5t-10.5 11.5q-6 0 -16 -9.5t-21.5 -24l-25 -32t-26.5 -32.5q-5 -5 -7 -5q-5 0 -5 8t7.5 25.5t24.5 44.5q5 7 13.5 22t19 29.5t23 25.5t24.5 11q13 0 20.5 -10.5t11.5 -26.5t4.5 -35.5t0.5 -37.5q0 -8 0.5 -19.5l1 -22t1 -19t0.5 -11.5q0 -11 2 -11
t4.5 3.5t4.5 8.5q2 4 9.5 20l16.5 34.5l17 34.5l10 20t7 15.5l11 24.5l12 25t12 18t11 6q6 0 11.5 -11.5t11 -28.5t11 -38t11.5 -39q8 -25 22 -51t34.5 -47t46.5 -34.5t59 -13.5q32 0 52 9.5t29 14.5q10 0 10 -8z" />
    <glyph glyph-name="o" unicode="o" horiz-adv-x="455" 
d="M547 152q-18 -27 -41.5 -45t-50 -29t-55.5 -16t-57 -5q-22 0 -43 3q-21 -24 -40 -37.5t-35 -19.5t-28.5 -7t-21.5 -1q-30 0 -50.5 12.5t-33.5 32t-19 43t-7 44.5q0 21 7 40t16.5 32.5t18.5 21t13 7.5q8 0 10.5 4t4.5 9q8 25 23 44q13 17 33.5 31t52.5 14q42 0 64 -22
t33 -48q12 -31 14 -69q0 -31 -11 -58t-25 -47q5 -1 10 -1h10q29 0 58.5 7t55.5 19t45.5 27.5t28.5 33.5q4 11 10 11q5 0 12 -4t7 -10zM321 182q0 22 -5 42.5t-15.5 36t-27 24.5t-38.5 9q-26 0 -45.5 -16.5t-19.5 -48.5q0 -16 3 -29.5t4 -15.5q13 -32 30.5 -50.5t34 -28
t29 -12t15.5 -2.5t9 7.5t12 20t10 29t4 34.5zM268 64q0 2 -8 3t-21 4t-28.5 10t-31.5 22q-2 2 -9.5 10.5t-15.5 21.5t-15.5 28.5t-9.5 32.5q0 6 -3 6q-6 -4 -10 -10t-7 -15.5t-3 -23.5q0 -8 2 -26.5t12 -38.5t29 -35t54 -15q17 0 29 4t20 9q10 5 16 13z" />
    <glyph glyph-name="p" unicode="p" horiz-adv-x="416" 
d="M518 169q0 -2 -1.5 -4.5t-3.5 -5.5q-2 -4 -4 -7q-39 -51 -75 -85.5t-69 -56t-63.5 -30.5t-57.5 -9q-39 0 -67 8.5t-46 21.5t-27 28.5t-9 29.5q0 16 25 16q10 0 19 -8.5l18.5 -18t20 -18t22.5 -8.5q18 6 33.5 21.5t26.5 36.5t17.5 44.5t6.5 45.5q0 31 -14.5 53t-47.5 22
t-57.5 -19t-42 -44.5t-30 -51.5t-21.5 -39q0 -1 -0.5 -18t-1.5 -41t-2 -52t-2 -52.5t-1.5 -42t-0.5 -19.5q0 -20 -0.5 -48.5t-3 -54.5t-7.5 -44.5t-15 -18.5q-12 0 -18.5 9.5t-9.5 24t-3.5 31.5t-0.5 33q0 33 5 71.5t12 76l13.5 70.5t9.5 54q3 23 5 55.5t2 80.5
q0 10 -1.5 12.5t-3.5 2.5q-8 0 -14 -9.5t-11 -9.5q-9 0 -9 14q0 12 5.5 21.5t12.5 19.5l14 20t10 22q1 3 1.5 14.5t1.5 25t1.5 25.5t0.5 15q0 13 0.5 31.5t4 35.5t10 29.5t18.5 12.5q13 0 17 -9.5t6 -17.5q0 -22 -4.5 -47.5t-10.5 -47.5t-11 -38t-5 -19q0 -5 -1 -24
t-1.5 -40.5t-1.5 -39.5t-1 -21q0 -5 2 -5q4 0 17 17.5t33.5 38t49 38t64.5 17.5q47 0 67 -28t20 -67q0 -27 -8.5 -56.5t-23 -55.5t-34.5 -46.5t-44 -29.5q3 -1 7 -2t19 -1q16 0 40.5 5.5t55.5 23.5t67.5 51.5t75.5 89.5q3 9 11 9q7 0 13 -5t6 -9z" />
    <glyph glyph-name="q" unicode="q" horiz-adv-x="387" 
d="M478 185q0 -8 -10.5 -25.5l-28 -49t-41 -79.5t-50.5 -118q-5 -13 -14 -45l-18.5 -66l-17 -63t-8.5 -36q-3 -14 -9 -18t-11 -4t-8.5 5t-6 11t-4 11.5t-1.5 7.5t1 20t2 40t2 41t1 24q0 3 1.5 18.5l3.5 38t3.5 48t3 48t3 39.5t1.5 21q0 8 -1.5 10t-3.5 2t-6 -2
q-26 -29 -62 -45.5t-67 -16.5q-25 0 -40.5 7t-24 18t-12.5 25t-7 29q0 55 40.5 110t120.5 92q39 18 72 18q26 0 44 -10t18 -26q0 -30 -23 -59t-57 -55.5t-72.5 -48.5l-69.5 -39q3 -13 17 -16t25 -3q22 0 43.5 13.5t38.5 31t28.5 32.5t13.5 18h5q11 0 14.5 -6.5t1.5 -24.5
l-17 -235q-1 -10 3 -10q2 0 4 4t4 7q22 73 55.5 142.5t62.5 122.5q8 20 20 38.5t20 18.5q18 0 18 -11zM294 238q0 14 -10 20.5t-22 6.5q-21 0 -48 -11.5t-52 -32.5t-42 -51t-17 -67q0 -7 2 -9q1 -1 3 -1t17 7t35.5 18.5t44 26.5t43.5 31.5t33 32t13 29.5z" />
    <glyph glyph-name="r" unicode="r" horiz-adv-x="356" 
d="M457 169q0 -2 -1.5 -4.5t-3.5 -5.5q-2 -4 -4 -7q-39 -51 -69.5 -84.5t-57.5 -53.5t-52.5 -28t-54.5 -8q-26 0 -44 18t-18 56q0 22 4 44t9.5 39.5t9.5 29t4 12.5q0 4 -6 4q-8 0 -21.5 -3.5t-23.5 -5.5q-12 -3 -22 -3q-17 0 -29.5 12t-12.5 19q0 13 2.5 30t10 31.5t20 24.5
t32.5 11q20 -3 20 -14q0 -4 -5 -11.5t-11.5 -15.5t-11.5 -15t-5 -10q0 -5 9 -5q14 0 25.5 3.5t21 8t17 8.5t13.5 4q14 0 19 -8.5t5 -13.5q0 -3 -3.5 -12l-8 -20l-9 -23t-6.5 -21q-2 -5 -4.5 -22t-2.5 -36q0 -35 8.5 -59t32.5 -24q22 0 51 18.5t57 44.5t51 54t35 46q3 9 11 9
q7 0 13 -5t6 -9z" />
    <glyph glyph-name="s" unicode="s" horiz-adv-x="299" 
d="M278 249q0 -5 -3 -13.5t-14 -8.5q-6 0 -8.5 4.5t-4.5 8.5q-15 25 -31.5 40t-30 23.5t-23.5 11t-12 2.5q-31 0 -43.5 -11t-12.5 -27q0 -21 13 -39t33 -34t43 -32.5t43 -34.5t33 -39.5t13 -47.5q0 -35 -14.5 -56t-33.5 -32t-37.5 -14.5t-26.5 -3.5q-38 0 -63.5 15t-42 34
t-23.5 37.5t-7 25.5q2 8 7 9.5t10 1.5q3 0 9 -4t22 -9.5t44.5 -9.5t75.5 -4q22 0 22 8q0 11 -12 23.5t-30 27.5l-39 31.5t-39 35t-30 39.5t-12 45q0 14 6.5 31t19 31.5t31.5 24t43 9.5q28 0 51 -13.5t39.5 -31t25.5 -33.5t9 -21zM214 5q0 4 -8 4q-49 0 -76.5 3.5t-32.5 5.5
q-4 -1 -4 -4q0 -7 7.5 -13.5t18.5 -11t22.5 -7.5t20.5 -3q25 0 38.5 11t13.5 15z" />
    <glyph glyph-name="t" unicode="t" horiz-adv-x="311" 
d="M426 460q0 -8 -10 -15.5t-37 -13.5q-2 0 -11.5 -2.5l-25 -6.5l-34.5 -8.5l-39 -9.5q-47 -11 -104 -26q-3 0 -6 -1q-6 -2 -8 -7q-22 -75 -22 -151q0 -27 1.5 -61.5t9 -65.5t21.5 -52t40 -21q22 0 49 17.5t52.5 42.5t47 52t33.5 45q3 9 11 9q7 0 13 -5t6 -9q0 -2 -1.5 -4.5
t-3.5 -5.5q-2 -4 -4 -7q-39 -51 -70.5 -85.5t-59 -55t-53 -29.5t-52.5 -9q-18 0 -34 16t-28.5 43.5t-20 64t-7.5 77.5q0 34 2.5 65t5.5 56l8 54q0 8 -8 8q-4 0 -28.5 -6l-54.5 -13.5l-57.5 -14.5t-36.5 -9q-4 -1 -7 -1.5t-6 -0.5q-10 0 -14 4t-4 9q0 10 25 19.5t59.5 18
t70.5 16.5t57 14q9 3 13 30t10 59t16.5 58t30.5 26q8 0 12.5 -9t4.5 -32q0 -4 -1.5 -15.5l-3.5 -26.5t-4.5 -31t-5.5 -28q0 -8 9 -8q3 0 18.5 4l37.5 10l48 13l50.5 13t44 10t29.5 4q11 0 18.5 -3.5t7.5 -8.5z" />
    <glyph glyph-name="u" unicode="u" horiz-adv-x="418" 
d="M497 130q0 -4 -3 -8t-6 -9q-24 -41 -48 -65.5t-45 -37.5t-38.5 -17.5t-29.5 -4.5q-34 0 -50 18.5t-22.5 40t-8 40t-5.5 18.5t-6 -6q-18 -32 -36.5 -51.5t-34 -30t-27.5 -13.5t-17 -3q-20 0 -31.5 11t-17.5 26.5t-8 32t-2 27.5q0 26 7.5 57t16.5 57q11 31 25 61q1 2 3 4
q4 4 9 4q8 0 12.5 -5.5t4.5 -10.5q0 -3 -2 -7q-6 -15 -11 -33.5t-8 -35t-5 -30t-3 -19.5q0 -42 10.5 -57.5t25.5 -15.5q24 0 43.5 21t34.5 49t25.5 55.5t16.5 41.5t14 14q6 0 12 -3.5t6 -8.5q0 -4 -1 -6q-3 -11 -5 -17.5t-3 -13t-1 -15.5v-24q0 -17 4 -38.5t12.5 -40.5
t21 -32.5t30.5 -13.5q24 0 44.5 15t35 33.5t23 34t8.5 17.5q3 9 11 9q5 0 12 -4t7 -10z" />
    <glyph glyph-name="v" unicode="v" horiz-adv-x="306" 
d="M436 395q0 -11 -10.5 -25t-27.5 -14q-5 0 -5.5 2.5t-4.5 2.5q-6 0 -23 -18t-40 -48t-48 -67.5t-46 -77.5t-34.5 -78t-13.5 -68q0 -8 -3.5 -18.5t-17.5 -10.5q-7 0 -12 4.5t-5 11.5q0 9 -11 39l-24.5 66.5t-24.5 73t-11 58.5t4.5 44t12 39t16.5 28t18 11q11 0 21.5 -10.5
t10.5 -39.5q0 -28 -3 -47t-7 -31t-7 -18t-3 -9q0 -2 3.5 -13l8.5 -26l10 -31l9 -28q0 -4 1 -7q2 -7 5 -7q2 0 3.5 3t3.5 12q20 58 49.5 116t62 104.5t65 76t59.5 30.5q5 0 12 -9t7 -21zM131 284q0 7 -0.5 12.5t-2.5 6.5q-11 0 -13.5 -14.5t-2.5 -25.5q0 -7 1 -13t5 -8
q3 3 6 8q2 5 4.5 12.5t2.5 21.5z" />
    <glyph glyph-name="w" unicode="w" horiz-adv-x="525" 
d="M494 239q0 -14 -5.5 -17t-16.5 -3q-2 0 -4.5 -2.5t-2.5 -12.5q0 -2 1 -13.5l2.5 -27.5t2.5 -32.5t1 -29.5q0 -43 -9.5 -69t-24 -39.5t-31.5 -18t-31 -4.5q-32 0 -48 19t-23 41.5t-9.5 41.5t-6.5 19q-2 0 -6 -3.5t-4 -6.5q-19 -29 -37 -47t-34.5 -28.5t-31 -14.5t-25.5 -4
q-21 0 -37 11t-27.5 28.5t-17.5 40t-6 45.5q0 14 5 42t13.5 55.5t18.5 48.5t20 21q5 0 10 -5.5t7 -12.5q0 -10 -9.5 -39.5t-9.5 -85.5q0 -100 58 -100q24 0 44.5 18.5t36.5 42t26 45t12 27.5q1 4 2.5 11.5t4 15.5t6.5 14t12 6q8 -2 10.5 -4t2.5 -7q0 -3 -0.5 -6t-0.5 -8
q0 -13 3 -40t10.5 -54.5t19.5 -48.5t30 -21q17 0 33 19t16 65q0 21 -3 43.5l-6 43.5t-6 38.5t-3 28.5q0 26 13.5 33.5t22.5 7.5q8 0 14 -7t10 -17.5t6 -22t2 -20.5z" />
    <glyph glyph-name="x" unicode="x" horiz-adv-x="365" 
d="M426 227q0 -7 -6 -26.5t-17 -45t-28 -53t-38.5 -51t-48 -38.5t-57.5 -15q-26 0 -57 14.5t-50 46.5q-1 1 -6 1q-2 0 -12.5 -12t-23.5 -29.5l-27 -37l-24 -34.5q-5 -9 -11 -9q-7 0 -13.5 8t-6.5 14q0 4 3 9q2 5 16 24t31 40l43 53q1 1 2 3l2 4t1 5q0 2 -2 10q-2 4 -8 21
t-12.5 41t-12 50.5t-5.5 48.5q0 7 3 15.5t14 8.5q5 0 10.5 -16l13 -39l16.5 -48.5t21 -44.5q3 -4 5 -4q3 0 14.5 13.5l29 33.5l38 43.5t40.5 43.5q7 7 17 7q5 0 10.5 -2.5t5.5 -8.5q0 -8 -9 -15q-2 -2 -11.5 -12.5l-23 -25l-28.5 -31.5l-28 -31.5l-22 -24.5t-10 -11
q-2 -2 -3.5 -4t-1.5 -4q0 -4 8.5 -14.5t22.5 -21.5t31.5 -19.5t35.5 -8.5q14 0 28.5 5t29.5 19.5t30 39t29 63.5q4 10 7 21.5t6.5 21.5t7.5 16.5t9 6.5q10 0 16 -4.5t6 -9.5z" />
    <glyph glyph-name="y" unicode="y" horiz-adv-x="337" 
d="M299 249q0 -6 -2.5 -22.5t-4.5 -27.5q-1 -3 -2 -23.5t-3 -50t-3.5 -63t-3 -62.5t-3 -49.5t-1.5 -23.5q0 -5 -0.5 -28.5t-1 -52t-1 -54t-1.5 -32.5q0 -2 -1.5 -23t-9.5 -45t-25 -44t-48 -20q-25 0 -46.5 11t-39 27t-32 35l-27 35t-23.5 27t-21 11q-7 0 -13.5 -3.5
t-11.5 -3.5q-7 0 -10 6t-3 14q0 10 5.5 17.5t13 12.5t16 7.5t14.5 2.5q17 0 34 -11.5t32.5 -28t31 -36.5t31 -36.5t30.5 -28t30 -11.5q17 0 26 19t13 51.5t4.5 75.5t0.5 91t1 97.5t6 95.5q0 9 -3 9q-5 0 -14 -18t-24 -40t-35.5 -40t-47.5 -18q-17 1 -30 12q-11 9 -20.5 29.5
t-9.5 58.5q0 19 3 41.5t8 42.5q4 23 11 45q3 14 15 14q13 -3 16.5 -6.5t3.5 -8.5q0 -2 -1.5 -11t-4 -22.5t-4 -30t-1.5 -32.5q0 -44 14.5 -60.5t24.5 -16.5q12 0 24.5 12.5t24 31.5t21.5 42l18.5 43.5t14 36.5t7.5 21q5 11 9 17.5t11 6.5h8q5 0 7.5 -5t2.5 -10z" />
    <glyph glyph-name="z" unicode="z" horiz-adv-x="346" 
d="M348 17q0 -5 -6.5 -10t-14 -9.5t-13.5 -9t-6 -10.5q0 -3 0.5 -5t1.5 -5.5t1.5 -12t0.5 -24.5q0 -18 -5 -45.5t-14.5 -59t-24 -64t-33 -60.5t-42 -47.5t-51.5 -25.5q-10 0 -21 2t-20.5 8.5t-15.5 20t-6 36.5q0 36 12.5 70t30.5 64t40 56l40 46l30.5 33t12.5 17
q0 7 -6 13.5t-15 11t-18.5 7t-15.5 2.5t-15 -4.5t-17 -10l-14.5 -10t-9.5 -4.5q1 0 -8 3.5t-9 11.5q0 3 2 7.5t8 11.5q12 14 36 39t47 53.5t40.5 56.5t17.5 48q0 8 -4.5 21.5t-18.5 15.5q-27 0 -52 -10t-44.5 -26t-31 -34.5t-11.5 -34.5q0 -5 6.5 -11t6.5 -14
q0 -15 -10.5 -25.5t-29.5 -10.5q-10 0 -18.5 7.5t-8.5 21.5q0 19 15.5 48t41.5 56t60 46.5t70 19.5q13 0 25 -2.5t21.5 -9.5t15 -19t5.5 -30q0 -6 -2.5 -21t-11.5 -36.5t-27.5 -47.5t-50.5 -54q-4 -4 -7 -7.5t-3 -6.5q0 -6 19 -9q21 -2 33.5 -7.5t19.5 -11.5t10.5 -10.5
t6.5 -4.5q2 0 6 3.5l9.5 8t11.5 8t12 3.5t9 -3t5 -6q2 -4 2 -8zM264 -65q-1 10 -7 10q-8 0 -20 -11.5t-25 -31t-26.5 -43.5t-24 -49.5t-17 -50t-6.5 -43.5q0 -11 6 -19t14 -8q6 0 23.5 15t35.5 45.5t32.5 77t14.5 108.5z" />
    <glyph glyph-name="braceleft" unicode="{" horiz-adv-x="236" 
d="M98 -198q-3 -4 -6 -4q-2 0 -6 2q-2 1 -3 2q-12 13 -24 30t-22 39.5t-16.5 51.5t-6.5 66q0 30 4.5 42.5t10.5 24.5t10.5 30t4.5 59q0 26 -9 51t-33 60q-2 1 -4 3q-4 4 -4 13t4 13q2 2 4 3q24 35 33 60t9 51q0 40 -4.5 58.5t-10.5 30.5t-10.5 24.5t-4.5 42.5q0 37 6.5 66
t16.5 51.5t22 39.5t24 30q1 1 3 2q4 2 6 2q3 0 6 -4q0 -5 -4 -15t-8.5 -28t-8 -44t-3.5 -63q0 -30 3.5 -52.5t7.5 -42t7.5 -39t3.5 -44.5q0 -10 -3 -27.5t-11 -37.5t-21.5 -41t-34.5 -37q21 -16 34.5 -36.5t21.5 -40.5t11 -37t3 -27q0 -25 -3.5 -44.5t-7.5 -39t-7.5 -42
t-3.5 -52.5q0 -37 3.5 -63t8 -44t8.5 -28t4 -15z" />
    <glyph glyph-name="bar" unicode="|" horiz-adv-x="229" 
d="M144 -233q0 -6 -11 -6h-5l-3 1q-11 4 -15 11q-2 3 -3 6l-1 941l2.5 2.5t6.5 1.5l11 -1q5 -2 9 -5.5t6 -5.5q3 -4 3 -6v-939v0z" />
    <glyph glyph-name="braceright" unicode="}" horiz-adv-x="283" 
d="M241 272q0 -9 -4 -13q-2 -2 -4 -3q-24 -35 -33 -60t-9 -51q0 -41 4.5 -59t10.5 -30t10.5 -24.5t4.5 -42.5q0 -37 -6.5 -66t-16.5 -51.5t-22 -39.5t-24 -30q-1 -1 -3 -2q-4 -2 -6 -2q-3 0 -6 4q0 5 3.5 15t8 28t8.5 44t4 63q0 30 -3.5 52.5t-7.5 42t-7.5 39t-3.5 44.5
q0 10 3 27.5t11 37.5t21.5 41t34.5 37q-21 16 -34.5 36.5t-21.5 40.5t-11 37t-3 27q0 25 3.5 44.5t7.5 39t7.5 42t3.5 52.5q0 37 -4 63t-8.5 44t-8 28t-3.5 15q3 4 6 4q2 0 6 -2q2 -1 3 -2q12 -13 24 -30t22 -39.5t16.5 -51.5t6.5 -66q0 -30 -4.5 -42.5t-10.5 -24.5
t-10.5 -30.5t-4.5 -58.5q0 -26 9 -51t33 -60q2 -1 4 -3q4 -4 4 -13z" />
    <glyph glyph-name="asciitilde" unicode="~" horiz-adv-x="317" 
d="M271 359q0 -15 -6 -26.5t-15 -19.5t-19.5 -12t-20.5 -4q-17 0 -29 8.5t-24 18.5t-26.5 18.5t-34.5 8.5q-13 0 -21 -4t-12.5 -9t-7 -10l-3.5 -7q-6 0 -8.5 9.5t-2.5 14.5q0 15 6 26.5t15 19.5t20 12t21 4q17 0 30 -8.5t26 -18t28.5 -18t36.5 -8.5q15 0 24.5 12.5
l12.5 16.5q5 0 7.5 -9.5t2.5 -14.5z" />
    <glyph glyph-name="Adieresis" unicode="&#xc4;" horiz-adv-x="608" 
d="M452 766q0 -20 -12 -32.5t-20 -12.5q-12 0 -18.5 5.5t-9.5 12t-3.5 13.5t-0.5 10q0 10 8.5 25t24.5 15q11 0 21 -10t10 -26zM312 763q0 -20 -12 -32.5t-20 -12.5q-12 0 -18.5 5.5t-9.5 12t-3.5 13.5t-0.5 10q0 10 8.5 25t24.5 15q11 0 21 -10t10 -26zM657 -20
q0 -8 -4 -12.5t-10 -6.5t-13.5 -2.5t-14.5 -0.5q-30 0 -57 14.5t-48 33.5t-35.5 38.5t-19.5 29.5q-5 11 -9.5 14.5t-7.5 3.5q-4 0 -7.5 -5.5t-14.5 -19.5q-27 -33 -56 -54t-57.5 -33t-56 -16t-49.5 -4q-60 0 -102.5 24.5t-69.5 63t-39.5 84.5t-12.5 89q0 103 35 187
t92.5 144t132 92.5t153.5 32.5q24 0 59.5 -6t68.5 -24t56 -51.5t23 -87.5q0 -17 -5 -39t-14 -45t-22.5 -46t-31.5 -42q0 -36 -5 -64t-11.5 -48.5t-12.5 -33.5t-9 -17q-5 -6 -5 -19q0 -14 15.5 -41.5t40 -54.5t55 -47.5t60.5 -20.5q9 0 9 -10zM492 344q-3 47 -8.5 64
t-15.5 17q-8 0 -14 -13t-11 -32.5t-7.5 -41t-2.5 -37.5q19 9 33.5 20.5t25.5 22.5zM491 308q-2 -2 -10 -7.5t-18 -11.5l-26 -16q6 -29 9 -45t5 -24t4.5 -10t7.5 -2t9.5 13.5t8 32t6 38.5t4.5 32zM553 472q0 30 -11 61t-33.5 55.5t-56.5 40.5t-79 16q-85 0 -151 -36
t-111.5 -92t-69 -125t-23.5 -135q0 -63 19.5 -112t50 -82.5t67.5 -51t72 -17.5q40 0 72 14.5t56 33.5t40 37.5t22 27.5q7 7 9 14t2 11t-4 14.5t-8.5 26.5t-8 37t-3.5 46q-22 -8 -41 -14l-33.5 -9.5t-24.5 -4.5q-6 0 -10.5 2t-4.5 8q0 9 11 15q4 3 11 3q17 4 28.5 7t21 7
l19 8t22.5 10q1 16 4 44t11 55t22 47t37 20q14 0 25 -18.5t15 -60.5q17 24 26.5 45.5t9.5 51.5z" />
    <glyph glyph-name="Aring" unicode="&#xc5;" horiz-adv-x="608" 
d="M442 793q-1 -21 -10 -37q-8 -14 -24 -25t-46 -11q-20 0 -31 7.5t-16 17.5q-6 11 -7 26q1 20 10 37q8 14 24.5 26t48.5 12q19 0 29.5 -8.5t15.5 -18.5q5 -11 6 -26zM657 -20q0 -8 -4 -12.5t-10 -6.5t-13.5 -2.5t-14.5 -0.5q-30 0 -57 14.5t-48 33.5t-35.5 38.5t-19.5 29.5
q-5 11 -9.5 14.5t-7.5 3.5q-4 0 -7.5 -5.5t-14.5 -19.5q-27 -33 -56 -54t-57.5 -33t-56 -16t-49.5 -4q-60 0 -102.5 24.5t-69.5 63t-39.5 84.5t-12.5 89q0 103 35 187t92.5 144t132 92.5t153.5 32.5q24 0 59.5 -6t68.5 -24t56 -51.5t23 -87.5q0 -17 -5 -39t-14 -45
t-22.5 -46t-31.5 -42q0 -36 -5 -64t-11.5 -48.5t-12.5 -33.5t-9 -17q-5 -6 -5 -19q0 -14 15.5 -41.5t40 -54.5t55 -47.5t60.5 -20.5q9 0 9 -10zM414 788q0 8 -4 15q-3 6 -9 11t-17 5q-18 0 -27.5 -7t-14.5 -15q-5 -10 -6 -21q0 -9 4 -15q3 -5 9.5 -9.5t18.5 -4.5q17 0 26 6
t14 14q5 9 6 21zM492 344q-3 47 -8.5 64t-15.5 17q-8 0 -14 -13t-11 -32.5t-7.5 -41t-2.5 -37.5q19 9 33.5 20.5t25.5 22.5zM491 308q-2 -2 -10 -7.5t-18 -11.5l-26 -16q6 -29 9 -45t5 -24t4.5 -10t7.5 -2t9.5 13.5t8 32t6 38.5t4.5 32zM553 472q0 30 -11 61t-33.5 55.5
t-56.5 40.5t-79 16q-85 0 -151 -36t-111.5 -92t-69 -125t-23.5 -135q0 -63 19.5 -112t50 -82.5t67.5 -51t72 -17.5q40 0 72 14.5t56 33.5t40 37.5t22 27.5q7 7 9 14t2 11t-4 14.5t-8.5 26.5t-8 37t-3.5 46q-22 -8 -41 -14l-33.5 -9.5t-24.5 -4.5q-6 0 -10.5 2t-4.5 8
q0 9 11 15q4 3 11 3q17 4 28.5 7t21 7l19 8t22.5 10q1 16 4 44t11 55t22 47t37 20q14 0 25 -18.5t15 -60.5q17 24 26.5 45.5t9.5 51.5z" />
    <glyph glyph-name="Ccedilla" unicode="&#xc7;" horiz-adv-x="588" 
d="M613 41q0 -8 -6.5 -20t-16.5 -19l-18.5 -12.5t-43.5 -22.5t-66.5 -21.5t-86.5 -9.5q-41 0 -78 6l-5 -18q0 -2 2 -4q1 -1 2 -1q23 -7 30 -18t7 -19q0 -4 -2 -11.5t-7.5 -14.5t-16 -12.5t-28.5 -5.5q-25 0 -27 11q-1 1 0 2q0 2 4 2h6q8 0 21 3.5t16 18.5q0 6 -4 10
q-3 4 -10 7t-21 4q-1 0 -2 1q-2 2 -2 4q4 15 9.5 27.5t8.5 17.5q-76 16 -137 54t-104.5 92.5t-67 121t-23.5 139.5t24.5 143t67 125t99 88.5t121.5 33.5q60 0 112 -20.5t89.5 -53.5t59 -75t21.5 -84q0 -23 -9.5 -32t-23.5 -9q-15 0 -34.5 8.5t-37.5 21.5t-32.5 27t-20.5 26
q-4 8 -7 10t-5 2q-5 0 -7.5 -7.5t-12.5 -7.5q-11 0 -11 13q0 14 7 38.5t7 48.5q0 14 -4 26.5t-14.5 22t-28 15t-45.5 5.5q-49 0 -96.5 -23.5t-85 -66.5t-60.5 -104.5t-23 -136.5q0 -72 29 -145.5t82.5 -133t128.5 -97t168 -37.5q52 0 87.5 12t58 26t34.5 26t18 12
q4 0 5.5 -1.5l3.5 -3.5l2 -4v0zM506 526q0 13 -15.5 38t-35.5 49.5t-40.5 42.5t-29.5 18q-2 0 -2 -3q0 -2 10.5 -26t27 -52t37 -51t40.5 -23q8 0 8 7z" />
    <glyph glyph-name="Eacute" unicode="&#xc9;" horiz-adv-x="530" 
d="M371 825q0 -14 -8 -23.5t-17 -9.5q-19 -1 -42 -12t-43.5 -23.5t-36 -23t-19.5 -10.5t-4 9q8 11 25 30t38 37t43.5 31.5t43.5 13.5q8 0 14 -6t6 -13zM580 170q0 -10 -18 -30t-48 -43t-68.5 -47.5t-79 -44.5t-80 -32.5t-71.5 -12.5q-37 0 -67.5 7t-52.5 23t-34.5 40.5
t-12.5 59.5q0 18 7 46t24 61t45 69t71 71q16 13 16 16q0 1 -2 1q-3 0 -11 -2.5t-16.5 -6t-16 -7t-10.5 -4.5l-12.5 -4t-23 -6.5t-30 -6.5t-33.5 -3q-36 0 -53 23t-22 52q-4 0 -24 -6l-50 -15l-67.5 -19.5t-77 -19.5t-78.5 -15t-71 -6q-6 2 -18.5 5.5t-25 8t-22 9.5t-9.5 10
q0 2 3 4t12 2q21 0 54.5 4.5t74 11.5t85 16.5t85.5 19.5t76 20.5t58 20.5q23 46 57 84t73.5 67.5t81.5 51.5t81.5 36t73 21t55.5 7q26 0 41 -7.5t15 -24.5q0 -23 -18.5 -47t-49 -47.5t-69.5 -45.5t-79 -41q-95 -46 -216 -88q1 -13 10 -24q8 -9 24 -16.5t46 -7.5q21 0 41 4
t47 15t64 30t90 49q4 2 6.5 3t4.5 1q4 0 9 -4t5 -9q0 -7 -13 -14l-33 -22.5t-52 -37.5t-59.5 -49t-56 -57.5t-42 -64.5t-16.5 -69q0 -23 7 -45.5t22 -39.5t37.5 -27.5t54.5 -10.5q47 0 90.5 13.5t83 36.5t76.5 52.5t72 61.5q1 2 4 5q2 2 4.5 3.5t6.5 1.5q5 0 10 -4t5 -10z
M421 665q0 12 -24 12q-40 0 -82 -13.5t-81 -34t-73.5 -45t-60.5 -48t-41 -42t-15 -26.5q0 -5 6 -5t12 3q4 1 7 3q13 4 43.5 17l70 31t81.5 39.5t77 42t57.5 38t22.5 28.5z" />
    <glyph glyph-name="Ntilde" unicode="&#xd1;" horiz-adv-x="594" 
d="M515 788q0 -22 -19 -33.5t-37 -11.5q-15 0 -26 6t-22 13.5t-24 14t-31 6.5q-23 0 -30.5 -10t-9.5 -12q-5 0 -7.5 7t-2.5 11q0 22 19 33.5t37 11.5q15 0 27 -6t24 -13.5t25.5 -13.5t33.5 -6q14 0 22.5 9.5t10.5 11.5q5 0 7.5 -7t2.5 -11zM843 723q0 -4 -5 -4
q-6 0 -17.5 6.5t-44.5 6.5q-52 0 -97.5 -26.5t-80.5 -73t-58 -109.5t-30 -137q-3 -30 -4.5 -69.5t-2 -81l-1 -81t-0.5 -69.5q0 -38 -1.5 -60.5t-4 -35.5t-6 -17t-7.5 -4q-16 0 -39 35.5t-48.5 90.5t-51 122.5t-46 132t-33 118t-12.5 81.5q0 31 6.5 42t8.5 11q4 0 7.5 -6
t5.5 -12l87 -255l33.5 -94t30.5 -81.5t24 -57.5t14 -22q2 0 2 4.5v18.5q0 5 -0.5 28.5t-0.5 60.5q0 44 1.5 105.5t10 127.5t25.5 131t48.5 116.5t79.5 83.5t118 32q9 0 24 -2.5t29.5 -8.5t25 -17.5t10.5 -29.5zM251 628q0 -14 -4 -14q-3 0 -6 3.5t-5 3.5q-4 0 -4 -8.5
t-1 -28.5v-48.5t0.5 -76t1.5 -89t1.5 -88t1 -73t0.5 -42.5q0 -30 -3 -67.5t-14 -71.5t-34 -57t-62 -23q-23 0 -49 15.5t-52 39.5t-52 51l-50 51t-44.5 39.5t-36.5 15.5q-7 0 -10.5 -3.5t-6.5 -8l-5.5 -8t-8.5 -3.5q-3 0 -6 3q-5 5 -5 21q0 6 2.5 15t8 17.5t14 14.5t21.5 6
q27 0 52.5 -16.5t51 -40.5t50.5 -53t49.5 -53t49.5 -40.5t51 -16.5q22 0 34 20.5t17.5 54t6.5 76t1 86.5q0 21 -0.5 52.5t-1 66.5l-1 71t-1 67t-1 53.5t-0.5 30.5q0 17 1 33.5t4 30t7.5 21.5t11.5 8q9 -2 17.5 -10t8.5 -27z" />
    <glyph glyph-name="Odieresis" unicode="&#xd6;" horiz-adv-x="631" 
d="M417 798q0 -20 -12 -32.5t-20 -12.5q-12 0 -18.5 5.5t-9.5 12t-3.5 13.5t-0.5 10q0 10 8.5 25t24.5 15q11 0 21 -10t10 -26zM277 795q0 -20 -12 -32.5t-20 -12.5q-12 0 -18.5 5.5t-9.5 12t-3.5 13.5t-0.5 10q0 10 8.5 25t24.5 15q11 0 21 -10t10 -26zM700 144
q-14 -34 -37 -60.5t-51.5 -44.5t-61 -27.5t-64.5 -9.5q-27 0 -42 2t-23.5 4.5t-12 4.5t-7.5 2q-3 0 -13.5 -6.5t-27.5 -14.5t-41.5 -14.5t-55.5 -6.5q-60 0 -109.5 20.5t-84 59.5t-53.5 95t-19 127q0 77 17 140t46 112.5t67 85.5t80 59t84.5 34.5t81.5 11.5q30 0 56 -9
t45 -24t30 -33.5t11 -36.5q0 -14 -3.5 -23t-8 -15.5t-8 -10.5t-3.5 -7q0 -2 1 -4t2.5 -4t5.5 -4q28 -19 45.5 -46t27 -57t12.5 -59.5t3 -53.5q0 -62 -21 -113t-47 -89q-30 -44 -67 -80q0 -4 5.5 -6.5t13 -3.5t15.5 -1.5t14 -0.5q35 0 62.5 11t48 25t33 28.5l17.5 20.5l4 5
l9 11t10 10.5t7 4.5q7 -4 7 -9zM554 329q0 50 -11 88.5t-29.5 64.5t-43 39.5t-51.5 13.5q-38 0 -66 -17t-46 -46t-27 -67.5t-9 -81.5q0 -75 22 -126.5t48 -82.5q31 -37 70 -60q39 25 71 64q27 33 49.5 84.5t22.5 126.5zM468 617q0 9 -3.5 21.5t-14 23.5t-29 18.5t-48.5 7.5
q-25 0 -59 -7t-70 -23.5t-71.5 -43.5t-63.5 -67.5t-45 -95t-17 -125.5q0 -43 12 -96.5t41.5 -101t78 -79.5t121.5 -32q20 0 32.5 2t18.5 5q7 4 10 8q-17 10 -39.5 32t-42.5 55.5t-34 78.5t-14 101q0 22 2.5 50.5t10 58.5t21 58.5t36 51t55 36t77.5 13.5h9t8 -1q5 7 9 15
q3 7 6 16t3 20z" />
    <glyph glyph-name="Udieresis" unicode="&#xdc;" horiz-adv-x="605" 
d="M384 684q0 -20 -12 -32.5t-20 -12.5q-12 0 -18.5 5.5t-9.5 12t-3.5 13.5t-0.5 10q0 10 8.5 25t24.5 15q11 0 21 -10t10 -26zM244 681q0 -20 -12 -32.5t-20 -12.5q-12 0 -18.5 5.5t-9.5 12t-3.5 13.5t-0.5 10q0 10 8.5 25t24.5 15q11 0 21 -10t10 -26zM582 -7q0 -9 -3 -17
t-18 -8q-42 0 -72 20t-49 65.5t-28 121t-9 186.5q0 6 -5 6h-1q-5 0 -6 -7t-5 -16q-2 -6 -14 -36t-31 -71.5t-43.5 -88.5t-52.5 -86.5t-57.5 -65.5t-57.5 -26q-35 0 -58 28.5t-37 71.5t-20 94.5t-6 97.5q0 20 1.5 42t4 41.5t4 33t1.5 16.5q0 7 -5 7t-11.5 -11l-14 -24
t-16 -24t-17.5 -11q-13 0 -13 16q0 8 5 16l17 24t25 37.5t24 41t14 34.5q6 28 10.5 56t10.5 50.5t14.5 37t22.5 14.5q16 0 20 -4t4 -9q0 -1 -1.5 -16t-6 -36.5t-13 -45.5t-21.5 -44q-4 -30 -6 -67.5t-2 -78.5q0 -57 5 -115.5t16 -105t29 -76t45 -29.5q23 0 49 30t52 77
t51.5 106t47.5 117t39 109l28 83q1 7 3.5 12.5t13.5 5.5q6 0 11 -1t5 -9q0 -9 -4 -29q-1 -11 -3 -38l-4.5 -59.5t-4 -64.5t-1.5 -52q0 -47 7.5 -100.5t23.5 -99t40.5 -76t57.5 -30.5q7 0 11 -3t4 -17z" />
    <glyph glyph-name="aacute" unicode="&#xe1;" horiz-adv-x="464" 
d="M348 408q0 -14 -8 -23.5t-17 -9.5q-19 -1 -42 -12t-43.5 -23.5t-36 -23t-19.5 -10.5t-4 9q8 11 25 30t38 37t43.5 31.5t43.5 13.5q8 0 14 -6t6 -13zM570 169q0 -2 -1.5 -4.5t-3.5 -5.5q-2 -4 -4 -7q-39 -51 -70.5 -85.5t-59 -55t-53 -29.5t-52.5 -9q-18 0 -32 8.5t-23 22
t-14 30t-5 31.5v6q0 5 -4 5q-2 0 -3 -3q-3 -5 -19 -19.5t-39 -30t-50.5 -28t-52.5 -12.5q-28 0 -43 8t-22 19.5t-8 23.5t-1 21q0 30 21.5 68t56 71.5t79 56.5t90.5 23q21 0 40.5 -10t19.5 -33q0 -20 -13 -40.5t-34 -40t-47 -37t-51 -32t-47 -25t-35 -14.5q-6 -2 -6 -6
t5.5 -7.5t13.5 -3.5q5 0 8 1q8 2 23 7t33.5 15t39 25t39.5 38q9 11 16 15.5t12 4.5q6 0 9 -4.5t5 -10t2.5 -10.5t0.5 -6q0 -3 3 -16.5t10.5 -28t20.5 -26.5t33 -12q22 0 49 17.5t52.5 42.5t47 52t33.5 45q3 9 11 9q7 0 13 -5t6 -9zM269 212q0 14 -8 21.5t-35 7.5
q-21 0 -49 -15.5t-53.5 -39.5t-43 -53.5t-17.5 -57.5q0 -11 6 -11q3 0 19 7t38 18t47 26.5t46.5 31.5t35.5 33t14 32z" />
    <glyph glyph-name="agrave" unicode="&#xe0;" horiz-adv-x="464" 
d="M317 315q0 -9 -4 -9t-19.5 10.5t-36 23t-43.5 23.5t-42 12q-9 0 -17 9.5t-8 23.5q0 7 6 13t14 6q21 0 43.5 -13t43.5 -31t38 -37t25 -31zM570 169q0 -2 -1.5 -4.5t-3.5 -5.5q-2 -4 -4 -7q-39 -51 -70.5 -85.5t-59 -55t-53 -29.5t-52.5 -9q-18 0 -32 8.5t-23 22t-14 30
t-5 31.5v6q0 5 -4 5q-2 0 -3 -3q-3 -5 -19 -19.5t-39 -30t-50.5 -28t-52.5 -12.5q-28 0 -43 8t-22 19.5t-8 23.5t-1 21q0 30 21.5 68t56 71.5t79 56.5t90.5 23q21 0 40.5 -10t19.5 -33q0 -20 -13 -40.5t-34 -40t-47 -37t-51 -32t-47 -25t-35 -14.5q-6 -2 -6 -6t5.5 -7.5
t13.5 -3.5q5 0 8 1q8 2 23 7t33.5 15t39 25t39.5 38q9 11 16 15.5t12 4.5q6 0 9 -4.5t5 -10t2.5 -10.5t0.5 -6q0 -3 3 -16.5t10.5 -28t20.5 -26.5t33 -12q22 0 49 17.5t52.5 42.5t47 52t33.5 45q3 9 11 9q7 0 13 -5t6 -9zM269 212q0 14 -8 21.5t-35 7.5q-21 0 -49 -15.5
t-53.5 -39.5t-43 -53.5t-17.5 -57.5q0 -11 6 -11q3 0 19 7t38 18t47 26.5t46.5 31.5t35.5 33t14 32z" />
    <glyph glyph-name="acircumflex" unicode="&#xe2;" horiz-adv-x="464" 
d="M360 304q-3 -10 -10 -8q-4 1 -11 12t-17.5 24.5t-25 26.5t-33.5 17q-19 -1 -38.5 -11.5t-36.5 -23t-29 -23t-16 -10.5t-4 9q9 8 22 25t29 34.5t34.5 31.5t38.5 16h8q15 0 30 -15t27 -35.5t20.5 -40.5t11.5 -29zM570 169q0 -2 -1.5 -4.5t-3.5 -5.5q-2 -4 -4 -7
q-39 -51 -70.5 -85.5t-59 -55t-53 -29.5t-52.5 -9q-18 0 -32 8.5t-23 22t-14 30t-5 31.5v6q0 5 -4 5q-2 0 -3 -3q-3 -5 -19 -19.5t-39 -30t-50.5 -28t-52.5 -12.5q-28 0 -43 8t-22 19.5t-8 23.5t-1 21q0 30 21.5 68t56 71.5t79 56.5t90.5 23q21 0 40.5 -10t19.5 -33
q0 -20 -13 -40.5t-34 -40t-47 -37t-51 -32t-47 -25t-35 -14.5q-6 -2 -6 -6t5.5 -7.5t13.5 -3.5q5 0 8 1q8 2 23 7t33.5 15t39 25t39.5 38q9 11 16 15.5t12 4.5q6 0 9 -4.5t5 -10t2.5 -10.5t0.5 -6q0 -3 3 -16.5t10.5 -28t20.5 -26.5t33 -12q22 0 49 17.5t52.5 42.5t47 52
t33.5 45q3 9 11 9q7 0 13 -5t6 -9zM269 212q0 14 -8 21.5t-35 7.5q-21 0 -49 -15.5t-53.5 -39.5t-43 -53.5t-17.5 -57.5q0 -11 6 -11q3 0 19 7t38 18t47 26.5t46.5 31.5t35.5 33t14 32z" />
    <glyph glyph-name="adieresis" unicode="&#xe4;" horiz-adv-x="464" 
d="M328 374q0 -20 -12 -32.5t-20 -12.5q-12 0 -18.5 5.5t-9.5 12t-3.5 13.5t-0.5 10q0 10 8.5 25t24.5 15q11 0 21 -10t10 -26zM188 371q0 -20 -12 -32.5t-20 -12.5q-12 0 -18.5 5.5t-9.5 12t-3.5 13.5t-0.5 10q0 10 8.5 25t24.5 15q11 0 21 -10t10 -26zM570 169
q0 -2 -1.5 -4.5t-3.5 -5.5q-2 -4 -4 -7q-39 -51 -70.5 -85.5t-59 -55t-53 -29.5t-52.5 -9q-18 0 -32 8.5t-23 22t-14 30t-5 31.5v6q0 5 -4 5q-2 0 -3 -3q-3 -5 -19 -19.5t-39 -30t-50.5 -28t-52.5 -12.5q-28 0 -43 8t-22 19.5t-8 23.5t-1 21q0 30 21.5 68t56 71.5t79 56.5
t90.5 23q21 0 40.5 -10t19.5 -33q0 -20 -13 -40.5t-34 -40t-47 -37t-51 -32t-47 -25t-35 -14.5q-6 -2 -6 -6t5.5 -7.5t13.5 -3.5q5 0 8 1q8 2 23 7t33.5 15t39 25t39.5 38q9 11 16 15.5t12 4.5q6 0 9 -4.5t5 -10t2.5 -10.5t0.5 -6q0 -3 3 -16.5t10.5 -28t20.5 -26.5t33 -12
q22 0 49 17.5t52.5 42.5t47 52t33.5 45q3 9 11 9q7 0 13 -5t6 -9zM269 212q0 14 -8 21.5t-35 7.5q-21 0 -49 -15.5t-53.5 -39.5t-43 -53.5t-17.5 -57.5q0 -11 6 -11q3 0 19 7t38 18t47 26.5t46.5 31.5t35.5 33t14 32z" />
    <glyph glyph-name="atilde" unicode="&#xe3;" horiz-adv-x="464" 
d="M329 368q0 -22 -19 -33.5t-37 -11.5q-15 0 -26 6t-22 13.5t-24 14t-31 6.5q-23 0 -30.5 -10t-9.5 -12q-5 0 -7.5 7t-2.5 11q0 22 19 33.5t37 11.5q15 0 27 -6t24 -13.5t25.5 -13.5t33.5 -6q14 0 22.5 9.5t10.5 11.5q5 0 7.5 -7t2.5 -11zM570 169q0 -2 -1.5 -4.5
t-3.5 -5.5q-2 -4 -4 -7q-39 -51 -70.5 -85.5t-59 -55t-53 -29.5t-52.5 -9q-18 0 -32 8.5t-23 22t-14 30t-5 31.5v6q0 5 -4 5q-2 0 -3 -3q-3 -5 -19 -19.5t-39 -30t-50.5 -28t-52.5 -12.5q-28 0 -43 8t-22 19.5t-8 23.5t-1 21q0 30 21.5 68t56 71.5t79 56.5t90.5 23
q21 0 40.5 -10t19.5 -33q0 -20 -13 -40.5t-34 -40t-47 -37t-51 -32t-47 -25t-35 -14.5q-6 -2 -6 -6t5.5 -7.5t13.5 -3.5q5 0 8 1q8 2 23 7t33.5 15t39 25t39.5 38q9 11 16 15.5t12 4.5q6 0 9 -4.5t5 -10t2.5 -10.5t0.5 -6q0 -3 3 -16.5t10.5 -28t20.5 -26.5t33 -12
q22 0 49 17.5t52.5 42.5t47 52t33.5 45q3 9 11 9q7 0 13 -5t6 -9zM269 212q0 14 -8 21.5t-35 7.5q-21 0 -49 -15.5t-53.5 -39.5t-43 -53.5t-17.5 -57.5q0 -11 6 -11q3 0 19 7t38 18t47 26.5t46.5 31.5t35.5 33t14 32z" />
    <glyph glyph-name="aring" unicode="&#xe5;" horiz-adv-x="464" 
d="M316 384q-1 -21 -10 -37q-8 -14 -24 -25t-46 -11q-20 0 -31 7.5t-16 17.5q-6 11 -7 26q1 20 10 37q8 14 24.5 26t48.5 12q19 0 29.5 -8.5t15.5 -18.5q5 -11 6 -26zM570 169q0 -2 -1.5 -4.5t-3.5 -5.5q-2 -4 -4 -7q-39 -51 -70.5 -85.5t-59 -55t-53 -29.5t-52.5 -9
q-18 0 -32 8.5t-23 22t-14 30t-5 31.5v6q0 5 -4 5q-2 0 -3 -3q-3 -5 -19 -19.5t-39 -30t-50.5 -28t-52.5 -12.5q-28 0 -43 8t-22 19.5t-8 23.5t-1 21q0 30 21.5 68t56 71.5t79 56.5t90.5 23q21 0 40.5 -10t19.5 -33q0 -20 -13 -40.5t-34 -40t-47 -37t-51 -32t-47 -25
t-35 -14.5q-6 -2 -6 -6t5.5 -7.5t13.5 -3.5q5 0 8 1q8 2 23 7t33.5 15t39 25t39.5 38q9 11 16 15.5t12 4.5q6 0 9 -4.5t5 -10t2.5 -10.5t0.5 -6q0 -3 3 -16.5t10.5 -28t20.5 -26.5t33 -12q22 0 49 17.5t52.5 42.5t47 52t33.5 45q3 9 11 9q7 0 13 -5t6 -9zM288 379q0 8 -4 15
q-3 6 -9 11t-17 5q-18 0 -27.5 -7t-14.5 -15q-5 -10 -6 -21q0 -9 4 -15q3 -5 9.5 -9.5t18.5 -4.5q17 0 26 6t14 14q5 9 6 21zM269 212q0 14 -8 21.5t-35 7.5q-21 0 -49 -15.5t-53.5 -39.5t-43 -53.5t-17.5 -57.5q0 -11 6 -11q3 0 19 7t38 18t47 26.5t46.5 31.5t35.5 33
t14 32z" />
    <glyph glyph-name="ccedilla" unicode="&#xe7;" horiz-adv-x="334" 
d="M446 183q0 -2 -1.5 -4.5t-3.5 -5.5q-2 -4 -4 -7q-78 -102 -139.5 -148.5t-119.5 -46.5q-8 0 -15.5 1t-14.5 3l-5 -17q0 -2 2 -4q1 -1 2 -1q23 -7 30 -18t7 -19q0 -4 -2 -11.5t-7.5 -14.5t-16 -12.5t-28.5 -5.5q-25 0 -27 11q-1 1 0 2q0 2 4 2h6q8 0 21 3.5t16 18.5
q0 6 -4 10q-3 4 -10 7t-21 4q-1 0 -2 1q-2 2 -2 4q4 15 9.5 27.5t8.5 17.5v1q-36 16 -52.5 51.5t-16.5 77.5q0 52 22.5 89t53 61t60.5 35t45 11q32 0 45 -15.5t13 -29.5t-5 -25.5t-11.5 -20.5t-14 -15t-13.5 -10q-2 -2 -6.5 -7.5t-11 -11.5t-15.5 -11t-21 -5q-18 0 -28 5
q-5 3 -9 6q-5 4 -5 11t5.5 16.5t12 17.5t13 13.5t9.5 5.5q6 0 8.5 -4t5 -8.5t6.5 -8.5t13 -4q10 0 16 10.5t6 22.5q0 14 -8.5 24.5t-25.5 10.5q-22 0 -42 -11.5t-35.5 -31.5t-25 -46.5t-9.5 -55.5q0 -18 3.5 -37.5t15 -36t32 -27t55.5 -10.5q24 0 54.5 20t59 48t52.5 56.5
t36 46.5q3 9 11 9q7 0 13 -5t6 -9z" />
    <glyph glyph-name="eacute" unicode="&#xe9;" horiz-adv-x="218" 
d="M194 408q0 -14 -8 -23.5t-17 -9.5q-19 -1 -42 -12t-43.5 -23.5t-36 -23t-19.5 -10.5t-4 9q8 11 25 30t38 37t43.5 31.5t43.5 13.5q8 0 14 -6t6 -13zM320 169q0 -2 -1.5 -4.5t-3.5 -5.5q-2 -4 -4 -7q-39 -51 -70.5 -85.5t-59 -55t-53 -29.5t-52.5 -9q-42 0 -66.5 13
t-38 33.5t-17.5 46t-4 51.5q0 23 10.5 51.5t28.5 53.5t41.5 42t48.5 17q26 0 41.5 -14t15.5 -33q0 -28 -19 -60t-42 -60q-26 -33 -60 -65q3 -9 12 -16q8 -6 23 -11t41 -5q36 0 67 17.5t56.5 42.5t44.5 52l31 45q3 9 11 9q7 0 13 -5t6 -9zM82 221q0 13 -8 17.5t-14 4.5
q-19 0 -32 -17t-21.5 -39t-12 -43t-3.5 -28q-1 -12 0 -19t2 -12t3 -8q24 20 43 44q16 20 29.5 46t13.5 54z" />
    <glyph glyph-name="egrave" unicode="&#xe8;" horiz-adv-x="218" 
d="M135 326q0 -9 -4 -9t-19.5 10.5t-36 23t-43.5 23.5t-42 12q-9 0 -17 9.5t-8 23.5q0 7 6 13t14 6q21 0 43.5 -13t43.5 -31t38 -37t25 -31zM320 169q0 -2 -1.5 -4.5t-3.5 -5.5q-2 -4 -4 -7q-39 -51 -70.5 -85.5t-59 -55t-53 -29.5t-52.5 -9q-42 0 -66.5 13t-38 33.5
t-17.5 46t-4 51.5q0 23 10.5 51.5t28.5 53.5t41.5 42t48.5 17q26 0 41.5 -14t15.5 -33q0 -28 -19 -60t-42 -60q-26 -33 -60 -65q3 -9 12 -16q8 -6 23 -11t41 -5q36 0 67 17.5t56.5 42.5t44.5 52l31 45q3 9 11 9q7 0 13 -5t6 -9zM82 221q0 13 -8 17.5t-14 4.5q-19 0 -32 -17
t-21.5 -39t-12 -43t-3.5 -28q-1 -12 0 -19t2 -12t3 -8q24 20 43 44q16 20 29.5 46t13.5 54z" />
    <glyph glyph-name="ecircumflex" unicode="&#xea;" horiz-adv-x="218" 
d="M184 301q-3 -10 -10 -8q-4 1 -11 12t-17.5 24.5t-25 26.5t-33.5 17q-19 -1 -38.5 -11.5t-36.5 -23t-29 -23t-16 -10.5t-4 9q9 8 22 25t29 34.5t34.5 31.5t38.5 16h8q15 0 30 -15t27 -35.5t20.5 -40.5t11.5 -29zM320 169q0 -2 -1.5 -4.5t-3.5 -5.5q-2 -4 -4 -7
q-39 -51 -70.5 -85.5t-59 -55t-53 -29.5t-52.5 -9q-42 0 -66.5 13t-38 33.5t-17.5 46t-4 51.5q0 23 10.5 51.5t28.5 53.5t41.5 42t48.5 17q26 0 41.5 -14t15.5 -33q0 -28 -19 -60t-42 -60q-26 -33 -60 -65q3 -9 12 -16q8 -6 23 -11t41 -5q36 0 67 17.5t56.5 42.5t44.5 52
l31 45q3 9 11 9q7 0 13 -5t6 -9zM82 221q0 13 -8 17.5t-14 4.5q-19 0 -32 -17t-21.5 -39t-12 -43t-3.5 -28q-1 -12 0 -19t2 -12t3 -8q24 20 43 44q16 20 29.5 46t13.5 54z" />
    <glyph glyph-name="edieresis" unicode="&#xeb;" horiz-adv-x="218" 
d="M211 396q0 -20 -12 -32.5t-20 -12.5q-12 0 -18.5 5.5t-9.5 12t-3.5 13.5t-0.5 10q0 10 8.5 25t24.5 15q11 0 21 -10t10 -26zM71 393q0 -20 -12 -32.5t-20 -12.5q-12 0 -18.5 5.5t-9.5 12t-3.5 13.5t-0.5 10q0 10 8.5 25t24.5 15q11 0 21 -10t10 -26zM320 169
q0 -2 -1.5 -4.5t-3.5 -5.5q-2 -4 -4 -7q-39 -51 -70.5 -85.5t-59 -55t-53 -29.5t-52.5 -9q-42 0 -66.5 13t-38 33.5t-17.5 46t-4 51.5q0 23 10.5 51.5t28.5 53.5t41.5 42t48.5 17q26 0 41.5 -14t15.5 -33q0 -28 -19 -60t-42 -60q-26 -33 -60 -65q3 -9 12 -16q8 -6 23 -11
t41 -5q36 0 67 17.5t56.5 42.5t44.5 52l31 45q3 9 11 9q7 0 13 -5t6 -9zM82 221q0 13 -8 17.5t-14 4.5q-19 0 -32 -17t-21.5 -39t-12 -43t-3.5 -28q-1 -12 0 -19t2 -12t3 -8q24 20 43 44q16 20 29.5 46t13.5 54z" />
    <glyph glyph-name="iacute" unicode="&#xed;" horiz-adv-x="181" 
d="M235 408q0 -14 -8 -23.5t-17 -9.5q-19 -1 -42 -12t-43.5 -23.5t-36 -23t-19.5 -10.5t-4 9q8 11 25 30t38 37t43.5 31.5t43.5 13.5q8 0 14 -6t6 -13zM138 248q0 -5 -0.5 -22t-1 -40t-2 -49.5t-2.5 -50t-2 -41.5t-2 -24q-2 -15 -9 -19.5t-12 -4.5q-7 0 -7.5 8.5t-1.5 15.5
q1 10 1.5 21t0.5 23q0 22 -1 46t-2.5 47t-2.5 42.5t-1 33.5q0 13 1 17q0 8 8 16t16 8q20 0 20 -27z" />
    <glyph glyph-name="igrave" unicode="&#xec;" horiz-adv-x="232" 
d="M235 315q0 -9 -4 -9t-19.5 10.5t-36 23t-43.5 23.5t-42 12q-9 0 -17 9.5t-8 23.5q0 7 6 13t14 6q21 0 43.5 -13t43.5 -31t38 -37t25 -31zM189 248q0 -5 -0.5 -22t-1 -40t-2 -49.5t-2.5 -50t-2 -41.5t-2 -24q-2 -15 -9 -19.5t-12 -4.5q-7 0 -7.5 8.5t-1.5 15.5
q1 10 1.5 21t0.5 23q0 22 -1 46t-2.5 47t-2.5 42.5t-1 33.5q0 13 1 17q0 8 8 16t16 8q20 0 20 -27z" />
    <glyph glyph-name="icircumflex" unicode="&#xee;" horiz-adv-x="251" 
d="M286 287q-3 -10 -10 -8q-4 1 -11 12t-17.5 24.5t-25 26.5t-33.5 17q-19 -1 -38.5 -11.5t-36.5 -23t-29 -23t-16 -10.5t-4 9q9 8 22 25t29 34.5t34.5 31.5t38.5 16h8q15 0 30 -15t27 -35.5t20.5 -40.5t11.5 -29zM208 248q0 -5 -0.5 -22t-1 -40t-2 -49.5t-2.5 -50t-2 -41.5
t-2 -24q-2 -15 -9 -19.5t-12 -4.5q-7 0 -7.5 8.5t-1.5 15.5q1 10 1.5 21t0.5 23q0 22 -1 46t-2.5 47t-2.5 42.5t-1 33.5q0 13 1 17q0 8 8 16t16 8q20 0 20 -27z" />
    <glyph glyph-name="idieresis" unicode="&#xef;" horiz-adv-x="225" 
d="M269 393q0 -20 -12 -32.5t-20 -12.5q-12 0 -18.5 5.5t-9.5 12t-3.5 13.5t-0.5 10q0 10 8.5 25t24.5 15q11 0 21 -10t10 -26zM129 390q0 -20 -12 -32.5t-20 -12.5q-12 0 -18.5 5.5t-9.5 12t-3.5 13.5t-0.5 10q0 10 8.5 25t24.5 15q11 0 21 -10t10 -26zM182 248
q0 -5 -0.5 -22t-1 -40t-2 -49.5t-2.5 -50t-2 -41.5t-2 -24q-2 -15 -9 -19.5t-12 -4.5q-7 0 -7.5 8.5t-1.5 15.5q1 10 1.5 21t0.5 23q0 22 -1 46t-2.5 47t-2.5 42.5t-1 33.5q0 13 1 17q0 8 8 16t16 8q20 0 20 -27z" />
    <glyph glyph-name="ntilde" unicode="&#xf1;" horiz-adv-x="575" 
d="M340 362q0 -22 -19 -33.5t-37 -11.5q-15 0 -26 6t-22 13.5t-24 14t-31 6.5q-23 0 -30.5 -10t-9.5 -12q-5 0 -7.5 7t-2.5 11q0 22 19 33.5t37 11.5q15 0 27 -6t24 -13.5t25.5 -13.5t33.5 -6q14 0 22.5 9.5t10.5 11.5q5 0 7.5 -7t2.5 -11zM607 25q0 -11 -9 -16
q-32 -23 -64.5 -30.5t-58.5 -7.5q-36 0 -63 13.5t-46.5 34t-32 46t-20 49t-10.5 42.5t-3 27q0 12 -5 12q-3 0 -7 -9q-1 -3 -8 -17.5l-17 -34.5l-21 -43l-21 -43l-17 -34.5t-9 -17.5q-10 -15 -18 -15t-14 10t-8 19q-1 4 -1.5 14t-1 23t-0.5 28v29l1 51q0 14 -1.5 25.5
t-10.5 11.5q-6 0 -16 -9.5t-21.5 -24l-25 -32t-26.5 -32.5q-5 -5 -7 -5q-5 0 -5 8t7.5 25.5t24.5 44.5q5 7 13.5 22t19 29.5t23 25.5t24.5 11q13 0 20.5 -10.5t11.5 -26.5t4.5 -35.5t0.5 -37.5q0 -8 0.5 -19.5l1 -22t1 -19t0.5 -11.5q0 -11 2 -11t4.5 3.5t4.5 8.5
q2 4 9.5 20l16.5 34.5l17 34.5l10 20t7 15.5l11 24.5l12 25t12 18t11 6q6 0 11.5 -11.5t11 -28.5t11 -38t11.5 -39q8 -25 22 -51t34.5 -47t46.5 -34.5t59 -13.5q32 0 52 9.5t29 14.5q10 0 10 -8z" />
    <glyph glyph-name="oacute" unicode="&#xf3;" horiz-adv-x="455" 
d="M398 461q0 -14 -8 -23.5t-17 -9.5q-19 -1 -42 -12t-43.5 -23.5t-36 -23t-19.5 -10.5t-4 9q8 11 25 30t38 37t43.5 31.5t43.5 13.5q8 0 14 -6t6 -13zM547 152q-18 -27 -41.5 -45t-50 -29t-55.5 -16t-57 -5q-22 0 -43 3q-21 -24 -40 -37.5t-35 -19.5t-28.5 -7t-21.5 -1
q-30 0 -50.5 12.5t-33.5 32t-19 43t-7 44.5q0 21 7 40t16.5 32.5t18.5 21t13 7.5q8 0 10.5 4t4.5 9q8 25 23 44q13 17 33.5 31t52.5 14q42 0 64 -22t33 -48q12 -31 14 -69q0 -31 -11 -58t-25 -47q5 -1 10 -1h10q29 0 58.5 7t55.5 19t45.5 27.5t28.5 33.5q4 11 10 11
q5 0 12 -4t7 -10zM321 182q0 22 -5 42.5t-15.5 36t-27 24.5t-38.5 9q-26 0 -45.5 -16.5t-19.5 -48.5q0 -16 3 -29.5t4 -15.5q13 -32 30.5 -50.5t34 -28t29 -12t15.5 -2.5t9 7.5t12 20t10 29t4 34.5zM268 64q0 2 -8 3t-21 4t-28.5 10t-31.5 22q-2 2 -9.5 10.5t-15.5 21.5
t-15.5 28.5t-9.5 32.5q0 6 -3 6q-6 -4 -10 -10t-7 -15.5t-3 -23.5q0 -8 2 -26.5t12 -38.5t29 -35t54 -15q17 0 29 4t20 9q10 5 16 13z" />
    <glyph glyph-name="ograve" unicode="&#xf2;" horiz-adv-x="455" 
d="M333 376q0 -9 -4 -9t-19.5 10.5t-36 23t-43.5 23.5t-42 12q-9 0 -17 9.5t-8 23.5q0 7 6 13t14 6q21 0 43.5 -13t43.5 -31t38 -37t25 -31zM547 152q-18 -27 -41.5 -45t-50 -29t-55.5 -16t-57 -5q-22 0 -43 3q-21 -24 -40 -37.5t-35 -19.5t-28.5 -7t-21.5 -1
q-30 0 -50.5 12.5t-33.5 32t-19 43t-7 44.5q0 21 7 40t16.5 32.5t18.5 21t13 7.5q8 0 10.5 4t4.5 9q8 25 23 44q13 17 33.5 31t52.5 14q42 0 64 -22t33 -48q12 -31 14 -69q0 -31 -11 -58t-25 -47q5 -1 10 -1h10q29 0 58.5 7t55.5 19t45.5 27.5t28.5 33.5q4 11 10 11
q5 0 12 -4t7 -10zM321 182q0 22 -5 42.5t-15.5 36t-27 24.5t-38.5 9q-26 0 -45.5 -16.5t-19.5 -48.5q0 -16 3 -29.5t4 -15.5q13 -32 30.5 -50.5t34 -28t29 -12t15.5 -2.5t9 7.5t12 20t10 29t4 34.5zM268 64q0 2 -8 3t-21 4t-28.5 10t-31.5 22q-2 2 -9.5 10.5t-15.5 21.5
t-15.5 28.5t-9.5 32.5q0 6 -3 6q-6 -4 -10 -10t-7 -15.5t-3 -23.5q0 -8 2 -26.5t12 -38.5t29 -35t54 -15q17 0 29 4t20 9q10 5 16 13z" />
    <glyph glyph-name="ocircumflex" unicode="&#xf4;" horiz-adv-x="455" 
d="M365 349q-3 -10 -10 -8q-4 1 -11 12t-17.5 24.5t-25 26.5t-33.5 17q-19 -1 -38.5 -11.5t-36.5 -23t-29 -23t-16 -10.5t-4 9q9 8 22 25t29 34.5t34.5 31.5t38.5 16h8q15 0 30 -15t27 -35.5t20.5 -40.5t11.5 -29zM547 152q-18 -27 -41.5 -45t-50 -29t-55.5 -16t-57 -5
q-22 0 -43 3q-21 -24 -40 -37.5t-35 -19.5t-28.5 -7t-21.5 -1q-30 0 -50.5 12.5t-33.5 32t-19 43t-7 44.5q0 21 7 40t16.5 32.5t18.5 21t13 7.5q8 0 10.5 4t4.5 9q8 25 23 44q13 17 33.5 31t52.5 14q42 0 64 -22t33 -48q12 -31 14 -69q0 -31 -11 -58t-25 -47q5 -1 10 -1h10
q29 0 58.5 7t55.5 19t45.5 27.5t28.5 33.5q4 11 10 11q5 0 12 -4t7 -10zM321 182q0 22 -5 42.5t-15.5 36t-27 24.5t-38.5 9q-26 0 -45.5 -16.5t-19.5 -48.5q0 -16 3 -29.5t4 -15.5q13 -32 30.5 -50.5t34 -28t29 -12t15.5 -2.5t9 7.5t12 20t10 29t4 34.5zM268 64q0 2 -8 3
t-21 4t-28.5 10t-31.5 22q-2 2 -9.5 10.5t-15.5 21.5t-15.5 28.5t-9.5 32.5q0 6 -3 6q-6 -4 -10 -10t-7 -15.5t-3 -23.5q0 -8 2 -26.5t12 -38.5t29 -35t54 -15q17 0 29 4t20 9q10 5 16 13z" />
    <glyph glyph-name="odieresis" unicode="&#xf6;" horiz-adv-x="455" 
d="M342 410q0 -20 -12 -32.5t-20 -12.5q-12 0 -18.5 5.5t-9.5 12t-3.5 13.5t-0.5 10q0 10 8.5 25t24.5 15q11 0 21 -10t10 -26zM202 407q0 -20 -12 -32.5t-20 -12.5q-12 0 -18.5 5.5t-9.5 12t-3.5 13.5t-0.5 10q0 10 8.5 25t24.5 15q11 0 21 -10t10 -26zM547 152
q-18 -27 -41.5 -45t-50 -29t-55.5 -16t-57 -5q-22 0 -43 3q-21 -24 -40 -37.5t-35 -19.5t-28.5 -7t-21.5 -1q-30 0 -50.5 12.5t-33.5 32t-19 43t-7 44.5q0 21 7 40t16.5 32.5t18.5 21t13 7.5q8 0 10.5 4t4.5 9q8 25 23 44q13 17 33.5 31t52.5 14q42 0 64 -22t33 -48
q12 -31 14 -69q0 -31 -11 -58t-25 -47q5 -1 10 -1h10q29 0 58.5 7t55.5 19t45.5 27.5t28.5 33.5q4 11 10 11q5 0 12 -4t7 -10zM321 182q0 22 -5 42.5t-15.5 36t-27 24.5t-38.5 9q-26 0 -45.5 -16.5t-19.5 -48.5q0 -16 3 -29.5t4 -15.5q13 -32 30.5 -50.5t34 -28t29 -12
t15.5 -2.5t9 7.5t12 20t10 29t4 34.5zM268 64q0 2 -8 3t-21 4t-28.5 10t-31.5 22q-2 2 -9.5 10.5t-15.5 21.5t-15.5 28.5t-9.5 32.5q0 6 -3 6q-6 -4 -10 -10t-7 -15.5t-3 -23.5q0 -8 2 -26.5t12 -38.5t29 -35t54 -15q17 0 29 4t20 9q10 5 16 13z" />
    <glyph glyph-name="otilde" unicode="&#xf5;" horiz-adv-x="455" 
d="M332 402q0 -22 -19 -33.5t-37 -11.5q-15 0 -26 6t-22 13.5t-24 14t-31 6.5q-23 0 -30.5 -10t-9.5 -12q-5 0 -7.5 7t-2.5 11q0 22 19 33.5t37 11.5q15 0 27 -6t24 -13.5t25.5 -13.5t33.5 -6q14 0 22.5 9.5t10.5 11.5q5 0 7.5 -7t2.5 -11zM547 152q-18 -27 -41.5 -45
t-50 -29t-55.5 -16t-57 -5q-22 0 -43 3q-21 -24 -40 -37.5t-35 -19.5t-28.5 -7t-21.5 -1q-30 0 -50.5 12.5t-33.5 32t-19 43t-7 44.5q0 21 7 40t16.5 32.5t18.5 21t13 7.5q8 0 10.5 4t4.5 9q8 25 23 44q13 17 33.5 31t52.5 14q42 0 64 -22t33 -48q12 -31 14 -69
q0 -31 -11 -58t-25 -47q5 -1 10 -1h10q29 0 58.5 7t55.5 19t45.5 27.5t28.5 33.5q4 11 10 11q5 0 12 -4t7 -10zM321 182q0 22 -5 42.5t-15.5 36t-27 24.5t-38.5 9q-26 0 -45.5 -16.5t-19.5 -48.5q0 -16 3 -29.5t4 -15.5q13 -32 30.5 -50.5t34 -28t29 -12t15.5 -2.5t9 7.5
t12 20t10 29t4 34.5zM268 64q0 2 -8 3t-21 4t-28.5 10t-31.5 22q-2 2 -9.5 10.5t-15.5 21.5t-15.5 28.5t-9.5 32.5q0 6 -3 6q-6 -4 -10 -10t-7 -15.5t-3 -23.5q0 -8 2 -26.5t12 -38.5t29 -35t54 -15q17 0 29 4t20 9q10 5 16 13z" />
    <glyph glyph-name="uacute" unicode="&#xfa;" horiz-adv-x="418" 
d="M344 408q0 -14 -8 -23.5t-17 -9.5q-19 -1 -42 -12t-43.5 -23.5t-36 -23t-19.5 -10.5t-4 9q8 11 25 30t38 37t43.5 31.5t43.5 13.5q8 0 14 -6t6 -13zM497 130q0 -4 -3 -8t-6 -9q-24 -41 -48 -65.5t-45 -37.5t-38.5 -17.5t-29.5 -4.5q-34 0 -50 18.5t-22.5 40t-8 40
t-5.5 18.5t-6 -6q-18 -32 -36.5 -51.5t-34 -30t-27.5 -13.5t-17 -3q-20 0 -31.5 11t-17.5 26.5t-8 32t-2 27.5q0 26 7.5 57t16.5 57q11 31 25 61q1 2 3 4q4 4 9 4q8 0 12.5 -5.5t4.5 -10.5q0 -3 -2 -7q-6 -15 -11 -33.5t-8 -35t-5 -30t-3 -19.5q0 -42 10.5 -57.5t25.5 -15.5
q24 0 43.5 21t34.5 49t25.5 55.5t16.5 41.5t14 14q6 0 12 -3.5t6 -8.5q0 -4 -1 -6q-3 -11 -5 -17.5t-3 -13t-1 -15.5v-24q0 -17 4 -38.5t12.5 -40.5t21 -32.5t30.5 -13.5q24 0 44.5 15t35 33.5t23 34t8.5 17.5q3 9 11 9q5 0 12 -4t7 -10z" />
    <glyph glyph-name="ugrave" unicode="&#xf9;" horiz-adv-x="418" 
d="M294 315q0 -9 -4 -9t-19.5 10.5t-36 23t-43.5 23.5t-42 12q-9 0 -17 9.5t-8 23.5q0 7 6 13t14 6q21 0 43.5 -13t43.5 -31t38 -37t25 -31zM497 130q0 -4 -3 -8t-6 -9q-24 -41 -48 -65.5t-45 -37.5t-38.5 -17.5t-29.5 -4.5q-34 0 -50 18.5t-22.5 40t-8 40t-5.5 18.5t-6 -6
q-18 -32 -36.5 -51.5t-34 -30t-27.5 -13.5t-17 -3q-20 0 -31.5 11t-17.5 26.5t-8 32t-2 27.5q0 26 7.5 57t16.5 57q11 31 25 61q1 2 3 4q4 4 9 4q8 0 12.5 -5.5t4.5 -10.5q0 -3 -2 -7q-6 -15 -11 -33.5t-8 -35t-5 -30t-3 -19.5q0 -42 10.5 -57.5t25.5 -15.5q24 0 43.5 21
t34.5 49t25.5 55.5t16.5 41.5t14 14q6 0 12 -3.5t6 -8.5q0 -4 -1 -6q-3 -11 -5 -17.5t-3 -13t-1 -15.5v-24q0 -17 4 -38.5t12.5 -40.5t21 -32.5t30.5 -13.5q24 0 44.5 15t35 33.5t23 34t8.5 17.5q3 9 11 9q5 0 12 -4t7 -10z" />
    <glyph glyph-name="ucircumflex" unicode="&#xfb;" horiz-adv-x="418" 
d="M331 313q-3 -10 -10 -8q-4 1 -11 12t-17.5 24.5t-25 26.5t-33.5 17q-19 -1 -38.5 -11.5t-36.5 -23t-29 -23t-16 -10.5t-4 9q9 8 22 25t29 34.5t34.5 31.5t38.5 16h8q15 0 30 -15t27 -35.5t20.5 -40.5t11.5 -29zM497 130q0 -4 -3 -8t-6 -9q-24 -41 -48 -65.5t-45 -37.5
t-38.5 -17.5t-29.5 -4.5q-34 0 -50 18.5t-22.5 40t-8 40t-5.5 18.5t-6 -6q-18 -32 -36.5 -51.5t-34 -30t-27.5 -13.5t-17 -3q-20 0 -31.5 11t-17.5 26.5t-8 32t-2 27.5q0 26 7.5 57t16.5 57q11 31 25 61q1 2 3 4q4 4 9 4q8 0 12.5 -5.5t4.5 -10.5q0 -3 -2 -7
q-6 -15 -11 -33.5t-8 -35t-5 -30t-3 -19.5q0 -42 10.5 -57.5t25.5 -15.5q24 0 43.5 21t34.5 49t25.5 55.5t16.5 41.5t14 14q6 0 12 -3.5t6 -8.5q0 -4 -1 -6q-3 -11 -5 -17.5t-3 -13t-1 -15.5v-24q0 -17 4 -38.5t12.5 -40.5t21 -32.5t30.5 -13.5q24 0 44.5 15t35 33.5t23 34
t8.5 17.5q3 9 11 9q5 0 12 -4t7 -10z" />
    <glyph glyph-name="udieresis" unicode="&#xfc;" horiz-adv-x="418" 
d="M327 385q0 -20 -12 -32.5t-20 -12.5q-12 0 -18.5 5.5t-9.5 12t-3.5 13.5t-0.5 10q0 10 8.5 25t24.5 15q11 0 21 -10t10 -26zM187 382q0 -20 -12 -32.5t-20 -12.5q-12 0 -18.5 5.5t-9.5 12t-3.5 13.5t-0.5 10q0 10 8.5 25t24.5 15q11 0 21 -10t10 -26zM497 130q0 -4 -3 -8
t-6 -9q-24 -41 -48 -65.5t-45 -37.5t-38.5 -17.5t-29.5 -4.5q-34 0 -50 18.5t-22.5 40t-8 40t-5.5 18.5t-6 -6q-18 -32 -36.5 -51.5t-34 -30t-27.5 -13.5t-17 -3q-20 0 -31.5 11t-17.5 26.5t-8 32t-2 27.5q0 26 7.5 57t16.5 57q11 31 25 61q1 2 3 4q4 4 9 4q8 0 12.5 -5.5
t4.5 -10.5q0 -3 -2 -7q-6 -15 -11 -33.5t-8 -35t-5 -30t-3 -19.5q0 -42 10.5 -57.5t25.5 -15.5q24 0 43.5 21t34.5 49t25.5 55.5t16.5 41.5t14 14q6 0 12 -3.5t6 -8.5q0 -4 -1 -6q-3 -11 -5 -17.5t-3 -13t-1 -15.5v-24q0 -17 4 -38.5t12.5 -40.5t21 -32.5t30.5 -13.5
q24 0 44.5 15t35 33.5t23 34t8.5 17.5q3 9 11 9q5 0 12 -4t7 -10z" />
    <glyph glyph-name="dagger" unicode="&#x2020;" horiz-adv-x="315" 
d="M299 466q0 -6 -2.5 -9.5t-4.5 -5.5q-3 -3 -6 -3h-109v-681q0 -6 -11 -6h-5l-3 1q-11 4 -15 11q-2 3 -3 6v669h-112q-3 0 -6 3q-2 2 -4 5.5t-2 11.5q1 10 7 14q3 2 5 3h111v235l2.5 2.5t6.5 1.5l11 -1q5 -2 9 -5.5t6 -5.5q3 -4 3 -6v-221h109q7 0 11 -10q2 -4 2 -9z" />
    <glyph glyph-name="degree" unicode="&#xb0;" horiz-adv-x="191" 
d="M163 573q-1 -21 -10 -37q-8 -14 -24 -25t-46 -11q-20 0 -31 7.5t-16 17.5q-6 11 -7 26q1 20 10 37q8 14 24.5 26t48.5 12q19 0 29.5 -8.5t15.5 -18.5q5 -11 6 -26zM135 568q0 8 -4 15q-3 6 -9 11t-17 5q-18 0 -27.5 -7t-14.5 -15q-5 -10 -6 -21q0 -9 4 -15q3 -5 9.5 -9.5
t18.5 -4.5q17 0 26 6t14 14q5 9 6 21z" />
    <glyph glyph-name="cent" unicode="&#xa2;" horiz-adv-x="334" 
d="M314 197q0 -2 -1.5 -4.5t-3.5 -5.5q-2 -4 -4 -7q-13 -24 -42 -46t-72 -30v-79q0 -6 -11 -6h-5l-3 1q-11 4 -15 11q-2 3 -3 6v64h-2q-31 0 -53.5 12t-36.5 31.5t-21 44.5t-7 51q0 36 11 64.5t28.5 50t38.5 37.5t42 26v89l2.5 2.5t6.5 1.5l11 -1q5 -2 9 -5.5t6 -5.5
q3 -4 3 -6v-61q12 4 23 4q32 0 45 -15.5t13 -29.5t-5 -25.5t-11.5 -20.5t-14 -15t-13.5 -10q-2 -2 -6.5 -7.5t-11 -11.5t-15.5 -11t-21 -5q-18 0 -28 5q-5 3 -9 6q-5 4 -5 11t5.5 16.5t12 17.5t13 13.5t9.5 5.5q6 0 8.5 -4t5 -8.5t6.5 -8.5t13 -4q10 0 16 10.5t6 22.5
q0 14 -8.5 24.5t-25.5 10.5q-22 0 -42 -11.5t-35.5 -31.5t-25 -46.5t-9.5 -55.5q0 -18 3.5 -37.5t15 -36t32 -27t55.5 -10.5q17 0 42.5 10t53.5 45q3 9 11 9q7 0 13 -5t6 -9z" />
    <glyph glyph-name="sterling" unicode="&#xa3;" horiz-adv-x="725" 
d="M833 -43q0 -2 -1 -6.5t-8 -8.5q-49 -21 -83 -26t-59 -5q-57 0 -105.5 16.5t-87 39t-66 45l-42.5 34.5q-8 6 -12 6q-3 0 -6 -3q-1 -2 -2 -3q-12 -34 -28.5 -53t-35 -28.5t-37 -11.5t-32.5 -2q-17 0 -53 18.5t-73.5 53t-65.5 82t-28 106.5q0 46 25 64t63 18q25 0 52 -10.5
t54 -25.5t52 -33.5l44.5 -33.5l32.5 -25.5t16 -10.5q4 0 4.5 5t0.5 10v74h-89q-3 1 -5 3t-3.5 5t-0.5 10q0 9 4 13q2 2 5 2h89v43h-74q-3 1 -5 3t-3.5 5t-0.5 10q0 9 4 13q2 2 5 2h74v42q0 62 7.5 103t21.5 65t33.5 33.5t43.5 9.5q21 0 54 -17.5t64.5 -45.5t54.5 -63t23 -70
q0 -21 -5.5 -33t-13 -17.5t-15.5 -6.5t-13 -1q-18 0 -32.5 7.5t-25.5 18.5t-17 23.5t-7 23.5q0 9 5 9q4 0 10.5 -7.5t15.5 -16t19.5 -16t23.5 -7.5t13 12q0 18 -20 45t-48.5 52t-59 42.5t-50.5 17.5q-18 0 -28 -12t-14.5 -32.5t-5.5 -48.5t-1 -60v-50h81q3 0 5 -3t3 -6
q1 -4 1 -8q0 -8 -5 -13q-2 -2 -4 -3h-82v-43h67q3 0 5 -3t3 -6q1 -4 1 -8q0 -8 -5 -13q-2 -2 -4 -3h-68v-110q0 -11 4 -15q2 -3 5 -3l70.5 -50.5t82.5 -52.5t94.5 -41.5t106.5 -16.5q34 0 52 10.5t24 10.5q5 0 8 -6t3 -12zM338 79q-6 3 -22 17l-38 33.5l-48.5 41.5
t-52.5 40.5t-50 31t-42 12.5q-23 0 -34 -13.5t-11 -36.5q0 -34 23 -82q11 -23 31 -47.5t44.5 -45.5t52 -34.5t53.5 -13.5q28 0 46.5 14.5t29 32t14.5 33t4 17.5z" />
    <glyph glyph-name="section" unicode="&#xa7;" horiz-adv-x="343" 
d="M343 397q0 -5 -3 -13.5t-14 -8.5q-6 0 -8.5 4.5t-4.5 8.5q-15 25 -31.5 40t-30 23.5t-23.5 11t-12 2.5q-31 0 -43.5 -11t-12.5 -27q0 -21 13 -39t33 -34t43 -32.5t43 -34.5t33 -39.5t13 -47.5q0 -23 -6.5 -39.5t-16.5 -28t-23 -19t-25 -11.5q7 -11 11 -23.5t4 -26.5
q0 -35 -14.5 -56t-33.5 -32t-37.5 -14.5t-26.5 -3.5q-38 0 -63.5 15t-42 34t-23.5 37.5t-7 25.5q2 8 7 9.5t10 1.5q3 0 9 -4t22 -9.5t44.5 -9.5t75.5 -4q22 0 22 8q0 11 -12 23.5t-30 27.5l-39 31.5t-39 35t-30 39.5t-12 45q0 12 4.5 26t14 27t23 23.5t31.5 15.5
q-8 13 -12.5 27t-4.5 29q0 14 6.5 31t19 31.5t31.5 24t43 9.5q28 0 51 -13.5t39.5 -31t25.5 -33.5t9 -21zM282 190q0 13 -13 27t-31.5 29.5l-40.5 33t-40 37.5q-29 -1 -41 -12t-12 -26q0 -23 15 -41.5t36.5 -36t46 -35t44.5 -37.5q22 5 29 21.5t7 39.5zM223 5q0 4 -8 4
q-49 0 -76.5 3.5t-32.5 5.5q-4 -1 -4 -4q0 -7 7.5 -13.5t18.5 -11t22.5 -7.5t20.5 -3q25 0 38.5 11t13.5 15z" />
    <glyph glyph-name="bullet" unicode="&#x2022;" horiz-adv-x="214" 
d="M181 302q0 -21 -8.5 -40t-20 -32.5t-23.5 -21.5t-20 -8q-28 0 -43 12t-22 28t-8 31.5t-1 22.5q0 10 5 25.5t15 30t23.5 24.5t31.5 10q26 0 48.5 -22t22.5 -60z" />
    <glyph glyph-name="paragraph" unicode="&#xb6;" horiz-adv-x="542" 
d="M542 290q0 -10 -12.5 -30.5t-34 -59t-50.5 -97t-61 -143.5q-4 -11 -10.5 -32.5l-14 -48l-15 -54.5l-14 -53l-11 -43t-5.5 -24q-4 -17 -11.5 -22t-13.5 -5t-10.5 5.5t-7.5 13t-4.5 14.5t-1.5 10q0 2 1 24t2 48.5t2.5 50t1.5 28.5q1 3 2.5 22.5l3.5 46.5l4.5 58t4.5 58.5
l3.5 48t1.5 25.5q0 9 -2 12t-4 3q-4 0 -8 -3q-32 -35 -75.5 -55t-80.5 -20q-31 0 -49.5 8.5t-29 22t-15.5 30.5t-8 35q0 33 12.5 67.5t37 66.5t61 60.5t84.5 50.5q47 22 88 22q32 0 53.5 -12t21.5 -32l-63 -476q0 -12 3 -12t5 4.5t4 7.5l1 1q13 44 29.5 88.5t35 86.5
t38.5 79.5t41 67.5q5 12 11.5 24.5t13 22.5t12.5 16.5t11 6.5q22 0 22 -14z" />
    <glyph glyph-name="germandbls" unicode="&#xdf;" horiz-adv-x="269" 
d="M413 266q0 -60 -30 -116.5t-75 -101.5t-98.5 -74.5t-99.5 -35.5q-1 -28 -2.5 -63.5t-5.5 -71.5t-10.5 -70.5t-17.5 -61.5t-27 -43.5t-37 -16.5q-19 3 -32.5 11t-23 18.5t-14.5 20.5t-6 17q0 8 5 15.5t12 7.5q9 0 15.5 -5l13 -10.5t14 -10.5t19.5 -5q17 0 26 10t14.5 38.5
t8.5 81t9 137.5q-21 4 -29.5 14t-8.5 21q0 16 11.5 30.5t31.5 27.5q2 45 3.5 93.5t2 96l1 92.5t0.5 84q0 45 2.5 95.5t11 93.5t25.5 71t46 28q43 0 65 -32t22 -76q0 -21 -6 -44t-13 -43q-9 -23 -19 -45q0 -5 13 -7q6 -1 14 -1q47 0 79.5 -15.5t52.5 -39.5t28.5 -54.5
t8.5 -60.5zM368 239q0 36 -14.5 65.5t-38 51t-53 33t-59.5 11.5q-2 0 -11 7.5t-9 21.5q0 8 4 16q8 19 14 37q5 16 9.5 35t4.5 38q0 10 -2.5 21.5t-9.5 21t-20 15.5t-35 6q-7 0 -12.5 -19.5t-9.5 -48.5t-6 -62t-2 -59q0 -42 -0.5 -89.5t-1.5 -97t-2.5 -99t-2.5 -96.5
q46 19 100 19q1 0 5.5 -1.5t9.5 -4t9 -6t4 -7.5t-15 -8l-12 -2.5t-29 -7t-37 -10.5t-36 -14v-41q36 4 80.5 25.5t84 57.5t66.5 84t27 107z" />
    <glyph glyph-name="registered" unicode="&#xae;" horiz-adv-x="403" 
d="M376 484q0 -47 -18 -87.5t-46.5 -70.5t-65 -47t-72.5 -17q-76 0 -121 49.5t-45 138.5q0 72 23 123.5t57.5 85t75 49t76.5 15.5q19 0 36 -6t29 -16t19 -21.5t7 -23.5q0 -11 -4.5 -20t-9.5 -15l1 -1q1 -2 6 -3q16 -11 26.5 -27.5t16 -35t7.5 -37t2 -33.5zM345 483
q0 54 -26 85.5t-59 36.5q10 9 21 22t12 29q-1 5 -3 12t-7.5 13t-16 10t-26.5 4q-22 0 -54.5 -10t-63 -34t-52.5 -65.5t-22 -104.5q0 -25 7 -57t24 -60t45.5 -47t71.5 -18q23 0 36.5 6.5t28.5 14.5q24 15 42 38q16 20 29 50t13 75zM306 562q0 -15 -13 -24.5t-25 -9.5
q-15 0 -23.5 6t-13.5 13.5t-9.5 13.5t-12.5 6q-15 0 -20.5 -10.5t-5.5 -16.5q0 -8 1 -13.5t2.5 -11.5t2.5 -14t1 -21q0 -48 -5.5 -75.5t-12.5 -41t-13.5 -17t-8.5 -3.5q-11 0 -17.5 8.5t-9.5 20t-4 22t-1 14.5q0 25 4 45t9 35t9.5 24.5t5.5 15.5q-9 13 -21 13q-8 0 -15 -6.5
t-12 -6.5t-10.5 3.5t-5.5 11.5q0 4 5 13t12.5 18t16.5 15.5t18 6.5q17 0 26.5 -10t11.5 -10q3 0 8 5l11.5 11t15 11t17.5 5q14 0 24 -6t18 -13.5l14 -13.5t11 -6l8 2q3 0 5 -3t2 -6zM166 426q0 23 -3 41t-6 18q-6 0 -7.5 -17t-1.5 -38q0 -19 5 -24q3 -3 6 -3q2 2 4.5 8.5
t2.5 14.5z" />
    <glyph glyph-name="copyright" unicode="&#xa9;" horiz-adv-x="631" 
d="M605 331q0 -75 -29 -140.5t-75.5 -113.5t-104.5 -76t-117 -28q-60 0 -109.5 20.5t-84 59.5t-53.5 95t-19 127q0 77 17 140t46 112.5t67 85.5t80 59t84.5 34.5t81.5 11.5q30 0 56 -9t45 -24t30 -33.5t11 -36.5q0 -14 -3.5 -23t-8 -15.5t-8 -10.5t-3.5 -7q0 -2 1 -4t2.5 -4
t5.5 -4q28 -19 45.5 -46t27 -57t12.5 -59.5t3 -53.5zM570 329q0 47 -11 84t-29 63.5t-41 42t-48 18.5q13 11 28 31t15 49q-1 9 -5 21.5t-14 23.5t-28 18.5t-48 7.5q-25 0 -59 -7t-70 -23.5t-71.5 -43.5t-63.5 -67.5t-45 -95t-17 -125.5q0 -28 5 -62.5t17 -69t31.5 -66.5
t47.5 -57t65.5 -40t86.5 -14q37 1 60.5 11t50.5 26q39 25 71 64q27 33 49.5 84.5t22.5 126.5zM537 359q0 -2 -1.5 -4.5t-3.5 -5.5q-2 -4 -4 -7q-78 -102 -139.5 -148.5t-119.5 -46.5q-31 0 -53.5 12t-36.5 31.5t-21 44.5t-7 51q0 52 22.5 89t53 61t60.5 35t45 11
q32 0 45 -15.5t13 -29.5t-5 -25.5t-11.5 -20.5t-14 -15t-13.5 -10q-2 -2 -6.5 -7.5t-11 -11.5t-15.5 -11t-21 -5q-18 0 -28 5q-5 3 -9 6q-5 4 -5 11t5.5 16.5t12 17.5t13 13.5t9.5 5.5q6 0 8.5 -4t5 -8.5t6.5 -8.5t13 -4q10 0 16 10.5t6 22.5q0 14 -8.5 24.5t-25.5 10.5
q-22 0 -42 -11.5t-35.5 -31.5t-25 -46.5t-9.5 -55.5q0 -18 3.5 -37.5t15 -36t32 -27t55.5 -10.5q24 0 54.5 20t59 48t52.5 56.5t36 46.5q3 9 11 9q7 0 13 -5t6 -9z" />
    <glyph glyph-name="trademark" unicode="&#x2122;" horiz-adv-x="642" 
d="M626 395q0 -17 -11.5 -32.5t-27 -27.5t-33 -19t-29.5 -7q-19 0 -32.5 12t-22.5 28t-14 32.5t-7 25.5q-2 -7 -6 -17q-1 -2 -5 -13t-11 -23.5t-17.5 -22.5t-23.5 -10q-12 0 -19 7.5t-11.5 18t-6.5 23t-3 21.5q-7 -12 -9 -16.5t-3 -6.5q-10 -21 -22 -36t-20 -16
q-9 0 -14.5 8t-7.5 20.5t-2.5 29t-0.5 34.5q0 7 -0.5 13t-3.5 6q-2 0 -7 -6l-12 -14q-13 -18 -28.5 -36.5t-32.5 -33.5t-36 -24.5t-40 -9.5q-11 0 -21.5 9.5t-18.5 26t-12.5 38t-4.5 46.5q0 34 3.5 61.5l4.5 35.5q-3 -1 -19 -4.5l-34 -7.5q-15 -4 -28.5 -7t-24.5 -5
q-8 0 -11.5 4t-3.5 8q0 6 8 10.5t20.5 9t27.5 8.5t30 7q11 2 20 4.5t17 4.5q2 2 4 11t4 20t4.5 23t6 21.5t9.5 16t14 6.5t11 -5.5t3 -22.5q0 -2 -0.5 -8.5t-1.5 -15t-2.5 -17.5t-2.5 -16q5 0 32 8l27 7l28.5 7.5t24.5 6t17 2.5q8 0 14 -3.5t6 -8.5q0 -6 -7.5 -12t-23.5 -9
q-5 -1 -25 -6l-42.5 -10.5t-40.5 -10.5l-18 -5q-6 -21 -9.5 -41.5t-3.5 -42.5q0 -15 1 -33.5t4.5 -35.5t11 -28.5t20.5 -11.5q11 0 24 8.5t26.5 21t25 26.5t19.5 25q2 2 3.5 5.5t1.5 4.5q8 13 20 28.5t25 15.5q10 0 15 -7t7.5 -16.5t3 -21.5t0.5 -23q0 -24 1.5 -29.5
t3.5 -5.5q5 0 12 13t14 29q6 16 13 27.5t15 11.5t8 -5q0 -8 -3 -12.5t-3 -20.5q0 -15 7 -30t30 -15q9 0 17 14.5t14 33t9.5 35t3.5 20.5q0 8 1.5 12.5t11.5 4.5q5 0 11.5 -2t6.5 -10q0 -5 4 -26t13 -44t22.5 -41.5t32.5 -18.5q12 0 21.5 6.5t17 15.5t12.5 17.5t7 12.5
q3 10 11 10q5 0 10.5 -4t5.5 -9z" />
    <glyph glyph-name="acute" unicode="&#xb4;" 
d="M348 408q0 -14 -8 -23.5t-17 -9.5q-19 -1 -42 -12t-43.5 -23.5t-36 -23t-19.5 -10.5t-4 9q8 11 25 30t38 37t43.5 31.5t43.5 13.5q8 0 14 -6t6 -13z" />
    <glyph glyph-name="dieresis" unicode="&#xa8;" 
d="M348 396q0 -20 -12 -32.5t-20 -12.5q-12 0 -18.5 5.5t-9.5 12t-3.5 13.5t-0.5 10q0 10 8.5 25t24.5 15q11 0 21 -10t10 -26zM208 393q0 -20 -12 -32.5t-20 -12.5q-12 0 -18.5 5.5t-9.5 12t-3.5 13.5t-0.5 10q0 10 8.5 25t24.5 15q11 0 21 -10t10 -26z" />
    <glyph glyph-name="notequal" unicode="&#x2260;" horiz-adv-x="450" 
d="M441 206q0 -6 -2.5 -9.5t-4.5 -5.5q-3 -3 -6 -3h-113l-25 -47h118q7 0 11 -10q2 -4 2 -9q0 -6 -2.5 -9.5t-4.5 -5.5q-3 -3 -6 -3h-137l-40 -79q-1 -2 -4 -5q-6 -6 -19 -5q-11 0 -14 4.5t-3 6.5l40 78h-81q-3 0 -6 3q-2 2 -4 5.5t-2 11.5q1 10 7 14q3 2 5 3h100l25 47
h-105q-3 0 -6 3q-2 2 -4 5.5t-2 11.5q1 10 7 14q3 2 5 3h124l34 65q1 2 5 5q2 2 6.5 3.5t10.5 1.5q13 0 15.5 -4t2.5 -5l-34 -66h94q7 0 11 -10q2 -4 2 -9z" />
    <glyph glyph-name="AE" unicode="&#xc6;" horiz-adv-x="965" 
d="M1015 170q0 -10 -18 -30t-48 -43t-68.5 -47.5t-79 -44.5t-80 -32.5t-71.5 -12.5q-68 0 -113 25t-53 82q-27 -33 -56 -54t-57.5 -33t-56 -16t-49.5 -4q-60 0 -102.5 24.5t-69.5 63t-39.5 84.5t-12.5 89q0 23 2 44.5t5 42.5q-6 2 -18.5 5.5t-25 8t-22 9.5t-9.5 10q0 2 3 4
t12 2q28 0 70 6q19 75 59 135t93 102t115.5 64.5t128.5 22.5q15 0 34 -2t40 -7.5t41.5 -14.5t38.5 -24q34 20 68 34.5t65 24.5t57.5 14.5t44.5 4.5q26 0 41 -7.5t15 -24.5q0 -23 -18.5 -47t-49 -47.5t-69.5 -45.5t-79 -41q-95 -46 -216 -88q1 -13 10 -24q8 -9 24 -16.5
t46 -7.5q21 0 41 4t47 15t64 30t90 49q4 2 6.5 3t4.5 1q4 0 9 -4t5 -9q0 -7 -13 -14l-33 -22.5t-52 -37.5t-59.5 -49t-56 -57.5t-42 -64.5t-16.5 -69q0 -23 7 -45.5t22 -39.5t37.5 -27.5t54.5 -10.5q47 0 90.5 13.5t83 36.5t76.5 52.5t72 61.5q1 2 4 5q2 2 4.5 3.5t6.5 1.5
q5 0 10 -4t5 -10zM856 665q0 12 -24 12q-40 0 -82 -13.5t-81 -34t-73.5 -45t-60.5 -48t-41 -42t-15 -26.5q0 -5 6 -5t12 3q4 1 7 3q13 4 43.5 17l70 31t81.5 39.5t77 42t57.5 38t22.5 28.5zM563 600q-22 20 -52 32.5t-70 12.5q-69 0 -125.5 -24t-99.5 -64t-72.5 -91.5
t-44.5 -106.5q42 7 88.5 17t90.5 20.5t81.5 22t61.5 21.5q24 50 61.5 89.5t80.5 70.5zM646 353q0 1 -2 1q-3 0 -11 -2.5t-16.5 -6t-16 -7t-10.5 -4.5l-12.5 -4t-23 -6.5t-30 -6.5t-33.5 -3q-36 0 -53 23t-22 52q-6 0 -39 -10.5t-80.5 -24t-102.5 -26.5t-104 -18
q-2 -14 -3 -27t-1 -26q0 -63 19.5 -112t50 -82.5t67.5 -51t72 -17.5q39 0 70.5 14t55.5 32.5t40 37t23 27.5q2 20 10.5 47t26 57.5t44 63.5t65.5 64q16 13 16 16z" />
    <glyph glyph-name="Oslash" unicode="&#xd8;" horiz-adv-x="631" 
d="M700 144q-14 -34 -37 -60.5t-51.5 -44.5t-61 -27.5t-64.5 -9.5q-27 0 -42 2t-23.5 4.5t-12 4.5t-7.5 2q-3 0 -13.5 -6.5t-27.5 -14.5t-41.5 -14.5t-55.5 -6.5q-17 0 -33.5 2t-32.5 5l-33 -93q-1 -2 -4 -5q-6 -6 -19 -5q-11 0 -14 4.5t-3 6.5l36 103q-76 29 -119.5 101.5
t-43.5 182.5q0 77 17 140t46 112.5t67 85.5t80 59t84.5 34.5t81.5 11.5q24 0 45 -6l22 60q1 2 5 5q2 2 6.5 3.5t10.5 1.5q13 0 15.5 -4t2.5 -5l-27 -75q29 -15 45.5 -37.5t16.5 -45.5q0 -14 -3.5 -23t-8 -15.5t-8 -10.5t-3.5 -7q0 -2 1 -4t2.5 -4t5.5 -4q28 -19 45.5 -46
t27 -57t12.5 -59.5t3 -53.5q0 -62 -21 -113t-47 -89q-30 -44 -67 -80q0 -4 5.5 -6.5t13 -3.5t15.5 -1.5t14 -0.5q35 0 62.5 11t48 25t33 28.5l17.5 20.5l4 5l9 11t10 10.5t7 4.5q7 -4 7 -9zM468 617q0 11 -5.5 25t-19.5 26l-37 -103q7 1 13.5 1.5t13.5 0.5h9t8 -1q5 7 9 15
q3 7 6 16t3 20zM554 329q0 50 -11 88.5t-29.5 64.5t-43 39.5t-51.5 13.5q-38 0 -66 -17t-46 -46t-27 -67.5t-9 -81.5q0 -75 22 -126.5t48 -82.5q31 -37 70 -60q39 25 71 64q27 33 49.5 84.5t22.5 126.5zM408 684q-8 2 -16.5 3t-18.5 1q-25 0 -59 -7t-70 -23.5t-71.5 -43.5
t-63.5 -67.5t-45 -95t-17 -125.5q0 -33 6.5 -72t22.5 -77.5t41.5 -72.5t63.5 -56l59 166q-9 39 -9 85q0 28 4.5 66.5t18 75.5t39.5 68.5t70 46.5l45 128v0zM361 32q-21 13 -50 43.5t-51 79.5l-44 -124q37 -14 84 -14q20 0 32.5 2t18.5 5q7 4 10 8z" />
    <glyph glyph-name="plusminus" unicode="&#xb1;" horiz-adv-x="448" 
d="M371 296q0 -6 -2.5 -9.5t-4.5 -5.5q-3 -3 -6 -3h-110v-111q0 -3 -3 -6q-6 -6 -17 -6q-11 1 -15 7q-2 3 -2 6v110h-111q-3 0 -6 3q-2 2 -4 5.5t-2 11.5q1 10 7 14q3 2 5 3h111v111q0 3 2 6q4 6 15 6q8 0 11.5 -2t5.5 -4q2 -3 3 -6v-111h110q7 0 11 -10q2 -4 2 -9zM371 112
q0 -6 -2.5 -9.5t-4.5 -5.5q-3 -3 -6 -3h-258q-3 0 -6 3q-2 2 -4 5.5t-2 11.5q1 10 7 14q3 2 5 3h258q7 0 11 -10q2 -4 2 -9z" />
    <glyph glyph-name="yen" unicode="&#xa5;" 
d="M537 210q0 -7 -5 -12q-3 -2 -5 -2h-95v-20t-1 -19h79q5 0 9 -8q1 -4 2 -7q0 -8 -6 -12q-3 -2 -5 -3h-80q-1 -38 -2 -63.5t-1 -28.5q0 -4 -2 -27t-10 -49.5t-25.5 -48t-47.5 -21.5q-24 0 -45 12.5t-39.5 32t-34.5 41.5l-30.5 41.5t-27.5 32t-25 12.5q-7 0 -10 -7t-8 -7
q1 0 -7 3.5t-8 11.5q0 9 15.5 22.5t38.5 13.5q27 0 52 -25.5t49.5 -56.5t48.5 -56.5t47 -25.5q17 0 26.5 17t14 40t5.5 47t1 38v51h-105q-2 0 -5 2q-6 4 -5 15q0 8 5 11q2 2 5 2h105v39h-89q-3 0 -5 2q-5 3 -5 14q1 5 2.5 7.5t3.5 4.5t4 2h91q1 48 3 91.5t4 81t4 66.5t4 47
q0 8 -2 8q-4 0 -9 -14q-4 -10 -13 -35.5t-23.5 -57.5t-33 -66.5t-40 -63t-46 -47t-49.5 -18.5q-22 0 -38.5 16t-27.5 41.5t-17.5 56.5t-10.5 60.5t-5 54.5t-1 38q0 25 1 39.5t1 17.5q0 10 -1 10t-6 -8l-11.5 -19l-12.5 -21.5t-10 -14.5q-6 -8 -13 -8q-5 0 -8 4.5t-3 8.5t5 8
q19 27 33 49l22 36t11 20q1 44 7 78q3 15 7 29t9.5 25t13 18t17.5 7q9 -2 12 -6.5t3 -12.5q0 -17 -11 -51t-25 -67q-1 -11 -1.5 -22t-0.5 -25q0 -46 5 -100.5t15.5 -102t27.5 -79.5t41 -32q16 0 36.5 24t42 61.5t42 82.5t36.5 87t26 75t10 47q1 0 1 7t0.5 15t2.5 15t7 7
q12 0 12 -93q0 -22 -1 -43.5t-4 -38.5q-2 -10 -3.5 -36t-2.5 -62t-2 -78.5t-3 -84.5l-1 -25h94q7 0 9 -8q1 -4 1 -8z" />
    <glyph glyph-name="mu" unicode="&#xb5;" horiz-adv-x="881" 
d="M866 402q0 -30 -7 -60t-22 -57q-10 -17 -24.5 -34t-26.5 -28q-13 -8 -25 -10.5t-23 -2.5q-19 0 -35 6t-27 15q-29 26 -43 62.5t-14 77.5q0 51 20.5 99.5t58.5 80.5q12 11 27.5 16.5t30.5 5.5q29 0 47.5 -13t32.5 -30q14 -30 22 -62.5t8 -65.5zM843 723q0 -4 -5 -4
q-6 0 -17.5 6.5t-44.5 6.5q-52 0 -97.5 -26.5t-80.5 -73t-58 -109.5t-30 -137q-3 -30 -4.5 -69.5t-2 -81l-1 -81t-0.5 -69.5q0 -38 -1.5 -60.5t-4 -35.5t-6 -17t-7.5 -4q-16 0 -39 35.5t-48.5 90.5t-51 122.5t-46 132t-33 118t-12.5 81.5q0 31 6.5 42t8.5 11q4 0 7.5 -6
t5.5 -12l87 -255l33.5 -94t30.5 -81.5t24 -57.5t14 -22q2 0 2 4.5v18.5q0 5 -0.5 28.5t-0.5 60.5q0 44 1.5 105.5t10 127.5t25.5 131t48.5 116.5t79.5 83.5t118 32q9 0 24 -2.5t29.5 -8.5t25 -17.5t10.5 -29.5zM840 148q0 -8 -5 -13q-2 -2 -4 -2h-192q-3 0 -5 2q-4 4 -4 15
q1 9 5 13q2 2 4 2h192q3 0 5 -3t3 -6q1 -4 1 -8zM251 628q0 -14 -4 -14q-3 0 -6 3.5t-5 3.5q-4 0 -4 -8.5t-1 -28.5v-48.5t0.5 -76t1.5 -89t1.5 -88t1 -73t0.5 -42.5q0 -30 -3 -67.5t-14 -71.5t-34 -57t-62 -23q-23 0 -49 15.5t-52 39.5t-52 51l-50 51t-44.5 39.5
t-36.5 15.5q-7 0 -10.5 -3.5t-6.5 -8l-5.5 -8t-8.5 -3.5q-3 0 -6 3q-5 5 -5 21q0 6 2.5 15t8 17.5t14 14.5t21.5 6q27 0 52.5 -16.5t51 -40.5t50.5 -53t49.5 -53t49.5 -40.5t51 -16.5q22 0 34 20.5t17.5 54t6.5 76t1 86.5q0 21 -0.5 52.5t-1 66.5l-1 71t-1 67t-1 53.5
t-0.5 30.5q0 17 1 33.5t4 30t7.5 21.5t11.5 8q9 -2 17.5 -10t8.5 -27zM823 392q-7 -24 -24 -47q-2 -2 -5 -2q-2 0 -5 3v3v2q12 20 18 43t6 44q0 28 -8.5 51t-21.5 35q-15 12 -26 12q-8 0 -18 -4.5t-21 -12.5q-11 -10 -19.5 -26.5t-14.5 -37t-9.5 -43.5t-3.5 -45q0 -35 8 -64
t25 -43q17 -17 34 -17q8 0 16.5 4.5t18.5 12.5q8 7 16 20.5t15 31.5t12 38.5t7 41.5z" />
    <glyph glyph-name="ordfeminine" unicode="&#xaa;" horiz-adv-x="319" 
d="M512 442q0 -2 -4 -8l-4 -6q-33 -44 -59.5 -73t-50 -46.5t-45 -25t-44.5 -7.5q-15 0 -27 7.5t-20 18.5t-12 25t-4 27v5q0 4 -4 4l-2 -2q-2 -4 -16 -16.5t-33.5 -26t-43 -24t-44.5 -10.5q-24 0 -36.5 7t-18.5 16.5t-7 20t-1 17.5q0 25 18 57.5t47.5 61.5t67.5 48.5t77 19.5
q18 0 34.5 -9t16.5 -28q0 -26 -24 -52t-56 -48t-64.5 -38.5t-48.5 -22.5q-5 -2 -5 -5t4.5 -6t11.5 -3q4 0 7 1q7 1 19.5 5.5t28.5 13t33.5 21.5t33.5 32q8 10 13 13.5t10 3.5t8 -4t4.5 -8.5t2 -8.5t0.5 -5q0 -3 2.5 -14t9 -24t17.5 -23t28 -10q19 0 42 15t44.5 36t40 44
t28.5 39q1 7 9 7q6 0 11 -4q5 -5 5 -8zM267 175q0 -8 -5 -13q-2 -2 -4 -2h-192q-3 0 -5 2q-4 4 -4 15q1 9 5 13q2 2 4 2h192q3 0 5 -3t3 -6q1 -4 1 -8zM256 479q0 11 -6.5 17.5t-29.5 6.5q-18 0 -41.5 -13t-45.5 -33t-37 -45.5t-15 -49.5q0 -9 5 -9q2 0 15.5 6t32.5 15.5
t40.5 22.5t39.5 27t30 28t12 27z" />
    <glyph glyph-name="ordmasculine" unicode="&#xba;" horiz-adv-x="301" 
d="M275 429q0 -30 -7 -60t-22 -57q-10 -17 -24.5 -34t-26.5 -28q-13 -8 -25 -10.5t-23 -2.5q-19 0 -35 6t-27 15q-29 26 -43 62.5t-14 77.5q0 51 20.5 99.5t58.5 80.5q12 11 27.5 16.5t30.5 5.5q29 0 47.5 -13t32.5 -30q14 -30 22 -62.5t8 -65.5zM249 175q0 -8 -5 -13
q-2 -2 -4 -2h-192q-3 0 -5 2q-4 4 -4 15q1 9 5 13q2 2 4 2h192q3 0 5 -3t3 -6q1 -4 1 -8zM232 419q-7 -24 -24 -47q-2 -2 -5 -2q-2 0 -5 3v3v2q12 20 18 43t6 44q0 28 -8.5 51t-21.5 35q-15 12 -26 12q-8 0 -18 -4.5t-21 -12.5q-11 -10 -19.5 -26.5t-14.5 -37t-9.5 -43.5
t-3.5 -45q0 -35 8 -64t25 -43q17 -17 34 -17q8 0 16.5 4.5t18.5 12.5q8 7 16 20.5t15 31.5t12 38.5t7 41.5z" />
    <glyph glyph-name="ae" unicode="&#xe6;" horiz-adv-x="518" 
d="M620 169q0 -2 -1.5 -4.5t-3.5 -5.5q-2 -4 -4 -7q-39 -51 -70.5 -85.5t-59 -55t-53 -29.5t-52.5 -9q-29 0 -50 6.5t-35 17.5t-22.5 26.5t-12.5 32.5q-4 11 -4 25q-1 3 -1 9q-2 2 -3 2q-2 0 -3 -3q-3 -5 -19 -19.5t-39 -30t-50.5 -28t-52.5 -12.5q-28 0 -43 8t-22 19.5
t-8 23.5t-1 21q0 30 21.5 68t56 71.5t79 56.5t90.5 23q20 0 38 -8.5t21 -28.5q14 13 30 20.5t33 7.5q26 0 41.5 -14t15.5 -33q0 -28 -19 -60t-42 -60q-26 -33 -60 -65q3 -9 12 -16q8 -6 23 -11t41 -5q36 0 67 17.5t56.5 42.5t44.5 52l31 45q3 9 11 9q7 0 13 -5t6 -9z
M382 221q0 13 -8 17.5t-14 4.5q-5 0 -16.5 -6t-23 -21t-20.5 -40.5t-9 -64.5q0 -11 0.5 -17t1.5 -10t3 -7q24 20 43 44q16 20 29.5 46t13.5 54zM269 228q0 14 -8 21.5t-35 7.5q-21 0 -49 -15.5t-53.5 -39.5t-43 -53.5t-17.5 -57.5q0 -11 6 -11q3 0 19 7t38 18t47 26.5
t46.5 31.5t35.5 33t14 32zM256 154q-21 -18 -45 -33.5t-47 -28t-42.5 -21.5t-31.5 -13q-6 -2 -6 -6t5.5 -7.5t13.5 -3.5q23 0 49 12.5t48 29t36.5 31t14.5 19.5l2 10.5t3 10.5z" />
    <glyph glyph-name="oslash" unicode="&#xf8;" horiz-adv-x="455" 
d="M547 152q-18 -27 -41.5 -45t-50 -29t-55.5 -16t-57 -5q-22 0 -43 3q-21 -24 -40 -37.5t-35 -19.5t-28.5 -7t-21.5 -1q-5 0 -8.5 0.5t-7.5 0.5l-34 -80q-1 -2 -4 -5q-6 -6 -19 -5q-11 0 -14 4.5t-3 6.5l39 91q-31 18 -44.5 52.5t-14.5 66.5q0 21 7 40t16.5 32.5t18.5 21
t13 7.5q8 0 10.5 4t4.5 9q8 25 23 44q13 17 33.5 31t52.5 14q5 0 9 -0.5t9 -1.5l38 87q1 2 5 5q2 2 6.5 3.5t10.5 1.5q13 0 15.5 -4t2.5 -5l-43 -100q21 -14 33 -35t17 -41q6 -24 8 -49q0 -31 -11 -58t-25 -47q5 -1 10 -1h10q29 0 58.5 7t55.5 19t45.5 27.5t28.5 33.5
q4 11 10 11q5 0 12 -4t7 -10zM321 182q0 22 -5 42.5t-15.5 36t-27 24.5t-38.5 9q-26 0 -45.5 -16.5t-19.5 -48.5q0 -16 3 -29.5t4 -15.5q13 -32 30.5 -50.5t34 -28t29 -12t15.5 -2.5t9 7.5t12 20t10 29t4 34.5zM268 64q0 2 -8 3t-21 4t-28.5 10t-31.5 22q-2 2 -9.5 10.5
t-15.5 21.5t-15.5 28.5t-9.5 32.5q0 6 -3 6q-6 -4 -10 -10t-7 -15.5t-3 -23.5q0 -8 2 -26.5t12 -38.5t29 -35t54 -15q17 0 29 4t20 9q10 5 16 13z" />
    <glyph glyph-name="questiondown" unicode="&#xbf;" horiz-adv-x="385" 
d="M261 405q0 -6 -2.5 -14t-8 -15.5t-13 -13t-16.5 -5.5q-14 0 -26 12t-12 32q0 11 4.5 21t10.5 17.5t12.5 11.5t11.5 4q15 0 22.5 -6.5t11.5 -15t4.5 -16.5t0.5 -12zM347 -7q0 -51 -17.5 -86.5t-43 -58t-54 -33t-49.5 -10.5q-27 0 -50.5 10.5t-41 31t-28 50t-10.5 68.5
q0 23 13 47t33 48.5t42.5 49.5t42.5 50t33 50t13 49q0 12 -3 21.5t-7 17.5q0 3 6 5q10 -3 19 -10q7 -6 13 -17t6 -29q0 -20 -12 -43t-29.5 -47t-38 -48.5t-38 -48.5t-29.5 -47t-12 -43q0 -50 23.5 -82.5t80.5 -32.5q15 0 32.5 8t33 24t26 39t10.5 53q0 22 -6 33t-23 11
q-11 0 -27.5 -9.5t-39.5 -35.5q-4 -4 -7 -4q-5 0 -5 8q0 18 11.5 32.5t27 24t30.5 15t22 5.5q24 0 38.5 -20.5t14.5 -45.5z" />
    <glyph glyph-name="exclamdown" unicode="&#xa1;" horiz-adv-x="164" 
d="M123 391q0 -6 -2.5 -14t-8 -15.5t-13 -13t-16.5 -5.5q-14 0 -26 12t-12 32q0 11 4.5 21t10.5 17.5t12.5 11.5t11.5 4q15 0 22.5 -6.5t11.5 -15t4.5 -16.5t0.5 -12zM120 -142q0 -13 -2 -17q0 -8 -10.5 -16t-20.5 -8q-14 0 -19 6.5t-5 20.5v36.5t0.5 76.5t1 97t1 98
t1.5 78.5t2 38.5q3 15 11 19.5t15 4.5q8 0 10.5 -8.5t3.5 -15.5q-1 -10 -1.5 -21t-0.5 -23q0 -15 1 -45.5t2.5 -68l3 -78.5t3 -77t2.5 -62.5t1 -35.5z" />
    <glyph glyph-name="florin" unicode="&#x192;" horiz-adv-x="300" 
d="M495 503q-1 -7 -6 -17t-14.5 -20.5t-23 -18.5t-32.5 -11q-18 0 -35 14t-33 34t-31.5 44t-31 44t-31.5 33.5t-32 13.5q-17 0 -28 -20.5t-17.5 -51.5t-10 -68t-4.5 -70.5t-1.5 -59t-0.5 -33.5q0 -3 16.5 -5t37 -5.5t37 -9t16.5 -15.5t-5.5 -20.5t-11.5 -10.5l-8 3t-21.5 6
t-29 6t-30.5 3q0 -12 -1.5 -27t-2.5 -43.5t-2 -76t-1 -123.5q0 -26 -1 -62t-4.5 -75t-10 -77t-17.5 -68.5t-27.5 -49.5t-39.5 -19t-42 14t-36 35t-33.5 45.5t-33 45.5t-34 35t-38.5 14q-12 0 -15 -6t-4 -12.5t-3 -12.5t-11 -6q-7 0 -12 7.5t-5 15.5q1 7 6 17t14.5 20.5
t23 18.5t32.5 11q18 0 35 -14t33 -34t31.5 -44t31 -44t31 -33.5t32.5 -13.5q19 0 31 36.5t19.5 92.5t11 123.5t4.5 129.5t0.5 110t0.5 65q0 8 -6.5 10t-28.5 2q-25 0 -63.5 -6t-78.5 -24q-6 -8 -17 -8q-5 0 -9.5 4.5t-4.5 9.5q0 11 28 24q3 1 18.5 6.5t38.5 11.5t52 11t58 5
q6 0 10 3t4 15q0 26 1 62t4.5 75t10 77t17.5 68.5t27.5 49.5t39.5 19t42 -14t36 -35t33.5 -45.5t33 -45.5t34 -35t38.5 -14q12 0 15 6t4 12.5t3 12.5t11 6q7 0 12 -7.5t5 -15.5z" />
    <glyph glyph-name="guillemotleft" unicode="&#xab;" horiz-adv-x="189" 
d="M283 31q0 -4 -9 -4q-9 7 -27.5 18t-38 25.5t-34.5 32t-18 37.5l-1 8v3q0 15 14 30.5t33 29t37 23.5t27 14q9 -3 9 -8v-1q0 -5 -10.5 -13t-23 -20t-24 -27.5t-13.5 -34.5q3 -19 15.5 -37.5t26.5 -34t25.5 -26.5t11.5 -15zM168 31q0 -4 -9 -4q-9 7 -27.5 18t-38 25.5
t-34.5 32t-18 37.5l-1 8v3q0 15 14 30.5t33 29t37 23.5t27 14q9 -3 9 -8v-1q0 -5 -10.5 -13t-23 -20t-24 -27.5t-13.5 -34.5q3 -19 15.5 -37.5t26.5 -34t25.5 -26.5t11.5 -15z" />
    <glyph glyph-name="guillemotright" unicode="&#xbb;" horiz-adv-x="189" 
d="M283 140q-3 -20 -18 -37.5t-34.5 -32t-38 -25.5t-27.5 -18q-9 0 -9 4t11.5 15t25.5 26.5t26.5 34t15.5 37.5q-2 19 -13.5 34.5t-24.5 27.5t-23 20t-10 13v1q0 5 9 8q9 -4 27 -14t37 -23.5t33 -29t14 -30.5v-3zM168 140q-3 -20 -18 -37.5t-34.5 -32t-38 -25.5t-27.5 -18
q-9 0 -9 4t11.5 15t25.5 26.5t26.5 34t15.5 37.5q-2 19 -13.5 34.5t-24.5 27.5t-23 20t-10 13v1q0 5 9 8q9 -4 27 -14t37 -23.5t33 -29t14 -30.5v-3z" />
    <glyph glyph-name="ellipsis" unicode="&#x2026;" horiz-adv-x="367" 
d="M349 34q0 -11 -4.5 -21t-10.5 -17.5t-13 -11.5t-11 -4q-15 0 -22.5 6.5t-11.5 15t-4.5 16.5t-0.5 12q0 6 2.5 14t8 15.5t13 13t16.5 5.5q14 0 26 -12t12 -32zM231 34q0 -11 -4.5 -21t-10.5 -17.5t-13 -11.5t-11 -4q-15 0 -22.5 6.5t-11.5 15t-4.5 16.5t-0.5 12
q0 6 2.5 14t8 15.5t13 13t16.5 5.5q14 0 26 -12t12 -32q0 -11 -4.5 -21t-10.5 -17.5t-13 -11.5t-11 -4q-15 0 -22.5 6.5t-11.5 15t-4.5 16.5t-0.5 12q0 6 2.5 14t8 15.5t13 13t16.5 5.5q14 0 26 -12t12 -32zM113 34q0 -11 -4.5 -21t-10.5 -17.5t-13 -11.5t-11 -4
q-15 0 -22.5 6.5t-11.5 15t-4.5 16.5t-0.5 12q0 6 2.5 14t8 15.5t13 13t16.5 5.5q14 0 26 -12t12 -32z" />
    <glyph glyph-name="nonbreakingspace" horiz-adv-x="250" 
 />
    <glyph glyph-name="Agrave" unicode="&#xc0;" horiz-adv-x="608" 
d="M481 742q0 -9 -4 -9t-19.5 10.5t-36 23t-43.5 23.5t-42 12q-9 0 -17 9.5t-8 23.5q0 7 6 13t14 6q21 0 43.5 -13t43.5 -31t38 -37t25 -31zM657 -20q0 -8 -4 -12.5t-10 -6.5t-13.5 -2.5t-14.5 -0.5q-30 0 -57 14.5t-48 33.5t-35.5 38.5t-19.5 29.5q-5 11 -9.5 14.5
t-7.5 3.5q-4 0 -7.5 -5.5t-14.5 -19.5q-27 -33 -56 -54t-57.5 -33t-56 -16t-49.5 -4q-60 0 -102.5 24.5t-69.5 63t-39.5 84.5t-12.5 89q0 103 35 187t92.5 144t132 92.5t153.5 32.5q24 0 59.5 -6t68.5 -24t56 -51.5t23 -87.5q0 -17 -5 -39t-14 -45t-22.5 -46t-31.5 -42
q0 -36 -5 -64t-11.5 -48.5t-12.5 -33.5t-9 -17q-5 -6 -5 -19q0 -14 15.5 -41.5t40 -54.5t55 -47.5t60.5 -20.5q9 0 9 -10zM492 344q-3 47 -8.5 64t-15.5 17q-8 0 -14 -13t-11 -32.5t-7.5 -41t-2.5 -37.5q19 9 33.5 20.5t25.5 22.5zM491 308q-2 -2 -10 -7.5t-18 -11.5
l-26 -16q6 -29 9 -45t5 -24t4.5 -10t7.5 -2t9.5 13.5t8 32t6 38.5t4.5 32zM553 472q0 30 -11 61t-33.5 55.5t-56.5 40.5t-79 16q-85 0 -151 -36t-111.5 -92t-69 -125t-23.5 -135q0 -63 19.5 -112t50 -82.5t67.5 -51t72 -17.5q40 0 72 14.5t56 33.5t40 37.5t22 27.5q7 7 9 14
t2 11t-4 14.5t-8.5 26.5t-8 37t-3.5 46q-22 -8 -41 -14l-33.5 -9.5t-24.5 -4.5q-6 0 -10.5 2t-4.5 8q0 9 11 15q4 3 11 3q17 4 28.5 7t21 7l19 8t22.5 10q1 16 4 44t11 55t22 47t37 20q14 0 25 -18.5t15 -60.5q17 24 26.5 45.5t9.5 51.5z" />
    <glyph glyph-name="Atilde" unicode="&#xc3;" horiz-adv-x="608" 
d="M473 760q0 -22 -19 -33.5t-37 -11.5q-15 0 -26 6t-22 13.5t-24 14t-31 6.5q-23 0 -30.5 -10t-9.5 -12q-5 0 -7.5 7t-2.5 11q0 22 19 33.5t37 11.5q15 0 27 -6t24 -13.5t25.5 -13.5t33.5 -6q14 0 22.5 9.5t10.5 11.5q5 0 7.5 -7t2.5 -11zM657 -20q0 -8 -4 -12.5t-10 -6.5
t-13.5 -2.5t-14.5 -0.5q-30 0 -57 14.5t-48 33.5t-35.5 38.5t-19.5 29.5q-5 11 -9.5 14.5t-7.5 3.5q-4 0 -7.5 -5.5t-14.5 -19.5q-27 -33 -56 -54t-57.5 -33t-56 -16t-49.5 -4q-60 0 -102.5 24.5t-69.5 63t-39.5 84.5t-12.5 89q0 103 35 187t92.5 144t132 92.5t153.5 32.5
q24 0 59.5 -6t68.5 -24t56 -51.5t23 -87.5q0 -17 -5 -39t-14 -45t-22.5 -46t-31.5 -42q0 -36 -5 -64t-11.5 -48.5t-12.5 -33.5t-9 -17q-5 -6 -5 -19q0 -14 15.5 -41.5t40 -54.5t55 -47.5t60.5 -20.5q9 0 9 -10zM492 344q-3 47 -8.5 64t-15.5 17q-8 0 -14 -13t-11 -32.5
t-7.5 -41t-2.5 -37.5q19 9 33.5 20.5t25.5 22.5zM491 308q-2 -2 -10 -7.5t-18 -11.5l-26 -16q6 -29 9 -45t5 -24t4.5 -10t7.5 -2t9.5 13.5t8 32t6 38.5t4.5 32zM553 472q0 30 -11 61t-33.5 55.5t-56.5 40.5t-79 16q-85 0 -151 -36t-111.5 -92t-69 -125t-23.5 -135
q0 -63 19.5 -112t50 -82.5t67.5 -51t72 -17.5q40 0 72 14.5t56 33.5t40 37.5t22 27.5q7 7 9 14t2 11t-4 14.5t-8.5 26.5t-8 37t-3.5 46q-22 -8 -41 -14l-33.5 -9.5t-24.5 -4.5q-6 0 -10.5 2t-4.5 8q0 9 11 15q4 3 11 3q17 4 28.5 7t21 7l19 8t22.5 10q1 16 4 44t11 55t22 47
t37 20q14 0 25 -18.5t15 -60.5q17 24 26.5 45.5t9.5 51.5z" />
    <glyph glyph-name="Otilde" unicode="&#xd5;" horiz-adv-x="631" 
d="M452 793q0 -22 -19 -33.5t-37 -11.5q-15 0 -26 6t-22 13.5t-24 14t-31 6.5q-23 0 -30.5 -10t-9.5 -12q-5 0 -7.5 7t-2.5 11q0 22 19 33.5t37 11.5q15 0 27 -6t24 -13.5t25.5 -13.5t33.5 -6q14 0 22.5 9.5t10.5 11.5q5 0 7.5 -7t2.5 -11zM700 144q-14 -34 -37 -60.5
t-51.5 -44.5t-61 -27.5t-64.5 -9.5q-27 0 -42 2t-23.5 4.5t-12 4.5t-7.5 2q-3 0 -13.5 -6.5t-27.5 -14.5t-41.5 -14.5t-55.5 -6.5q-60 0 -109.5 20.5t-84 59.5t-53.5 95t-19 127q0 77 17 140t46 112.5t67 85.5t80 59t84.5 34.5t81.5 11.5q30 0 56 -9t45 -24t30 -33.5
t11 -36.5q0 -14 -3.5 -23t-8 -15.5t-8 -10.5t-3.5 -7q0 -2 1 -4t2.5 -4t5.5 -4q28 -19 45.5 -46t27 -57t12.5 -59.5t3 -53.5q0 -62 -21 -113t-47 -89q-30 -44 -67 -80q0 -4 5.5 -6.5t13 -3.5t15.5 -1.5t14 -0.5q35 0 62.5 11t48 25t33 28.5l17.5 20.5l4 5l9 11t10 10.5
t7 4.5q7 -4 7 -9zM554 329q0 50 -11 88.5t-29.5 64.5t-43 39.5t-51.5 13.5q-38 0 -66 -17t-46 -46t-27 -67.5t-9 -81.5q0 -75 22 -126.5t48 -82.5q31 -37 70 -60q39 25 71 64q27 33 49.5 84.5t22.5 126.5zM468 617q0 9 -3.5 21.5t-14 23.5t-29 18.5t-48.5 7.5q-25 0 -59 -7
t-70 -23.5t-71.5 -43.5t-63.5 -67.5t-45 -95t-17 -125.5q0 -43 12 -96.5t41.5 -101t78 -79.5t121.5 -32q20 0 32.5 2t18.5 5q7 4 10 8q-17 10 -39.5 32t-42.5 55.5t-34 78.5t-14 101q0 22 2.5 50.5t10 58.5t21 58.5t36 51t55 36t77.5 13.5h9t8 -1q5 7 9 15q3 7 6 16t3 20z
" />
    <glyph glyph-name="OE" unicode="&#x152;" horiz-adv-x="982" 
d="M1032 192q0 -10 -18 -30t-48 -43t-68.5 -47.5t-79 -44.5t-80 -32.5t-71.5 -12.5q-68 0 -113 25t-53 83q-40 -51 -98.5 -84t-139.5 -33q-60 0 -109.5 20.5t-84 59.5t-53.5 95t-19 127q0 77 17 140t46 112.5t67 85.5t80 59t84.5 34.5t81.5 11.5q30 0 56 -9t45 -24t30 -33.5
t11 -36.5q0 -14 -3.5 -23t-8 -15.5t-8 -10.5t-3.5 -7q-1 -1 0 -3q0 -2 4 -6q38 43 90.5 76.5t105 56.5t98 34.5t70.5 11.5q26 0 41 -7.5t15 -24.5q0 -23 -18.5 -47t-49 -47.5t-69.5 -45.5t-79 -41q-95 -46 -216 -88q1 -13 10 -24q8 -9 24 -16.5t46 -7.5q21 0 41 4t47 15
t64 30t90 49q4 2 6.5 3t4.5 1q4 0 9 -4t5 -9q0 -7 -13 -14l-33 -22.5t-52 -37.5t-59.5 -49t-56 -57.5t-42 -64.5t-16.5 -69q0 -23 7 -45.5t22 -39.5t37.5 -27.5t54.5 -10.5q47 0 90.5 13.5t83 36.5t76.5 52.5t72 61.5q1 2 4 5q2 2 4.5 3.5t6.5 1.5q5 0 10 -4t5 -10zM873 687
q0 12 -24 12q-40 0 -82 -13.5t-81 -34t-73.5 -45t-60.5 -48t-41 -42t-15 -26.5q0 -5 6 -5t12 3q4 1 7 3q13 4 43.5 17l70 31t81.5 39.5t77 42t57.5 38t22.5 28.5zM663 375q0 1 -2 1q-3 0 -11 -2.5t-16.5 -6t-16 -7t-10.5 -4.5l-12.5 -4t-23 -6.5t-30 -6.5t-33.5 -3
q-36 0 -53 23t-22 52q2 29 12 56.5t27 51.5q-5 4 -6.5 6.5t-4 4t-7 2t-15.5 0.5q-8 0 -8 3q0 5 9.5 13.5t9.5 17.5q5 7 9 15q3 7 6 16t3 20q0 9 -3.5 21.5t-14 23.5t-29 18.5t-48.5 7.5q-25 0 -59 -7t-70 -23.5t-71.5 -43.5t-63.5 -67.5t-45 -95t-17 -125.5q0 -43 12 -96.5
t41.5 -101t78 -79.5t121.5 -32q32 0 57 10t54 27q16 9 32 23q14 12 30 29.5t32 43.5q5 21 15 46t27 52t41.5 55.5t58.5 55.5q16 13 16 16z" />
    <glyph glyph-name="oe" unicode="&#x153;" horiz-adv-x="556" 
d="M658 169q0 -2 -1.5 -4.5t-3.5 -5.5q-2 -4 -4 -7q-39 -51 -70.5 -85.5t-59 -55t-53 -29.5t-52.5 -9q-58 0 -84.5 23.5t-35.5 56.5q-20 -22 -38 -33.5t-33 -17t-27.5 -6.5t-20.5 -1q-30 0 -50.5 12.5t-33.5 32t-19 43t-7 44.5q0 21 7 40t16.5 32.5t18.5 21t13 7.5
q8 0 10.5 4t4.5 9q8 25 23 44q13 17 33.5 31t52.5 14q23 0 40.5 -8t29.5 -20t20 -27t12 -30q16 16 34 26t37 10q26 0 41.5 -14t15.5 -33q0 -28 -19 -60t-42 -60q-26 -33 -60 -65q3 -9 12 -16q8 -6 23 -11t41 -5q36 0 67 17.5t56.5 42.5t44.5 52l31 45q3 9 11 9q7 0 13 -5
t6 -9zM420 221q0 13 -8 17.5t-14 4.5q-19 0 -32 -17t-21.5 -39t-12 -43t-3.5 -28q-1 -12 0 -19t2 -12t3 -8q24 20 43 44q16 20 29.5 46t13.5 54zM319 209q-6 35 -26.5 60t-57.5 25q-26 0 -45.5 -16.5t-19.5 -48.5q0 -16 3 -29.5t4 -15.5q13 -32 30.5 -50.5t34 -28t29 -12
t15.5 -2.5q2 0 3 1q-1 6 -1 12v13q0 20 8.5 44.5t22.5 47.5zM268 64q0 2 -8 3t-21 4t-28.5 10t-31.5 22q-2 2 -9.5 10.5t-15.5 21.5t-15.5 28.5t-9.5 32.5q0 6 -3 6q-6 -4 -10 -10t-7 -15.5t-3 -23.5q0 -8 2 -26.5t12 -38.5t29 -35t54 -15q17 0 29 4t20 9q10 5 16 13z" />
    <glyph glyph-name="endash" unicode="&#x2013;" horiz-adv-x="447" 
d="M447 162q0 -6 -2.5 -9.5t-4.5 -5.5q-3 -3 -6 -3h-423q-3 0 -6 3q-2 2 -4 5.5t-2 11.5q1 10 7 14q3 2 5 3h423q7 0 11 -10q2 -4 2 -9z" />
    <glyph glyph-name="emdash" unicode="&#x2014;" horiz-adv-x="698" 
d="M698 162q0 -6 -2.5 -9.5t-4.5 -5.5q-3 -3 -6 -3h-674q-3 0 -6 3q-2 2 -4 5.5t-2 11.5q1 10 7 14q3 2 5 3h674q7 0 11 -10q2 -4 2 -9z" />
    <glyph glyph-name="quotedblleft" unicode="&#x201c;" horiz-adv-x="212" 
d="M187 642q0 -7 -2 -10q-10 -17 -12.5 -42t-2.5 -49q0 -14 0.5 -27t0.5 -22q0 -12 -2 -16q0 -2 -2 -2q-3 0 -7 3q-5 9 -10 24t-9 33t-7 37t-3 37q0 16 2.5 30t9.5 25q6 10 17 10q5 0 10 -3q9 -5 13 -12.5t4 -15.5zM96 642q0 -7 -2 -10q-10 -17 -12.5 -42t-2.5 -49
q0 -14 0.5 -27t0.5 -22q0 -12 -2 -16q0 -2 -2 -2q-3 0 -7 3q-5 9 -10 24t-9 33t-7 37t-3 37q0 16 2.5 30t9.5 25q6 10 17 10q5 0 10 -3q9 -5 13 -12.5t4 -15.5z" />
    <glyph glyph-name="quotedblright" unicode="&#x201d;" horiz-adv-x="212" 
d="M186 608q0 -18 -3 -37t-7 -37t-9.5 -33t-9.5 -24q-5 -3 -7 -3t-2 2q-2 4 -2 16q0 9 0.5 22t0.5 27q0 24 -2.5 49t-12.5 42q-2 3 -2 10q0 8 4 15.5t13 12.5q4 3 10 3q11 0 17 -10q7 -11 9.5 -25t2.5 -30zM95 608q0 -18 -3 -37t-7 -37t-9.5 -33t-9.5 -24q-5 -3 -7 -3t-2 2
q-2 4 -2 16q0 9 0.5 22t0.5 27q0 24 -2.5 49t-12.5 42q-2 3 -2 10q0 8 4 15.5t13 12.5q4 3 10 3q11 0 17 -10q7 -11 9.5 -25t2.5 -30z" />
    <glyph glyph-name="quoteleft" unicode="&#x2018;" horiz-adv-x="121" 
d="M95 642q0 -7 -2 -10q-10 -17 -12.5 -42t-2.5 -49q0 -14 0.5 -27t0.5 -22q0 -12 -2 -16q0 -2 -2 -2q-3 0 -7 3q-5 9 -10 24t-9 33t-7 37t-3 37q0 16 2.5 30t9.5 25q6 10 17 10q5 0 10 -3q9 -5 13 -12.5t4 -15.5z" />
    <glyph glyph-name="quoteright" unicode="&#x2019;" horiz-adv-x="121" 
d="M95 608q0 -18 -3 -37t-7 -37t-9.5 -33t-9.5 -24q-5 -3 -7 -3t-2 2q-2 4 -2 16q0 9 0.5 22t0.5 27q0 24 -2.5 49t-12.5 42q-2 3 -2 10q0 8 4 15.5t13 12.5q4 3 10 3q11 0 17 -10q7 -11 9.5 -25t2.5 -30z" />
    <glyph glyph-name="divide" unicode="&#xf7;" horiz-adv-x="448" 
d="M272 358q0 -11 -4.5 -21t-10.5 -17.5t-13 -11.5t-11 -4q-15 0 -22.5 6.5t-11.5 15t-4.5 16.5t-0.5 12q0 6 2.5 14t8 15.5t13 13t16.5 5.5q14 0 26 -12t12 -32zM371 232q0 -6 -2.5 -9.5t-4.5 -5.5q-3 -3 -6 -3h-258q-3 0 -6 3q-2 2 -4 5.5t-2 11.5q1 10 7 14q3 2 5 3h258
q7 0 11 -10q2 -4 2 -9zM272 124q0 -11 -4.5 -21t-10.5 -17.5t-13 -11.5t-11 -4q-15 0 -22.5 6.5t-11.5 15t-4.5 16.5t-0.5 12q0 6 2.5 14t8 15.5t13 13t16.5 5.5q14 0 26 -12t12 -32z" />
    <glyph glyph-name="ydieresis" unicode="&#xff;" horiz-adv-x="337" 
d="M295 368q0 -20 -12 -32.5t-20 -12.5q-12 0 -18.5 5.5t-9.5 12t-3.5 13.5t-0.5 10q0 10 8.5 25t24.5 15q11 0 21 -10t10 -26zM155 365q0 -20 -12 -32.5t-20 -12.5q-12 0 -18.5 5.5t-9.5 12t-3.5 13.5t-0.5 10q0 10 8.5 25t24.5 15q11 0 21 -10t10 -26zM299 249
q0 -6 -2.5 -22.5t-4.5 -27.5q-1 -3 -2 -23.5t-3 -50t-3.5 -63t-3 -62.5t-3 -49.5t-1.5 -23.5q0 -5 -0.5 -28.5t-1 -52t-1 -54t-1.5 -32.5q0 -2 -1.5 -23t-9.5 -45t-25 -44t-48 -20q-25 0 -46.5 11t-39 27t-32 35l-27 35t-23.5 27t-21 11q-7 0 -13.5 -3.5t-11.5 -3.5
q-7 0 -10 6t-3 14q0 10 5.5 17.5t13 12.5t16 7.5t14.5 2.5q17 0 34 -11.5t32.5 -28t31 -36.5t31 -36.5t30.5 -28t30 -11.5q17 0 26 19t13 51.5t4.5 75.5t0.5 91t1 97.5t6 95.5q0 9 -3 9q-5 0 -14 -18t-24 -40t-35.5 -40t-47.5 -18q-17 1 -30 12q-11 9 -20.5 29.5t-9.5 58.5
q0 19 3 41.5t8 42.5q4 23 11 45q3 14 15 14q13 -3 16.5 -6.5t3.5 -8.5q0 -2 -1.5 -11t-4 -22.5t-4 -30t-1.5 -32.5q0 -44 14.5 -60.5t24.5 -16.5q12 0 24.5 12.5t24 31.5t21.5 42l18.5 43.5t14 36.5t7.5 21q5 11 9 17.5t11 6.5h8q5 0 7.5 -5t2.5 -10z" />
    <glyph glyph-name="Ydieresis" unicode="&#x178;" horiz-adv-x="529" 
d="M442 755q0 -20 -12 -32.5t-20 -12.5q-12 0 -18.5 5.5t-9.5 12t-3.5 13.5t-0.5 10q0 10 8.5 25t24.5 15q11 0 21 -10t10 -26zM302 752q0 -20 -12 -32.5t-20 -12.5q-12 0 -18.5 5.5t-9.5 12t-3.5 13.5t-0.5 10q0 10 8.5 25t24.5 15q11 0 21 -10t10 -26zM498 507
q0 -28 -1.5 -54.5t-5.5 -46.5q-2 -12 -4.5 -43t-4 -74t-3.5 -93.5t-3.5 -101.5t-2.5 -99.5t-2 -87t-1.5 -63t-0.5 -27.5t-1 -18t-4 -35t-9.5 -42.5t-18 -41.5t-29 -31.5t-42.5 -12.5q-29 0 -55 16t-49 39.5t-43.5 51l-38.5 51t-34 39.5t-30 16q-8 0 -12 -8.5t-10 -8.5
q1 0 -8.5 4t-9.5 14q0 6 5 13.5t14 14.5t21 12t26 5q22 0 43 -15t41.5 -37.5t40.5 -49t40 -49t39.5 -37.5t38.5 -15q21 0 33 21t17.5 49.5t7 58t1.5 46.5q0 85 2 168t5 155.5t6.5 128.5t6.5 87q0 9 -3 9q-4 0 -11 -17l-16.5 -44.5t-29 -71t-40.5 -81.5t-49.5 -77.5t-56 -58
t-61.5 -22.5q-27 0 -47 20t-33.5 51t-22 69.5t-13 75t-6 67.5t-1.5 47q0 29 1.5 47t1.5 23q0 12 -2 12t-8 -10l-13.5 -23.5t-15.5 -26.5t-12 -18q-3 -3 -7 -6.5t-9 -3.5t-9.5 5.5t-4.5 9.5q0 5 6 11l40 61l28 43.5t14 24.5q1 54 9 97q3 18 8 36t11.5 31.5t16 22t21.5 8.5
q12 -2 15.5 -8.5t3.5 -15.5q0 -11 -3.5 -27.5t-9.5 -36t-14 -41t-17 -41.5q-1 -13 -1.5 -27t-0.5 -31q0 -38 2.5 -81t8 -86t14 -83t20.5 -70.5t28 -48.5t36 -18t45 30t51.5 76t52 101.5t45.5 107t32 92.5t12 58q1 0 1 8.5t0.5 18.5t3 18.5t8.5 8.5q8 0 12 -29t4 -85z" />
    <glyph glyph-name="fraction" unicode="&#x2044;" horiz-adv-x="378" 
d="M24 10q-1 -2 -4 -5q-6 -6 -19 -5q-11 0 -14 4.5t-3 6.5l370 654q1 2 5 5q2 2 6.5 3.5t10.5 1.5q13 0 15.5 -4t2.5 -5z" />
    <glyph glyph-name="guilsinglleft" unicode="&#x2039;" horiz-adv-x="189" 
d="M168 31q0 -4 -9 -4q-9 7 -27.5 18t-38 25.5t-34.5 32t-18 37.5l-1 8v3q0 15 14 30.5t33 29t37 23.5t27 14q9 -3 9 -8v-1q0 -5 -10.5 -13t-23 -20t-24 -27.5t-13.5 -34.5q3 -19 15.5 -37.5t26.5 -34t25.5 -26.5t11.5 -15z" />
    <glyph glyph-name="guilsinglright" unicode="&#x203a;" horiz-adv-x="189" 
d="M168 125q0 -15 -14 -30.5t-33 -29t-37 -23.5t-27 -14q-9 3 -9 8v1q0 4 10 12.5l23 20.5t24.5 27.5t13.5 34.5q-3 19 -15.5 37.5t-26.5 34t-25.5 26.5t-11.5 15t9 4q9 -8 27.5 -19t38 -25t34.5 -31.5t18 -37.5l1 -8v-3v0z" />
    <glyph glyph-name="fi" unicode="&#xfb01;" horiz-adv-x="365" 
d="M328 393q0 -20 -11.5 -32.5t-19.5 -12.5q-12 0 -18 5.5t-9 12t-3.5 13.5t-0.5 10q0 10 8 25t24 15q11 0 20.5 -10t9.5 -26zM325 248v-20.5v-37t-0.5 -45.5t-1 -45.5t-2 -38.5t-2.5 -23q0 -11 -28 -24q-3 -1 -18.5 -6.5t-39 -11.5t-52 -11t-57.5 -5q-6 0 -10 -3t-4 -15
q0 -26 -1 -62t-4.5 -75t-10 -77t-17.5 -68.5t-27.5 -49.5t-39.5 -19t-42 14t-36 35t-33.5 45.5t-33 45.5t-34 35t-38.5 14q-12 0 -15 -6t-4 -12.5t-3 -12.5t-11 -6q-7 0 -12 7.5t-5 15.5q1 7 6 17t14.5 20.5t23 18.5t32.5 11q18 0 35 -14t33 -34t31.5 -44t31 -44t31 -33.5
t32.5 -13.5t28 20.5t17.5 51.5t10 68t4.5 70.5t1 59t1 33.5q0 3 -16.5 5t-37 5.5t-37 9t-16.5 15.5t5.5 20.5t11.5 10.5l8 -3t21.5 -6t29 -6t30.5 -3q9 196 9 375q0 45 2.5 95.5t11 93.5t25.5 71t46 28q15 0 26.5 -16.5t11.5 -58.5q0 -29 -5 -69.5t-16 -84t-27.5 -85.5
t-40.5 -73q-1 -1 -1.5 -20t-1 -47t-0.5 -60t-0.5 -60.5t-1 -49t-0.5 -23.5q-1 -4 -1 -11q0 -8 6.5 -10t28.5 -2q37 2 67 8q25 5 46 15.5t21 27.5q0 22 -1.5 46l-3 47t-2.5 42.5t-1 33.5q0 13 2 17q0 8 9 16t19 8q14 0 18.5 -6.5t4.5 -20.5zM162 552q0 67 -14 67
q-7 0 -12.5 -19.5t-9.5 -48.5t-6 -62t-2 -59q0 -22 1.5 -36t4.5 -14q5 0 9.5 11.5t9 28.5t8 38t6 40t4 34t1.5 20z" />
    <glyph glyph-name="fl" unicode="&#xfb02;" horiz-adv-x="501" 
d="M601 12q0 -2 -1.5 -4.5t-3.5 -5.5q-2 -4 -4 -7q-35 -53 -62 -84.5t-47 -48t-34 -21t-23 -4.5q-27 0 -49 13t-40 36t-32 55t-23 70l-25.5 -8.5t-37.5 -10.5t-45.5 -8.5t-49.5 -3.5q-6 0 -10 -3t-4 -15q0 -26 -1 -62t-4.5 -75t-10 -77t-17.5 -68.5t-27.5 -49.5t-39.5 -19
t-42 14t-36 35t-33.5 45.5t-33 45.5t-34 35t-38.5 14q-12 0 -15 -6t-4 -12.5t-3 -12.5t-11 -6q-7 0 -12 7.5t-5 15.5q1 7 6 17t14.5 20.5t23 18.5t32.5 11q18 0 35 -14t33 -34t31.5 -44t31 -44t31 -33.5t32.5 -13.5t28 20.5t17.5 51.5t10 68t4.5 70.5t1 59t1 33.5
q0 3 -16.5 5t-37 5.5t-37 9t-16.5 15.5t5.5 20.5t11.5 10.5l8 -3t21.5 -6t29 -6t30.5 -3q9 196 9 375q0 45 2.5 95.5t11 93.5t25.5 71t46 28q15 0 26.5 -16.5t11.5 -58.5q0 -29 -5 -69.5t-16 -84t-27.5 -85.5t-40.5 -73q-1 -1 -1.5 -20t-1 -47t-0.5 -60t-0.5 -60.5t-1 -49
t-0.5 -23.5q-1 -4 -1 -11q0 -8 6.5 -10t28.5 -2q23 0 58 5t72 20q-7 35 -10 72.5t-3 76.5q0 54 6 110t18 101t30.5 73.5t42.5 28.5q19 0 29.5 -18t16 -41.5t6.5 -46.5t1 -34q0 -47 -9.5 -94.5t-22 -87.5t-24.5 -70t-18 -42q-4 -8 -6 -13.5t-2 -13.5q0 -17 9.5 -42.5
t25.5 -49.5t37.5 -41t44.5 -17q19 0 37.5 15.5t35 36t29.5 42t21 33.5q3 9 11 9q7 0 13 -5t6 -9zM162 552q0 67 -14 67q-7 0 -12.5 -19.5t-9.5 -48.5t-6 -62t-2 -59q0 -22 1.5 -36t4.5 -14q5 0 9.5 11.5t9 28.5t8 38t6 40t4 34t1.5 20zM371 355q0 11 -1.5 25.5t-4.5 28
t-8 23.5t-12 13q-5 0 -11.5 -10t-12.5 -32t-10.5 -56.5t-4.5 -83.5q0 -56 2.5 -88.5t5.5 -49t5.5 -21t3.5 -4.5q3 0 11 17t16 49t14.5 79.5t6.5 109.5z" />
    <glyph glyph-name="daggerdbl" unicode="&#x2021;" horiz-adv-x="315" 
d="M299 299q0 -6 -2.5 -9.5t-4.5 -5.5q-3 -3 -6 -3h-109v-514q0 -6 -11 -6h-5l-3 1q-11 4 -15 11q-2 3 -3 6v502h-112q-3 0 -6 3q-2 2 -4 5.5t-2 11.5q1 10 7 14q3 2 5 3h111v130h-111q-3 0 -6 3q-2 2 -4 5.5t-2 11.5q1 10 7 14q3 2 5 3h111v235l2.5 2.5t6.5 1.5l11 -1
q5 -2 9 -5.5t6 -5.5q3 -4 3 -6v-221h109q7 0 11 -10q2 -4 2 -9q0 -6 -2.5 -9.5t-4.5 -5.5q-3 -3 -6 -3h-109v-130h109q7 0 11 -10q2 -4 2 -9z" />
    <glyph glyph-name="periodcentered" unicode="&#xb7;" horiz-adv-x="141" 
d="M113 268q0 -11 -4.5 -21t-10.5 -17.5t-13 -11.5t-11 -4q-15 0 -22.5 6.5t-11.5 15t-4.5 16.5t-0.5 12q0 6 2.5 14t8 15.5t13 13t16.5 5.5q14 0 26 -12t12 -32z" />
    <glyph glyph-name="quotesinglbase" unicode="&#x201a;" horiz-adv-x="121" 
d="M95 26q0 -18 -3 -37t-7 -37t-9.5 -33t-9.5 -24q-5 -3 -7 -3t-2 2q-2 4 -2 16q0 9 0.5 22t0.5 27q0 24 -2.5 49t-12.5 42q-2 3 -2 10q0 8 4 15.5t13 12.5q4 3 10 3q11 0 17 -10q7 -11 9.5 -25t2.5 -30z" />
    <glyph glyph-name="quotedblbase" unicode="&#x201e;" horiz-adv-x="212" 
d="M186 35q0 -18 -3 -37t-7 -37t-9.5 -33t-9.5 -24q-5 -3 -7 -3t-2 2q-2 4 -2 16q0 9 0.5 22t0.5 27q0 24 -2.5 49t-12.5 42q-2 3 -2 10q0 8 4 15.5t13 12.5q4 3 10 3q11 0 17 -10q7 -11 9.5 -25t2.5 -30zM95 35q0 -18 -3 -37t-7 -37t-9.5 -33t-9.5 -24q-5 -3 -7 -3t-2 2
q-2 4 -2 16q0 9 0.5 22t0.5 27q0 24 -2.5 49t-12.5 42q-2 3 -2 10q0 8 4 15.5t13 12.5q4 3 10 3q11 0 17 -10q7 -11 9.5 -25t2.5 -30z" />
    <glyph glyph-name="perthousand" unicode="&#x2030;" horiz-adv-x="850" 
d="M818 193q0 -30 -7 -60t-22 -57q-10 -17 -24.5 -34t-26.5 -28q-13 -8 -25 -10.5t-23 -2.5q-19 0 -35 6t-27 15q-29 26 -43 62.5t-14 77.5q0 51 20.5 99.5t58.5 80.5q12 11 27.5 16.5t30.5 5.5q29 0 47.5 -13t32.5 -30q14 -30 22 -62.5t8 -65.5zM275 519q0 -30 -7 -60
t-22 -57q-10 -17 -24.5 -34t-26.5 -28q-13 -8 -25 -10.5t-23 -2.5q-19 0 -35 6t-27 15q-29 26 -43 62.5t-14 77.5q0 51 20.5 99.5t58.5 80.5q12 11 27.5 16.5t30.5 5.5q29 0 47.5 -13t32.5 -30q14 -30 22 -62.5t8 -65.5zM115 10q-1 -2 -4 -5q-6 -6 -19 -5q-11 0 -14 4.5
t-3 6.5l370 654q1 2 5 5q2 2 6.5 3.5t10.5 1.5q13 0 15.5 -4t2.5 -5zM542 199q0 -30 -7 -60t-22 -57q-10 -17 -24.5 -34t-26.5 -28q-13 -8 -25 -10.5t-23 -2.5q-19 0 -35 6t-27 15q-29 26 -43 62.5t-14 77.5q0 51 20.5 99.5t58.5 80.5q12 11 27.5 16.5t30.5 5.5
q29 0 47.5 -13t32.5 -30q14 -30 22 -62.5t8 -65.5zM775 183q-7 -24 -24 -47q-2 -2 -5 -2q-2 0 -5 3v5q12 20 18 43t6 44q0 28 -8.5 51t-21.5 35q-15 12 -26 12q-8 0 -18 -4.5t-21 -12.5q-11 -10 -19.5 -26.5t-14.5 -37t-9.5 -43.5t-3.5 -45q0 -35 8 -64t25 -43
q17 -17 34 -17q8 0 16.5 4.5t18.5 12.5q8 7 16 20.5t15 31.5t12 38.5t7 41.5zM232 509q-7 -24 -24 -47q-2 -2 -5 -2q-2 0 -5 3v5q12 20 18 43t6 44q0 28 -8.5 51t-21.5 35q-15 12 -26 12q-8 0 -18 -4.5t-21 -12.5q-11 -10 -19.5 -26.5t-14.5 -37t-9.5 -43.5t-3.5 -45
q0 -35 8 -64t25 -43q17 -17 34 -17q8 0 16.5 4.5t18.5 12.5q8 7 16 20.5t15 31.5t12 38.5t7 41.5zM499 189q-7 -24 -24 -47q-2 -2 -5 -2q-2 0 -5 3v5q12 20 18 43t6 44q0 28 -8.5 51t-21.5 35q-15 12 -26 12q-8 0 -18 -4.5t-21 -12.5q-11 -10 -19.5 -26.5t-14.5 -37
t-9.5 -43.5t-3.5 -45q0 -35 8 -64t25 -43q17 -17 34 -17q8 0 16.5 4.5t18.5 12.5q8 7 16 20.5t15 31.5t12 38.5t7 41.5z" />
    <glyph glyph-name="Acircumflex" unicode="&#xc2;" horiz-adv-x="608" 
d="M475 719q-3 -10 -10 -8q-4 1 -11 12t-17.5 24.5t-25 26.5t-33.5 17q-19 -1 -38.5 -11.5t-36.5 -23t-29 -23t-16 -10.5t-4 9q9 8 22 25t29 34.5t34.5 31.5t38.5 16h8q15 0 30 -15t27 -35.5t20.5 -40.5t11.5 -29zM657 -20q0 -8 -4 -12.5t-10 -6.5t-13.5 -2.5t-14.5 -0.5
q-30 0 -57 14.5t-48 33.5t-35.5 38.5t-19.5 29.5q-5 11 -9.5 14.5t-7.5 3.5q-4 0 -7.5 -5.5t-14.5 -19.5q-27 -33 -56 -54t-57.5 -33t-56 -16t-49.5 -4q-60 0 -102.5 24.5t-69.5 63t-39.5 84.5t-12.5 89q0 103 35 187t92.5 144t132 92.5t153.5 32.5q24 0 59.5 -6t68.5 -24
t56 -51.5t23 -87.5q0 -17 -5 -39t-14 -45t-22.5 -46t-31.5 -42q0 -36 -5 -64t-11.5 -48.5t-12.5 -33.5t-9 -17q-5 -6 -5 -19q0 -14 15.5 -41.5t40 -54.5t55 -47.5t60.5 -20.5q9 0 9 -10zM492 344q-3 47 -8.5 64t-15.5 17q-8 0 -14 -13t-11 -32.5t-7.5 -41t-2.5 -37.5
q19 9 33.5 20.5t25.5 22.5zM491 308q-2 -2 -10 -7.5t-18 -11.5l-26 -16q6 -29 9 -45t5 -24t4.5 -10t7.5 -2t9.5 13.5t8 32t6 38.5t4.5 32zM553 472q0 30 -11 61t-33.5 55.5t-56.5 40.5t-79 16q-85 0 -151 -36t-111.5 -92t-69 -125t-23.5 -135q0 -63 19.5 -112t50 -82.5
t67.5 -51t72 -17.5q40 0 72 14.5t56 33.5t40 37.5t22 27.5q7 7 9 14t2 11t-4 14.5t-8.5 26.5t-8 37t-3.5 46q-22 -8 -41 -14l-33.5 -9.5t-24.5 -4.5q-6 0 -10.5 2t-4.5 8q0 9 11 15q4 3 11 3q17 4 28.5 7t21 7l19 8t22.5 10q1 16 4 44t11 55t22 47t37 20q14 0 25 -18.5
t15 -60.5q17 24 26.5 45.5t9.5 51.5z" />
    <glyph glyph-name="Ecircumflex" unicode="&#xca;" horiz-adv-x="530" 
d="M375 742q-3 -10 -10 -8q-4 1 -11 12t-17.5 24.5t-25 26.5t-33.5 17q-19 -1 -38.5 -11.5t-36.5 -23t-29 -23t-16 -10.5t-4 9q9 8 22 25t29 34.5t34.5 31.5t38.5 16h8q15 0 30 -15t27 -35.5t20.5 -40.5t11.5 -29zM580 170q0 -10 -18 -30t-48 -43t-68.5 -47.5t-79 -44.5
t-80 -32.5t-71.5 -12.5q-37 0 -67.5 7t-52.5 23t-34.5 40.5t-12.5 59.5q0 18 7 46t24 61t45 69t71 71q16 13 16 16q0 1 -2 1q-3 0 -11 -2.5t-16.5 -6t-16 -7t-10.5 -4.5l-12.5 -4t-23 -6.5t-30 -6.5t-33.5 -3q-36 0 -53 23t-22 52q-4 0 -24 -6l-50 -15l-67.5 -19.5
t-77 -19.5t-78.5 -15t-71 -6q-6 2 -18.5 5.5t-25 8t-22 9.5t-9.5 10q0 2 3 4t12 2q21 0 54.5 4.5t74 11.5t85 16.5t85.5 19.5t76 20.5t58 20.5q23 46 57 84t73.5 67.5t81.5 51.5t81.5 36t73 21t55.5 7q26 0 41 -7.5t15 -24.5q0 -23 -18.5 -47t-49 -47.5t-69.5 -45.5t-79 -41
q-95 -46 -216 -88q1 -13 10 -24q8 -9 24 -16.5t46 -7.5q21 0 41 4t47 15t64 30t90 49q4 2 6.5 3t4.5 1q4 0 9 -4t5 -9q0 -7 -13 -14l-33 -22.5t-52 -37.5t-59.5 -49t-56 -57.5t-42 -64.5t-16.5 -69q0 -23 7 -45.5t22 -39.5t37.5 -27.5t54.5 -10.5q47 0 90.5 13.5t83 36.5
t76.5 52.5t72 61.5q1 2 4 5q2 2 4.5 3.5t6.5 1.5q5 0 10 -4t5 -10zM421 665q0 12 -24 12q-40 0 -82 -13.5t-81 -34t-73.5 -45t-60.5 -48t-41 -42t-15 -26.5q0 -5 6 -5t12 3q4 1 7 3q13 4 43.5 17l70 31t81.5 39.5t77 42t57.5 38t22.5 28.5z" />
    <glyph glyph-name="Aacute" unicode="&#xc1;" horiz-adv-x="608" 
d="M472 811q0 -14 -8 -23.5t-17 -9.5q-19 -1 -42 -12t-43.5 -23.5t-36 -23t-19.5 -10.5t-4 9q8 11 25 30t38 37t43.5 31.5t43.5 13.5q8 0 14 -6t6 -13zM657 -20q0 -8 -4 -12.5t-10 -6.5t-13.5 -2.5t-14.5 -0.5q-30 0 -57 14.5t-48 33.5t-35.5 38.5t-19.5 29.5
q-5 11 -9.5 14.5t-7.5 3.5q-4 0 -7.5 -5.5t-14.5 -19.5q-27 -33 -56 -54t-57.5 -33t-56 -16t-49.5 -4q-60 0 -102.5 24.5t-69.5 63t-39.5 84.5t-12.5 89q0 103 35 187t92.5 144t132 92.5t153.5 32.5q24 0 59.5 -6t68.5 -24t56 -51.5t23 -87.5q0 -17 -5 -39t-14 -45
t-22.5 -46t-31.5 -42q0 -36 -5 -64t-11.5 -48.5t-12.5 -33.5t-9 -17q-5 -6 -5 -19q0 -14 15.5 -41.5t40 -54.5t55 -47.5t60.5 -20.5q9 0 9 -10zM492 344q-3 47 -8.5 64t-15.5 17q-8 0 -14 -13t-11 -32.5t-7.5 -41t-2.5 -37.5q19 9 33.5 20.5t25.5 22.5zM491 308
q-2 -2 -10 -7.5t-18 -11.5l-26 -16q6 -29 9 -45t5 -24t4.5 -10t7.5 -2t9.5 13.5t8 32t6 38.5t4.5 32zM553 472q0 30 -11 61t-33.5 55.5t-56.5 40.5t-79 16q-85 0 -151 -36t-111.5 -92t-69 -125t-23.5 -135q0 -63 19.5 -112t50 -82.5t67.5 -51t72 -17.5q40 0 72 14.5t56 33.5
t40 37.5t22 27.5q7 7 9 14t2 11t-4 14.5t-8.5 26.5t-8 37t-3.5 46q-22 -8 -41 -14l-33.5 -9.5t-24.5 -4.5q-6 0 -10.5 2t-4.5 8q0 9 11 15q4 3 11 3q17 4 28.5 7t21 7l19 8t22.5 10q1 16 4 44t11 55t22 47t37 20q14 0 25 -18.5t15 -60.5q17 24 26.5 45.5t9.5 51.5z" />
    <glyph glyph-name="Edieresis" unicode="&#xcb;" horiz-adv-x="530" 
d="M367 797q0 -20 -12 -32.5t-20 -12.5q-12 0 -18.5 5.5t-9.5 12t-3.5 13.5t-0.5 10q0 10 8.5 25t24.5 15q11 0 21 -10t10 -26zM227 794q0 -20 -12 -32.5t-20 -12.5q-12 0 -18.5 5.5t-9.5 12t-3.5 13.5t-0.5 10q0 10 8.5 25t24.5 15q11 0 21 -10t10 -26zM580 170
q0 -10 -18 -30t-48 -43t-68.5 -47.5t-79 -44.5t-80 -32.5t-71.5 -12.5q-37 0 -67.5 7t-52.5 23t-34.5 40.5t-12.5 59.5q0 18 7 46t24 61t45 69t71 71q16 13 16 16q0 1 -2 1q-3 0 -11 -2.5t-16.5 -6t-16 -7t-10.5 -4.5l-12.5 -4t-23 -6.5t-30 -6.5t-33.5 -3q-36 0 -53 23
t-22 52q-4 0 -24 -6l-50 -15l-67.5 -19.5t-77 -19.5t-78.5 -15t-71 -6q-6 2 -18.5 5.5t-25 8t-22 9.5t-9.5 10q0 2 3 4t12 2q21 0 54.5 4.5t74 11.5t85 16.5t85.5 19.5t76 20.5t58 20.5q23 46 57 84t73.5 67.5t81.5 51.5t81.5 36t73 21t55.5 7q26 0 41 -7.5t15 -24.5
q0 -23 -18.5 -47t-49 -47.5t-69.5 -45.5t-79 -41q-95 -46 -216 -88q1 -13 10 -24q8 -9 24 -16.5t46 -7.5q21 0 41 4t47 15t64 30t90 49q4 2 6.5 3t4.5 1q4 0 9 -4t5 -9q0 -7 -13 -14l-33 -22.5t-52 -37.5t-59.5 -49t-56 -57.5t-42 -64.5t-16.5 -69q0 -23 7 -45.5t22 -39.5
t37.5 -27.5t54.5 -10.5q47 0 90.5 13.5t83 36.5t76.5 52.5t72 61.5q1 2 4 5q2 2 4.5 3.5t6.5 1.5q5 0 10 -4t5 -10zM421 665q0 12 -24 12q-40 0 -82 -13.5t-81 -34t-73.5 -45t-60.5 -48t-41 -42t-15 -26.5q0 -5 6 -5t12 3q4 1 7 3q13 4 43.5 17l70 31t81.5 39.5t77 42
t57.5 38t22.5 28.5z" />
    <glyph glyph-name="Egrave" unicode="&#xc8;" horiz-adv-x="530" 
d="M350 752q0 -9 -4 -9t-19.5 10.5t-36 23t-43.5 23.5t-42 12q-9 0 -17 9.5t-8 23.5q0 7 6 13t14 6q21 0 43.5 -13t43.5 -31t38 -37t25 -31zM580 170q0 -10 -18 -30t-48 -43t-68.5 -47.5t-79 -44.5t-80 -32.5t-71.5 -12.5q-37 0 -67.5 7t-52.5 23t-34.5 40.5t-12.5 59.5
q0 18 7 46t24 61t45 69t71 71q16 13 16 16q0 1 -2 1q-3 0 -11 -2.5t-16.5 -6t-16 -7t-10.5 -4.5l-12.5 -4t-23 -6.5t-30 -6.5t-33.5 -3q-36 0 -53 23t-22 52q-4 0 -24 -6l-50 -15l-67.5 -19.5t-77 -19.5t-78.5 -15t-71 -6q-6 2 -18.5 5.5t-25 8t-22 9.5t-9.5 10q0 2 3 4
t12 2q21 0 54.5 4.5t74 11.5t85 16.5t85.5 19.5t76 20.5t58 20.5q23 46 57 84t73.5 67.5t81.5 51.5t81.5 36t73 21t55.5 7q26 0 41 -7.5t15 -24.5q0 -23 -18.5 -47t-49 -47.5t-69.5 -45.5t-79 -41q-95 -46 -216 -88q1 -13 10 -24q8 -9 24 -16.5t46 -7.5q21 0 41 4t47 15
t64 30t90 49q4 2 6.5 3t4.5 1q4 0 9 -4t5 -9q0 -7 -13 -14l-33 -22.5t-52 -37.5t-59.5 -49t-56 -57.5t-42 -64.5t-16.5 -69q0 -23 7 -45.5t22 -39.5t37.5 -27.5t54.5 -10.5q47 0 90.5 13.5t83 36.5t76.5 52.5t72 61.5q1 2 4 5q2 2 4.5 3.5t6.5 1.5q5 0 10 -4t5 -10zM421 665
q0 12 -24 12q-40 0 -82 -13.5t-81 -34t-73.5 -45t-60.5 -48t-41 -42t-15 -26.5q0 -5 6 -5t12 3q4 1 7 3q13 4 43.5 17l70 31t81.5 39.5t77 42t57.5 38t22.5 28.5z" />
    <glyph glyph-name="Iacute" unicode="&#xcd;" horiz-adv-x="481" 
d="M346 876q0 -14 -8 -23.5t-17 -9.5q-19 -1 -42 -12t-43.5 -23.5t-36 -23t-19.5 -10.5t-4 9q8 11 25 30t38 37t43.5 31.5t43.5 13.5q8 0 14 -6t6 -13zM480 457q0 -4 -5.5 -17t-14.5 -29t-21 -31t-25 -24q-2 -24 -2.5 -62t-5.5 -81t-15.5 -87t-31 -79.5t-53.5 -57.5t-82 -22
q-31 0 -62 14.5t-60 36.5t-56.5 47l-51 47t-43 36.5t-33.5 14.5q-8 0 -12.5 -4t-8 -9l-6.5 -9t-8 -4q-3 0 -7.5 6.5t-4.5 21.5q0 20 15.5 34.5t37.5 14.5q31 0 58.5 -14.5t53 -36.5t50.5 -47.5t50.5 -47.5t53 -36.5t59.5 -14.5q35 0 58.5 17.5t38 46t22 63t10.5 68.5
t3.5 63.5t1.5 47.5q0 6 -3 6q-2 0 -3.5 -1l-4.5 -3l-10 -5t-20 -8t-27.5 -7.5t-31.5 -3.5q-29 0 -52 14.5t-38.5 35.5t-23.5 44.5t-8 41.5q0 45 9 99t27 100.5t44.5 77.5t60.5 31q25 0 43 -29t30 -68t19.5 -78.5t10.5 -60.5q3 -20 4 -38.5t1 -33t1 -23t6 -8.5q3 0 12 9
q10 11 17 22.5t12 21l8 15.5t6 6q2 0 4 -3q4 -6 4 -20zM382 365q0 24 -1.5 58.5t-6 72t-11.5 74.5t-17 66.5t-24.5 47.5t-32.5 18q-14 0 -28 -21.5t-25 -52t-17.5 -64t-6.5 -58.5q0 -30 5.5 -59t18 -52t32.5 -37.5t50 -14.5q14 0 25 3t20 8q10 4 19 11z" />
    <glyph glyph-name="Icircumflex" unicode="&#xce;" horiz-adv-x="481" 
d="M391 787q-3 -10 -10 -8q-4 1 -11 12t-17.5 24.5t-25 26.5t-33.5 17q-19 -1 -38.5 -11.5t-36.5 -23t-29 -23t-16 -10.5t-4 9q9 8 22 25t29 34.5t34.5 31.5t38.5 16h8q15 0 30 -15t27 -35.5t20.5 -40.5t11.5 -29zM480 457q0 -4 -5.5 -17t-14.5 -29t-21 -31t-25 -24
q-2 -24 -2.5 -62t-5.5 -81t-15.5 -87t-31 -79.5t-53.5 -57.5t-82 -22q-31 0 -62 14.5t-60 36.5t-56.5 47l-51 47t-43 36.5t-33.5 14.5q-8 0 -12.5 -4t-8 -9l-6.5 -9t-8 -4q-3 0 -7.5 6.5t-4.5 21.5q0 20 15.5 34.5t37.5 14.5q31 0 58.5 -14.5t53 -36.5t50.5 -47.5
t50.5 -47.5t53 -36.5t59.5 -14.5q35 0 58.5 17.5t38 46t22 63t10.5 68.5t3.5 63.5t1.5 47.5q0 6 -3 6q-2 0 -3.5 -1l-4.5 -3l-10 -5t-20 -8t-27.5 -7.5t-31.5 -3.5q-29 0 -52 14.5t-38.5 35.5t-23.5 44.5t-8 41.5q0 45 9 99t27 100.5t44.5 77.5t60.5 31q25 0 43 -29t30 -68
t19.5 -78.5t10.5 -60.5q3 -20 4 -38.5t1 -33t1 -23t6 -8.5q3 0 12 9q10 11 17 22.5t12 21l8 15.5t6 6q2 0 4 -3q4 -6 4 -20zM382 365q0 24 -1.5 58.5t-6 72t-11.5 74.5t-17 66.5t-24.5 47.5t-32.5 18q-14 0 -28 -21.5t-25 -52t-17.5 -64t-6.5 -58.5q0 -30 5.5 -59t18 -52
t32.5 -37.5t50 -14.5q14 0 25 3t20 8q10 4 19 11z" />
    <glyph glyph-name="Idieresis" unicode="&#xcf;" horiz-adv-x="481" 
d="M397 848q0 -20 -12 -32.5t-20 -12.5q-12 0 -18.5 5.5t-9.5 12t-3.5 13.5t-0.5 10q0 10 8.5 25t24.5 15q11 0 21 -10t10 -26zM257 845q0 -20 -12 -32.5t-20 -12.5q-12 0 -18.5 5.5t-9.5 12t-3.5 13.5t-0.5 10q0 10 8.5 25t24.5 15q11 0 21 -10t10 -26zM480 457
q0 -4 -5.5 -17t-14.5 -29t-21 -31t-25 -24q-2 -24 -2.5 -62t-5.5 -81t-15.5 -87t-31 -79.5t-53.5 -57.5t-82 -22q-31 0 -62 14.5t-60 36.5t-56.5 47l-51 47t-43 36.5t-33.5 14.5q-8 0 -12.5 -4t-8 -9l-6.5 -9t-8 -4q-3 0 -7.5 6.5t-4.5 21.5q0 20 15.5 34.5t37.5 14.5
q31 0 58.5 -14.5t53 -36.5t50.5 -47.5t50.5 -47.5t53 -36.5t59.5 -14.5q35 0 58.5 17.5t38 46t22 63t10.5 68.5t3.5 63.5t1.5 47.5q0 6 -3 6q-2 0 -3.5 -1l-4.5 -3l-10 -5t-20 -8t-27.5 -7.5t-31.5 -3.5q-29 0 -52 14.5t-38.5 35.5t-23.5 44.5t-8 41.5q0 45 9 99t27 100.5
t44.5 77.5t60.5 31q25 0 43 -29t30 -68t19.5 -78.5t10.5 -60.5q3 -20 4 -38.5t1 -33t1 -23t6 -8.5q3 0 12 9q10 11 17 22.5t12 21l8 15.5t6 6q2 0 4 -3q4 -6 4 -20zM382 365q0 24 -1.5 58.5t-6 72t-11.5 74.5t-17 66.5t-24.5 47.5t-32.5 18q-14 0 -28 -21.5t-25 -52
t-17.5 -64t-6.5 -58.5q0 -30 5.5 -59t18 -52t32.5 -37.5t50 -14.5q14 0 25 3t20 8q10 4 19 11z" />
    <glyph glyph-name="Igrave" unicode="&#xcc;" horiz-adv-x="481" 
d="M360 803q0 -9 -4 -9t-19.5 10.5t-36 23t-43.5 23.5t-42 12q-9 0 -17 9.5t-8 23.5q0 7 6 13t14 6q21 0 43.5 -13t43.5 -31t38 -37t25 -31zM480 457q0 -4 -5.5 -17t-14.5 -29t-21 -31t-25 -24q-2 -24 -2.5 -62t-5.5 -81t-15.5 -87t-31 -79.5t-53.5 -57.5t-82 -22
q-31 0 -62 14.5t-60 36.5t-56.5 47l-51 47t-43 36.5t-33.5 14.5q-8 0 -12.5 -4t-8 -9l-6.5 -9t-8 -4q-3 0 -7.5 6.5t-4.5 21.5q0 20 15.5 34.5t37.5 14.5q31 0 58.5 -14.5t53 -36.5t50.5 -47.5t50.5 -47.5t53 -36.5t59.5 -14.5q35 0 58.5 17.5t38 46t22 63t10.5 68.5
t3.5 63.5t1.5 47.5q0 6 -3 6q-2 0 -3.5 -1l-4.5 -3l-10 -5t-20 -8t-27.5 -7.5t-31.5 -3.5q-29 0 -52 14.5t-38.5 35.5t-23.5 44.5t-8 41.5q0 45 9 99t27 100.5t44.5 77.5t60.5 31q25 0 43 -29t30 -68t19.5 -78.5t10.5 -60.5q3 -20 4 -38.5t1 -33t1 -23t6 -8.5q3 0 12 9
q10 11 17 22.5t12 21l8 15.5t6 6q2 0 4 -3q4 -6 4 -20zM382 365q0 24 -1.5 58.5t-6 72t-11.5 74.5t-17 66.5t-24.5 47.5t-32.5 18q-14 0 -28 -21.5t-25 -52t-17.5 -64t-6.5 -58.5q0 -30 5.5 -59t18 -52t32.5 -37.5t50 -14.5q14 0 25 3t20 8q10 4 19 11z" />
    <glyph glyph-name="Oacute" unicode="&#xd3;" horiz-adv-x="631" 
d="M400 836q0 -14 -8 -23.5t-17 -9.5q-19 -1 -42 -12t-43.5 -23.5t-36 -23t-19.5 -10.5t-4 9q8 11 25 30t38 37t43.5 31.5t43.5 13.5q8 0 14 -6t6 -13zM700 144q-14 -34 -37 -60.5t-51.5 -44.5t-61 -27.5t-64.5 -9.5q-27 0 -42 2t-23.5 4.5t-12 4.5t-7.5 2q-3 0 -13.5 -6.5
t-27.5 -14.5t-41.5 -14.5t-55.5 -6.5q-60 0 -109.5 20.5t-84 59.5t-53.5 95t-19 127q0 77 17 140t46 112.5t67 85.5t80 59t84.5 34.5t81.5 11.5q30 0 56 -9t45 -24t30 -33.5t11 -36.5q0 -14 -3.5 -23t-8 -15.5t-8 -10.5t-3.5 -7q0 -2 1 -4t2.5 -4t5.5 -4q28 -19 45.5 -46
t27 -57t12.5 -59.5t3 -53.5q0 -62 -21 -113t-47 -89q-30 -44 -67 -80q0 -4 5.5 -6.5t13 -3.5t15.5 -1.5t14 -0.5q35 0 62.5 11t48 25t33 28.5l17.5 20.5l4 5l9 11t10 10.5t7 4.5q7 -4 7 -9zM554 329q0 50 -11 88.5t-29.5 64.5t-43 39.5t-51.5 13.5q-38 0 -66 -17t-46 -46
t-27 -67.5t-9 -81.5q0 -75 22 -126.5t48 -82.5q31 -37 70 -60q39 25 71 64q27 33 49.5 84.5t22.5 126.5zM468 617q0 9 -3.5 21.5t-14 23.5t-29 18.5t-48.5 7.5q-25 0 -59 -7t-70 -23.5t-71.5 -43.5t-63.5 -67.5t-45 -95t-17 -125.5q0 -43 12 -96.5t41.5 -101t78 -79.5
t121.5 -32q20 0 32.5 2t18.5 5q7 4 10 8q-17 10 -39.5 32t-42.5 55.5t-34 78.5t-14 101q0 22 2.5 50.5t10 58.5t21 58.5t36 51t55 36t77.5 13.5h9t8 -1q5 7 9 15q3 7 6 16t3 20z" />
    <glyph glyph-name="Ocircumflex" unicode="&#xd4;" horiz-adv-x="631" 
d="M426 763q-3 -10 -10 -8q-4 1 -11 12t-17.5 24.5t-25 26.5t-33.5 17q-19 -1 -38.5 -11.5t-36.5 -23t-29 -23t-16 -10.5t-4 9q9 8 22 25t29 34.5t34.5 31.5t38.5 16h8q15 0 30 -15t27 -35.5t20.5 -40.5t11.5 -29zM700 144q-14 -34 -37 -60.5t-51.5 -44.5t-61 -27.5
t-64.5 -9.5q-27 0 -42 2t-23.5 4.5t-12 4.5t-7.5 2q-3 0 -13.5 -6.5t-27.5 -14.5t-41.5 -14.5t-55.5 -6.5q-60 0 -109.5 20.5t-84 59.5t-53.5 95t-19 127q0 77 17 140t46 112.5t67 85.5t80 59t84.5 34.5t81.5 11.5q30 0 56 -9t45 -24t30 -33.5t11 -36.5q0 -14 -3.5 -23
t-8 -15.5t-8 -10.5t-3.5 -7q0 -2 1 -4t2.5 -4t5.5 -4q28 -19 45.5 -46t27 -57t12.5 -59.5t3 -53.5q0 -62 -21 -113t-47 -89q-30 -44 -67 -80q0 -4 5.5 -6.5t13 -3.5t15.5 -1.5t14 -0.5q35 0 62.5 11t48 25t33 28.5l17.5 20.5l4 5l9 11t10 10.5t7 4.5q7 -4 7 -9zM554 329
q0 50 -11 88.5t-29.5 64.5t-43 39.5t-51.5 13.5q-38 0 -66 -17t-46 -46t-27 -67.5t-9 -81.5q0 -75 22 -126.5t48 -82.5q31 -37 70 -60q39 25 71 64q27 33 49.5 84.5t22.5 126.5zM468 617q0 9 -3.5 21.5t-14 23.5t-29 18.5t-48.5 7.5q-25 0 -59 -7t-70 -23.5t-71.5 -43.5
t-63.5 -67.5t-45 -95t-17 -125.5q0 -43 12 -96.5t41.5 -101t78 -79.5t121.5 -32q20 0 32.5 2t18.5 5q7 4 10 8q-17 10 -39.5 32t-42.5 55.5t-34 78.5t-14 101q0 22 2.5 50.5t10 58.5t21 58.5t36 51t55 36t77.5 13.5h9t8 -1q5 7 9 15q3 7 6 16t3 20z" />
    <glyph glyph-name="apple" unicode="&#xf8ff;" horiz-adv-x="632" 
d="M344 653q-7 1 -14 1h-14h-14.5t-13.5 -1l-90 85h59l58 -61l59 61h60zM632 304q0 -65 -25 -122.5t-68 -100.5t-100.5 -68t-122.5 -25q-66 0 -123.5 25t-100 68t-67.5 100.5t-25 122.5t25 122.5t67.5 100.5t100 68t123.5 25q65 0 122.5 -25t100.5 -68t68 -100.5t25 -122.5z
M586 304q0 56 -21 105.5t-58 86t-86 58t-105 21.5t-105.5 -21.5t-86.5 -58t-58 -86t-21 -105.5t21 -105.5t58 -86.5t86.5 -58t105.5 -21t105 21t86 58t58 86.5t21 105.5zM458 204q0 -28 -13 -48.5t-34.5 -33.5t-49.5 -19.5t-58 -6.5q-36 0 -68.5 12.5t-60.5 26.5l9 47
q35 -22 68 -31.5t60 -9.5q41 0 65.5 16.5t24.5 42.5q0 21 -16 36.5t-40.5 29.5t-52.5 27.5t-52.5 30t-40.5 37t-16 48.5q0 30 12.5 49.5t31.5 31.5t42.5 17t44.5 5t39 -5t33 -12t27.5 -14.5t21.5 -11.5l-11 -43q-25 22 -53 32t-54 10q-36 0 -58 -15.5t-22 -39.5
q0 -21 16.5 -35.5t41 -26.5t53 -24t53 -28t41 -39t16.5 -56z" />
    <glyph glyph-name="Ograve" unicode="&#xd2;" horiz-adv-x="631" 
d="M400 766q0 -9 -4 -9t-19.5 10.5t-36 23t-43.5 23.5t-42 12q-9 0 -17 9.5t-8 23.5q0 7 6 13t14 6q21 0 43.5 -13t43.5 -31t38 -37t25 -31zM700 144q-14 -34 -37 -60.5t-51.5 -44.5t-61 -27.5t-64.5 -9.5q-27 0 -42 2t-23.5 4.5t-12 4.5t-7.5 2q-3 0 -13.5 -6.5
t-27.5 -14.5t-41.5 -14.5t-55.5 -6.5q-60 0 -109.5 20.5t-84 59.5t-53.5 95t-19 127q0 77 17 140t46 112.5t67 85.5t80 59t84.5 34.5t81.5 11.5q30 0 56 -9t45 -24t30 -33.5t11 -36.5q0 -14 -3.5 -23t-8 -15.5t-8 -10.5t-3.5 -7q0 -2 1 -4t2.5 -4t5.5 -4q28 -19 45.5 -46
t27 -57t12.5 -59.5t3 -53.5q0 -62 -21 -113t-47 -89q-30 -44 -67 -80q0 -4 5.5 -6.5t13 -3.5t15.5 -1.5t14 -0.5q35 0 62.5 11t48 25t33 28.5l17.5 20.5l4 5l9 11t10 10.5t7 4.5q7 -4 7 -9zM554 329q0 50 -11 88.5t-29.5 64.5t-43 39.5t-51.5 13.5q-38 0 -66 -17t-46 -46
t-27 -67.5t-9 -81.5q0 -75 22 -126.5t48 -82.5q31 -37 70 -60q39 25 71 64q27 33 49.5 84.5t22.5 126.5zM468 617q0 9 -3.5 21.5t-14 23.5t-29 18.5t-48.5 7.5q-25 0 -59 -7t-70 -23.5t-71.5 -43.5t-63.5 -67.5t-45 -95t-17 -125.5q0 -43 12 -96.5t41.5 -101t78 -79.5
t121.5 -32q20 0 32.5 2t18.5 5q7 4 10 8q-17 10 -39.5 32t-42.5 55.5t-34 78.5t-14 101q0 22 2.5 50.5t10 58.5t21 58.5t36 51t55 36t77.5 13.5h9t8 -1q5 7 9 15q3 7 6 16t3 20z" />
    <glyph glyph-name="Uacute" unicode="&#xda;" horiz-adv-x="605" 
d="M421 738q0 -14 -8 -23.5t-17 -9.5q-19 -1 -42 -12t-43.5 -23.5t-36 -23t-19.5 -10.5t-4 9q8 11 25 30t38 37t43.5 31.5t43.5 13.5q8 0 14 -6t6 -13zM582 -7q0 -9 -3 -17t-18 -8q-42 0 -72 20t-49 65.5t-28 121t-9 186.5q0 6 -5 6h-1q-5 0 -6 -7t-5 -16q-2 -6 -14 -36
t-31 -71.5t-43.5 -88.5t-52.5 -86.5t-57.5 -65.5t-57.5 -26q-35 0 -58 28.5t-37 71.5t-20 94.5t-6 97.5q0 20 1.5 42t4 41.5t4 33t1.5 16.5q0 7 -5 7t-11.5 -11l-14 -24t-16 -24t-17.5 -11q-13 0 -13 16q0 8 5 16l17 24t25 37.5t24 41t14 34.5q6 28 10.5 56t10.5 50.5
t14.5 37t22.5 14.5q16 0 20 -4t4 -9q0 -1 -1.5 -16t-6 -36.5t-13 -45.5t-21.5 -44q-4 -30 -6 -67.5t-2 -78.5q0 -57 5 -115.5t16 -105t29 -76t45 -29.5q23 0 49 30t52 77t51.5 106t47.5 117t39 109l28 83q1 7 3.5 12.5t13.5 5.5q6 0 11 -1t5 -9q0 -9 -4 -29q-1 -11 -3 -38
l-4.5 -59.5t-4 -64.5t-1.5 -52q0 -47 7.5 -100.5t23.5 -99t40.5 -76t57.5 -30.5q7 0 11 -3t4 -17z" />
    <glyph glyph-name="Ucircumflex" unicode="&#xdb;" horiz-adv-x="605" 
d="M406 646q-3 -10 -10 -8q-4 1 -11 12t-17.5 24.5t-25 26.5t-33.5 17q-19 -1 -38.5 -11.5t-36.5 -23t-29 -23t-16 -10.5t-4 9q9 8 22 25t29 34.5t34.5 31.5t38.5 16h8q15 0 30 -15t27 -35.5t20.5 -40.5t11.5 -29zM582 -7q0 -9 -3 -17t-18 -8q-42 0 -72 20t-49 65.5t-28 121
t-9 186.5q0 6 -5 6h-1q-5 0 -6 -7t-5 -16q-2 -6 -14 -36t-31 -71.5t-43.5 -88.5t-52.5 -86.5t-57.5 -65.5t-57.5 -26q-35 0 -58 28.5t-37 71.5t-20 94.5t-6 97.5q0 20 1.5 42t4 41.5t4 33t1.5 16.5q0 7 -5 7t-11.5 -11l-14 -24t-16 -24t-17.5 -11q-13 0 -13 16q0 8 5 16
l17 24t25 37.5t24 41t14 34.5q6 28 10.5 56t10.5 50.5t14.5 37t22.5 14.5q16 0 20 -4t4 -9q0 -1 -1.5 -16t-6 -36.5t-13 -45.5t-21.5 -44q-4 -30 -6 -67.5t-2 -78.5q0 -57 5 -115.5t16 -105t29 -76t45 -29.5q23 0 49 30t52 77t51.5 106t47.5 117t39 109l28 83q1 7 3.5 12.5
t13.5 5.5q6 0 11 -1t5 -9q0 -9 -4 -29q-1 -11 -3 -38l-4.5 -59.5t-4 -64.5t-1.5 -52q0 -47 7.5 -100.5t23.5 -99t40.5 -76t57.5 -30.5q7 0 11 -3t4 -17z" />
    <glyph glyph-name="Ugrave" unicode="&#xd9;" horiz-adv-x="605" 
d="M352 657q0 -9 -4 -9t-19.5 10.5t-36 23t-43.5 23.5t-42 12q-9 0 -17 9.5t-8 23.5q0 7 6 13t14 6q21 0 43.5 -13t43.5 -31t38 -37t25 -31zM582 -7q0 -9 -3 -17t-18 -8q-42 0 -72 20t-49 65.5t-28 121t-9 186.5q0 6 -5 6h-1q-5 0 -6 -7t-5 -16q-2 -6 -14 -36t-31 -71.5
t-43.5 -88.5t-52.5 -86.5t-57.5 -65.5t-57.5 -26q-35 0 -58 28.5t-37 71.5t-20 94.5t-6 97.5q0 20 1.5 42t4 41.5t4 33t1.5 16.5q0 7 -5 7t-11.5 -11l-14 -24t-16 -24t-17.5 -11q-13 0 -13 16q0 8 5 16l17 24t25 37.5t24 41t14 34.5q6 28 10.5 56t10.5 50.5t14.5 37
t22.5 14.5q16 0 20 -4t4 -9q0 -1 -1.5 -16t-6 -36.5t-13 -45.5t-21.5 -44q-4 -30 -6 -67.5t-2 -78.5q0 -57 5 -115.5t16 -105t29 -76t45 -29.5q23 0 49 30t52 77t51.5 106t47.5 117t39 109l28 83q1 7 3.5 12.5t13.5 5.5q6 0 11 -1t5 -9q0 -9 -4 -29q-1 -11 -3 -38
l-4.5 -59.5t-4 -64.5t-1.5 -52q0 -47 7.5 -100.5t23.5 -99t40.5 -76t57.5 -30.5q7 0 11 -3t4 -17z" />
    <glyph glyph-name="dotlessi" unicode="&#x131;" horiz-adv-x="164" 
d="M121 248q0 -5 -0.5 -22t-1 -40t-2 -49.5t-2.5 -50t-2 -41.5t-2 -24q-2 -15 -9 -19.5t-12 -4.5q-7 0 -7.5 8.5t-1.5 15.5q1 10 1.5 21t0.5 23q0 22 -1 46t-2.5 47t-2.5 42.5t-1 33.5q0 13 1 17q0 8 8 16t16 8q20 0 20 -27z" />
    <glyph glyph-name="circumflex" unicode="&#x2c6;" 
d="M367 262q-3 -10 -10 -8q-4 1 -11 12t-17.5 24.5t-25 26.5t-33.5 17q-19 -1 -38.5 -11.5t-36.5 -23t-29 -23t-16 -10.5t-4 9q9 8 22 25t29 34.5t34.5 31.5t38.5 16h8q15 0 30 -15t27 -35.5t20.5 -40.5t11.5 -29z" />
    <glyph glyph-name="tilde" unicode="&#x2dc;" 
d="M340 362q0 -22 -19 -33.5t-37 -11.5q-15 0 -26 6t-22 13.5t-24 14t-31 6.5q-23 0 -30.5 -10t-9.5 -12q-5 0 -7.5 7t-2.5 11q0 22 19 33.5t37 11.5q15 0 27 -6t24 -13.5t25.5 -13.5t33.5 -6q14 0 22.5 9.5t10.5 11.5q5 0 7.5 -7t2.5 -11z" />
    <glyph glyph-name="macron" unicode="&#xaf;" horiz-adv-x="299" 
d="M248 380q0 -6 -2.5 -9.5t-4.5 -5.5q-3 -3 -6 -3h-158q-3 0 -6 3q-2 2 -4 5.5t-2 11.5q1 10 7 14q3 2 5 3h158q7 0 11 -10q2 -4 2 -9z" />
    <glyph glyph-name="dotaccent" unicode="&#x2d9;" horiz-adv-x="141" 
d="M113 508q0 -11 -4.5 -21t-10.5 -17.5t-13 -11.5t-11 -4q-15 0 -22.5 6.5t-11.5 15t-4.5 16.5t-0.5 12q0 6 2.5 14t8 15.5t13 13t16.5 5.5q14 0 26 -12t12 -32z" />
    <glyph glyph-name="ring" unicode="&#x2da;" 
d="M322 406q-1 -21 -10 -37q-8 -14 -24 -25t-46 -11q-20 0 -31 7.5t-16 17.5q-6 11 -7 26q1 20 10 37q8 14 24.5 26t48.5 12q19 0 29.5 -8.5t15.5 -18.5q5 -11 6 -26zM294 401q0 8 -4 15q-3 6 -9 11t-17 5q-18 0 -27.5 -7t-14.5 -15q-5 -10 -6 -21q0 -9 4 -15q3 -5 9.5 -9.5
t18.5 -4.5q17 0 26 6t14 14q5 9 6 21z" />
    <glyph glyph-name="cedilla" unicode="&#xb8;" horiz-adv-x="259" 
d="M184 -84q0 -4 -2 -11.5t-7.5 -14.5t-16 -12.5t-28.5 -5.5q-25 0 -27 11q-1 1 0 2q0 2 4 2h6q8 0 21 3.5t16 18.5q0 6 -4 10q-3 4 -10 7t-21 4q-1 0 -2 1q-2 2 -2 4q4 15 9 27.5t9 17.5q6 15 12 15q3 0 6 -4.5t3 -9.5l-7 -23q0 -2 2 -4q1 -1 2 -1q23 -7 30 -18t7 -19z" />
    <glyph glyph-name="hungarumlaut" unicode="&#x2dd;" horiz-adv-x="276" 
d="M291 480q0 -22 -16 -27q-18 -7 -36.5 -24.5t-34 -36l-27 -33t-15.5 -15.5h-1q-2 0 -5 7q4 13 14.5 36t24.5 47t31.5 44t37.5 26q2 1 5 1q16 0 20 -13q2 -8 2 -12zM186 480q0 -22 -16 -27q-18 -7 -36.5 -24.5t-34 -36l-27 -33t-15.5 -15.5h-1q-2 0 -5 7q4 13 14.5 36
t24.5 47t31.5 44t37.5 26q2 1 5 1q16 0 20 -13q2 -8 2 -12z" />
    <glyph glyph-name="ogonek" unicode="&#x2db;" horiz-adv-x="253" 
d="M241 18q-2 -4 -14.5 -9t-28 -13.5t-31 -21.5t-23.5 -34q0 -8 1 -15.5t3 -15.5q4 -14 10 -28t12 -26l10.5 -21.5t5.5 -15.5q0 -2 -4 -2h-6q-5 8 -16 21t-22.5 28.5t-22 33t-15.5 34.5q-2 8 -2 16v8.5t1 9.5q4 18 30.5 31t54.5 21q16 5 29.5 7t21.5 3q5 -5 6 -10v-1v0z" />
    <glyph glyph-name="caron" unicode="&#x2c7;" 
d="M388 481q-9 -8 -22 -25t-29 -34.5t-34.5 -31.5t-38.5 -16h-8q-15 0 -30 15t-27 35.5t-20.5 40.5t-11.5 29q3 10 10 8q4 -1 11 -12t17.5 -24.5t25 -26.5t33.5 -17q19 1 38.5 11.5t36.5 23t29 23t16 10.5t4 -9z" />
    <glyph glyph-name="Eth" unicode="&#xd0;" horiz-adv-x="601" 
d="M694 202q0 -7 -9.5 -12l-16.5 -9q-21 -13 -61 -18.5t-88 -5.5q-3 0 -7.5 -1.5t-7.5 -8.5q-13 -35 -39 -61q-22 -23 -58 -41.5t-91 -18.5q-34 0 -63 7t-51 16q-26 11 -47 24q-7 0 -7 -14v-17q0 -18 -1.5 -44.5t-3.5 -52t-4.5 -46t-4.5 -26.5q-2 -7 -3.5 -15t-5.5 -14.5
t-11 -11t-20 -4.5q-17 0 -31 28.5t-24.5 72.5t-16 97.5t-5.5 103.5q0 7 0.5 23t3 32.5t7.5 29t15 12.5q8 0 18 -9t15 -15q1 -3 7.5 -8.5l13.5 -11.5t13 -10.5t7 -4.5q2 0 3.5 17.5t2 40l1 43.5t0.5 29q0 1 -2 7q-5 4 -24 12.5t-41 8.5q-12 0 -26.5 -3t-27 -9t-21 -15
t-8.5 -22q0 -8 5 -19t17 -27q0 -1 1 -2q2 -2 2 -5q0 -2 -1 -3q-2 -2 -5 -2q-4 0 -6 1q-2 0 -3 1q-41 16 -53.5 36t-12.5 35q0 26 10 40t26 21t34 8t35 1q13 0 25 -2.5t23 -5.5q-60 59 -100 125t-40 129v1q0 32 15 54.5t36 37t43.5 21t38.5 6.5q48 0 101.5 -20t105 -55
t98.5 -81t82.5 -99t56.5 -109t21 -110q0 -8 -1 -16t-1.5 -16.5t-2.5 -16.5q0 -12 16 -12q9 0 25.5 1t36 3t38.5 5t33 8q1 0 3 1q4 2 6 2q5 0 6.5 -2t3.5 -4q1 -3 2 -5zM495 243q0 59 -22 116t-58 107.5t-81.5 93t-92.5 73.5t-92 48t-79 17q-27 0 -44 -7.5t-26.5 -19.5
t-13 -25.5t-3.5 -25.5q0 -22 9.5 -46.5t23.5 -48.5t30.5 -46.5t31 -39.5t24.5 -27.5l11 -11.5q4 -4 6 -4t2.5 3.5t0.5 8.5q0 3 -0.5 19.5t-0.5 39.5t-0.5 50.5t-0.5 52.5t4.5 34.5t9.5 9.5h7q6 0 10 -16.5t6 -41.5t2.5 -55t0.5 -58v-73q0 -12 3 -15q2 -2 4 -3
q59 -50 116 -78.5t103 -44.5q54 -18 102 -25q6 0 6 8q1 9 1 16.5v14.5zM473 156q0 2 -5 4t-10 3q-7 1 -15 2q-54 6 -101.5 23.5t-84.5 36.5q-43 22 -81 49q-8 5 -12 5q-3 0 -4.5 -11.5t-3 -29.5t-2 -40t-0.5 -42q0 -21 22.5 -37t54 -27t64.5 -16.5t53 -5.5q28 0 51 11
t39.5 26t25.5 29.5t9 19.5zM119 80q0 8 -1 12t-3 6q-2 3 -5 3q-7 4 -15.5 11l-16.5 14t-14.5 12t-8.5 5q-6 0 -6 -10q0 -21 2.5 -49t6.5 -57.5t9 -58t10.5 -51t10.5 -36.5t9 -14q5 0 7.5 6.5t3.5 11.5l11 195v0z" />
    <glyph glyph-name="eth" unicode="&#xf0;" horiz-adv-x="373" 
d="M419 452q0 -11 -6 -15t-14 -4q-9 0 -18 2.5t-13 2.5q-12 0 -30 -5q11 -42 17 -79t6 -63q0 -54 -11.5 -109.5t-35.5 -101t-60.5 -74t-86.5 -28.5q-21 0 -40.5 7t-34.5 21.5t-24 35.5t-9 49q0 57 23.5 90.5t53.5 51t58.5 23t37.5 5.5q42 0 58.5 -23.5t16.5 -57.5
q0 -12 -6 -15.5t-10 -3.5q-6 0 -8 10t-7.5 22t-18.5 22t-43 10q-33 0 -53.5 -14t-31 -32.5t-14 -38.5t-3.5 -32q0 -27 9 -43.5t21 -25.5t25 -12t21 -3q26 0 47 13t36.5 34t26.5 47t18.5 52.5t10.5 50.5t3 41q0 31 -6.5 73.5t-18.5 87.5l-42 -15t-23 -7q-6 0 -8 7
q0 6 6.5 12.5t16.5 13t20.5 12t19.5 9.5q-11 36 -25 68.5t-30.5 57.5t-35 40t-38.5 15q-5 0 -7.5 -4.5t-5.5 -10.5t-7 -10.5t-13 -4.5q-8 0 -14.5 6t-6.5 20q0 21 16.5 32t35.5 11q27 0 51 -18t45 -47t38 -67t30 -77q11 4 24.5 6.5t24.5 2.5q25 -4 33.5 -9.5t8.5 -13.5z" />
    <glyph glyph-name="Euro" unicode="&#x20ac;" horiz-adv-x="661" 
d="M638 80q0 -17 -15.5 -33t-41.5 -28t-61.5 -19.5t-74.5 -7.5q-66 0 -122.5 20t-100 55t-73 82.5t-42.5 101.5h-69q-3 1 -6 3q-5 3 -5 15q1 10 6 13q2 2 5 2h63q-3 21 -3 43h-42q-3 1 -6 3q-5 3 -5 15q1 10 6 13q2 2 5 2h43q5 55 26.5 107t55 92t77 64t93.5 24
q49 0 91.5 -17t73.5 -44t48.5 -60.5t17.5 -67.5q0 -20 -8 -28t-21 -8t-28.5 7.5t-30.5 18t-27 23t-18 21.5q-2 2 -3.5 4t-2.5 3q-2 -2 -6 -4q-4 -8 -11 -8q-8 0 -9.5 3.5t-1.5 9.5q0 5 1 11.5t3 13.5q2 9 4 20.5t2 22.5q0 21 -14.5 37.5t-57.5 16.5q-35 0 -72 -20t-68 -55
t-51 -83t-20 -104h216q4 0 6 -3l4 -6q2 -4 2 -8q0 -9 -6 -13q-3 -2 -6 -3h-215l4 -21.5l4 -21.5h189q4 0 6 -3l4 -6q2 -4 2 -8q0 -9 -6 -13q-3 -2 -6 -3h-179q16 -45 44.5 -85t68 -71t89 -49t106.5 -18q31 0 54 5.5t40.5 13.5t28.5 17l18 15q12 10 17 10q4 0 5.5 -1.5
l3.5 -3.5l2 -4v0zM550 470q0 11 -12 30t-27.5 37.5t-31.5 32.5t-25 15q2 -7 11 -26t21.5 -39.5t28 -36.5t30.5 -16q5 0 5 3z" />
    <glyph glyph-name="uni00A0" unicode="&#xa0;" horiz-adv-x="181" 
 />
    <glyph glyph-name="twosuperior" unicode="&#xb2;" horiz-adv-x="287" 
d="M296 247q0 -18 -15.5 -29t-29.5 -11q-18 0 -28 7t-16 16t-11.5 16t-14.5 7q-18 0 -24.5 -12.5t-6.5 -19.5q0 -9 1 -15.5t2.5 -14t3 -17t1.5 -25.5q0 -57 -6.5 -89.5t-14.5 -48.5t-15.5 -20t-10.5 -4q-14 0 -21.5 10t-11 23.5t-4.5 26t-1 17.5q0 30 5 54t11 41.5t11 29
t6 18.5q-11 15 -25 15q-9 0 -17.5 -7.5t-14.5 -7.5q-5 0 -12 4.5t-7 12.5q0 5 6 15.5t15 21t20 18.5t21 8t17.5 -3.5t13 -8t9 -8t5.5 -3.5q3 0 9 6t14 13t18 13t21 6q16 0 28 -7.5t21 -16l16.5 -16t13.5 -7.5q5 1 6.5 1.5t3.5 0.5q8 0 8 -10zM130 85q0 28 -3.5 49t-7.5 21
q-7 0 -9 -20t-2 -45q0 -12 2 -18.5t4 -9.5q3 -4 7 -4q3 2 6 10.5t3 16.5z" />
    <glyph glyph-name="threesuperior" unicode="&#xb3;" horiz-adv-x="273" 
d="M384 169q0 -2 -1.5 -4.5t-3.5 -5.5q-2 -4 -4 -7q-39 -51 -71.5 -86.5t-62 -57t-56.5 -31.5t-54 -10t-49 15t-22 46q0 27 14 52.5t31 45.5q19 24 45 45q0 1 -9.5 1h-23.5h-46q-15 0 -30 1t-27 4.5t-20 11t-8 20.5q0 17 14 40t36 47t49.5 47.5t55 42t51 30t37.5 11.5
q5 0 13.5 -2.5t16.5 -6.5t13.5 -9.5t5.5 -12.5q0 -13 -10.5 -32t-26.5 -39.5t-34 -41t-34 -36.5l-26.5 -26.5l-10.5 -10.5q0 -9 7 -9q16 1 20.5 1h6.5q28 0 28 -19q0 -5 -4 -12t-18 -18l-17.5 -15.5t-20 -21.5t-16.5 -25.5t-7 -27.5q0 -23 18.5 -34.5t38.5 -11.5
q22 0 49 17.5t52.5 42.5t47 52t33.5 45q3 9 11 9q7 0 13 -5t6 -9zM230 367q0 2 -2 2t-16.5 -7.5t-34 -20t-41.5 -29t-40.5 -34t-31 -35.5t-12.5 -33q0 -3 6 -5.5t36 -2.5q5 5 17 19l27.5 32l31.5 38l29.5 36.5l22 27.5t8.5 12z" />
    <glyph glyph-name="onesuperior" unicode="&#xb9;" horiz-adv-x="373" 
d="M361 288q0 -54 -12 -109t-36 -99.5t-60.5 -73t-85.5 -28.5q-21 0 -40.5 7t-34.5 21.5t-24 35.5t-9 49q0 57 23.5 90.5t53.5 51t58.5 23t37.5 5.5q42 0 58.5 -23.5t16.5 -57.5q0 -12 -6 -15.5t-10 -3.5q-6 0 -8 10t-7.5 22t-18.5 22t-43 10q-33 0 -53.5 -14t-31 -32.5
t-14 -38.5t-3.5 -32q0 -27 9 -43.5t21 -25.5t25 -12t21 -3q26 0 47 13t36.5 34t26.5 47t18.5 52.5t10.5 50.5t3 41q0 52 -14 113.5t-37.5 117t-53.5 95.5t-62 49q-4 0 -6 -5t-5 -10.5t-7 -10.5t-12 -5t-14.5 6t-6.5 20q0 21 16.5 32t35.5 11q20 0 42.5 -16.5t44 -45
t41.5 -66.5t35 -81t24.5 -89t9.5 -89z" />
    <glyph glyph-name="onequarter" unicode="&#xbc;" horiz-adv-x="297" 
d="M433 520q0 -11 -23.5 -20t-57.5 -17.5t-72.5 -16.5t-67.5 -16q-5 -2 -9.5 -5t-6.5 -14l-10.5 -51.5l-10 -52t-7.5 -43.5t-3 -26q18 -10 45.5 -19.5t56.5 -9.5q21 0 45 6.5t52 20.5q4 2 7.5 5t8.5 3q6 0 12 -6t6 -12t-10.5 -14.5t-29.5 -16t-45.5 -13t-58.5 -5.5
q-27 0 -48 3.5t-43 11.5q-4 0 -4.5 -5t-0.5 -13q0 -9 -1 -34.5t-2 -54.5l-2 -55.5t-1 -37.5q0 -28 -2 -36t-13 -8q-8 0 -10.5 4.5t-2.5 11.5l1 18q1 16 -4.5 38.5t-13.5 46l-16 46t-13 39.5q-10 22 -27 44t-34.5 40.5t-31.5 30.5t-17 14q-6 4 -6 12q0 1 1.5 6.5t5 10.5
t8.5 9.5t11 4.5q3 0 14 -6q4 -2 20 -11.5l35 -20l36 -19.5t23 -11q4 -2 9 -2q4 0 8 15t6.5 37.5t4.5 48.5t2 48q0 14 -7 14l-99 -26q-38 -10 -70.5 -17.5t-37.5 -7.5q-10 0 -14 4t-4 9q0 13 28 22q7 2 35.5 9.5t61 15l58.5 14t29 7.5q23 7 26 15q3 14 3.5 29.5t2 29t7 22
t18.5 8.5h1q12 0 17 -8.5t5 -18.5q0 -4 -0.5 -11.5t-0.5 -15v-14v-9.5q0 -5 5 -5q4 0 19 3t35 8l43 10.5l43.5 10.5t36 8t21.5 3q10 0 17.5 -3.5t7.5 -8.5zM113 224q0 4 -14 12t-28 13q-2 0 -4 -0.5t-2 -5.5q6 -5 11 -11.5t9 -13.5l6.5 -11.5t4.5 -4.5q8 0 12.5 10t4.5 12z
M132 178q0 3 -3 3q-5 0 -7 -3.5t-4 -8.5t-2 -11q2 -12 4.5 -19.5t6.5 -7.5q3 0 4 11t1 27v9z" />
    <glyph glyph-name="logicalnot" unicode="&#xac;" horiz-adv-x="568" 
d="M629 153q0 -13 -16 -20t-35 -12t-35 -10.5t-16 -16.5l1 -7l6 -43t6 -53q0 -7 -4.5 -12t-20.5 -7q-6 -1 -20 18.5t-29 44l-27.5 46t-14.5 25.5q-5 0 -19 3t-33.5 8.5t-41.5 13.5t-42 17q-7 4 -13 4q-11 0 -11 -29q0 -23 -2.5 -51.5t-14 -53.5t-34.5 -42.5t-64 -17.5
q-28 0 -54 14.5t-50 37t-45.5 48l-39.5 48t-33 37t-26 14.5q-3 0 -4.5 -3l-3.5 -7t-5.5 -7t-10.5 -3q-5 0 -9.5 4t-4.5 14q0 5 0.5 14.5t4.5 19.5t12.5 17t24.5 7q19 0 40 -16t43.5 -40.5t45 -52.5t44.5 -52t42.5 -40t38.5 -15q14 0 27 3t23 12t16.5 26t7.5 44q1 23 2 41
q1 16 1 29.5t1 15.5q0 3 -3.5 8t-12.5 10q-13 8 -39 31t-51.5 54.5t-44.5 67.5t-19 70q0 24 16.5 39t39.5 15q25 0 43 -9t30 -20.5t20.5 -20.5t14.5 -9t7 17q0 4 2.5 27.5t8.5 56t15.5 69t24 68t34 52t46.5 20.5q21 0 35.5 -11t23.5 -27t14 -34.5l9 -33.5q1 -3 6 -35.5
l13 -80.5l16.5 -103.5l16 -105l12.5 -84.5l6 -42q0 -2 2 -7.5t12 -5.5q3 0 14 3.5l24 8t25 8t16 3.5q5 0 8 -2.5t5 -4.5q2 -4 2 -7zM496 150q0 6 -1 10q-1 6 -6.5 35l-13.5 70.5l-17.5 90l-18.5 93l-15.5 79t-9.5 48.5q-5 15 -9 32t-9 32t-13.5 25t-22.5 10
q-18 0 -32.5 -19.5t-25.5 -49t-18.5 -66t-12.5 -70.5t-7 -61.5t-2 -39.5l15 -18.5l39 -48.5t52 -68.5t53 -77.5q8 -11 26 -13.5t44 -2.5q5 0 5 10zM388 155q0 4 -7 12q-6 7 -22 29l-33 46.5l-31 44.5t-16 22q-4 4 -9 4q-8 0 -7 -13q1 -15 2 -28q1 -11 1.5 -23t0.5 -19
q0 -14 17 -27.5t38.5 -25t40.5 -18.5t22 -7t3 3zM511 35q0 6 -1 18t-3.5 24.5t-6 21.5t-8.5 9q-7 0 -11 0.5t-8 0.5q-6 0 -9 -3t-3 -6q0 -4 9.5 -20.5t26.5 -42.5q5 -9 10 -9q4 0 4 7zM239 245v20t-0.5 36.5t-1.5 35.5t-2 17l-14 14.5t-26 24.5t-31 23.5t-29 10.5
q-7 0 -10 -3.5t-5 -7.5q-2 -5 -3 -11q0 -28 18 -57t41 -53q26 -28 60 -55q3 0 3 5z" />
    <glyph glyph-name="onehalf" unicode="&#xbd;" horiz-adv-x="671" 
d="M628 82q-1 -33 -11.5 -58t-26.5 -42.5t-36 -27t-40 -9.5q-16 0 -38 5t-47.5 20.5t-53 44.5t-55.5 77q-2 5 -3 11q-1 5 -1.5 12t-0.5 15q0 7 3 7q4 0 10.5 -8.5l11.5 -15.5q27 -37 56 -65q25 -25 56 -45t62 -20q20 0 35 7t24.5 18t14.5 24.5t5 27.5q0 35 -16.5 73.5
t-41.5 75t-55 67t-57 50.5q-5 -1 -11 -2q-5 -1 -12 -1h-15q-17 0 -36 3t-36 11q-1 0 -2 1q-1 0 -2 0.5t-2 0.5q-4 0 -7 -4.5t-3 -21.5q0 1 1 -13t2 -36.5t2 -50t1 -52.5q0 -34 -4.5 -66.5t-14.5 -57.5t-25.5 -40.5t-37.5 -15.5q-24 0 -47 12.5t-44 30.5t-40.5 40l-36.5 40
t-32.5 30.5t-28.5 12.5q-11 -2 -14.5 -10.5t-3.5 -16.5l2 -18q0 -3 -2 -6t-9 -4q-6 0 -9.5 5.5t-5 13t-1.5 15.5v13q0 8 1.5 17.5t7 18.5t15.5 16t27 9q18 0 38.5 -12.5t41.5 -31.5t42 -40.5t41.5 -40.5t39 -31.5t34.5 -12.5q14 0 25 15.5t11 61.5v93q0 24 -0.5 47t-1 42.5
t-1 34.5t-0.5 22q0 4 -4.5 12t-32.5 22q3 -2 -12.5 9.5t-36 30.5t-37.5 43t-17 47q0 18 15 25t33 7q12 0 25 -4.5t24 -9.5t20 -9.5t13 -4.5q6 0 6 17v19.5t-0.5 26t-1 24.5t-0.5 14q0 5 4 11.5t14 7.5q4 0 5.5 -6.5t1.5 -12.5v-104q0 -5 2.5 -11t13.5 -13t36 -25l51 -38
l65 -50q8 0 19.5 17t11.5 57t-25 85t-70 83t-108 63t-139 25q-45 0 -86 -14t-71.5 -44t-49 -76t-18.5 -110q0 -15 1.5 -30.5t6.5 -30.5l13 -38q5 -15 9.5 -30t4.5 -20q0 -3 -1 -3h-1q-22 0 -33 14t-11 24v2q0 8 -9 42t-9 81q0 57 21 106.5t59.5 85.5t92.5 56.5t121 20.5
q78 0 140.5 -26t106.5 -67t68 -90.5t24 -97.5q0 -32 -10.5 -55t-27.5 -37l-4 -4q-4 -4 -4 -9q0 -2 1 -4t1.5 -3.5t2.5 -3.5q41 -41 73 -86q13 -19 26 -40.5t23 -44.5t16 -46t6 -45zM391 349q0 6 -14 17.5t-30.5 23t-31 20.5t-15.5 9q-3 0 -3.5 -6t-0.5 -13v-12
q0 -11 12.5 -18.5t29 -12.5t31.5 -7.5t20 -3.5q2 2 2 3zM271 406v8t-1 13t-2 12.5t-3 6.5q-23 13 -36 21t-20.5 11.5t-10 4.5t-4.5 1q-8 0 -8 -6q0 -9 11.5 -22.5t25.5 -25.5t27.5 -21t18.5 -9q2 0 2 6z" />
    <glyph glyph-name="threequarters" unicode="&#xbe;" horiz-adv-x="613" 
d="M655 202q0 -2 -1 -5.5t-2 -5.5q-1 -4 -2 -6q-30 -57 -54.5 -96t-48.5 -64t-49 -38.5t-54 -18.5q-26 0 -53 30.5t-46 81.5q-80 -73 -136.5 -105t-103.5 -32q-33 0 -51 9.5t-26 21.5q-10 14 -11 32q0 28 18.5 53t40 44t39.5 29.5t17 10.5q0 1 -9.5 2.5l-22.5 3.5
q-62 11 -92.5 22t-30.5 34q3 17 19.5 36.5t41 39t54 38t58.5 32.5t54.5 22.5t41.5 8.5q1 0 9 -1.5t17.5 -5.5t17 -12t7.5 -21q0 -10 -7.5 -22t-19.5 -25t-27.5 -26.5t-31.5 -25.5q-38 -29 -86 -59v-4q0 -6 5 -7l27 -3q25 -3 25 -19q-2 -8 -7 -15t-21 -16q-8 -4 -19.5 -11.5
t-23.5 -18.5t-21 -25t-12 -30q0 -20 19 -34.5t40 -14.5q22 0 50.5 13.5t56 33t51.5 41t38 36.5q0 1 1 2l-4 18.5l-4 19.5q-3 15 -5.5 36t-5 45t-4 49.5t-2.5 49.5q-3 57 -4 120q-2 38 5.5 67.5t28.5 33.5h2q5 0 9.5 -3.5t8 -15.5t5.5 -35.5t2 -64.5v-21q0 -6 8 -6
q7 1 38 15.5l68.5 32t72.5 32t50 14.5q14 0 16 -9q0 -9 -8.5 -17.5t-33.5 -19.5q-1 -1 -10.5 -5l-24 -10l-32.5 -14l-36 -16l-98 -43q-3 0 -6 -2q-6 -4 -6 -8q-2 -18 -3 -35.5t-1 -34.5q0 -7 1.5 -30t6 -53t12 -63t19 -60t28 -45t38.5 -18q23 0 48 21.5t47 51.5t39.5 62
t26.5 53q2 11 12 11q4 0 10.5 -4t6.5 -9zM245 322q0 2 -2 2q-12 0 -45 -13t-67.5 -32.5t-61.5 -41t-27 -39.5q0 -3 5.5 -6.5t34.5 -8.5q6 4 20.5 15.5l32.5 27l37.5 32l35.5 30.5l26.5 23.5t10.5 10.5z" />
    <glyph glyph-name="currency" unicode="&#xa4;" horiz-adv-x="661" 
d="M638 80q0 -17 -15.5 -33t-41.5 -28t-61.5 -19.5t-74.5 -7.5q-66 0 -122.5 20t-100 55t-73 82.5t-42.5 101.5h-69q-3 1 -6 3q-5 3 -5 15q1 10 6 13q2 2 5 2h63q-3 21 -3 43h-42q-3 1 -6 3q-5 3 -5 15q1 10 6 13q2 2 5 2h43q5 55 26.5 107t55 92t77 64t93.5 24
q49 0 91.5 -17t73.5 -44t48.5 -60.5t17.5 -67.5q0 -20 -8 -28t-21 -8t-28.5 7.5t-30.5 18t-27 23t-18 21.5q-2 2 -3.5 4t-2.5 3q-2 -2 -6 -4q-4 -8 -11 -8q-8 0 -9.5 3.5t-1.5 9.5q0 5 1 11.5t3 13.5q2 9 4 20.5t2 22.5q0 21 -14.5 37.5t-57.5 16.5q-35 0 -72 -20t-68 -55
t-51 -83t-20 -104h216q4 0 6 -3l4 -6q2 -4 2 -8q0 -9 -6 -13q-3 -2 -6 -3h-215l4 -21.5l4 -21.5h189q4 0 6 -3l4 -6q2 -4 2 -8q0 -9 -6 -13q-3 -2 -6 -3h-179q16 -45 44.5 -85t68 -71t89 -49t106.5 -18q31 0 54 5.5t40.5 13.5t28.5 17l18 15q12 10 17 10q4 0 5.5 -1.5
l3.5 -3.5l2 -4v0zM550 470q0 11 -12 30t-27.5 37.5t-31.5 32.5t-25 15q2 -7 11 -26t21.5 -39.5t28 -36.5t30.5 -16q5 0 5 3z" />
    </font>
</defs>
</svg>
