<?xml version="1.0" standalone="no"?>
<!DOCTYPE svg PUBLIC "-//W3C//DTD SVG 1.1//EN" "http://www.w3.org/Graphics/SVG/1.1/DTD/svg11.dtd" >
<svg xmlns="http://www.w3.org/2000/svg">
<metadata></metadata>
<defs>
<font id="mr_keningbeckregular" horiz-adv-x="1024" >
<font-face units-per-em="2048" ascent="1638" descent="-410" />
<missing-glyph horiz-adv-x="512" />
<glyph horiz-adv-x="0" />
<glyph unicode="&#xd;" horiz-adv-x="512" />
<glyph unicode=" "  horiz-adv-x="512" />
<glyph unicode="&#x09;" horiz-adv-x="512" />
<glyph unicode="&#xa0;" horiz-adv-x="512" />
<glyph unicode="!" horiz-adv-x="444" d="M205 61q0 12 5 28.5t16.5 32t26.5 27t34 11.5q29 0 53.5 -24.5t24.5 -65.5q0 -23 -9.5 -43.5t-21.5 -36t-26.5 -23.5t-22.5 -8q-31 0 -46.5 13.5t-23.5 30.5t-9 33.5t-1 24.5zM211 1153q0 27 4 35q0 16 21.5 32.5t42.5 16.5q29 0 39 -13t10 -42v-75t-1 -157t-2 -198.5 t-2 -200.5t-3.5 -160.5t-4.5 -79.5q-6 -31 -22.5 -40t-30.5 -9q-16 0 -21 17.5t-8 31.5q2 20 3.5 43t1.5 47q0 31 -2.5 93.5t-5.5 139.5t-6 161t-6 157.5t-5 128t-2 72.5z" />
<glyph unicode="&#x22;" horiz-adv-x="434" d="M80 1315q0 16 8 31.5t27 25.5q8 6 20 6q23 0 35 -20q14 -23 19.5 -51.5t5.5 -61.5q0 -37 -6.5 -76t-14.5 -75.5t-19.5 -67.5t-19.5 -49q-10 -6 -14 -6t-4 4q-4 8 -4 33q0 18 1 44.5t1 55.5q0 49 -5.5 100.5t-25.5 85.5q-4 6 -4 21zM266 1315q0 16 8.5 31.5t26.5 25.5 q8 6 21 6q23 0 34 -20q14 -23 19.5 -51.5t5.5 -61.5q0 -37 -6 -76t-14.5 -75.5t-19.5 -67.5t-19 -49q-10 -6 -15 -6q-4 0 -4 4q-4 8 -4 33q0 18 1 44.5t1 55.5q0 49 -5 100.5t-26 85.5q-4 6 -4 21z" />
<glyph unicode="#" horiz-adv-x="806" d="M41 432q0 12 12.5 22.5t36.5 8.5q20 0 58 -1t61 -1q0 59 -2 116.5t-6 110.5h-39t-47.5 1t-40 3t-17.5 4q0 16 12.5 27.5t41.5 11.5h88q-4 63 -10.5 123t-14.5 113v2q0 8 19 8q29 -4 56 -17.5t32 -56.5q8 -74 12 -168q53 4 107.5 9.5t109.5 11.5q-4 109 -12 194q0 6 3 8.5 t17 2.5q31 -6 48.5 -17.5t26.5 -33t11 -55.5t2 -85q6 2 24.5 4t42 5t47 5.5t36.5 2.5q6 0 9 -9.5t3 -13.5q0 -20 -42 -31.5t-120 -21.5q-2 -53 -5 -111.5t-9 -118.5q35 4 70.5 13.5t66.5 9.5q4 0 4 -3t2 -7q0 -4 2 -9q0 -29 -30.5 -39t-106.5 -20l-14 -2q-6 -47 -12.5 -99.5 t-18.5 -97.5t-32.5 -74.5t-57.5 -29.5q-6 0 -6 6v4q29 129 41 283q-102 -6 -209 -6q-4 -47 -6 -99.5t-11.5 -98.5t-27 -80t-49.5 -44l-7 -2q-6 0 -6 10q10 72 16.5 150t6.5 164h-12q-18 0 -45 1t-51.5 4t-41 6t-16.5 7zM295 463q100 2 209 12q6 116 6 227q-102 -8 -215 -12 v-119v-108z" />
<glyph unicode="$" horiz-adv-x="1083" d="M80 481q0 27 15.5 43.5t29.5 16.5q4 0 25.5 -17.5t46 -40t45 -46t20.5 -36.5q0 -20 -26 -20q-6 0 -19 4q-6 2 -8 0q39 -68 111.5 -141.5t160.5 -124.5v497q-57 53 -110.5 106.5t-94 107t-65.5 107.5t-25 110q0 55 28 94t68 64.5t82 36.5t70 11q10 0 22.5 -1t24.5 -1v230 q0 6 6 14q6 14 31 23q16 4 21 4q10 0 14 -4.5t4 -6.5l2 -274q92 -23 174 -73t144.5 -111.5t99.5 -128t37 -121.5q0 -47 -23.5 -68.5t-54.5 -21.5t-60.5 22.5t-54 53t-41 59.5t-22.5 41q-6 23 -19 22q-2 -4 -6 -8t-10 -4q-23 0 -23 25q0 2 1 5t1 9q14 16 24.5 39.5t16.5 46.5 q8 25 11 51q-55 35 -101.5 62.5t-93.5 44.5l4 -490q8 -8 15 -12q61 -57 119.5 -115.5t105.5 -117t75.5 -116t28.5 -112.5q0 -41 -12 -82t-39 -74.5t-72 -55t-108 -21.5q-29 0 -55.5 4t-51.5 8l2 -268q0 -4 -4 -13q-8 -16 -32 -24q-8 -2 -19 -2q-12 0 -19.5 4t-15.5 8v322 q-92 39 -166.5 104.5t-127 134t-80 129t-27.5 88.5zM283 1075q0 -68 57 -144.5t141 -158.5v430q-10 2 -22.5 2h-22.5q-86 0 -119.5 -40t-33.5 -89zM563 539l4 -463q63 -25 129 -25q37 0 61.5 10.5t39 26.5t20.5 35t6 37q0 47 -21.5 94t-57 94t-83 95.5t-98.5 95.5zM799 1026 q0 -31 15 -71t36.5 -73.5t46.5 -57t43 -23.5q10 0 10 14q0 18 -19.5 55t-44 74t-48 63.5t-33.5 26.5q-6 0 -6 -8z" />
<glyph unicode="%" horiz-adv-x="1167" d="M57 999q0 104 42 204t120 165q25 23 56.5 34t62.5 11q59 0 97 -26.5t67 -61.5q29 -61 45 -127.5t16 -134.5q0 -61 -14 -122.5t-45 -117.5q-20 -35 -50 -69.5t-55 -57.5q-27 -16 -51 -21t-47 -5q-39 0 -71.5 12t-55.5 31q-59 53 -88 127.5t-29 158.5zM154 23l757 1339 q2 4 11 10q4 4 13 7t21 3q27 0 32 -8t5 -10l-757 -1344q-2 -4 -9 -10q-12 -12 -39 -10q-23 0 -28.5 9t-5.5 14zM164 991q0 -72 16.5 -131t50.5 -88q35 -35 70 -35q16 0 33.5 9.5t38.5 25.5q16 14 32.5 42t31 64.5t24.5 78.5t14 85q-14 -49 -49 -96q-4 -4 -10 -4q-4 0 -10 6 v6v4q25 41 37 88.5t12 90.5q0 57 -17.5 104t-44.5 72q-31 25 -53 24q-16 0 -36.5 -9t-43.5 -25q-23 -20 -40 -54.5t-29.5 -76.5t-19.5 -89t-7 -92zM604 344q0 104 42 203.5t120 165.5q25 23 56.5 34t62.5 11q59 0 97 -26.5t67 -61.5q29 -61 45 -127.5t16 -134.5 q0 -61 -14.5 -123t-44.5 -117q-20 -35 -50 -70t-55 -57q-27 -16 -51.5 -21.5t-46.5 -5.5q-39 0 -72 12.5t-55 30.5q-59 53 -88 128t-29 159zM711 336q0 -72 16 -131.5t51 -87.5q35 -35 70 -35q16 0 33.5 9t38.5 26q16 14 32.5 41.5t30.5 64.5t24.5 79t14.5 85 q-14 -49 -49 -96q-4 -4 -10 -4q-4 0 -11 6v6v4q25 41 37 88t12 90q0 57 -17 104.5t-44 71.5q-31 25 -53 25q-16 0 -37 -9t-43 -26q-23 -20 -40 -54t-29.5 -76t-19.5 -89t-7 -92z" />
<glyph unicode="&#x26;" horiz-adv-x="1114" d="M72 233q0 55 50 95.5t125 73t161 61.5t159 61h-125q-53 0 -107 6.5t-97 24.5t-71 54t-28 98q0 84 50.5 148.5t129 110.5t175 76.5t188.5 49.5v182l5 5t13 3l23 -2q10 -4 18.5 -11t12.5 -12q6 -8 6 -12v-141q59 8 107 12t81 4q37 0 91.5 -3t104.5 -14t87 -31.5t37 -57.5 q0 -61 -65.5 -105.5t-166 -74t-223.5 -47t-235 -27.5q-16 0 -26.5 17.5t-10.5 35.5q0 16 10 27.5t35 15.5q90 12 190.5 29.5t185.5 38t143 41t69 36.5q0 25 -39 39q-82 27 -183 27q-139 0 -267 -27.5t-224 -74.5t-153.5 -108.5t-57.5 -129.5q0 -31 24.5 -58.5t63.5 -47 t84 -30.5t88 -11q63 0 155.5 14t243.5 43h25q6 -2 13 -11.5t7 -23.5q-2 -8 -34 -18q-35 -20 -101.5 -45t-145.5 -51.5t-162 -55.5t-149.5 -60.5t-109.5 -65.5t-43 -68q0 -41 42 -73t101.5 -54.5t123 -35t106.5 -12.5q135 0 268 43.5t262 102.5q4 2 10 4q4 2 10.5 4t16.5 2 q4 -2 13 -10t9 -19q0 -4 -4 -8q-6 -18 -43 -40.5t-95 -46t-132 -45t-154 -36.5v-194q0 -12 -22 -13h-10l-6 3q-23 8 -31 22q-4 6 -6 12v158q-47 -8 -94.5 -12t-90.5 -4q-68 0 -140.5 15t-132.5 46t-99 78t-39 108z" />
<glyph unicode="'" horiz-adv-x="247" d="M80 1315q0 16 8 31.5t27 25.5q8 6 20 6q23 0 35 -20q14 -23 19.5 -51.5t5.5 -61.5q0 -37 -6.5 -76t-14.5 -75.5t-19.5 -67.5t-19.5 -49q-10 -6 -14 -6t-4 4q-4 8 -4 33q0 18 1 44.5t1 55.5q0 49 -5.5 100.5t-25.5 85.5q-4 6 -4 21z" />
<glyph unicode="(" horiz-adv-x="526" d="M0 453q0 8 2 60t13.5 132t35 178.5t68.5 196.5t113.5 189t168.5 159q20 12 33 12q4 0 4 -1t2 -1q0 -2 2 -2q0 -6 -2 -11t-4 -9q-4 -6 -6 -8q-106 -121 -167.5 -249t-92.5 -244t-38 -210t-7 -147q0 -170 30.5 -303.5t67.5 -225.5q43 -109 99 -190q2 -4 4 -10q2 -4 4 -9.5 t2 -9.5q0 -8 -15 -8q-14 0 -26 10q-82 80 -146 185q-55 90 -100 219t-45 297z" />
<glyph unicode=")" horiz-adv-x="548" d="M106 -254q0 10 7 21q2 6 6 8q106 121 167.5 249t92.5 243.5t38 209.5t7 148q0 170 -31 303t-67 225q-43 109 -99 190q-4 4 -6 11q-4 12 -4 18q0 8 14 8t27 -10q80 -80 145 -184q53 -90 99.5 -220t46.5 -296q0 -8 -2 -60.5t-13.5 -132.5t-35 -178t-68.5 -196.5 t-113.5 -190.5t-169.5 -158q-20 -12 -32 -12q-8 0 -9 2q-2 0 0 2z" />
<glyph unicode="*" horiz-adv-x="649" d="M121 961q0 23 10 34t25 17q14 8 34 8q39 2 58.5 4t23.5 2q8 0 9 6q0 12 -13.5 26.5t-29 28t-28.5 27.5t-13 27q0 10 4 17t8 16q6 8 14 16q8 12 17 12q12 0 21 -15.5t16.5 -33.5t11.5 -33l4 -16q8 -23 14 -33t10 -14q4 -6 7 -4q4 4 8 17l8 26q4 14 4 30q2 33 13.5 52.5 t23.5 30t23.5 12.5t15.5 2q23 0 28 -9.5t5 -13.5q-4 -14 -19 -33q-8 -8 -16 -18q-37 -55 -45 -72.5t-8 -19.5t4 -2q14 0 34.5 9t40 21.5t37 21.5t27.5 9t12 -7t2 -17q0 -37 -21.5 -56.5t-35.5 -19.5q-29 0 -49.5 5t-26.5 5q-27 0 -27 -10q0 -12 17.5 -24.5t38 -24t38 -21.5 t17.5 -16t-3 -18.5t-7 -26t-11.5 -22.5t-17.5 -9q-12 0 -24.5 13.5t-22.5 29.5q-12 20 -22 45q-14 27 -20.5 33t-8.5 6h-2q-14 -39 -21.5 -65.5t-13.5 -43t-15.5 -25.5t-27.5 -11h-14q-27 0 -31 6t-4 10q0 8 7 20.5t15.5 22.5t15.5 18.5t5 8.5q31 35 40 47t9 16q-6 6 -8 6 h-6q-16 -4 -31.5 -9t-30.5 -11l-30 -15q-25 -16 -37.5 -19t-16.5 -5q-12 0 -16 14q-2 6 -2 15z" />
<glyph unicode="+" horiz-adv-x="917" d="M180 508q2 20 15 29q6 4 10 6h227v227q0 6 4 12q8 12 31 13q16 0 23.5 -4.5t11.5 -8.5q4 -6 6 -12v-227h225q14 0 23 -21q4 -8 4 -18q0 -12 -5 -19.5t-10 -11.5q-6 -6 -12 -6h-225v-227q0 -6 -6 -13q-12 -12 -35 -12q-23 2 -31 14q-4 6 -4 13v225h-227q-6 0 -12 6 q-4 4 -8.5 11.5t-4.5 23.5z" />
<glyph unicode="," horiz-adv-x="407" d="M199 88q0 27 10 51.5t25.5 41t33 26.5t31.5 10q16 -2 29 -14q10 -10 19 -34t9 -65q-2 -70 -14 -122q-10 -47 -34.5 -84t-69.5 -37q-8 0 -11 8l2 6q12 14 21 33q8 14 15 31.5t7 33.5q0 47 -34 54q-23 4 -31 22.5t-8 38.5z" />
<glyph unicode="-" horiz-adv-x="956" d="M283 336q2 20 14 29q6 4 10 6h529q14 0 22 -21q4 -8 4 -18q0 -12 -5 -19.5t-9 -11.5q-6 -6 -12 -6h-529q-6 0 -12 6q-4 4 -8 11t-4 24z" />
<glyph unicode="." horiz-adv-x="360" d="M143 61q0 12 5.5 28.5t16.5 32t26.5 27t33.5 11.5q29 0 53.5 -24.5t24.5 -65.5q0 -23 -9 -43.5t-21.5 -36t-27 -23.5t-22.5 -8q-31 0 -46 13.5t-23.5 30.5t-9.5 33.5t-1 24.5z" />
<glyph unicode="/" horiz-adv-x="571" d="M-109 -408l648 1811q2 4 10 10q4 4 13 7t22 3q27 0 32 -8t5 -10l-648 -1815q-2 -4 -8 -10q-12 -12 -39 -10q-23 0 -29 9t-6 13z" />
<glyph unicode="0" horiz-adv-x="999" d="M61 516q0 88 18.5 178t53.5 173t87 157t120 131q43 37 98.5 56.5t108.5 19.5q102 0 168.5 -47t113.5 -107q53 -106 81 -220.5t28 -231.5q0 -109 -25.5 -213.5t-78.5 -200.5q-35 -63 -87.5 -123.5t-95.5 -97.5q-45 -29 -87 -38t-83 -9q-66 0 -123 20.5t-96 52.5 q-104 90 -152.5 221.5t-48.5 278.5zM207 496q0 -139 32.5 -256t98.5 -174q35 -31 68.5 -49.5t70.5 -18.5q35 0 69 17.5t72 50.5q33 29 66 84t59.5 126.5t47 154.5t30.5 167q-16 -51 -39.5 -98t-58.5 -90q-8 -8 -21 -9q-16 0 -20 11q-2 4 -2 14v6q53 84 76.5 175t23.5 177 q0 113 -34.5 207t-90.5 142q-55 45 -102 45q-35 0 -73 -17.5t-83 -50.5q-45 -41 -79.5 -107.5t-59.5 -148.5t-38 -174t-13 -184z" />
<glyph unicode="1" horiz-adv-x="561" d="M39 795.5q-2 11.5 8 21.5q43 59 92 112.5t94.5 105.5t83 105.5t60.5 112.5q4 27 24 37q29 13 43 -20q-2 -41 -6 -141.5t-7 -231.5t-6 -277.5t-5 -276.5t-2 -229.5t2 -136.5q-8 -12 -24.5 -27.5t-36 -27.5t-38 -15t-30.5 11q2 55 6 144.5t7 194.5t6 220t6 219.5t4.5 190.5 t3.5 137q-25 -31 -59 -68.5t-65.5 -74.5t-60 -71t-43.5 -56q-18 -8 -31.5 -1t-19.5 21q-4 10 -6 21.5z" />
<glyph unicode="2" horiz-adv-x="851" d="M-33 2q0 6 6 14q133 102 257 221t219.5 240t154 237.5t58.5 215.5q0 49 -17.5 96t-46.5 84t-66.5 61.5t-80.5 30.5q-53 0 -103.5 -20.5t-89.5 -63.5t-62.5 -108.5t-23.5 -157.5q0 -4 1 -20.5t8 -35t21.5 -32.5t43.5 -14q18 0 48 10t65.5 31.5t74.5 54.5t76 80 q16 23 29.5 32t23.5 9q14 0 15 -25q0 -33 -19 -51q-6 -10 -40 -47t-84 -77t-109.5 -71.5t-114.5 -31.5q-51 0 -79 16t-41 39.5t-15 48.5t-2 43q0 98 27.5 182t78.5 146.5t121 98.5t156 36q82 0 143.5 -28.5t100 -77t58 -110t19.5 -126.5q0 -78 -43 -170t-112.5 -187.5 t-154.5 -187.5t-167 -170l-57 -53q31 -10 65.5 -18.5t68.5 -13.5t63.5 -7t50.5 -2q160 0 243 170q16 29 29 29q10 0 14 -11.5t4 -19.5q0 -88 -30.5 -141.5t-65.5 -81.5q-43 -35 -96 -50q-59 -12 -139 -12q-39 0 -97.5 5t-97.5 12q-39 6 -67.5 12t-69.5 6q-2 0 -16.5 -9 t-35 -19.5t-43 -19.5t-36.5 -9q-20 0 -21 18z" />
<glyph unicode="3" horiz-adv-x="849" d="M-8 88q0 57 35.5 113.5t83 103.5t93.5 84t64 53q18 12 43 13q8 0 21.5 -4.5t13.5 -24.5q0 -16 -33 -35q-123 -70 -170 -142.5t-47 -125.5q0 -41 35 -57.5t86 -16.5q47 0 121 26.5t142.5 79t118.5 132.5t50 186q0 94 -28.5 149.5t-69.5 85t-87 39t-83 9.5q-14 0 -25.5 -1 t-19.5 -1q-8 -2 -17 -2q-10 0 -15 7t-9 13q0 2 6 8q150 68 208 138.5t58 128.5q0 29 -13 52t-35.5 40.5t-51.5 27t-59 9.5q-61 0 -101.5 -44.5t-40.5 -127.5q0 -14 3 -35t16 -54q0 -14 -23 -16q-20 -4 -27.5 -1t-9.5 7q-6 10 -12 29q-4 16 -8 39.5t-4 58.5q0 45 21.5 83 t56 66.5t78.5 45t92 16.5q80 0 129 -25.5t74.5 -57.5t33.5 -59.5t8 -31.5q0 -92 -55 -147.5t-180 -106.5q98 -10 160.5 -41t98.5 -75t48 -98t12 -109q0 -109 -62.5 -204t-156.5 -167t-206.5 -114t-211.5 -42q-18 4 -44.5 7t-49 14.5t-39 35t-16.5 66.5z" />
<glyph unicode="4" horiz-adv-x="1085" d="M-29 475q0 14 6 31q12 35 33 54.5t50.5 28.5t69.5 11t91 2q29 0 53.5 -1t42.5 -3q23 -2 39 -2q6 0 21.5 23.5t36 61.5t43 87t41.5 100q16 45 37.5 109.5t40 126t32 107.5t15.5 57q8 12 15 14t17 2t24.5 -9t14.5 -20q-2 -8 -16 -55t-32.5 -108.5t-40 -126t-36.5 -107.5 q-14 -37 -32.5 -80t-36 -81t-31.5 -64.5t-20 -32.5q0 -6 8 -8q12 -4 61 -3t150 -18q33 59 69.5 112.5t77.5 100.5q10 0 15.5 -4t5.5 -20q-31 -53 -54.5 -103.5t-44.5 -99.5q47 -10 100.5 -26.5t116.5 -38.5q35 -12 69 -26.5t69 -31.5l2 -2l4 -2q16 -8 28.5 -17.5t12.5 -29.5 t-13 -53q-4 -10 -9 -17.5t-11 -7.5l-37 19q-61 31 -154.5 66.5t-214.5 45.5q-6 -33 -11 -76t-9 -90t-6 -97t-2 -95v-72q0 -14 -24.5 -25.5t-59.5 -11.5q-20 0 -23 2q2 43 4 107.5t7.5 133.5t13.5 134.5t24 110.5q-53 10 -107 19t-108 13q-25 -41 -61 -71q-31 -27 -75 -48.5 t-101 -21.5q-27 0 -59.5 3t-62.5 16.5t-49.5 39t-19.5 68.5zM55 477q10 -39 47 -49t66 -10t54.5 11t45 25.5t30.5 29t11 18.5l-170 10q-35 2 -59.5 -6t-24.5 -29z" />
<glyph unicode="5" horiz-adv-x="784" d="M61 123q0 31 9.5 53.5t21.5 22.5q16 0 31 -43q0 -41 31.5 -57.5t78.5 -16.5q43 0 110 26.5t129.5 79t107.5 132t45 186.5q0 33 -11.5 77t-47.5 83t-105.5 65.5t-186.5 26.5h-26q-23 0 -40.5 -2t-53.5 -13q-23 0 -36.5 5.5t-13.5 35.5q0 37 1 95.5t4.5 119t10.5 113.5 t19 82q4 10 11.5 20.5t23.5 10.5q31 -10 92.5 -20.5t126 -18.5t119.5 -13.5t76 -5.5q59 0 108 4.5t80 32.5q14 14 19.5 21.5t9.5 7.5q10 0 14 -11.5t4 -19.5q0 -51 -21.5 -81.5t-56 -46t-79.5 -19.5t-93 -4q-51 0 -115.5 4t-119.5 10t-92 11t-31 9q-4 -16 -7 -40.5t-6 -51 t-5 -51t-2 -41.5q0 -41 10 -41h51q100 0 189.5 -10t156 -45t104 -101.5t37.5 -179.5q0 -109 -57 -204t-143 -166.5t-187.5 -113.5t-191.5 -42q-29 0 -48.5 11t-31.5 29.5t-17.5 41t-5.5 43.5z" />
<glyph unicode="6" horiz-adv-x="882" d="M72 285q0 70 26.5 155.5t71.5 175t105.5 178.5t127 167.5t134 140t131.5 96.5q6 2 16 2q31 0 31 -26q0 -12 -8 -21q-137 -98 -231.5 -214t-153 -232.5t-84 -225t-25.5 -194.5q0 -49 13.5 -96.5t38 -84t58 -61.5t76.5 -31q53 0 106.5 28t95.5 80t68.5 124.5t26.5 165.5 q0 4 -1 20.5t-8 34.5t-22.5 32.5t-41.5 14.5q-18 0 -48 -10t-66 -31.5t-75 -54.5t-76 -80q-16 -23 -29.5 -32t-23.5 -9q-14 0 -14 25q0 33 18 51q6 10 40 47t84 77t109.5 71.5t114.5 31.5q51 0 79 -16.5t41.5 -40t15.5 -48t2 -42.5q0 -98 -31 -189.5t-85 -163t-127 -114.5 t-159 -43q-84 0 -144.5 28.5t-99 75.5t-58 109.5t-19.5 128.5z" />
<glyph unicode="7" horiz-adv-x="892" d="M-45 1030q0 6 2 22.5t7 33t13.5 28.5t22.5 10q61 -14 134 -28.5t147.5 -23.5t149.5 -14t142 -1q43 55 99 100q47 39 113.5 71t150.5 32q59 0 87 -40t28 -81t-43 -72t-111 -51.5t-148.5 -33.5t-156.5 -21q-10 -14 -24.5 -47t-32 -76t-34 -91.5t-28.5 -95.5q-4 -8 -5 -17 t-5 -20q33 6 64.5 10.5t62.5 4.5q33 0 63.5 -5.5t30.5 -35.5q0 -16 -12.5 -25.5t-26.5 -13.5q-18 -6 -39 -6q-23 12 -74 12q-20 0 -40.5 -2t-42.5 -8q-16 -72 -36 -160t-37.5 -168t-28.5 -138.5t-13 -66.5q0 -16 -6 -26q-4 -10 -12.5 -18.5t-24.5 -8.5q-20 0 -26.5 12.5 t-6.5 26.5v12q0 4 2 6q0 8 11.5 62.5t27.5 130.5t34.5 162t35.5 157q-57 -18 -115 -51q-39 -23 -55 -22q-29 0 -29 20q0 16 16.5 32.5t28.5 20.5q10 6 56 26.5t112 41.5q4 16 9 32.5t9 26.5q10 33 25.5 78t32 89t31 80t22.5 52q-53 -2 -84 -4t-51.5 -3t-35.5 -1h-40 q-29 0 -94.5 5t-198.5 22q-23 10 -38 19t-15 38zM682 1067q45 4 92 10t87 15.5t66.5 21.5t33.5 29v2q0 23 -28 32t-63 9q-29 0 -58.5 -16.5t-57 -37t-47 -40z" />
<glyph unicode="8" horiz-adv-x="811" d="M41 225q0 20 7 63.5t34 93.5t77 102.5t136 93.5q20 10 59 10q18 -8 19 -25v-4q0 -6 -13.5 -17.5t-37.5 -21.5q-27 -6 -58 -27.5t-56.5 -56.5t-43 -84t-17.5 -112q0 -92 42 -146.5t122 -54.5q45 0 105.5 25.5t115 70.5t91 107.5t36.5 138.5q0 63 -39.5 109.5t-99 81 t-129 63.5t-129 60.5t-99.5 69.5t-40 93v12q0 88 49 161t117.5 126t143.5 84t126 35q45 0 72.5 -13.5t42 -36t18.5 -55t4 -69.5q-6 -59 -32.5 -127t-57.5 -125t-57.5 -96t-32.5 -41l-2 -19v-6q0 -2 2 -4q72 -23 127 -59q47 -31 86 -81t35 -122q-4 -90 -44 -172 t-103.5 -144.5t-145.5 -100.5t-172 -38q-35 0 -80 9.5t-85 37t-67.5 78.5t-25.5 133zM238 934q0 -23 6 -50.5t27.5 -55t61.5 -54t107 -51.5q8 -4 15 -4q4 0 7 2t7 4t6 4q2 4 19.5 28.5t38 62.5t38 84t17.5 95v17q0 16 -3 42.5t-16.5 51.5t-38 43t-67.5 16q-29 0 -68 -17 t-73.5 -48t-59 -74t-24.5 -94v-2z" />
<glyph unicode="9" horiz-adv-x="802" d="M63 680q0 104 28 205.5t79 181.5t123 130t160 50q74 0 131 -26.5t97 -72.5t61.5 -109.5t23.5 -137.5q2 -72 -19.5 -158t-59.5 -176t-89 -180t-109.5 -169t-120 -143.5t-118.5 -103.5l-17 -4q-29 0 -32 25q0 10 6 20q117 102 196.5 215t129 223.5t71 216t21.5 191.5 q0 53 -12.5 108.5t-39 101.5t-65.5 76t-94 30q-49 -4 -95.5 -44t-82 -101.5t-57 -140.5t-21.5 -163q0 -18 2 -44t10 -48.5t25.5 -37.5t46.5 -15q18 0 46.5 12t62.5 36.5t71 62.5t67 87q16 25 27.5 34t22.5 11q16 0 16 -22q0 -14 -2 -23.5t-4 -15.5q-4 -8 -6 -14 q-6 -10 -37 -51.5t-77 -85.5t-102.5 -80.5t-111.5 -38.5q-53 -2 -83 15t-45 46t-19.5 62.5t-4.5 64.5z" />
<glyph unicode=":" horiz-adv-x="372" d="M156 61q0 12 5 28.5t16 32t26.5 27t34.5 11.5q29 0 53 -24.5t24 -65.5q0 -23 -9 -43.5t-21.5 -36t-26.5 -23.5t-22 -8q-31 0 -46.5 13.5t-23.5 30.5t-9 33.5t-1 24.5zM156 541q0 12 5 28.5t16 31.5t26.5 26.5t34.5 11.5q29 0 53 -24.5t24 -65.5q0 -23 -9 -43.5 t-21.5 -35.5t-26.5 -23.5t-22 -8.5q-31 0 -46.5 13.5t-23.5 31t-9 33.5t-1 25z" />
<glyph unicode=";" horiz-adv-x="503" d="M287 88q0 27 10 51.5t25.5 41t33 26.5t31.5 10q16 -2 29 -14q10 -10 19 -34t9 -65q-2 -70 -14 -122q-10 -47 -34.5 -84t-69.5 -37q-8 0 -11 8l2 6q12 14 21 33q8 14 15 31.5t7 33.5q0 47 -34 54q-23 4 -31 22.5t-8 38.5zM287 541q0 12 5 28.5t16 31.5t26.5 26.5 t34.5 11.5q29 0 53 -24.5t24 -65.5q0 -23 -9 -43.5t-21.5 -35.5t-26.5 -23.5t-22 -8.5q-31 0 -46.5 13.5t-23.5 31t-9 33.5t-1 25z" />
<glyph unicode="&#x3c;" horiz-adv-x="585" d="M39 426q0 14 14.5 27.5t56.5 42t118.5 83t199.5 154.5q2 4 10 10q4 4 13.5 7.5t21.5 3.5q27 0 42 -8.5t15 -10.5l-366 -309l366 -295q0 -2 -15 -10t-42 -8q-6 0 -41 20.5t-83 52t-103.5 70.5t-101.5 74t-76.5 61.5t-28.5 34.5z" />
<glyph unicode="=" horiz-adv-x="690" d="M51 254q2 20 15 29q6 4 10 6h528q14 0 23 -21q4 -8 4 -18q0 -12 -5 -19.5t-10 -11.5q-6 -6 -12 -6h-528q-6 0 -13 6q-4 4 -8 11.5t-4 23.5zM53 426q2 20 15 29q6 4 10 6h528q14 0 23 -21q4 -8 4 -18q0 -12 -5 -19.5t-10 -11.5q-6 -6 -12 -6h-528q-6 0 -12 6 q-4 4 -8.5 11.5t-4.5 23.5z" />
<glyph unicode="&#x3e;" horiz-adv-x="585" d="M51 131l367 295l-367 309q0 2 15.5 10.5t42.5 8.5q12 0 20 -3t14 -8l11 -10q123 -100 199.5 -154.5t118.5 -83t56.5 -42t14.5 -27.5q2 -8 -29 -34.5t-77 -61.5t-101 -74t-103.5 -70.5t-83 -52t-40.5 -20.5q-27 0 -42.5 8t-15.5 10z" />
<glyph unicode="?" horiz-adv-x="729" d="M109 930q0 104 35.5 177t88 119t110.5 67.5t101 21.5q55 0 103.5 -21.5t84.5 -63.5t57.5 -102.5t21.5 -140.5q0 -47 -27 -96t-68 -99.5t-87 -101.5t-87 -102t-67.5 -102.5t-26.5 -100.5q0 -25 6 -44t15 -36q0 -8 -13 -10q-23 6 -39 20q-16 12 -27 35t-11 60q0 41 24.5 88 t60 96t77.5 99t78 99.5t60.5 96.5t24.5 88q0 102 -48 168.5t-165 66.5q-31 0 -66.5 -16t-67.5 -49t-53.5 -80t-21.5 -109q0 -45 12.5 -67.5t47.5 -22.5q23 0 56.5 19.5t80.5 73.5q8 8 14 8q10 0 10 -17q0 -37 -23.5 -66.5t-55 -49t-62.5 -30.5t-45 -11q-49 0 -78.5 42 t-29.5 93zM285 86q0 12 5 28.5t16 32t26.5 26.5t34.5 11q29 0 53 -24.5t24 -65.5q0 -23 -9 -43t-21.5 -35.5t-26.5 -23.5t-22 -8q-31 0 -46.5 13t-23.5 30.5t-9 34t-1 24.5z" />
<glyph unicode="@" horiz-adv-x="1478" d="M131 229q0 125 34 226.5t89 180.5t127 135t147.5 93t148.5 54.5t132 17.5q88 0 197.5 -24.5t205 -87t160 -172t64.5 -279.5q0 -133 -37 -216t-89.5 -129t-108.5 -62.5t-93 -16.5t-74 17.5t-65.5 44t-47 59t-18.5 63.5v12q0 10 -8 11q-4 0 -6 -6q-6 -10 -39 -40t-80 -62 t-103.5 -57.5t-107.5 -25.5q-57 0 -88 16.5t-45 40t-16 48t-2 43.5q0 61 44 139t114.5 146.5t161.5 115.5t185 47q43 0 83 -20.5t40 -67.5q0 -41 -26.5 -83t-69.5 -82t-96 -75.5t-104.5 -65.5t-96.5 -51.5t-72 -29.5q-12 -4 -12 -12t11.5 -15.5t27.5 -7.5q10 0 16 2 q16 4 47 14.5t69 31t80 51t81 77.5q18 23 32.5 32t24.5 9q12 0 18.5 -9t10.5 -20.5t5 -21.5t1 -12q0 -6 6 -34t21.5 -57.5t42 -54t67.5 -24.5q45 0 86 15.5t73 54t50.5 104t18.5 164.5q0 143 -54.5 238.5t-136.5 152.5t-178 79.5t-182 22.5q-66 0 -164 -30.5t-189.5 -103.5 t-156 -192.5t-64.5 -299.5q0 -119 33 -208t85 -151.5t117.5 -102.5t132 -63.5t128 -32t106.5 -8.5q86 0 155 19.5t116 44.5q55 29 98 65q8 6 16 7q12 0 14.5 -9.5t2.5 -13.5q0 -23 -17 -39q-20 -23 -56 -48.5t-88 -47t-123 -34.5t-159 -13q-59 0 -129.5 11t-143.5 39 t-141.5 74t-121.5 115.5t-85 164.5t-32 220zM516 154q0 -23 12 -23q6 0 39 14.5t78 37t96.5 54t95.5 64.5t72.5 67.5t28.5 65.5q0 29 -16.5 44.5t-71.5 15.5q-43 0 -100.5 -32t-109.5 -81t-88 -109.5t-36 -117.5z" />
<glyph unicode="A" horiz-adv-x="1245" d="M-55 453q0 211 71.5 383t189.5 294.5t270.5 189t314.5 66.5q49 0 121.5 -12t140 -49t114.5 -105.5t47 -179.5q0 -35 -10 -80t-28.5 -92t-46 -94t-64.5 -86q0 -74 -10.5 -131t-23.5 -99t-25.5 -69t-18.5 -35q-10 -12 -10 -39q0 -29 31.5 -85t82 -111.5t113 -97 t123.5 -41.5q19 -1 19 -21q0 -16 -8.5 -25.5t-20.5 -13.5t-27.5 -5t-29.5 -1q-61 0 -117 29.5t-99 68.5t-72.5 79t-39.5 61q-10 23 -19.5 29.5t-15.5 6.5q-8 0 -15.5 -11t-29.5 -40q-55 -68 -114.5 -110.5t-118 -67.5t-114.5 -33t-102 -8q-123 0 -210 50t-142 129 t-80.5 173.5t-25.5 182.5zM37 526q0 -129 40 -229t102.5 -169t138 -104.5t147.5 -35.5q82 0 147.5 29.5t114.5 68.5t82 77t45 56q14 14 18.5 28.5t4.5 22.5t-8.5 30t-17.5 54.5t-16.5 75.5t-7.5 94q-45 -16 -84 -28q-35 -10 -68.5 -19.5t-49.5 -9.5q-12 0 -21.5 4t-9.5 16 q0 18 22 31q8 6 23 6q35 8 58.5 14.5t43 14.5t39 16.5t45.5 20.5q2 33 8.5 90t22.5 112.5t45 96.5t76 41q29 0 51.5 -38t30.5 -124q35 49 54.5 93.5t19.5 105.5t-23 124.5t-69 113.5t-115.5 83t-161.5 33q-174 0 -309.5 -73.5t-228.5 -188.5t-141 -256t-48 -277zM887 616 q39 18 68.5 42t52.5 47q-6 96 -17.5 130.5t-32.5 34.5q-16 0 -28 -26.5t-22.5 -66.5t-15.5 -84t-5 -77zM895 559q12 -59 18.5 -92t10.5 -49.5t9 -20.5t15 -4t19.5 28t16.5 65.5t12.5 78.5t9.5 66q-4 -4 -20.5 -15.5t-37.5 -23.5z" />
<glyph unicode="B" horiz-adv-x="1169" d="M53 406q0 178 37 364t113 339t189.5 250t266.5 97q88 0 133.5 -65.5t45.5 -155.5q0 -43 -12.5 -90t-26.5 -88q-18 -47 -39 -92q0 -10 26 -15q12 -2 29 -2q96 0 162.5 -31.5t107.5 -81t58.5 -112t17.5 -123.5q0 -86 -31.5 -170t-84 -159.5t-121 -139t-142 -110t-147.5 -72 t-137 -25.5q-66 0 -90.5 23.5t-24.5 50.5q0 35 29.5 69.5t80 62.5t117 45.5t138.5 17.5q2 0 11 -3.5t19 -8.5t18.5 -12t8.5 -15t-31 -17l-48 -10t-104.5 -27.5t-103.5 -43t-47 -56.5q0 -6 6 -13t27 -7q70 0 167 40.5t185 114.5t150.5 178.5t62.5 231.5q0 74 -29.5 134 t-78 104t-108.5 67.5t-122 23.5q-6 0 -17.5 -6t-21.5 -24q-8 -12 -35.5 -52t-67.5 -81t-87 -74t-90 -33q-41 0 -57.5 20.5t-16.5 39.5q0 41 29.5 82.5t77 77.5t104.5 65t113 43q6 2 14 8q6 4 12 10t10 17q16 39 29 75q10 33 19.5 72t9.5 78q0 20 -8.5 51t-27 57.5t-48 46 t-70.5 19.5q-31 0 -67.5 -13.5t-79.5 -43.5q-102 -76 -164 -164t-94.5 -182.5t-43 -192.5t-10.5 -195q0 -53 2 -107t7.5 -106.5t13.5 -98.5t20 -83q10 -35 23 -59q10 -23 23.5 -40.5t29.5 -17.5q2 0 8 4.5t12.5 24t10.5 62.5t4 122v153t-5 177t-17.5 178t-34.5 158 q-4 4 -7 10q-4 12 -4 21q0 10 7.5 16t17.5 6t18.5 -10t14.5 -39q4 -16 13 -71.5t19.5 -136.5t18.5 -183t8 -209q0 -63 -3 -136t-15.5 -135.5t-36 -103.5t-64.5 -41q-20 0 -50 33t-57.5 94.5t-47 149.5t-19.5 199zM406 688q0 -4 3 -15t17 -11q20 0 53 23.5t64.5 55t54.5 62.5 t23 45q0 10 -15 10q-57 -25 -100 -51q-39 -23 -69.5 -54.5t-30.5 -64.5z" />
<glyph unicode="C" horiz-adv-x="1204" d="M-111 723q0 150 50.5 293t137.5 255.5t202.5 181.5t248.5 69q123 0 229.5 -42t183.5 -109.5t121 -154t44 -172.5q0 -47 -19.5 -65t-48.5 -18q-31 0 -70.5 17t-76.5 44t-66.5 55.5t-42.5 52.5q-8 16 -14 20.5t-10 4.5q-10 0 -15.5 -15.5t-25.5 -15.5q-23 0 -23 27 q0 29 14.5 79t14.5 99q0 29 -8 54.5t-29.5 45t-57.5 30.5t-93 11q-100 0 -197.5 -48t-174.5 -136t-124 -214t-47 -279q0 -147 59.5 -298t169 -273t263 -198.5t343.5 -76.5q106 0 179 24.5t119 53t71 53t37 24.5q8 0 11 -3l7 -7l4 -8q0 -16 -13 -41t-34 -39 q-6 -4 -37.5 -25.5t-89 -46t-136.5 -44t-177 -19.5q-197 0 -359.5 69.5t-277.5 186.5t-178.5 271.5t-63.5 326.5zM784 1374q0 -4 21.5 -53t55.5 -106.5t76 -104.5t83 -47q16 0 16 14q0 27 -31.5 78t-72.5 101.5t-83 87t-61 36.5q-4 0 -4 -6z" />
<glyph unicode="D" horiz-adv-x="1204" d="M-168 1245v2q0 66 31 112t74 75.5t89 43t78 13.5q98 0 208 -41t215.5 -112.5t201.5 -166t169 -203t116 -223t43 -225.5q0 -16 -2 -33q-2 -16 -3 -33.5t-5 -33.5q0 -25 32 -25q18 0 52 2t74 6.5t79 10.5t68 16q2 0 6 2q8 4 12 4q10 0 13 -4t8 -8q2 -6 4 -10 q0 -14 -19.5 -24.5t-34.5 -18.5q-43 -27 -124.5 -38t-180.5 -11q-6 0 -15 -3.5t-15 -17.5q-27 -72 -80 -125q-45 -47 -119 -85t-186 -38q-70 0 -129.5 14.5t-104.5 32.5q-53 23 -96 50q-14 0 -15 -29v-35q0 -37 -3 -91t-7 -106.5t-9 -94.5t-9 -54q-4 -14 -7 -30.5t-11.5 -30 t-22.5 -22.5t-41 -9q-35 0 -63.5 58t-50 148.5t-33 200t-11.5 211.5q0 14 1 47t6 67t15.5 59.5t30.5 25.5q16 0 37 -18.5t31 -30.5q2 -6 15.5 -17.5t27.5 -24t26.5 -21.5t14.5 -9q4 0 7 36t4 82t2 89t1 59q0 6 -3 15.5t-13 19.5q-80 66 -148.5 139.5t-120 151.5t-81 156.5 t-29.5 152.5zM-61 1270q0 -45 19 -95.5t48 -99.5t62.5 -95t63.5 -81t50.5 -56.5t22.5 -23.5q8 -8 12 -8t5 7t1 18q0 6 -1 39.5t-1 81t-1 103.5t-1 107t9.5 70.5t19.5 19.5h14q12 0 20.5 -33.5t12.5 -85t5 -112.5t1 -119v-149q0 -25 6 -31q4 -4 8 -6q121 -102 238 -160.5 t211 -91.5q111 -37 209 -51q12 0 12 16q2 18 2 34v30q0 121 -45 237.5t-118.5 220t-167 190.5t-189.5 150.5t-188.5 98.5t-161.5 35q-55 0 -90 -15.5t-54.5 -40t-26.5 -52.5t-7 -52zM74 272q0 -43 5 -100t13 -117.5t18.5 -119t21.5 -104.5t21.5 -74.5t18.5 -28.5 q10 0 15.5 13t7.5 23l22 400q0 16 -2 24.5t-6 12.5q-4 6 -10 6q-14 8 -31.5 22.5t-34 28.5t-30 24.5t-17.5 10.5q-12 0 -12 -21zM289 319q0 -43 46 -75.5t110.5 -55t132 -34t108.5 -11.5q57 0 104.5 22.5t81 53.5t52 60.5t18.5 39.5q0 4 -10 8.5t-21 6.5q-14 2 -30 4 q-111 12 -208.5 48t-172.5 75q-88 45 -166 100q-16 10 -25 10q-6 0 -9 -23.5t-6 -60t-4 -82t-1 -86.5z" />
<glyph unicode="E" horiz-adv-x="1085" d="M-946 698q0 4 6 8.5t25 4.5q43 0 111.5 9t151.5 23.5t174 34t175 40t155.5 42t118.5 41.5q47 94 117 172t150.5 138.5t167 105.5t167 73.5t149.5 43t114 14.5q53 0 83.5 -15.5t30.5 -50.5q0 -47 -38 -96t-100 -97t-142 -93t-162 -84q-195 -94 -442 -181q2 -27 20 -49 q16 -18 49 -33.5t94 -15.5q43 0 84 8.5t96.5 31t131 61t184.5 100.5q8 4 13 6t10 2q8 0 18 -8t10 -19q0 -14 -26 -28q-20 -14 -67.5 -46t-107 -77t-122 -100.5t-114.5 -118t-86 -132t-34 -141.5q0 -47 14.5 -93t45 -81t76.5 -56.5t112 -21.5q96 0 185 28t170 75t157 107.5 t147 125.5q2 4 9 11q4 4 9 7t13 3q10 0 20.5 -8.5t10.5 -20.5q0 -20 -37 -61t-98.5 -88t-140 -97.5t-161.5 -91.5t-164 -66.5t-147 -25.5q-76 0 -138 14.5t-107 47t-71 83t-26 121.5q0 37 14.5 94.5t49.5 125t92 141t145 145.5q33 27 33 33q0 2 -4 2q-6 0 -22.5 -5 t-34 -12.5t-32.5 -14.5t-22 -9q-6 -2 -25.5 -8t-47 -13.5t-61 -13.5t-68.5 -6q-74 0 -109 47t-45 107q-8 0 -49 -12.5t-102.5 -31t-138.5 -40t-157.5 -40t-160.5 -30.5t-146 -12q-12 4 -37.5 11t-51 16.5t-45 19.5t-19.5 20zM90 958q0 -10 12 -10t25 6q8 2 14 7 q27 8 89.5 34.5t143.5 63.5t167 81t157.5 86t117.5 77.5t46 58.5q0 24 -45 24h-4q-82 0 -168 -27.5t-166 -69.5t-150.5 -92t-123.5 -98t-84 -86t-31 -55z" />
<glyph unicode="F" horiz-adv-x="817" d="M-584 426q0 53 52 72q8 2 47 19.5t97 44t133 58t157 62.5q86 33 175 63.5t167 56t138 44t91 28.5q10 4 23.5 7.5t13.5 36.5q0 16 2 60t5 94t7 93t6 60q0 14 -8 14q-10 0 -57 -15.5t-113.5 -37t-148.5 -48t-165 -48t-159 -37t-133 -15.5q-12 0 -26.5 5.5t-28 16.5 t-22.5 26.5t-9 33.5q0 12 11.5 21.5t39.5 13.5q10 2 66.5 13.5t138.5 30t179.5 41t188.5 45t164.5 43t110.5 36.5q6 0 14 6q14 10 25 31q6 12 40 52t87 84t119.5 79t138.5 35q47 0 63.5 -20.5t16.5 -43.5q0 -57 -107.5 -139t-347.5 -180q-2 2 -8 -34t-13 -90t-12.5 -114.5 t-5.5 -105.5q0 -14 17 -15q6 0 22 6q16 4 61.5 18.5t105 33t125 38t123.5 36t101 26.5t56 10q12 0 20 -15.5t8 -35.5q0 -23 -11 -44t-34 -30q-10 -4 -55 -16t-105.5 -29.5t-128 -36t-126 -34t-98.5 -26.5t-44 -11q-16 -4 -19 -18.5t-3 -30.5q0 -4 3 -36t7 -78t8 -101.5 t8 -108.5t7.5 -100t3.5 -74q0 -33 -7.5 -91.5t-29 -115.5t-61.5 -99t-107 -42q-72 0 -144.5 44t-142.5 96t-133.5 96t-118.5 44q-12 0 -17 -6t-8.5 -14t-8.5 -15.5t-17 -7.5q-33 0 -33 33q0 10 5 31.5t17.5 43t34 37t56.5 15.5q63 0 131.5 -45t139.5 -98.5t140.5 -98.5 t135.5 -45q16 0 34.5 6.5t34 26t25.5 55t10 95.5q0 70 -5 159.5t-11 171.5t-11.5 140.5t-7.5 64.5q-4 10 -5 20.5t-13 10.5q-4 0 -17 -4q-6 -2 -50 -16.5t-111.5 -36t-152.5 -51t-173 -62.5q-117 -43 -213 -84t-168 -71.5t-116 -50t-54 -19.5q-16 0 -24.5 12t-8.5 45z M680 1413q0 -12 6 -12q18 0 68.5 22.5t103.5 51t95 58.5t42 44l-4 8l-7 7t-13 3q-41 0 -91.5 -25.5t-95.5 -58t-74.5 -61.5t-29.5 -37z" />
<glyph unicode="G" d="M-449 641q0 12 8.5 17.5t14.5 5.5t10 -3.5t8 -3.5q25 0 73 9.5t103.5 24t107.5 30.5t85 31q31 92 96.5 186t150.5 181t183 162t197.5 131t194 88t167.5 32q59 0 96 -16.5t58 -36.5q23 -23 31 -54q-2 -55 -51.5 -124.5t-130.5 -144.5t-187.5 -149.5t-220 -140t-229 -117 t-214.5 -77.5q-4 -2 -14 -3t-10 -16l9 -21q9 -22 32.5 -47.5t65.5 -47t108 -21.5q57 0 125.5 24.5t136.5 61.5t131.5 81t111.5 81t75.5 61.5t25.5 24.5q10 0 23.5 -10.5t13.5 -20.5q0 -12 -11.5 -22.5t-15.5 -18.5q-20 -49 -35.5 -128t-26.5 -171t-16.5 -188t-5.5 -178 q0 -156 -7 -269.5t-27.5 -188.5t-54.5 -112t-89 -37q-51 0 -103 37t-104.5 92.5t-103.5 120t-100.5 119.5t-94.5 92t-84 37q-43 0 -43 -59q0 -4 -4 -12.5t-14 -8.5q-12 0 -22.5 15.5t-10.5 42.5q0 14 8.5 34.5t23.5 40t39.5 32.5t55.5 13q59 0 113.5 -35.5t103.5 -89 t96.5 -115t92.5 -114.5t91 -89t95 -36q23 0 40 16.5t21 63.5q12 182 16.5 316.5t7.5 241t9 196.5t27 186q2 10 3 18.5t1 12.5q0 10 -6 10q-4 0 -25 -14q-12 -10 -70.5 -48t-139.5 -81t-173 -77t-172 -34q-92 0 -144 29.5t-81 64.5q-33 41 -45 94q-4 0 -8 -2t-13 -6 q-10 -4 -40.5 -13t-71.5 -20.5t-90.5 -19.5t-96.5 -8q-14 0 -28.5 10t-25.5 24.5t-18.5 30t-7.5 27.5zM66 811q0 -16 14 -16q18 0 98 31.5t187.5 83t228.5 119t222.5 139t169 141.5t67.5 129q0 43 -80 43q-96 0 -201.5 -40t-207 -103.5t-191.5 -141.5t-159 -152.5 t-108.5 -137t-39.5 -95.5z" />
<glyph unicode="H" horiz-adv-x="1163" d="M-492 516q0 33 13.5 54.5t32 33.5t39 17.5t36.5 5.5q35 0 68 -14.5t61 -37.5q20 -16 63.5 -56t97.5 -90t113.5 -104.5t116 -99.5t104.5 -73.5t77 -28.5q31 0 40 52t9 124v148.5v89t1 48t3 25.5q0 16 -6 26.5t-12 14.5q-8 6 -17 6q-102 39 -175 91.5t-119 104.5t-68.5 98 t-22.5 73q0 33 26.5 67.5t90.5 34.5q37 0 79 -14t79.5 -32.5t66.5 -36t39 -25.5q16 -10 21 -10q6 0 6 8t2 24q0 57 -2 148.5t-2 183.5q0 84 1 152.5t1 85.5q-2 0 -2 2v6q0 4 7 10t34 10q20 0 25 -4t5 -12q0 -10 -5 -25.5t-5 -27.5v-258v-98.5v-91.5t1 -71.5t1 -39.5 q0 -33 8 -49q4 -8 11 -11q14 -10 56 -45t90 -76t89 -79.5t57 -59.5q14 -18 23 -18q4 0 6 7t2 15q0 4 -1 7.5t-1 7.5v8q-8 88 -12 180t-4 172v95t2 77q2 37 4 70q2 10 4 31.5t8 42t16.5 36t30.5 15.5q14 0 15 -17q0 -31 -9.5 -116.5t-9.5 -196.5q0 -264 9.5 -383t43.5 -121 q10 -2 23 -2q10 -2 25.5 -2h35.5q37 0 86.5 3t104.5 13.5t114.5 27.5t114.5 46q20 12 29 12q12 1 12 -26q0 -23 -31.5 -42.5t-80 -35.5t-105.5 -28.5t-110.5 -20.5t-95.5 -12.5t-56 -4.5q-29 0 -29 -12q0 -10 25.5 -44t64.5 -83t83 -111.5t83 -131t64.5 -138t25.5 -135.5 q0 -59 -31.5 -87t-60.5 -28q-37 0 -74.5 31t-71.5 76t-60.5 96t-43.5 90q-29 74 -50 159t-36.5 156.5t-29 120t-27.5 48.5h-14q-43 0 -97.5 10t-100.5 23.5t-78 23.5t-27 10q-8 0 -9 -6v-307q0 -23 -4 -67t-18 -90t-42 -83t-77 -43q-37 0 -88 27.5t-108.5 71t-116 94.5 t-107.5 99t-86 85t-49 51q-41 43 -89 65.5t-69 24.5q-16 0 -24 -20.5t-29 -20.5h-8q-18 6 -19 31zM61 1036q0 -29 32 -65.5t74 -71.5t83 -62.5t57 -39.5q49 -33 62 -33q8 0 8 12v154q-57 37 -111 67q-47 27 -94 48.5t-78 21.5q-33 0 -33 -31zM434 823q0 -45 4 -61v-17 q0 -8 5.5 -15t21.5 -13q10 -4 40 -16.5t64.5 -27t71.5 -26.5t61 -14q13 0 13 6q0 8 -18.5 28.5t-42 41t-45 39t-29.5 24.5t-28 23.5t-40 36t-39.5 32t-28.5 13.5q-6 0 -8 -15.5t-2 -38.5zM862 449q0 -18 14.5 -68.5t39 -113t56.5 -131t67.5 -126t70.5 -94.5t68 -37q4 0 8 4 t7 8.5t3 14.5q0 23 -20.5 74t-53 112.5t-71.5 127t-76 119.5t-65.5 89t-39.5 35q-8 0 -8 -14z" />
<glyph unicode="I" horiz-adv-x="985" d="M-264 338q0 41 31.5 70.5t76.5 29.5q63 0 119.5 -29.5t109 -74.5t103.5 -97.5t103.5 -97.5t108.5 -74.5t122 -29.5q72 0 120 35.5t77.5 94t45 129.5t21.5 140.5t7 130t3 97.5q0 12 -6 12q-4 0 -7 -2l-9 -6q-4 -2 -20.5 -10.5t-41 -16.5t-56.5 -15.5t-64 -7.5 q-59 0 -106.5 30t-79.5 73t-48 91t-16 85q0 92 18.5 202.5t55 206t91 159t123.5 63.5q51 0 88 -59.5t62 -139.5t40 -161t21 -124q6 -41 8.5 -78.5t2.5 -67.5t2 -47.5t12 -17.5q6 0 25 19q20 23 34.5 46.5t24.5 42.5t16.5 31.5t12.5 12.5q4 0 8 -6q8 -12 8 -41q0 -8 -11 -35 t-29.5 -59.5t-43.5 -63t-51 -49.5q-4 -49 -5 -127t-11.5 -166t-32 -178t-63.5 -162.5t-109.5 -118t-167.5 -45.5q-63 0 -127 30t-123 75t-115.5 96t-104.5 96t-88 75t-69 30q-16 0 -25.5 -8.5t-16.5 -18.5t-13 -18t-17 -8q-6 0 -15 13t-9 44zM434 1036q0 -61 11.5 -120.5 t37 -106.5t66.5 -77t102 -30q29 0 51.5 6.5t40.5 16.5q21 9 39 23q0 49 -3 119.5t-12 147.5t-23.5 152.5t-35 136t-50 97.5t-66.5 37q-29 0 -57.5 -44t-51 -106.5t-36 -131.5t-13.5 -120z" />
<glyph unicode="J" horiz-adv-x="962" d="M-324 164q2 23 9.5 49.5t20.5 49t33.5 36.5t51.5 14q41 0 97.5 -33.5t121 -83t136 -108.5t145.5 -108.5t146.5 -83t140.5 -33.5q31 0 60.5 11t52 39t36.5 73t16 114q4 92 6.5 213t2.5 247t1 251t1 226.5v170t2 86.5v2q0 4 5 24.5t34 20.5h2q18 0 22 -14t4 -24v-1037 q0 -18 -2 -64t-10 -102.5t-27.5 -117t-53.5 -110.5t-87 -83t-129 -33q-82 0 -153.5 28t-136 70t-123 93t-115 99t-111.5 86t-115 54q-16 0 -23 -12t-7 -29q0 -14 -25 -14q-10 0 -19.5 7t-9.5 26zM-172 1106q0 25 18 43q8 8 19 16q12 12 81.5 42t175 69t239 85t275.5 92 t283.5 88t263.5 75t215 52.5t138 19.5q33 0 61.5 -23.5t28.5 -48.5q0 -16 -53 -34.5t-156.5 -46.5t-254 -69t-345.5 -100q-39 -12 -124 -40t-189.5 -62.5t-217 -71.5t-205.5 -67.5t-155.5 -50t-66.5 -19.5q-16 0 -23.5 16t-7.5 35z" />
<glyph unicode="K" d="M-516 547q0 12 10 26.5t26.5 26.5t36 20.5t37.5 8.5q45 0 99.5 -37t113 -92.5t118 -121t113.5 -120.5t102 -92t85 -37q33 0 53.5 33t29.5 77t12.5 88t3.5 68q0 39 -1 126t-1 200q0 129 2 271.5t6 264.5q4 143 10 281q0 16 12.5 30.5t28.5 14.5t20.5 -8t4.5 -37 q0 -6 -1.5 -52t-3.5 -120t-5 -167t-5 -193.5t-3 -203t-1 -192.5v-280q0 -55 -12.5 -108.5t-38 -96.5t-66.5 -69.5t-96 -26.5q-41 0 -97.5 35.5t-116.5 91t-121.5 118t-116 117.5t-98.5 91t-68 36l-39 -4q-10 0 -21.5 9t-11.5 24zM430 842q0 190 53.5 322t132 224.5t172 153 t172 108.5t132 92t53.5 103q0 12 -2 21q0 10 5 20t23 10q20 -4 28.5 -32.5t8.5 -57.5q0 -94 -53 -159.5t-132 -118.5t-171 -103.5t-171 -115t-132 -151.5t-53 -216q0 -72 31.5 -191.5t91 -258t143.5 -279.5t187.5 -256t223 -186.5t252.5 -71.5q70 0 113 20.5t70.5 46t44 46 t28.5 20.5q10 0 18.5 -11.5t8.5 -17.5t-2 -10l-4 -8q-4 -4 -6 -8q-72 -94 -157 -129t-171 -35q-174 0 -310 68.5t-240.5 179t-178.5 248t-120 273.5t-67.5 258t-21.5 202z" />
<glyph unicode="L" horiz-adv-x="862" d="M-348 494q0 94 51 131t129 37q51 0 106.5 -22t110.5 -52.5t106.5 -68.5t91.5 -68.5t66.5 -52t32.5 -21.5q8 0 9 10t1 21v706q0 127 15.5 211t44 133t68.5 68.5t89 19.5q43 0 111 -35.5t132.5 -93t111.5 -129t47 -143.5q0 -43 -11.5 -67.5t-26.5 -36t-31.5 -13.5t-26.5 -2 q-37 0 -67 15.5t-52.5 38t-34.5 48t-14 48.5q0 18 10 18q8 0 21.5 -15.5t32 -33t40 -32.5t47.5 -15q27 0 27 24q0 37 -41 92.5t-99.5 106.5t-121 87t-103.5 36q-37 0 -57.5 -24.5t-29.5 -66.5t-11 -99.5t-2 -123.5v-194.5t-1 -209.5t-2 -206.5t-1 -185.5q0 -23 8 -31 q4 -6 10 -6q43 -31 108.5 -80t144.5 -105.5t167 -112.5t178 -102.5t177 -75t163 -28.5q70 0 107 21.5t49 21.5q10 0 16 -12.5t6 -24.5q0 -4 -2 -13t-16 -17q-100 -43 -170 -53.5t-121 -10.5q-78 0 -164 28.5t-171 72.5t-164.5 97.5t-146.5 103.5t-115 90t-68 59 q-6 6 -13.5 9t-11.5 3q-6 0 -12 -6q-2 -4 -4 -6q-25 -70 -58.5 -109t-71.5 -58.5t-76 -23.5t-67 -4q-35 0 -108.5 38t-150 108.5t-134 168t-57.5 218.5zM-283 481q0 -70 47 -168q23 -47 64 -97t91 -93t106.5 -70.5t109.5 -27.5q57 0 95 29.5t59.5 65.5t30 67.5t8.5 35.5 q-12 6 -45 35t-78 69t-99.5 85t-107.5 82.5t-102.5 63.5t-85.5 26q-47 0 -70 -28t-23 -75z" />
<glyph unicode="M" horiz-adv-x="1366" d="M-197 686q0 14 21 41q41 72 74 133q29 53 51 101.5t24 68.5q2 113 4 203q2 78 5.5 144.5t7.5 76.5q4 16 12 26.5t29 14.5q20 0 50 -6t29 -27q0 -12 -2 -53t-6 -94t-15 -114.5t-30 -117.5q-2 -6 -5 -67.5t-6 -153.5t-7 -199.5t-6 -205t-4 -171t-2 -96.5q4 -27 22 -26 q12 0 30.5 41t46.5 116.5t63.5 180t80.5 233.5q35 98 68 192.5t58.5 170.5t43 125t19.5 55q8 23 28.5 44t44.5 21q25 0 36.5 -15t16.5 -37.5t6 -46t1 -40.5q4 -72 5 -176t3 -221t8 -232.5t18.5 -209t34 -150.5t56.5 -57q16 0 39.5 30.5t53.5 97t64.5 172t75.5 257.5 q31 111 57.5 223.5t47 207.5t33 160.5t14.5 84.5q-2 2 -2 6v16q0 23 10 42.5t51 19.5q6 0 11.5 -6.5t5.5 -26.5q0 -35 -6.5 -71t-13.5 -91t-13 -142t-6 -225q0 -162 24.5 -331.5t71.5 -332.5t116.5 -307.5t161 -254t204 -173t243.5 -63.5q55 0 88 9.5t53.5 21.5t32.5 21.5 t29 9.5q22 -1 22 -19q0 -4 -12 -24.5t-45 -43t-87 -41t-138 -18.5q-145 0 -263 52.5t-210.5 142.5t-159 209.5t-110.5 254t-64.5 275.5t-20.5 274v256q0 14 -6 15q-6 0 -16.5 -21.5t-14.5 -38.5q-4 -18 -22.5 -86.5t-47 -159.5t-64.5 -191.5t-78 -185.5t-88 -140.5 t-91 -55.5q-51 0 -79.5 56.5t-43 145.5t-18.5 197.5t-4 215.5q0 80 1 132t3 88t5 62.5t5 57t3 69.5t1 103q0 41 -3 69.5t-13 30.5q-2 0 -20.5 -50t-48 -132t-66.5 -187.5t-76 -216t-77 -217t-67.5 -192.5t-49 -140.5t-23.5 -60.5q-14 -25 -25.5 -45.5t-34.5 -20.5 q-20 0 -32.5 10.5t-19.5 25t-9 31.5t-2 32v94q0 53 2 126t4 150.5t5 155.5t5 140.5t4 104.5t2 48v16l2 -12v8q0 8 -6 8t-20 -33.5t-32.5 -75.5t-39 -76t-41.5 -34q-8 0 -21.5 9.5t-13.5 25.5z" />
<glyph unicode="N" horiz-adv-x="1216" d="M-416 330q0 12 5 30.5t16.5 36t29 29.5t43.5 12q55 0 107.5 -33.5t105 -83t103.5 -108.5t101 -108.5t101.5 -83t104.5 -33.5q45 0 69.5 42t36 110.5t13.5 155.5t2 177q0 43 -1 107.5t-2 136t-2 145.5t-2 137.5t-2 109.5t-1 62q0 35 2 69t8 61.5t15 44t24 16.5 q18 -4 35.5 -20.5t17.5 -55.5q0 -29 -8 -29q-6 0 -12.5 7.5t-10.5 7.5q-8 0 -8 -17.5t-2 -58.5v-99.5t1 -155.5t3 -182t3 -180t2 -149.5t1 -87.5q0 -61 -6 -138t-28.5 -146.5t-69.5 -116.5t-127 -47q-47 0 -100.5 31.5t-106.5 80.5t-106.5 104.5t-102.5 104.5t-91 81t-75 32 q-14 0 -21 -7.5t-13.5 -16.5t-11.5 -16t-17 -7q-6 0 -13 6q-10 10 -10 43zM518 1122q0 63 13.5 86t17.5 23q8 0 15 -12.5t11 -24.5q96 -293 179 -522q35 -98 68.5 -192.5t62 -167t49 -117.5t29.5 -45q4 0 4 9v38q0 10 -1 58t-1 124q0 90 3 216t20.5 261t52 268t99 238.5 t163 171t241.5 65.5q18 0 49 -5t60.5 -17t51 -35.5t21.5 -60.5q0 -8 -10 -8q-12 0 -35.5 13t-91.5 13q-106 0 -199.5 -54t-165 -149.5t-118.5 -224.5t-62 -280q-6 -61 -9 -142.5t-4 -166.5t-2 -165.5t-1 -142.5q0 -78 -3 -124t-8 -72.5t-12.5 -35t-15.5 -8.5q-33 0 -80 73 t-99 185.5t-104.5 251t-94.5 270.5t-67.5 241.5t-25.5 166.5z" />
<glyph unicode="O" horiz-adv-x="1292" d="M-6 563q0 158 34.5 287t94 230.5t137.5 175t164 120.5t173 70.5t167 23.5q61 0 114.5 -18t92.5 -49t61.5 -69t22.5 -74q0 -29 -7.5 -47.5t-16.5 -32t-16 -21.5t-7 -14q0 -4 2 -8t5 -8.5t11 -8.5q57 -39 93 -94t55.5 -116.5t25.5 -122t6 -109.5q0 -127 -43 -231.5 t-96 -182.5q-61 -90 -137 -164q0 -8 11 -13t26.5 -7t32 -3t28.5 -1q72 0 128 22.5t98 51t68 58.5t36 42l8 10t18.5 22.5t20.5 21.5t14 9q15 -8 15 -18q-29 -70 -76 -124t-105.5 -91t-125 -56.5t-132.5 -19.5q-55 0 -85.5 4t-48 9.5t-25 9.5t-15.5 4q-6 0 -27.5 -13.5 t-56.5 -30t-85 -29.5t-113 -13q-123 0 -224.5 42t-172 121.5t-109.5 194.5t-39 260zM96 668q0 -88 24.5 -198t85 -207t160 -162.5t248.5 -65.5q41 0 67 4t38 10q14 8 20 17q-35 20 -81 65t-87 113.5t-69.5 161t-28.5 206.5q0 45 5 103.5t20.5 120t43 120t74 104.5t113 73.5 t158.5 27.5h18t17 -2q10 14 18 31q6 14 12 32.5t6 41.5q0 18 -7 43.5t-28.5 48t-59.5 38t-99 15.5q-51 0 -121 -14.5t-143.5 -48t-146 -89t-130 -138.5t-92.5 -194.5t-35 -256.5zM555 662q0 -154 45 -259.5t98 -169.5q63 -76 144 -122q80 51 145 131q55 68 101.5 173 t46.5 259q0 102 -22.5 181t-60.5 132t-88.5 81t-105.5 28q-78 0 -135 -35t-94 -94.5t-55.5 -138t-18.5 -166.5z" />
<glyph unicode="P" d="M-238 991q8 143 74 256q27 49 70 95.5t105.5 82t146.5 58t194 22.5q168 0 298 -42t227.5 -107.5t165 -147.5t108.5 -162.5t59.5 -151.5t18.5 -114q0 -76 -24.5 -140.5t-67.5 -110.5t-101.5 -71.5t-128.5 -25.5q-49 0 -96 15.5t-100 37.5q-18 0 -15 -43q2 -25 4 -51 q2 -23 3.5 -54.5t1.5 -64.5q0 -47 -7.5 -106.5t-28 -112.5t-59.5 -90t-102 -37q-41 0 -90 25.5t-98.5 64.5t-96.5 85t-88 85t-71.5 64.5t-47.5 25.5q-16 0 -25 -12t-9 -28q0 -27 -17 -27q-10 0 -20.5 27.5t-10.5 64.5q0 31 17.5 60.5t75.5 29.5q39 0 78.5 -26.5t80.5 -65.5 t83 -86t85 -86t89 -65.5t94 -26.5q14 0 33.5 10t37 31.5t28.5 51.5t11 71q0 27 -1 72.5t-3 92t-3 84t-1 48.5q0 20 -11.5 40.5t-45.5 55.5q-23 20 -60 60t-73.5 90.5t-63.5 105.5t-27 108q0 37 15.5 56.5t40.5 19.5q18 0 46.5 -15.5t55.5 -42t45.5 -63.5t18.5 -80 q0 -10 -5 -10q-4 0 -20 22.5t-36.5 49.5t-43 49.5t-39.5 22.5q-10 -4 -10 -19q0 -27 14.5 -64.5t36.5 -70.5q14 -27 38 -59.5t48.5 -61t42 -48t19.5 -19.5q6 0 6 18q0 49 -1 115.5t-1 138.5q0 63 2 125.5t8 112t19.5 79t37.5 29.5q12 0 13 -22q0 -14 -1 -62.5t-4.5 -114 t-5.5 -140.5t-5 -141.5t-4 -117.5t-1 -70q0 -4 18.5 -18t49 -29.5t69.5 -28t82 -12.5q27 0 66 7.5t74.5 33t60.5 74.5t25 131q0 70 -29 148.5t-82 156.5t-128 149.5t-167 127t-198.5 88.5t-223.5 33q-72 0 -153.5 -20.5t-150.5 -73t-115 -139.5t-46 -222q0 -68 17.5 -156 t74.5 -180q6 -10 16.5 -23.5t10.5 -27.5q0 -4 -7 -19.5t-26 -15.5q-25 0 -31 15.5t-28 52.5q-10 20 -28.5 58t-35 86t-29 105.5t-12.5 116.5z" />
<glyph unicode="Q" horiz-adv-x="1095" d="M-262 346q0 37 26.5 66.5t59.5 52t59.5 39t26.5 24.5q0 14 -2 16.5t-4 11.5t-4 34.5t-2 87.5q0 141 34.5 258t91 208t128 157.5t146.5 109.5t145.5 64.5t125.5 21.5q12 0 23.5 -6t11.5 -16q0 -20 -20.5 -22.5t-36.5 -6.5q-78 -18 -173 -62.5t-178 -128.5t-139.5 -217 t-56.5 -331q0 -20 1 -47t4 -49.5t11.5 -39t22.5 -16.5q10 0 22.5 2t42.5 2q106 0 192.5 -32.5t151 -81t111.5 -104.5t79 -104.5t48 -81t23 -32.5q35 0 101.5 49t133 138t115.5 213t49 274q0 61 -18.5 146t-64.5 164t-125 134t-198 55q-53 0 -120.5 -23.5t-143.5 -96.5 q-10 -10 -20 -20.5t-21 -10.5q-16 0 -16 24q0 25 10 35q8 8 34 35t68 55.5t101 51t137 22.5q121 0 205 -44t137 -119t78 -175t25 -211q0 -131 -30 -238.5t-74 -191.5t-97 -145.5t-102.5 -101.5t-86 -59.5t-47.5 -19.5l45 -63q59 -84 135 -187.5t166.5 -193.5t191.5 -151.5 t212 -61.5q61 0 102 15.5t70 33t46 32.5t30 15q18 0 26 -16q4 -8 6 -16q0 -20 -28.5 -45t-75.5 -45.5t-108.5 -35t-126.5 -14.5q-78 0 -144.5 16.5t-128 52.5t-123 90t-129.5 130q-43 47 -86 101.5t-80 106.5t-66.5 98t-43.5 79q-4 6 -6 11t-13 5q-10 0 -27.5 -6t-78.5 -6 q-113 0 -199 33t-149.5 81t-106.5 104.5t-69.5 104.5t-41 80.5t-18.5 32.5t-18.5 -6t-34 -19t-42 -33.5t-42.5 -49.5q0 -4 -9.5 -13.5t-13.5 -9.5t-13 8.5t-9 24.5zM43 483q47 -111 115 -194q29 -37 65.5 -71t80.5 -61.5t96.5 -44t113.5 -16.5q16 0 35.5 3.5t19.5 11.5 q0 -2 -14 19.5t-44 61t-72 95t-95 119.5q-53 63 -119.5 81.5t-115.5 18.5q-45 0 -55.5 -4t-10.5 -19z" />
<glyph unicode="R" horiz-adv-x="1251" d="M-297 967q0 74 21.5 168t88 176t187.5 138t322 56q66 0 154.5 -21.5t183 -61.5t186.5 -100t164.5 -138t116.5 -173.5t44 -205.5q0 -92 -46 -154.5t-101 -101.5q-66 -45 -145 -72q20 -35 73.5 -124t129 -201.5t171 -234.5t199.5 -222.5t212 -166t212 -65.5q31 0 55.5 7.5 t43 15.5t33.5 15t28 7q12 0 22 -4t10 -14q0 -14 -20 -34.5t-55 -39t-82 -31t-99 -12.5q-135 0 -247.5 51.5t-208.5 137.5t-177 198.5t-153 237.5t-137.5 252t-130.5 242q-35 12 -64 22q-25 10 -48 21.5t-32 23.5q-2 -94 -4 -176q-2 -70 -4 -134.5t-6 -86.5q-2 -18 -10 -57 t-28.5 -79t-55.5 -70t-92 -30q-59 0 -113.5 31t-102.5 76t-92.5 99t-81 99t-67.5 76t-55 31q-14 0 -21.5 -17.5t-7.5 -46.5q0 -23 -18 -22q-12 0 -24.5 26.5t-12.5 71.5q0 14 4 32.5t13 34t26.5 27t42.5 11.5q47 0 91 -32t88 -79t87 -102.5t87 -102.5t88 -78.5t89 -31.5 q12 0 28.5 2t32 14t26.5 38t16 75q2 53 5 119.5t4 130t3 113.5t2 69l-4 12q-4 4 -7 10t-12 13q-10 8 -43.5 44t-69.5 86t-63.5 108.5t-27.5 111.5q0 31 14 55.5t61 24.5q18 0 38 -10.5t40.5 -23.5t37.5 -28.5t34 -27.5q4 -2 6 27.5t3 68.5t3 77t6 54q2 4 12.5 11t20.5 7 q16 0 23 -22q0 -8 -2.5 -51t-4.5 -91.5t-4 -89.5t-2 -47q0 -10 5.5 -21t11.5 -24q4 -6 30.5 -45t61.5 -90t70.5 -104.5t58.5 -85.5q10 0 46 8t76 31.5t70.5 66.5t30.5 113q0 135 -68.5 258t-183 216t-264 148.5t-309.5 55.5q-27 0 -72 -4.5t-98 -17.5t-107.5 -40.5 t-98.5 -76t-71.5 -118t-27.5 -169.5q0 -27 6 -75t19.5 -103.5t32.5 -108.5t46 -86q4 -8 8 -16.5t4 -18.5q0 -20 -28 -22q-35 8 -63.5 49t-49 97t-32 120.5t-11.5 120.5zM403 952q0 -18 18.5 -61t42 -86t46 -77t33.5 -34q4 0 5 7.5t1 17.5q0 8 -1 31.5t-1 50.5v65 q-8 12 -24.5 32t-35 39t-36 32.5t-29.5 13.5q-18 0 -19 -31zM610 731l2 -74q0 -16 12.5 -31.5t28 -26.5t29.5 -18.5t23 -7.5q6 1 6 7q0 10 -13.5 36.5t-30 55t-31.5 51t-18 22.5q-6 0 -8 -14z" />
<glyph unicode="S" d="M-86 555q0 35 17.5 55.5t33.5 20.5q6 0 33 -22.5t56.5 -53.5t54 -62.5t24.5 -48.5q0 -12 -9 -18t-22 -6q-8 0 -18 5t-14 5t-4 -8q37 -76 103.5 -158t149 -149.5t175 -111.5t180.5 -44q47 0 77.5 14.5t49 37t26 49t7.5 51.5q0 100 -58.5 199.5t-146.5 199.5t-190.5 200.5 t-190.5 203t-146.5 205t-58.5 206.5q0 76 35 129t84 87t101 50.5t87 16.5q135 0 263 -62.5t228.5 -156t161 -201t60.5 -195.5q0 -66 -28.5 -93.5t-65.5 -27.5q-39 0 -76 31t-65.5 71t-49 80t-26.5 56q-14 39 -21 39q-6 0 -9 -11.5t-17 -11.5q-10 0 -17.5 10.5t-7.5 20.5 t6 17q18 27 30.5 61.5t18.5 62.5q8 35 10 70q-55 41 -103 75t-94 57.5t-93 35.5t-103 12q-53 0 -91 -15t-60.5 -41t-32.5 -58.5t-10 -65.5q0 -84 57 -177t143 -190.5t186.5 -200t186.5 -204.5t143.5 -204.5t57.5 -198.5q0 -55 -14.5 -111.5t-48 -102t-88 -74t-132.5 -28.5 q-111 0 -209 41t-179 105.5t-145.5 143.5t-109.5 153.5t-68.5 138t-23.5 96.5zM799 1298q0 -43 18.5 -97t46 -101t57 -79t54.5 -32q14 1 14 21q0 27 -23.5 77t-55 100t-61.5 87t-42 37q-8 0 -8 -13z" />
<glyph unicode="T" d="M-219 1151q0 14 6 23.5t27 9.5q8 0 12 -2t31 -2q33 0 94 3t140 8t169 13t177 19.5t166 26t136 30.5q37 88 105 156q57 59 149 107t228 48q29 -4 57.5 -32.5t28.5 -67.5q0 -31 -22.5 -59.5t-59.5 -54t-83 -50t-95 -45.5q-113 -49 -259 -92q-6 -2 -13 -29.5t-13 -70.5 t-10 -97.5t-4 -107.5q0 -33 2 -90.5t5 -124t7 -136t7 -128t6 -98.5t3 -46q2 -16 2 -27.5t17 -11.5q14 0 66 15.5t111.5 34t109 36t55.5 21.5q14 10 30 10q27 0 27 -35q0 -10 -8 -21.5t-31 -19.5l-350 -112q-16 -4 -20.5 -11.5t-4.5 -23.5q0 -12 -3 -57.5t-21.5 -92.5 t-57 -85t-110.5 -38q-55 0 -113.5 32t-108 70t-82 69.5t-38.5 31.5q-29 0 -59.5 -4t-71.5 -4q-47 0 -105.5 12t-108.5 36t-84 58.5t-34 77.5q0 55 44 92t105 37q55 0 121 -29.5t126.5 -67.5t106.5 -74t62 -50q10 0 39 4t64.5 10.5t76.5 13.5t76 14t59.5 13.5t30.5 8.5 q12 4 13 36v17q0 6 -2 46t-5.5 99.5t-7.5 129t-7 137t-5 124t-2 86.5q0 37 3 82t6 85t6 70t5 36q0 4 1 6t1 4q0 6 -8 6q-10 0 -69.5 -15.5t-154.5 -34.5t-217 -34.5t-257 -15.5q-72 0 -146 6q-35 2 -52 14.5t-17 71.5zM-139 199q0 -18 28.5 -33.5t69.5 -28t85 -18.5t75 -6 q18 0 30.5 2t12.5 8q0 12 -30 33.5t-71 41t-81.5 34t-61.5 14.5q-29 0 -43 -13.5t-14 -33.5zM436 63q0 -6 2 -8t4 -2l22 -15q21 -15 52 -31.5t62.5 -31t54.5 -14.5q20 2 37 19q14 14 25.5 43.5t11.5 82.5q0 18 -13 19l-245 -47q-12 -6 -13 -15zM836 1315q0 -6 8 -6 q104 33 186 65q35 14 69 29.5t60.5 31t43 31t16.5 29.5q0 20 -45 21q-82 0 -144.5 -32t-105.5 -69q-51 -45 -88 -100z" />
<glyph unicode="U" horiz-adv-x="1239" d="M-117 713q0 16 11 32q10 14 34.5 49t51 77t49 84t28.5 71q12 57 21.5 114.5t22 103.5t29.5 76t46 30q33 0 41 -8.5t8 -18.5q0 -2 -3 -32.5t-12 -75t-26.5 -93.5t-44.5 -90q-8 -61 -12 -138t-4 -161q0 -117 10 -236.5t32.5 -215t59.5 -155.5t92 -60q47 0 100.5 61 t107 157.5t105.5 217.5t97 239.5t80 223t57 170.5q2 14 7.5 25t27.5 11q12 0 22.5 -2t10.5 -18q0 -18 -8 -59q-2 -23 -6.5 -78.5t-9.5 -122t-8 -132t-3 -106.5q0 -96 15.5 -205.5t48 -202.5t83 -155.5t117.5 -62.5q14 0 22.5 -6t8.5 -35q0 -18 -6 -35t-37 -17 q-86 0 -147.5 41t-100.5 134.5t-57.5 248t-18.5 381.5q0 12 -10 13h-2q-10 0 -12 -14.5t-10 -32.5q-4 -12 -29 -74t-64 -147t-89 -181t-107.5 -177t-117.5 -134t-118 -53q-72 0 -119 58t-75.5 146t-41 193.5t-12.5 200.5q0 41 3.5 86t8.5 85t8 67.5t3 33.5q0 14 -10 14 t-23.5 -22.5t-29 -49t-33 -49t-35.5 -22.5q-27 0 -27 33z" />
<glyph unicode="V" horiz-adv-x="811" d="M-236 1419q0 29 16.5 43.5t57.5 14.5q88 0 153.5 -34t113 -89.5t79 -127t52 -146t30.5 -149.5t19 -134q6 -51 16 -118t20.5 -136.5t21.5 -134t22 -111.5q10 -53 28.5 -115.5t40 -116t44 -90t40.5 -36.5q8 0 8 16t-4 36.5t-6 31.5q-8 66 -12 127t-4 122q0 205 43 391.5 t116.5 344t173 285.5t214 218.5t236.5 138.5t243 48q45 0 75.5 -15.5t30.5 -54.5q0 -16 -16.5 -24.5t-32.5 -8.5q-158 0 -295 -68.5t-248.5 -182t-198.5 -258t-147.5 -298t-91.5 -302t-31 -269.5q0 -96 4.5 -154.5t9.5 -95.5t9 -59.5t4 -44.5q0 -25 -8 -40.5t-18.5 -22.5 t-21.5 -9t-20 -2q-55 0 -97 43t-73.5 114.5t-54 162t-37.5 186.5q-35 221 -41 506q-16 156 -67 280q-23 51 -53.5 102.5t-75.5 90.5t-102.5 63.5t-131.5 24.5q-23 0 -28 16.5t-5 40.5z" />
<glyph unicode="W" horiz-adv-x="1239" d="M-289 702q0 8 2 15l97 215q4 8 6 49t6 96.5t11 119t19.5 116.5t32 88t47.5 35h13q12 -2 21 -10.5t8 -39.5q0 -16 -2.5 -55t-10.5 -92t-24.5 -115.5t-40.5 -126.5q-4 -4 -5 -69q0 -20 3.5 -88t12.5 -156t25.5 -185.5t43 -178t65.5 -134t92 -53.5q23 0 44.5 33t40 84 t32.5 114.5t24.5 126t15.5 115.5t5 84q0 35 5 50.5t26 15.5q6 0 12 -8.5t18 -40.5q14 -39 40 -102.5t64 -137.5t85 -149.5t105.5 -136t126 -99.5t145.5 -39q33 0 65.5 12.5t60 41t48 78.5t30.5 124q0 137 -38.5 279.5t-109.5 274.5t-169 250t-217 206q-12 10 -16.5 16 t-4.5 14q0 14 6.5 32t15.5 33t19.5 26.5t18.5 11.5q23 0 51 -23q12 -10 58 -43t101.5 -69.5t106.5 -68.5t70 -38q31 -16 31 -39q0 -18 -26 -39.5t-48 -21.5q-8 0 -19.5 4t-22.5 10t-21.5 10t-16.5 4t-6 -6q0 -8 16 -30q4 -4 26.5 -35t53.5 -82t66.5 -119t65.5 -147.5 t49.5 -166.5t19.5 -177q0 -47 -10.5 -120t-45 -143.5t-99 -121t-171.5 -50.5q-84 0 -163 47.5t-144.5 125t-116.5 176t-80 200.5q-8 23 -14 23q-2 0 -9 -9.5t-7 -31.5q-4 -20 -11.5 -63.5t-20.5 -95.5t-32.5 -108.5t-45.5 -102.5t-59.5 -75.5t-74.5 -29.5q-68 0 -113 59 t-74.5 148.5t-45 192.5t-23.5 192.5t-12 148.5t-11 59q-4 0 -11 -16t-16 -36.5t-18.5 -37t-17.5 -16.5q-29 6 -29 22z" />
<glyph unicode="X" d="M49 1509q4 29 14.5 35t18.5 6q51 0 99 -27.5t92 -73.5t83 -104.5t74 -119.5q80 -143 145 -324q4 0 12.5 9.5t22.5 33.5q10 18 36 63.5t59.5 100.5t69.5 116.5t66.5 113t52 86t26.5 40.5q8 12 15 20.5t17 8.5t24.5 -9t14.5 -20q0 -20 -27.5 -72.5t-69.5 -120t-91 -143 t-91 -144.5t-70 -122t-28 -76q115 -379 273 -675q68 -127 149.5 -248t179 -216.5t209 -152.5t238.5 -57q49 0 84 8t59.5 19.5t43 19.5t34.5 8q14 0 26.5 -6t12.5 -16q0 -12 -16 -21q-10 -6 -38 -20.5t-70 -28.5t-96 -25.5t-118 -11.5q-135 0 -250.5 55.5t-213 146.5 t-177.5 207.5t-141 237.5q-145 285 -244 647q-2 8 -10 9q-12 0 -25 -29l-21.5 -43t-43 -83t-54 -102.5t-54 -102.5t-43 -82t-21.5 -42q-10 -20 -21.5 -44.5t-29.5 -24.5q-23 0 -37.5 19.5t-14.5 27.5q0 6 5.5 14t11.5 25q4 10 28.5 56t58.5 107.5t71.5 131t70.5 129 t54.5 99.5t23.5 42q2 4 2 16q0 41 -18.5 105.5t-49 138.5t-72.5 149.5t-88 140t-94.5 109.5t-93.5 58q-16 0 -30.5 3t-14.5 25z" />
<glyph unicode="Y" horiz-adv-x="1083" d="M-10 782q0 10 12 23q45 70 82 125q31 47 57.5 89t28.5 50q2 111 18 199q6 37 16.5 73.5t24 64.5t33 45t43.5 17q25 -4 32 -17t7 -32q0 -23 -7 -56.5t-19.5 -73.5t-29 -84t-34.5 -85q-2 -27 -3 -55.5t-1 -63.5q0 -78 5 -165.5t16.5 -176t28.5 -170t42 -144t57.5 -99.5 t73.5 -37t92 61.5t105.5 155.5t106.5 208t93 219t66 189t25 119q2 0 2 17.5t1 38t6 38t17 17.5q16 0 24.5 -59.5t8.5 -174.5q0 -57 -3 -111.5t-11 -95.5q-4 -25 -9.5 -88t-8.5 -151t-7 -191.5t-7 -208t-5 -204t-4 -178t-3 -129t-1 -56.5t-2.5 -36.5t-8.5 -71.5t-19 -87 t-37 -85t-59.5 -64.5t-86.5 -25.5q-59 0 -112.5 32.5t-101 80.5t-89.5 104.5t-78.5 104.5t-69.5 81t-61 33q-16 0 -24.5 -17.5t-21.5 -17.5q2 0 -17 8t-19 29q0 12 10 27.5t28.5 29.5t43 24.5t53.5 10.5q45 0 88 -30.5t85 -77t83 -100.5t82 -100t81 -77t78 -31q43 0 68 43 t36 101.5t14 119t3 95.5q0 174 4 344t10.5 318.5t13.5 263t13 177.5q0 18 -6 19q-8 0 -22 -35q-10 -27 -34 -91.5t-59.5 -145t-83 -166.5t-101.5 -159t-114.5 -119t-126.5 -46q-55 0 -96 41t-68.5 104.5t-45 142.5t-26.5 153.5t-12 138t-3 96.5q0 59 3 96t3 47q0 25 -4 25 t-16.5 -20.5t-28 -48t-32 -54.5t-24.5 -37q-6 -6 -14 -13t-19 -7q-10 0 -19 11t-9 19z" />
<glyph unicode="Z" d="M-147 1165q0 14 32 23q238 55 428.5 106.5t329.5 91t226 64.5t118 25q49 0 85 -20.5t36 -53.5q0 -25 -31 -74q-10 -16 -66.5 -80.5t-140.5 -156.5l-761 -848q-12 -16 -13 -23q0 -6 10 -6q14 0 44 9t92 9q68 0 169 -21.5t230 -80.5q72 -35 168 -85t205.5 -98t224.5 -82 t225 -34q70 0 134.5 16.5t123.5 57.5q8 4 17.5 8t19.5 4q23 0 23 -18q0 -29 -53 -60q-10 -6 -38 -20.5t-71 -27.5t-101.5 -24.5t-134.5 -11.5q-129 0 -249.5 30t-232 76t-213 98t-191.5 98t-167 76t-141 30q-47 0 -105 -14.5t-112 -59.5q-10 -10 -21 -20.5t-22 -10.5 q-8 0 -17 8.5t-9 24.5q0 8 19.5 34t84 96.5t185 203.5t321.5 356q94 104 182 202.5t158 176.5t113 127t47 55q12 18 12 25q0 4 -6 4q-10 0 -88 -22.5t-189.5 -57.5t-242.5 -74.5t-250 -74.5t-210 -57.5t-124 -22.5q-10 0 -21.5 12t-20.5 29.5t-15 35t-6 27.5z" />
<glyph unicode="[" horiz-adv-x="481" d="M74 -100q2 176 4 342t4 311t2 263v198q0 158 -2 245t-3 131t-3 57t-2 23q2 20 14 29q6 4 10 6h201q14 0 23 -20q4 -8 4 -19q0 -12 -5.5 -19t-9.5 -11q-6 -6 -12 -6h-143v-1496h143q14 0 23 -20q4 -8 4 -18q0 -12 -5.5 -19.5t-9.5 -11.5q-6 -6 -12 -6h-201q-6 0 -12 6 q-4 4 -8 11t-4 24z" />
<glyph unicode="\" horiz-adv-x="468" d="M51 1454q0 2 4 7t23 5h12q23 -6 33 -16q6 -6 8 -12l332 -1895q-2 -4 -8 -10t-25 -6h-6q-25 6 -35 16q-6 6 -8 13z" />
<glyph unicode="]" horiz-adv-x="450" d="M127 -102q0 12 4 19t8 11q6 4 15 6h143v1496h-143q-14 0 -23 18q-4 8 -4 20t4 19.5t8 11.5q6 4 15 6h200q6 0 13 -6q12 -12 12 -35q-4 -176 -5 -342t-3 -311t-2 -263v-198q0 -158 2 -245t3 -131t3 -57t2 -23q-2 -23 -14 -31q-6 -4 -11 -4h-200q-14 0 -23 18q-4 8 -4 21z " />
<glyph unicode="^" horiz-adv-x="612" d="M47 645q18 25 48 73t67 99t80 91t88 46h18q35 0 69 -44t61.5 -102t47 -115.5t25.5 -84.5q-6 -25 -21 -24h-2q-10 2 -26.5 30.5t-41 65.5t-56 69.5t-74.5 45.5q-43 -2 -88 -30t-83 -60.5t-65.5 -59.5t-36.5 -27q-10 0 -10 27z" />
<glyph unicode="_" horiz-adv-x="579" d="M0 8q2 20 14 29q6 4 11 6h528q14 0 22 -20q5 -9 5 -19q0 -12 -5.5 -19.5t-9.5 -11.5q-6 -6 -12 -6h-528q-6 0 -13 6q-4 4 -8 11.5t-4 23.5z" />
<glyph unicode="`" d="M365 836q0 14 12 26t29 12q43 0 89 -26.5t89 -63t78 -75.5t51 -64q0 -18 -8 -18t-40 21.5t-74 47t-89 48t-86 24.5q-18 0 -34.5 19.5t-16.5 48.5z" />
<glyph unicode="a" horiz-adv-x="950" d="M20 113q0 61 44.5 139t115 146.5t161.5 115.5t185 47q43 0 83 -20.5t40 -67.5q0 -41 -26.5 -83t-69.5 -82t-96.5 -75.5t-104.5 -65.5t-96 -51.5t-72 -29.5q-12 -4 -12 -12t11.5 -15.5t27.5 -7.5q10 0 16 2q16 4 47 14.5t69 31t80 51t81 77.5q18 23 32.5 32t24.5 9 q12 0 18.5 -9t10.5 -20.5t5 -21.5t1 -12q0 -6 6 -34t21.5 -57.5t42 -54t67.5 -24.5q45 0 100.5 35.5t107.5 87t96 106.5t69 92q6 18 22 19q14 0 27 -10q12 -11 12 -19q0 -4 -3 -9t-7 -11q-4 -8 -8 -15q-80 -104 -144.5 -174.5t-121 -112.5t-108.5 -60.5t-107 -18.5 q-37 0 -66 17.5t-47 45t-28.5 61t-10.5 64.5v12q0 10 -8 11q-4 0 -6 -6q-6 -10 -39 -40t-80 -62t-103.5 -57.5t-107.5 -25.5q-57 0 -88 16.5t-45 40t-16.5 48t-2.5 43.5zM129 154q0 -23 12 -23q6 0 39 14.5t78 37t96.5 54t95.5 64.5t72.5 67.5t28.5 65.5q0 29 -16.5 44.5 t-71.5 15.5q-43 0 -100.5 -32t-109.5 -81t-88 -109.5t-36 -117.5z" />
<glyph unicode="b" horiz-adv-x="878" d="M131 383q0 80 6 185.5t20.5 215t36 216t52 190.5t68.5 135t87 51q8 0 23.5 -3t31 -13t26 -32.5t10.5 -61.5q0 -135 -25 -255t-61.5 -222.5t-79.5 -184.5t-80 -141q0 -8 3 -43t9 -82t17.5 -99.5t31 -97.5t47 -73.5t66.5 -28.5q4 0 21.5 7t37 27.5t34.5 57.5t15 98 q0 10 -31.5 30t-69.5 52.5t-69.5 78.5t-31.5 112q0 37 24.5 53t52.5 16q27 0 51.5 -15t44 -37.5t33 -46t19.5 -40.5q12 -29 17 -52.5t10.5 -43t15.5 -33.5t31 -22q20 -10 60 -27.5t122 -17.5q68 0 109.5 17t66.5 38.5t34 40t13 20.5q8 23 21 23q14 0 26 -10t13 -19l-19 -35 q-53 -80 -125 -112.5t-137 -32.5q-29 0 -63.5 6t-67.5 13.5t-56.5 14.5t-29.5 11q-4 0 -7 -6t-5 -27q-2 -12 -12.5 -54t-32 -88t-55.5 -82t-83 -36q-51 0 -99 36t-85 99.5t-59.5 147.5t-22.5 182zM233 625q0 -14 2.5 -25.5t6.5 -11.5q14 0 40.5 58.5t52 147.5t44 195.5 t18.5 200.5q0 57 -8 76.5t-18 19.5q-18 0 -37 -39t-34 -98t-27.5 -132t-20.5 -142.5t-13.5 -127t-5.5 -83.5q-1 -12 -1 -21.5t1 -17.5zM410 494q0 -12 11 -34t25.5 -43.5t28.5 -36.5t23 -15q8 0 8 10q0 12 -8.5 34.5t-20.5 44t-27.5 38t-29.5 16.5q-10 0 -10 -14z" />
<glyph unicode="c" horiz-adv-x="684" d="M123 225q0 106 46 182t108.5 125.5t124 72t92.5 22.5q66 0 92 -32t26 -60q0 -29 -10 -52.5t-23.5 -42t-28.5 -31t-28 -20.5q-4 -4 -13 -15.5t-22.5 -23.5t-32 -22.5t-42.5 -10.5q-37 0 -58 11q-10 6 -18 12q-10 8 -10 22t11 34t24.5 36.5t26.5 27.5t20 11q12 0 17 -8 t10 -17.5t13.5 -17.5t26.5 -8q20 0 32.5 21.5t12.5 45.5q0 29 -17.5 50.5t-51.5 21.5q-45 0 -86 -23.5t-73 -64.5t-51.5 -95t-19.5 -114q0 -37 7.5 -77t31 -73.5t65.5 -55t113 -21.5q49 0 111.5 41t121 98t107.5 115.5t74 95.5q6 18 22 18q14 0 27 -10q12 -10 12 -18 q0 -4 -3 -9.5t-7 -11.5q-4 -8 -8 -14q-160 -209 -286 -304t-244 -95q-63 0 -109.5 24.5t-75 64.5t-43 91t-14.5 104z" />
<glyph unicode="d" horiz-adv-x="792" d="M121 186q0 117 48 185.5t109.5 104.5t120 47.5t76.5 11.5q86 0 120 -48.5t35 -117.5q0 -25 -13 -32t-21 -7q-12 0 -16.5 20.5t-15.5 45t-37.5 45t-88.5 20.5q-68 0 -109.5 -29t-63 -66.5t-29 -78.5t-7.5 -66q0 -55 18.5 -89t43 -52.5t51.5 -24.5t43 -6q53 0 96 26.5 t75 69.5t54.5 96.5t38 107.5t21.5 103.5t6 84.5q0 23 -1 44t-3 37q-2 18 -2 33q-86 37 -151.5 88.5t-112 105.5t-76 102t-45.5 79q-41 74 -48.5 145.5t-7.5 122.5q0 43 34 65.5t73 22.5q45 0 102.5 -48t112.5 -134t101 -202.5t69 -254.5q31 -23 66.5 -37t71.5 -23t67.5 -13 t54.5 -4q39 0 62.5 4t38 10t21.5 10t13 4q16 0 28.5 -14.5t12.5 -24.5q0 -16 -26.5 -27.5t-61.5 -19.5t-71.5 -11t-55.5 -3q-84 0 -129 14.5t-55 14.5q-18 0 -19 -27q0 -111 -23.5 -224.5t-72.5 -206.5t-124 -151.5t-177 -58.5q-43 0 -83 14.5t-70.5 44t-49 72.5t-18.5 100z M319 1276q0 -66 41 -147.5t95.5 -153.5t106 -120t71.5 -48q-8 33 -19 70q-10 33 -23 72.5t-32 86.5q-33 80 -69.5 132.5t-69.5 82t-55.5 41t-24.5 11.5q-14 0 -18 -15q-2 -6 -3 -12z" />
<glyph unicode="e" horiz-adv-x="446" d="M-102 240q0 47 21.5 105t58 109.5t85 86t99.5 34.5q53 0 85 -28.5t32 -67.5q0 -57 -39 -122.5t-86 -123.5q-53 -68 -123 -133q6 -18 24 -32q16 -12 47 -22.5t84 -10.5q74 0 137.5 35.5t116 87t91 106.5t63.5 92q6 18 22 19q14 0 27 -10q12 -11 12 -19q0 -4 -3 -9t-7 -11 q-4 -8 -8 -15q-80 -104 -144.5 -174.5t-121 -112.5t-108.5 -60.5t-107 -18.5q-86 0 -136.5 26.5t-78 68.5t-35.5 94t-8 106zM-18 198q2 -14 4 -24t6 -16q49 41 88 90q33 41 60.5 94.5t27.5 110.5q0 27 -16.5 36t-28.5 9q-39 0 -65.5 -35t-44 -80t-24.5 -88t-7 -57 q-1 -12 -1 -22.5t1 -17.5z" />
<glyph unicode="f" horiz-adv-x="550" d="M-526 -438q2 14 12 34.5t29.5 42t47 38t66.5 22.5q37 0 72 -28.5t67.5 -69.5t64.5 -90.5t63.5 -90.5t63.5 -68.5t67 -27.5t57 42t35.5 105.5t20.5 139.5t9.5 144.5t2.5 120.5t2 69q0 6 -34 10t-76 11t-76 18.5t-34 31.5t11.5 42t23.5 22l17 -6q16 -6 43.5 -12.5 t59.5 -12.5t63 -6q18 401 18 768q0 92 5 195.5t22.5 191.5t52.5 145.5t94 57.5q31 0 54.5 -34t23.5 -120q0 -59 -10.5 -142t-33 -172t-56 -175t-82.5 -150q-2 -2 -3 -41t-2.5 -96t-1.5 -122.5t-1 -124t-2 -100.5t-1 -48q-2 -8 -2 -23q0 -16 13.5 -20t58.5 -4q51 0 130 12 t161 49q12 16 35 16q10 0 19 -9t9 -19q0 -23 -57 -49q-6 -2 -38 -13.5t-80 -23.5t-106.5 -22.5t-117.5 -10.5q-12 0 -20.5 -6t-8.5 -31q0 -53 -2 -127t-9 -153.5t-20.5 -157.5t-36 -140.5t-56 -101.5t-81.5 -39q-47 0 -85.5 29t-73.5 72t-69 93t-67.5 93t-69.5 71.5 t-79 28.5q-25 0 -31 -12t-8 -25.5t-6 -25.5t-23 -12q-14 0 -24 15t-10 32zM242 881q0 -45 3 -74t9 -29q10 0 19.5 23.5t18.5 58.5t16 78t12.5 82t8.5 69.5t3 40.5q0 137 -29 138q-14 0 -25.5 -40t-19.5 -99.5t-12 -127t-4 -120.5z" />
<glyph unicode="g" horiz-adv-x="624" d="M39 -573q0 61 17.5 116.5t45 104.5t64.5 94t78 88q-6 16 -27.5 50t-46.5 80t-43 100.5t-18 109.5q0 90 29.5 174t78.5 148.5t110.5 103.5t127.5 39q59 0 101 -32t42 -91q0 -57 -23.5 -111.5t-59.5 -101.5t-79 -85t-81 -65.5t-66.5 -43t-36.5 -15.5q8 -27 20 -53 q10 -23 24.5 -52.5t35.5 -56.5q25 12 75 52t117 100q33 29 69 66.5t69.5 76.5t60.5 74t43 59q6 18 22 19q14 0 27 -10q12 -11 12 -19q0 -4 -3 -9t-7 -11q-4 -8 -8 -15q-59 -78 -119.5 -145.5t-105.5 -110.5q-20 -20 -55 -51t-68 -60.5t-57.5 -52t-24.5 -24.5q0 -6 4 -13.5 t10 -17.5q20 -27 55 -79t68 -116.5t57.5 -133t24.5 -128.5q0 -43 -13.5 -100t-44 -109.5t-80.5 -89t-124 -36.5q-35 0 -85 14t-97.5 55t-81 117t-33.5 197zM131 -530q0 -80 25.5 -139.5t40.5 -84.5q4 -4 17 -23.5t34.5 -42t51.5 -41t67 -18.5q39 0 63.5 17.5t39.5 45.5 t21.5 60.5t6.5 61.5q0 76 -31 155.5t-66 145.5q-41 78 -94 151q-10 18 -20 19q-10 0 -36 -30t-52.5 -76t-47 -99t-20.5 -102zM207 268q0 -53 12 -82.5t17 -29.5q4 0 43.5 25.5t86 66.5t84 95.5t37.5 111.5q0 35 -26.5 62.5t-61.5 27.5q-49 0 -84.5 -33t-59.5 -78t-36 -92 t-12 -74z" />
<glyph unicode="h" horiz-adv-x="956" d="M160 408q0 123 3 256t11 259t21.5 236.5t33.5 188.5q16 61 49 93t68 32q14 0 30.5 -11.5t31 -40t22.5 -79t8 -130.5t-24.5 -185t-58 -205.5t-67.5 -182.5t-52 -117q-2 -2 -3.5 -31.5t-3.5 -70.5t-3 -89t-2 -91t-1 -73v-34q0 -8 4 -18.5t11 -10.5q2 0 8 24t14 61.5 t17.5 81.5t17.5 86t14 76t8 48q2 6 3.5 18.5t6.5 26t17 23.5t35 10q16 0 37.5 -39t51.5 -96t68.5 -126t88 -126t110 -96t135.5 -39q33 0 52.5 7t33 15.5t23.5 15.5t27 7q10 0 19 -8.5t9 -24.5q0 -12 -12 -29.5t-36.5 -33t-62.5 -26.5t-89 -11q-80 0 -143.5 31.5t-113 80 t-85 104.5t-60 104t-39 80t-22.5 32t-16.5 -31t-17.5 -78t-21.5 -100t-27 -100t-32.5 -78t-41 -31q-14 0 -29.5 19.5t-17.5 60.5q-4 70 -6 163t-2 202zM231 643q8 8 29 71.5t41.5 151.5t35.5 182t15 164q0 53 -11 85t-36 32q-14 0 -27.5 -72.5t-23.5 -178t-16.5 -224.5 t-6.5 -211z" />
<glyph unicode="i" horiz-adv-x="335" d="M133 797q0 20 16.5 51t49.5 31q23 0 42 -20.5t19 -53.5q0 -41 -23.5 -66.5t-39.5 -25.5q-25 0 -37.5 11t-18.5 24.5t-7 28t-1 20.5zM145 479q0 27 5 35q0 16 18 32.5t39 16.5q29 0 38 -13t9 -42q0 -10 -1 -45t-3 -82t-4 -101.5t-4 -102.5t-5.5 -85t-5.5 -49 q-6 -31 -21 -40t-30 -9q-16 0 -18 17.5t-4 31.5q2 20 3 43t1 47q0 45 -3 94t-6 96.5t-5.5 87.5t-2.5 68z" />
<glyph unicode="j" horiz-adv-x="354" d="M-504 -324q0 8 8.5 26.5t25.5 36t40.5 31t54.5 13.5q51 0 106.5 -51t110 -112.5t107.5 -113t100 -51.5q25 0 44.5 14.5t31.5 54.5t18.5 107.5t6.5 175.5q0 291 5 439.5t5 183.5q0 10 -6 10t-20.5 -9t-31 -19.5t-33 -19.5t-24.5 -9q-6 0 -17.5 4t-22.5 11.5t-19.5 18.5 t-8.5 27q0 10 13.5 17.5t37 23t57.5 43t77 80.5q10 10 20 10q23 0 37 -13t14 -23q0 -12 -6 -13v-234t-1 -137.5t-1 -79t-1 -62t-1 -84v-144.5q0 -66 -7 -146.5t-29.5 -152.5t-64.5 -121t-110 -49q-37 0 -73.5 23.5t-74.5 60.5t-75 78t-71.5 77.5t-65.5 60.5t-55 24 q-25 0 -42.5 -14.5t-35.5 -14.5q-23 0 -23 22zM113 797q2 23 10 41q6 16 19.5 28.5t37.5 12.5q23 0 43.5 -20.5t20.5 -53.5q0 -29 -9.5 -46.5t-20.5 -27.5t-22.5 -14t-13.5 -4q-25 2 -45 15t-20 69z" />
<glyph unicode="k" horiz-adv-x="854" d="M161 726v60q0 60 1 122q2 93 11 181.5t30.5 158t56.5 111.5t88 42q31 0 51.5 -34t20.5 -112q0 -82 -25.5 -186t-57.5 -202.5t-63.5 -174.5t-44.5 -102v-127q0 -59 2 -130t5.5 -135.5t5.5 -113.5t2 -64q0 -18 -5.5 -39.5t-25.5 -21.5h-12q-16 0 -23.5 21.5t-7.5 44.5 l-6 540q-2 72 -3 161zM229 782q0 -18 9 -18q12 0 28.5 48t30.5 112.5t24.5 132t10.5 104.5q0 66 -14.5 93.5t-20.5 27.5q-10 0 -19.5 -21.5t-15.5 -56.5t-11 -80t-9 -92q-8 -111 -13 -250zM270 455q0 66 21.5 117t53.5 87.5t66.5 61t59.5 37.5q43 20 60.5 42.5t24.5 41 t13 31t25 12.5q27 0 27 -39q0 -59 -21.5 -99t-53.5 -72t-70 -56.5t-69.5 -51t-53 -59.5t-21.5 -78q0 -201 74.5 -300t197.5 -99q68 0 129.5 36.5t113.5 88t92 107.5t65 93q6 18 22 19q10 0 24.5 -8.5t14.5 -20.5q0 -4 -3 -9t-7 -11q-4 -8 -8 -15q-80 -104 -142.5 -170.5 t-115 -105.5t-96.5 -53.5t-89 -14.5q-104 0 -169.5 43t-102.5 113t-49.5 157t-12.5 175z" />
<glyph unicode="l" horiz-adv-x="624" d="M137 707q0 111 12.5 225.5t37 206.5t62.5 150.5t87 58.5q39 0 60.5 -37t32.5 -85t13 -95.5t2 -69.5q0 -96 -19 -193.5t-45 -179.5t-50.5 -143.5t-36.5 -85.5q-8 -16 -12.5 -27.5t-4.5 -28.5q0 -35 19.5 -87t52.5 -101t77 -84t91 -35q39 0 77 32t71.5 74t60.5 86t43 68 q6 18 23 19q14 0 26 -10q12 -11 12 -19q0 -4 -3 -9t-7 -11q-4 -8 -8 -15q-72 -109 -127 -173t-96 -98t-70 -43t-47 -9q-84 0 -146.5 59t-103.5 159.5t-62.5 230.5t-21.5 270zM225 860q0 -115 5.5 -181.5t11.5 -100t11 -43t7 -9.5q6 0 22.5 35t33 100.5t29.5 163t13 224.5 q0 23 -3 52t-9 57t-16.5 48.5t-24.5 26.5q-10 0 -23.5 -20.5t-25.5 -65.5t-21.5 -115.5t-9.5 -171.5z" />
<glyph unicode="m" horiz-adv-x="1429" d="M82 199q0 16 15.5 52t49.5 91q10 14 28 45t39.5 60.5t47 52t49.5 22.5q27 0 42.5 -21.5t23.5 -54t9 -72.5t1 -77q0 -49 4 -78t10.5 -43t13.5 -18t11 -4q27 0 52.5 46t50 100t47 100t45.5 46q10 0 18 -7t12 -15q-2 4 6.5 -38t23.5 -95t35.5 -98.5t43.5 -45.5 q37 0 69.5 54.5t55 124t36 132t13.5 79.5q0 18 4 30.5t27 12.5q14 0 30.5 -6.5t16.5 -22.5q0 -12 7 -53t20.5 -94.5t36 -114t53 -109.5t70.5 -81.5t89 -32.5t91 30.5t72 68.5t47.5 69.5t17.5 35.5q6 18 22 19q10 0 24.5 -8.5t14.5 -20.5q0 -8 -6 -16t-12 -19 q-49 -84 -98.5 -134t-92.5 -77.5t-79 -36t-60 -8.5q-47 2 -85 26.5t-65.5 61.5t-48 80t-34 83t-19.5 71t-8 43q-2 20 -8 20q-2 0 -14.5 -27.5t-28.5 -76.5q-4 -8 -17.5 -46t-37 -81t-56.5 -77t-76 -34q-51 0 -76.5 44t-37 97.5t-14.5 97.5t-9 44q-10 0 -27.5 -36t-42.5 -85 q-35 -72 -72.5 -126t-60.5 -54q-27 0 -41 26.5t-21 70.5t-8.5 101.5t-1.5 116.5q0 29 -5 56.5t-25 27.5q-12 0 -32.5 -19.5t-44.5 -49t-51.5 -65.5t-54.5 -66q-10 -10 -14 -11q-10 0 -10 17z" />
<glyph unicode="n" horiz-adv-x="1177" d="M82 199q0 16 15.5 52t49.5 91q10 14 28 45t39.5 60.5t47 52t49.5 22.5q27 0 42.5 -21.5t23.5 -54t9 -72.5t1 -77q0 -16 1 -40t2 -45.5t2 -38.5t1 -23q0 -23 4 -23t9.5 7t9.5 18q4 8 19.5 40.5t33.5 70.5t34.5 71l20.5 41t14.5 31.5t22.5 50t24.5 51t24.5 37.5 q12 12 23 12q12 0 23.5 -23.5t22.5 -58.5t22.5 -78t23.5 -80q16 -51 45 -104t71 -96t95 -71t121 -28q66 0 106.5 19.5t59.5 30.5q20 -1 20 -17q0 -23 -18 -33q-66 -47 -132.5 -62t-119.5 -15q-74 0 -129.5 27.5t-95 69.5t-65.5 94t-41 100.5t-21.5 87t-6.5 55.5q0 25 -10 24 q-6 0 -14 -18q-2 -6 -16.5 -36t-35 -71t-43 -88t-43 -88t-35 -70.5t-18.5 -35.5q-20 -31 -37 -31q-16 0 -28 20.5t-17 38.5q-2 8 -3 29t-2 47.5t-1 57v59.5l2 104q0 29 -3 52.5t-21 23.5q-12 0 -32.5 -19.5t-44.5 -49t-51.5 -65.5t-54.5 -66q-10 -10 -14 -11q-10 0 -10 17z " />
<glyph unicode="o" horiz-adv-x="931" d="M133 260q0 43 14.5 82t34 66.5t38 43t26.5 15.5q16 0 21 8t9 19q16 51 48 90q27 35 68.5 63.5t107.5 28.5q86 0 131 -45t67 -99q25 -63 29 -141q0 -63 -22.5 -118.5t-51.5 -96.5q10 -2 20.5 -2h20.5q59 0 119.5 14.5t114 39t93.5 56t58 68.5q8 23 21 23q10 0 24.5 -8.5 t14.5 -20.5l-19 -35q-37 -55 -85 -92t-102 -59.5t-113.5 -32.5t-117.5 -10q-45 0 -88 6q-43 -49 -81.5 -77t-71.5 -40t-58.5 -14t-44.5 -2q-61 0 -103 25.5t-68.5 65.5t-39 88t-14.5 91zM217 313q0 -16 4 -54t24.5 -79t59.5 -71.5t111 -30.5q35 0 59.5 8t40.5 18 q21 11 33 27q0 4 -16.5 6t-43 8.5t-58.5 20.5t-64 45q-4 4 -19.5 21.5t-32 44t-32 58.5t-19.5 66q0 12 -6 13q-12 -8 -20 -21q-8 -12 -14.5 -31.5t-6.5 -48.5zM348 469q0 -33 6 -60.5t8 -31.5q27 -66 63 -103.5t69.5 -57t59.5 -25t32 -5.5t18 15.5t24.5 41t20.5 59.5t8 71 q0 45 -10 87t-31.5 73.5t-55.5 50t-79 18.5q-53 0 -93 -33.5t-40 -99.5z" />
<glyph unicode="p" horiz-adv-x="851" d="M10 -414q0 68 10.5 147t24.5 155.5t27.5 144t19.5 110.5q6 47 10 114t4 165q0 20 -3 25.5t-7 5.5q-16 0 -28.5 -19.5t-22.5 -19.5q-18 0 -18 28q0 25 11 44.5t25.5 40t28.5 41t21 44.5q2 6 3 30t3 51.5t3 52t1 30.5q0 27 1 65t8 72.5t20.5 60t37.5 25.5q27 0 35 -19 t13 -36q0 -45 -9.5 -97t-21.5 -97t-22.5 -78t-10.5 -39q0 -10 -2 -49t-3 -83t-3 -81t-2 -43q0 -10 4 -10q8 0 34.5 35.5t68.5 77.5t100.5 78t132.5 36q96 0 137 -57.5t41 -137.5q0 -55 -17.5 -115.5t-47 -113.5t-70.5 -95t-90 -61q6 -2 14 -4t39 -2q33 0 83 11.5t113.5 48 t138.5 105.5t154 183q6 18 23 19q14 0 27 -10q12 -11 12 -19q0 -4 -3 -9t-7 -11q-4 -8 -9 -15q-80 -104 -153.5 -174.5t-141 -115t-130 -62.5t-117.5 -18q-80 0 -137.5 17t-94.5 44t-55 58.5t-18 60.5q0 33 51 33q20 0 38.5 -17.5t38 -37t41 -37t46.5 -17.5q37 12 68.5 44 t54 75t36 91t13.5 93q0 63 -30 108.5t-97 45.5q-68 0 -118 -39t-86 -91.5t-61.5 -105.5t-44.5 -80q0 -2 -1 -36.5t-3 -84t-4 -106.5t-4 -107.5t-3 -86t-1 -39.5q0 -41 -1 -99.5t-6 -112t-15.5 -91t-30.5 -37.5q-25 0 -38 19.5t-19.5 49t-7.5 64.5t-1 67z" />
<glyph unicode="q" horiz-adv-x="792" d="M98 166q0 113 83 225.5t247 188.5q78 36 143 36h4q53 0 90 -20.5t37 -52.5q0 -61 -47 -121t-116.5 -114t-148.5 -99t-142 -80q6 -27 34.5 -33t51.5 -6q45 0 89 27.5t79 63.5t58.5 67t27.5 37h10q23 0 30 -13.5t3 -50.5l-35 -481q-2 -20 6 -21q4 0 8 8.5t8 14.5 q45 150 114 292t128 251q16 41 41 78.5t41 37.5q37 1 37 -22q0 -16 -21.5 -52t-57.5 -100.5t-84 -163t-103 -241.5q-10 -27 -28.5 -92.5t-38 -135t-35 -129t-17.5 -73.5q-6 -29 -18.5 -37t-22.5 -8t-17.5 10t-12.5 22.5t-8 23.5t-3 15t2 41t4 82t4 84t2 49q0 6 3 38t7.5 78 t7.5 98.5t6 98.5t6 80.5t3 43.5q0 16 -3 20t-7 4t-12 -4q-53 -59 -127 -93t-138 -34q-51 0 -82.5 14.5t-49 37t-26 51t-14.5 59.5zM211 211q0 -14 4 -18q2 -2 6 -3q4 0 35 14.5t73 38t90 54.5t89 64.5t67.5 65t26.5 60.5t-20.5 42.5t-44.5 13.5q-43 0 -98.5 -23.5 t-106.5 -66.5t-86 -104.5t-35 -137.5z" />
<glyph unicode="r" horiz-adv-x="729" d="M131 410q0 27 5 61.5t20.5 64t41 50t66.5 22.5q41 -6 41 -28q0 -8 -10 -23.5t-23.5 -32t-23.5 -31t-10 -20.5q0 -10 18 -10q29 0 52.5 7t43 16.5t34.5 17.5t28 8q29 0 39 -17.5t10 -27.5q0 -6 -7 -24.5t-16.5 -41t-18.5 -47t-13 -43.5q-4 -10 -9.5 -45t-5.5 -73 q0 -72 17.5 -121t66.5 -49q45 0 104.5 37.5t117 91t104.5 110.5t71 94q6 18 23 19q14 0 27 -10q12 -11 12 -19q0 -4 -3 -9t-7 -11q-4 -8 -8 -15q-80 -104 -142.5 -172.5t-118 -109.5t-107.5 -57.5t-112 -16.5q-53 0 -90 37t-37 114q0 45 8.5 90.5t19.5 81t19.5 59t8.5 25.5 q0 8 -13 9q-16 0 -43.5 -7.5t-48.5 -11.5q-25 -6 -45 -6q-35 0 -60.5 24.5t-25.5 39.5z" />
<glyph unicode="s" horiz-adv-x="612" d="M51 119q4 16 14.5 19t20.5 3q6 0 18.5 -8t45 -19.5t91 -19.5t154.5 -8q45 0 45 16q0 23 -24.5 48.5t-61.5 56.5t-80 64.5t-79.5 71.5t-61 81t-24.5 92q0 29 13 63.5t38.5 64.5t64.5 49.5t88 19.5q57 0 104.5 -28t81 -63.5t52 -68.5t18.5 -43t-6 -27.5t-28 -17.5 q-12 0 -17.5 9t-9.5 18q-31 51 -64.5 81.5t-61.5 48t-48.5 22.5t-24.5 5q-63 0 -88.5 -22.5t-25.5 -55.5q0 -43 26.5 -79.5t67.5 -69.5t88 -66.5t88 -70.5t67.5 -81t26.5 -98q0 -72 -29.5 -114.5t-68.5 -65t-77 -30t-54 -7.5q-78 0 -130.5 31t-86 70t-48 76.5t-14.5 52.5z M190 29q0 -14 15.5 -27.5t38 -23t46 -15.5t42.5 -6q51 0 78.5 22.5t27.5 30.5t-16 8q-100 0 -156.5 7.5t-66.5 11.5q-8 -2 -9 -8z" />
<glyph unicode="t" horiz-adv-x="636" d="M-248 670q0 20 51.5 39t122 37t144 34.5t116.5 28.5q18 6 26.5 61.5t21 121t34 118.5t62.5 53q16 0 25.5 -18.5t9.5 -65.5q0 -8 -3.5 -31.5t-7.5 -54t-9 -63.5t-11 -58q0 -16 18 -16q6 0 38 8t77 20.5t98 27t103.5 26.5t90.5 20.5t60 8.5q23 0 38 -7.5t15 -17.5 q0 -16 -20.5 -31.5t-75.5 -27.5q-4 0 -23.5 -5.5t-51 -13.5t-70.5 -17t-80 -20q-96 -23 -213 -53q-6 0 -12 -2q-12 -4 -17 -14q-45 -154 -45 -309q0 -55 3 -126t18.5 -134.5t44 -106.5t82.5 -43q45 0 100 36t107.5 87t96.5 106.5t68 91.5q6 18 23 19q14 0 27 -10 q12 -10 12 -19q0 -4 -3 -9t-7 -11q-4 -8 -9 -15q-80 -104 -144.5 -174.5t-120.5 -112.5t-108.5 -60.5t-107.5 -18.5q-37 0 -69.5 32.5t-58 89t-41 131t-15.5 158.5q0 70 5 133.5t11 114.5q8 57 17 111q0 16 -17 16q-8 0 -58 -12t-111.5 -27.5t-118 -30t-74.5 -18.5 q-8 -2 -14.5 -3t-12.5 -1q-20 0 -28.5 8t-8.5 19z" />
<glyph unicode="u" horiz-adv-x="856" d="M125 201q0 53 15.5 116.5t33.5 116.5q23 63 51 125q2 4 6 8q8 8 19 8q16 0 25.5 -11t9.5 -21q0 -6 -4 -15q-12 -31 -22.5 -68.5t-16.5 -71.5t-10.5 -61.5t-6.5 -39.5q0 -86 21.5 -118t52.5 -32q49 0 89 43t70.5 100.5t52 114t34.5 84.5q12 29 28 29q12 0 24.5 -7 t12.5 -18q0 -8 -2 -12q-6 -23 -10 -36t-6 -26.5t-2 -32v-48.5q0 -35 8 -79t25.5 -83t43 -66.5t62.5 -27.5q49 0 91 30.5t72 68.5t47 69.5t17 35.5q6 18 23 19q10 0 24.5 -8.5t14.5 -20.5q0 -8 -6 -16t-13 -19q-49 -84 -98 -134t-92 -76.5t-79 -36t-60 -9.5q-70 0 -102.5 38 t-46 82t-16.5 82t-11 38t-13 -12q-37 -66 -74.5 -106t-69.5 -61.5t-56.5 -27.5t-34.5 -6q-41 0 -64.5 22.5t-36 54.5t-16.5 65.5t-4 56.5z" />
<glyph unicode="v" horiz-adv-x="626" d="M152 467q0 45 9 90t24.5 80t34 57.5t36.5 22.5q23 0 44.5 -21.5t21.5 -81.5q0 -57 -6.5 -96t-14.5 -63.5t-14 -36.5t-6 -19q0 -4 7 -26.5t17 -53t20.5 -63.5t18.5 -57q0 -8 2 -15q4 -14 10 -14q4 0 7.5 6t7.5 25q41 119 101 237.5t127 214t133.5 155.5t121.5 62 q10 0 24.5 -18t14.5 -43q0 -23 -21.5 -51.5t-56.5 -28.5q-10 0 -11 5t-9 5q-12 0 -47 -36.5t-82.5 -98t-98.5 -138.5t-94 -159t-70.5 -159.5t-27.5 -139.5q0 -16 -7.5 -37.5t-35.5 -21.5q-14 0 -24.5 9t-10.5 24q0 18 -22.5 79.5t-50 136t-50 149.5t-22.5 120zM229 539 q0 -14 2 -26.5t11 -16.5q6 6 12 16q4 10 9 25.5t5 44.5q0 14 -1 25t-5 14q-23 0 -28 -30t-5 -52z" />
<glyph unicode="w" horiz-adv-x="1075" d="M129 229q0 29 10.5 86.5t27.5 113.5t37.5 99t41.5 43q10 0 20 -11t15 -25q0 -20 -19.5 -81t-19.5 -175q0 -205 118 -205q49 0 91.5 38t75 86t53 92t24.5 56q2 8 5 23.5t8.5 32t13.5 28.5t24 12q16 -4 21.5 -8t5.5 -14q0 -6 -1 -12.5t-1 -16.5q0 -27 6 -82t21.5 -111.5 t40 -99.5t61.5 -43q35 0 67.5 39t32.5 133q0 43 -6 89t-12 89.5t-12.5 79t-6.5 58.5q0 53 28 68.5t46 15.5q16 0 28.5 -14.5t21 -36t12.5 -45.5t4 -42q0 -29 -11.5 -34.5t-33.5 -5.5q-4 0 -9.5 -5.5t-5.5 -25.5q0 -4 2 -27.5t5.5 -56.5t5.5 -67t2 -60q0 -88 -19.5 -141.5 t-49.5 -81t-64.5 -36.5t-63.5 -9q-66 0 -98.5 38.5t-47 85t-19.5 85t-13 38.5q-4 0 -12.5 -7t-8.5 -13q-39 -59 -75.5 -96t-70.5 -58.5t-63.5 -30t-52.5 -8.5q-43 0 -75.5 22.5t-56 58.5t-36 82t-12.5 93z" />
<glyph unicode="x" horiz-adv-x="747" d="M0 -82q0 8 6 19q4 10 33 49t63 82q39 49 88 108q2 2 5 6q2 4 4 8.5t2 10.5q0 4 -4 20q-4 8 -16.5 43t-26 84t-24.5 103.5t-11 99.5q0 14 6 31.5t29 17.5q10 0 21 -32.5t26.5 -80t34 -99.5t43.5 -91q6 -8 10 -8q6 0 29.5 27.5t59.5 68.5t78 89t83 89q14 14 34 15 q10 0 21.5 -5.5t11.5 -17.5q0 -16 -18 -31q-4 -4 -23.5 -25.5t-47.5 -51t-58.5 -64.5t-57 -64.5t-45 -50t-20.5 -22.5q-4 -4 -7 -8.5t-3 -8.5q0 -8 17 -29.5t46 -44t64.5 -40t72.5 -17.5q29 0 58.5 10.5t60.5 40t61.5 80t59.5 129.5q8 20 14 44t13.5 44.5t15.5 34t18 13.5 q20 0 32.5 -9.5t12.5 -19.5q0 -14 -12 -54t-34.5 -92.5t-57.5 -108.5t-79 -104.5t-98 -79t-118 -30.5q-53 0 -116.5 29.5t-102.5 95.5q-2 2 -12 2q-4 0 -25.5 -24.5t-48.5 -60.5t-55.5 -76t-49.5 -71q-10 -18 -22 -18q-14 0 -27.5 16.5t-13.5 28.5z" />
<glyph unicode="y" horiz-adv-x="690" d="M-80 -436q0 20 11.5 35.5t26.5 25.5t32.5 15.5t29.5 5.5q35 0 70 -23.5t66.5 -57.5t63.5 -75t63.5 -74.5t62.5 -57.5t62 -24q35 0 53 39t26.5 105.5t9.5 154.5t1 186.5t2 200t12 195.5q0 18 -6 18q-10 0 -28.5 -36.5t-49.5 -81.5t-73 -82t-97 -37q-35 2 -61 24 q-23 18 -42.5 60.5t-19.5 120.5q0 39 6 85t17 87q8 47 22 92q6 29 31 29q27 -6 34 -13.5t7 -17.5q0 -4 -3 -22.5t-8 -46t-8.5 -61.5t-3.5 -67q0 -90 30 -123.5t50 -33.5q25 0 50.5 25.5t49 64.5t44 86t38 89t28.5 74.5t16 43.5q10 23 18 36t22 13h17q10 0 15 -10.5t5 -20.5 q0 -12 -5 -46t-9 -56q-2 -6 -4 -48.5t-6 -102.5t-7 -129t-6.5 -128t-6.5 -101t-3 -49q0 -10 -1 -58t-2 -106.5t-2 -110.5t-3 -67q0 -4 -3 -47t-19.5 -92t-51 -90t-98.5 -41q-51 0 -95 22.5t-80 55.5t-65.5 72t-55.5 71.5t-48.5 55t-42.5 22.5q-14 0 -27.5 -7t-23.5 -7 q-14 0 -20.5 12t-6.5 29z" />
<glyph unicode="z" horiz-adv-x="708" d="M106 242q0 39 32 98t85 114.5t123 95.5t143 40q27 0 51.5 -5t44 -19.5t31 -39t11.5 -61.5q0 -12 -5.5 -43t-23.5 -75t-56 -97t-104 -111q-8 -8 -14 -15t-6 -13q0 -12 39 -19q43 -4 68.5 -15t40 -23.5t21.5 -21.5t13 -9q4 0 12.5 7t19.5 16t23.5 16.5t24.5 7.5t18.5 -6.5 t10.5 -12.5q4 -8 4 -16q0 -10 -13.5 -20.5t-29 -19.5t-27.5 -18.5t-12 -21.5q0 -6 1 -10t3 -11.5t3 -25t1 -49.5q0 -37 -10.5 -93.5t-29.5 -121t-49 -131t-68 -124t-86 -97.5t-105 -52q-20 0 -43 4t-42.5 17.5t-31.5 41t-12 74.5q0 74 25.5 143.5t62.5 131t82 115t82 94.5 t62.5 67.5t25.5 34.5q0 14 -12.5 27.5t-31 23t-38 14.5t-31.5 5t-30.5 -9.5t-35 -20.5t-29.5 -20.5t-20 -9.5q2 0 -16 7.5t-18 23.5q0 6 4 15.5t16 23.5q25 29 74 80t96 109.5t83 116t36 97.5q0 16 -9.5 44t-37.5 32q-55 0 -106.5 -20.5t-91.5 -53t-63.5 -70.5t-23.5 -71 q0 -10 13.5 -22.5t13.5 -28.5q0 -31 -21.5 -52.5t-60.5 -21.5q-20 0 -38 15.5t-18 44.5zM283 -582q0 -23 12 -39t29 -16q12 0 48 31t72.5 93t66.5 157.5t30 222.5q-2 20 -15 20q-16 0 -40.5 -23.5t-51 -63.5t-54.5 -89t-49.5 -101t-34.5 -102.5t-13 -89.5z" />
<glyph unicode="{" horiz-adv-x="483" d="M-12 557q0 18 8 27q4 4 8 6q49 72 67.5 123t18.5 104q0 82 -9 120t-21.5 62.5t-21.5 50t-9 87.5q0 76 13 135t33.5 105t45 81t49.5 62q2 2 6 4q8 4 12 4q6 0 13 -8q0 -10 -8.5 -31t-17.5 -57.5t-16 -90t-7 -129.5q0 -61 7 -107t15 -86t15.5 -80t7.5 -91q0 -20 -6.5 -56 t-22.5 -77t-44 -84t-71 -76q43 -33 71 -75t44 -83t22.5 -75.5t6.5 -55.5q0 -51 -7.5 -91t-15.5 -80t-15 -86t-7 -107q0 -76 7 -129.5t16 -90t17.5 -57.5t8.5 -31q-6 -8 -13 -8q-4 0 -12 4q-4 2 -6 4q-25 27 -49.5 62t-45 81t-33.5 105.5t-13 134.5q0 61 9 87t21.5 50.5 t21.5 61.5t9 121q0 53 -18.5 104.5t-67.5 122.5q-4 2 -8 6q-8 8 -8 27z" />
<glyph unicode="|" horiz-adv-x="468" d="M217 1475l5 5t14 3l22 -2q10 -4 18.5 -11.5t12.5 -11.5q6 -8 6 -12v-1923q0 -12 -23 -12h-10l-6 2q-23 8 -31 22q-4 6 -6 12z" />
<glyph unicode="}" horiz-adv-x="579" d="M281 -406q0 10 7 31t16 57.5t17.5 90t8.5 129.5q0 61 -7.5 107t-15.5 86t-15 80t-7 91q0 20 6 56t22.5 77t44 84t70.5 76q-43 33 -70.5 75t-44 83t-22.5 75.5t-6 55.5q0 51 7 91t15 80t15.5 86t7.5 107q0 76 -8.5 129.5t-17.5 90t-16 57t-7 31.5q6 8 12 8q4 0 12 -4 q4 -2 6 -4q25 -27 49.5 -62t45 -81t34 -105.5t13.5 -134.5q0 -61 -9.5 -87t-21.5 -50.5t-21.5 -62.5t-9.5 -120q0 -53 18.5 -104t67.5 -123q4 -2 8 -6q9 -9 9 -27t-9 -27q-4 -4 -8 -6q-49 -72 -67.5 -123t-18.5 -104q0 -84 9.5 -121t21.5 -61.5t21.5 -50t9.5 -87.5 q0 -76 -13.5 -135t-34 -105t-45 -81t-49.5 -62q-2 -2 -6 -4q-8 -4 -12 -4q-6 0 -12 8z" />
<glyph unicode="~" horiz-adv-x="649" d="M84 707q0 31 12.5 54t30.5 39.5t40.5 25t43.5 8.5q35 0 61.5 -17.5t53 -37t58.5 -37t75 -17.5q31 0 50 25.5t26 33.5q10 0 15 -19.5t5 -29.5q0 -31 -12.5 -54.5t-30.5 -39.5t-39.5 -24.5t-42.5 -8.5q-35 0 -59.5 17.5t-49 38t-54 38t-70.5 17.5q-27 0 -43.5 -8.5 t-25.5 -18.5t-14 -20t-8 -15q-12 0 -17 19.5t-5 30.5z" />
<glyph unicode="&#xa1;" horiz-adv-x="335" d="M92 793q0 23 9.5 43t21.5 35.5t25.5 23.5t23.5 8q31 0 46 -13t23.5 -30.5t9.5 -34t1 -24.5q0 -12 -5 -28.5t-16.5 -32t-27 -27t-33.5 -11.5q-29 0 -53.5 25t-24.5 66zM129 -244.5q0 64.5 1 156.5t2 198.5t2 201t3 161t4 78.5q6 31 22.5 40t31.5 9q16 0 21 -17.5t7 -31.5 q-2 -20 -3 -43t-1 -47q0 -31 2 -93.5t5 -139t6.5 -160.5t6.5 -158t5 -128.5t2 -72.5q0 -27 -4 -35q0 -16 -21.5 -32.5t-42.5 -16.5q-29 0 -39 13.5t-10 42.5v74.5z" />
<glyph unicode="&#xa2;" horiz-adv-x="684" d="M70 492q0 74 22.5 132t58 102t78.5 77t86 53v182l5.5 5.5t13.5 3.5l22 -3q10 -4 18.5 -11t12.5 -11q6 -8 6 -12v-125q25 8 47 8q66 0 92.5 -32t26.5 -60q0 -29 -10 -52.5t-23.5 -42t-29 -30.5t-27.5 -21q-4 -4 -13.5 -15t-22.5 -23.5t-31.5 -22.5t-43.5 -10q-37 0 -57 10 q-10 6 -18 12q-10 8 -11 23q0 14 11.5 33.5t25 36t26.5 27.5t19 11q12 0 17.5 -8t10.5 -17.5t13 -17.5t27 -8q20 0 32.5 21.5t12.5 46.5q0 29 -17.5 50t-52.5 21q-45 0 -86 -23.5t-72.5 -64.5t-51 -95t-19.5 -114q0 -37 7 -76.5t30.5 -73.5t65.5 -55.5t114 -21.5 q35 0 87 20.5t110 92.5q6 18 22 18q14 0 27 -10q12 -11 12 -19q0 -4 -3 -9t-7 -11q-4 -8 -8 -14q-27 -49 -86.5 -94.5t-147.5 -61.5v-162q0 -12 -22 -12h-11l-6 2q-23 8 -30 22q-4 6 -7 13v131h-4q-63 0 -109 24.5t-75 64.5t-43 91t-14 105z" />
<glyph unicode="&#xa3;" horiz-adv-x="1484" d="M16 432q0 94 51.5 131t129.5 37q51 0 106 -21.5t110.5 -52t106.5 -68.5t91 -69t67 -52.5t33 -21.5q8 0 9 10.5t1 20.5v152h-182q-6 2 -11 6q-4 4 -7 10t-1 21q0 18 8 26q4 4 11 4h182v88h-152q-6 2 -10 6t-7 10.5t-1 20.5q0 18 8 27q4 4 10 4h152v86q0 127 15.5 211 t44 133t68.5 68.5t89 19.5q43 0 110.5 -36t132 -93t111.5 -129t47 -143q0 -43 -11 -68t-26.5 -36t-32 -13t-26.5 -2q-37 0 -66.5 15.5t-52 38t-35 48t-14.5 47.5q0 18 10 19q8 0 21.5 -15.5t32 -33t40 -32.5t48.5 -15t26 24q0 37 -41 92.5t-99 106.5t-120.5 87t-103.5 36 q-37 0 -57.5 -25t-29.5 -66.5t-11.5 -99t-2.5 -123.5v-102h166q6 0 10.5 -6t6.5 -13q2 -8 2 -16q0 -16 -10 -27q-4 -4 -9 -6h-168v-88h138q6 0 10 -6t6 -12q2 -8 2 -17q0 -16 -10 -26q-4 -4 -8 -6h-140v-226q0 -23 9 -30q4 -6 10 -6q66 -47 144.5 -103.5t168.5 -108 t193.5 -85t218.5 -33.5q70 0 106.5 21.5t48.5 21.5q10 0 16.5 -12.5t6.5 -24.5q0 -4 -2 -13.5t-16 -17.5q-100 -43 -170 -53t-121 -10q-117 0 -216.5 33.5t-178 79.5t-135 92.5t-87.5 70.5q-16 12 -24 12q-6 0 -13 -6q-2 -4 -4 -6q-25 -70 -58.5 -108.5t-71.5 -58 t-75.5 -23.5t-66.5 -4q-35 0 -108.5 37.5t-150.5 108.5t-134.5 168t-57.5 218zM82 420q0 -70 47 -168q23 -47 63.5 -97.5t91 -93.5t106.5 -70.5t110 -27.5q57 0 95 30t59.5 65.5t29.5 67.5t8 36q-12 6 -45 34.5t-78 68.5t-99 85t-107.5 83t-102.5 63.5t-86 25.5 q-47 0 -69.5 -27.5t-22.5 -74.5z" />
<glyph unicode="&#xa4;" horiz-adv-x="1353" d="M55 551q2 20 13 27q4 4 10 4h129q-6 43 -6 88h-86q-6 2 -13 6q-10 6 -10 31q2 20 12 26q4 4 11 4h88q10 113 54 219.5t112.5 188.5t157.5 131t192 49q100 0 187 -35t150.5 -90t99.5 -123.5t36 -138.5q0 -41 -16.5 -57.5t-42.5 -16.5q-27 0 -59 15.5t-62.5 37t-55 47 t-36.5 44.5q-4 4 -7.5 8t-5.5 6q-4 -4 -12 -8q-8 -16 -23 -17q-16 0 -19 7.5t-3 19.5q0 10 2 23.5t6 27.5q4 18 8 42t4 46q0 43 -29.5 77t-117.5 34q-72 0 -147.5 -41t-139 -112.5t-104.5 -170t-41 -213.5h442q8 0 12.5 -6t8.5 -12q4 -8 4 -17q0 -18 -13 -26q-6 -4 -12 -6 h-440q4 -23 8 -44.5t8 -43.5h387q8 0 12.5 -6.5t8.5 -12.5q4 -8 4 -16q0 -18 -12 -27q-6 -4 -13 -6h-366q33 -92 91 -174t139 -145.5t182.5 -100.5t218.5 -37q63 0 110 11.5t83 28t58.5 35t36.5 30.5q25 20 35 20q8 0 11 -3t8 -7l4 -8q0 -35 -32 -68t-85 -57.5t-126 -39.5 t-153 -15q-135 0 -250.5 41t-204.5 112.5t-149.5 168.5t-87.5 208h-141q-6 2 -12 6q-10 6 -11 31zM930 1198q4 -14 22.5 -53t44 -81t57 -75t62.5 -33q10 1 10 7q0 23 -24.5 61.5t-56 76.5t-64.5 66.5t-51 30.5z" />
<glyph unicode="&#xa5;" d="M88 1012q0 8 10 16q39 55 68 100q25 39 45 74t22 41q2 90 15 160q6 31 14 59.5t19.5 51t27 37t35.5 14.5q18 -4 24.5 -13.5t6.5 -25.5q0 -35 -22.5 -104.5t-51.5 -137.5q-2 -23 -3 -45t-1 -51q0 -94 10 -206t31.5 -209t56.5 -162.5t84 -65.5q33 0 75 49t86 126t86 169 t75 178t53 153.5t20 96.5q2 0 2.5 14.5t1.5 30.5t5 30.5t14 14.5q25 0 25 -190q0 -45 -2 -89.5t-9 -78.5q-4 -20 -7 -73.5t-5 -127.5t-4 -161t-6 -173l-2 -51h192q14 0 19 -17q2 -8 2 -16q0 -14 -10 -24q-6 -4 -11 -5h-194v-40.5t-2 -38.5h161q10 0 19 -17q2 -8 4 -14 q0 -16 -12 -25q-6 -4 -11 -6h-163q-2 -78 -4.5 -130t-2.5 -58q0 -8 -4 -55.5t-20 -101.5t-52 -98t-98 -44q-49 0 -92 25.5t-81 65.5t-70.5 85t-62 85t-56.5 65.5t-51 25.5q-14 0 -20.5 -14.5t-16.5 -14.5q2 0 -14.5 7.5t-16.5 23.5q0 18 32 46t79 28q55 0 106 -52.5 t101.5 -116t99.5 -115.5t96 -52q35 0 54.5 34.5t28.5 82t11 96.5t2 78v104h-215q-4 0 -10 4q-12 8 -10 31q0 16 10 22q4 4 10 5h215v79h-182q-6 0 -10 5q-10 6 -10 28q2 10 5 15.5t7 9.5t8 4h187q2 98 6 187t8 166t8 136.5t8 96.5q0 16 -4 16q-8 0 -18 -29 q-8 -20 -26.5 -72.5t-48.5 -118t-67.5 -136t-82 -129t-94.5 -96.5t-101 -38q-45 0 -79 33t-56.5 85t-35.5 115.5t-21.5 124t-10.5 112t-2 77.5q0 51 2 81t2 36q0 20 -2 20t-12 -16t-23.5 -38.5t-26 -44t-20.5 -30.5q-12 -16 -26 -16q-10 0 -16.5 9.5t-6.5 17.5z" />
<glyph unicode="&#xa6;" horiz-adv-x="468" d="M217 266l5 5t14 3l22 -2q10 -4 18.5 -11t12.5 -11q6 -8 6 -12v-736q0 -12 -23 -12h-10l-6 2q-23 8 -31 23q-4 6 -6 12zM217 1475l5 5t14 3l22 -2q10 -4 18.5 -11.5t12.5 -11.5q6 -8 6 -12v-735q0 -12 -23 -13h-10l-6 2q-23 8 -31 23q-4 6 -6 12z" />
<glyph unicode="&#xa7;" horiz-adv-x="702" d="M70 119q4 16 14 19t20 3q6 0 18.5 -8t45.5 -19.5t91 -19.5t155 -8q45 0 45 16q0 23 -24.5 48.5t-61.5 56.5t-80 64.5t-80 71.5t-61.5 81t-24.5 92q0 25 9 53.5t28.5 55t47.5 48t64 32.5q-16 27 -25 55t-9 59q0 29 13 64t38.5 64.5t64.5 49t88 19.5q57 0 104.5 -27.5 t81.5 -63.5t52 -69t18 -43t-6 -27.5t-28 -17.5q-12 0 -17.5 9t-9.5 18q-31 51 -64.5 81.5t-61.5 48t-48.5 22.5t-24.5 5q-63 0 -88.5 -22.5t-25.5 -55.5q0 -43 26.5 -79.5t67.5 -69.5t88 -66.5t88 -70.5t67.5 -81t26.5 -97q0 -47 -13 -81t-33.5 -57.5t-47.5 -39t-51 -23.5 q14 -23 22.5 -48.5t8.5 -54.5q0 -72 -30 -114.5t-69 -65t-76.5 -30t-54.5 -7.5q-78 0 -130 31t-86 70t-48 76.5t-14 52.5zM209 29q0 -14 15.5 -27.5t38 -23t46 -15.5t41.5 -6q51 0 79 22.5t28 30.5t-17 8q-100 0 -156.5 7.5t-66.5 11.5q-8 -2 -8 -8zM213 571 q0 -47 30.5 -84.5t74.5 -73.5t94.5 -72t91.5 -77q45 10 59.5 44t14.5 81q0 27 -27 55.5t-64.5 60.5t-83 67.5t-81.5 76.5q-59 -2 -84 -24.5t-25 -53.5z" />
<glyph unicode="&#xa8;" d="M295 797q0 20 17.5 51t49.5 31q23 0 43.5 -20.5t20.5 -53.5q0 -41 -24.5 -66.5t-41.5 -25.5q-25 0 -38 11t-19 24.5t-7 28t-1 20.5zM582 803q0 20 17 51t50 31q23 0 43.5 -20.5t20.5 -53.5q0 -41 -24.5 -66.5t-41.5 -25.5q-25 0 -38 11t-19 24.5t-7 28t-1 20.5z" />
<glyph unicode="&#xa9;" horiz-adv-x="1292" d="M27 563q0 158 34.5 287t94 230.5t137.5 175t164 120.5t173 70.5t167 23.5q61 0 114.5 -18t92 -49t61 -69t22.5 -74q0 -29 -7 -47.5t-16 -32t-16.5 -21.5t-7.5 -14q0 -4 2 -8t5.5 -8.5t11.5 -8.5q57 -39 93 -94t55.5 -116.5t25.5 -122t6 -109.5q0 -154 -59.5 -288 t-154.5 -232.5t-214 -155.5t-240 -57q-123 0 -224 42t-172 121.5t-109.5 194.5t-38.5 260zM129 668q0 -57 10.5 -128t35 -141.5t64.5 -136t97 -117t134 -82t177 -28.5q76 2 124 22.5t103 53.5q80 51 146 131q55 68 101 173t46 259q0 96 -22.5 172t-59 130t-84 86t-98.5 38 q27 23 57.5 63.5t30.5 100.5q-2 18 -10 43.5t-28.5 48t-57.5 38t-98 15.5q-51 0 -121 -14.5t-143.5 -48t-146.5 -89t-130 -138.5t-92 -194.5t-35 -256.5zM309 586q0 106 46 182t108.5 125t124 71.5t92.5 22.5q66 0 92.5 -31.5t26.5 -60.5t-10.5 -52.5t-23.5 -42t-28.5 -30.5 t-27.5 -20q-4 -4 -13.5 -15.5t-23 -24t-31.5 -22.5t-43 -10q-37 0 -57 10q-10 6 -19 12q-10 8 -10 23q0 14 11.5 33.5t24.5 36t26.5 27.5t19.5 11q12 0 17 -8t10.5 -17t13.5 -17.5t27 -8.5q20 0 32.5 21.5t12.5 46.5q0 29 -17.5 50.5t-52.5 21.5q-45 0 -86 -24t-73 -64.5 t-51 -95t-19 -113.5q0 -37 7 -77t30.5 -74t65.5 -55.5t114 -21.5q49 0 111.5 41t120.5 98.5t107.5 116t73.5 94.5q6 18 23 19q14 0 26 -10q13 -11 13 -19q0 -4 -3 -9t-7 -11q-4 -8 -9 -15q-160 -209 -285.5 -304t-244.5 -95q-63 0 -109.5 24.5t-75 64.5t-43 91t-14.5 105z " />
<glyph unicode="&#xaa;" horiz-adv-x="653" d="M74 707q0 51 36.5 117.5t97 126t138.5 99.5t158 40q37 0 70.5 -18.5t33.5 -57.5q0 -53 -49 -106.5t-114.5 -98.5t-132 -79t-99.5 -46q-10 -4 -10 -10t9 -12.5t24 -6.5q8 0 14 2q14 2 39.5 11.5t58.5 27t69 44t68 65.5q16 20 26.5 27.5t20.5 7.5t16.5 -8.5t9.5 -17.5 t4 -17.5t1 -10.5q0 -6 5 -28.5t18.5 -49t36 -47t57.5 -20.5q39 0 86 30.5t91 73.5t82 90.5t58 79.5q2 14 19 15q12 0 22 -8q11 -11 11 -17q0 -4 -9 -16l-8 -12q-68 -90 -122 -149.5t-102 -95.5t-92 -51.5t-91 -15.5q-31 0 -55.5 15.5t-41 38t-24.5 51t-8 55.5v10q0 8 -9 8 l-4 -4q-4 -8 -32.5 -33.5t-68.5 -53t-88 -49t-91 -21.5q-49 0 -75 14t-38 33.5t-14 41t-2 36.5zM117 362q2 18 10 27q4 4 8 4h393q6 0 10.5 -6t6.5 -12q2 -9 2 -17q0 -16 -10 -26q-4 -4 -9 -4h-393q-6 0 -10 4q-8 8 -8 30zM166 741q0 -18 10 -18q4 0 32 12.5t66.5 31.5 t82.5 46t81 55.5t61.5 57t24.5 55.5q0 23 -13 36t-60 13q-37 0 -85.5 -26.5t-93.5 -67.5t-75.5 -93t-30.5 -102z" />
<glyph unicode="&#xab;" horiz-adv-x="387" d="M82 303v6q0 31 28.5 62.5t67.5 59.5t76 48.5t55 28.5q18 -6 19 -16v-3q0 -10 -21.5 -26.5t-47.5 -41t-49.5 -56t-27.5 -70.5q6 -39 32 -77t54.5 -69.5t52 -54.5t23.5 -31t-18 -8q-18 14 -56.5 37t-78 52.5t-70.5 65.5t-37 77zM317 303v6q0 31 29 62.5t68 59.5t75.5 48.5 t55.5 28.5q18 -6 18 -16v-3q0 -10 -21.5 -26.5t-47 -41t-49 -56t-27.5 -70.5q6 -39 31.5 -77t54 -69.5t52.5 -54.5t24 -31t-19 -8q-18 14 -56 37t-78 52.5t-70.5 65.5t-37.5 77z" />
<glyph unicode="&#xac;" horiz-adv-x="1163" d="M-281 317q0 10 1 30t9.5 40.5t26 34.5t49.5 14q39 0 82 -32.5t89.5 -83t92.5 -107.5t91 -106.5t87 -82t79 -30.5q29 0 55.5 6t47 24.5t33.5 53.5t15 90q2 47 4 84q2 33 2 60.5t2 31.5q0 6 -7 16.5t-25 20.5q-27 16 -80.5 63.5t-105.5 112t-91 138t-39 143.5q0 49 34 79.5 t81 30.5q51 0 88 -18.5t61.5 -42t42 -42t29.5 -18.5t14 35q0 8 5.5 56.5t17.5 115t31.5 141t49.5 139t69.5 106.5t95.5 42q43 0 72.5 -22.5t48 -55t28.5 -70.5t19 -69q2 -6 12 -72.5t26.5 -165t34 -212t32.5 -215t25.5 -173t12.5 -85.5q0 -4 4 -15.5t25 -11.5q6 0 28.5 7 t49 16.5t51 16.5t32.5 7q10 0 16.5 -5t10.5 -9q4 -9 4 -15q0 -27 -32.5 -41t-71.5 -24t-72 -21.5t-33 -33.5l2 -15q4 -31 12.5 -88t12.5 -108q0 -14 -9.5 -24.5t-41.5 -14.5q-12 -2 -41 37.5t-59.5 90t-56.5 94.5t-30 52q-10 0 -38.5 6t-68.5 17.5t-85 28t-86 34.5 q-14 8 -27 8q-23 0 -22 -59q0 -47 -5.5 -105.5t-29 -109.5t-70.5 -87t-131 -36q-57 0 -110.5 29.5t-102.5 76t-93 98.5t-81 98t-67.5 76t-53.5 30q-6 0 -9 -6.5t-7 -14.5t-11.5 -14t-21.5 -6q-10 0 -19.5 8t-9.5 28zM240 829q0 -57 36.5 -116.5t83.5 -108.5q53 -57 123 -112 q6 0 6 10v41t-1 74.5t-3 72.5t-4 35q-6 6 -28.5 29.5t-53 50t-63.5 48t-60 21.5q-14 0 -20 -7t-10 -15q-4 -10 -6 -23zM537 756l31 -38q30 -38 79 -99.5t106.5 -140.5t108.5 -159q16 -23 53 -27.5t91 -4.5q10 0 10 20q0 12 -2 21q-2 12 -13.5 71.5t-28 144.5t-35.5 184 t-37.5 190.5t-32 162t-19.5 99.5q-10 31 -18.5 65.5t-18.5 65t-27.5 51t-46.5 20.5q-37 0 -66.5 -39.5t-52 -100t-38 -135.5t-25.5 -144.5t-14 -126t-4 -80.5zM539 614q2 -31 4 -57q2 -23 3 -47.5t1 -38.5q0 -29 34.5 -56.5t79 -51t83 -38t44.5 -14.5q7 0 7 6q0 8 -15 25 q-12 14 -45 59t-67.5 95.5t-63.5 91.5t-33 45q-8 8 -18 8q-16 0 -14 -27zM944 205q0 -8 19.5 -42t54.5 -87q10 -18 20 -19q9 1 9 15q0 12 -2.5 36.5t-7.5 50t-12 44t-17 18.5q-14 0 -22.5 1t-16.5 1q-12 0 -18.5 -6t-6.5 -12z" />
<glyph unicode="&#xad;" horiz-adv-x="956" d="M283 336q2 20 14 29q6 4 10 6h529q14 0 22 -21q4 -8 4 -18q0 -12 -5 -19.5t-9 -11.5q-6 -6 -12 -6h-529q-6 0 -12 6q-4 4 -8 11t-4 24z" />
<glyph unicode="&#xae;" horiz-adv-x="825" d="M16 922q0 147 47.5 252.5t118 174t153.5 100.5t157 32q39 0 73.5 -12.5t59 -33t39 -44t14.5 -48.5q0 -23 -9.5 -41t-19.5 -30l2 -2q2 -4 13 -6q33 -23 54 -56.5t32.5 -71.5t15.5 -76t4 -69q0 -96 -37 -179t-95 -144.5t-133 -96t-149 -34.5q-156 0 -248 101t-92 284z M98 985q0 -51 14.5 -116.5t49.5 -123t93 -96.5t146 -37q47 0 75 13.5t59 29.5q49 31 86 78q33 41 59.5 102.5t26.5 153.5q0 111 -53.5 175.5t-121.5 74.5q20 18 43 45t25 59q-2 10 -6 24.5t-15.5 27t-33 20.5t-53.5 8q-45 0 -112 -20.5t-129.5 -69.5t-107.5 -134t-45 -214z M168 1112q0 8 10 26.5t25.5 37t34 32t36.5 13.5q35 0 54.5 -20.5t23.5 -20.5q6 0 16.5 10t24 22.5t30.5 22.5t36 10q29 0 49 -12t36.5 -27.5t29 -28t22.5 -12.5l16 4q6 0 10.5 -6t4.5 -12q0 -31 -27 -50.5t-51 -19.5q-31 0 -48.5 12.5t-27.5 28t-19.5 27.5t-25.5 12 q-31 0 -42 -21.5t-11 -33.5q0 -16 2 -27.5t5 -24t5 -28.5t2 -43q0 -98 -11 -154.5t-25.5 -84t-28 -35t-17.5 -7.5q-23 0 -36 17.5t-19 41t-8 45t-2 30.5q0 51 8 92t18.5 71.5t19.5 50t11 31.5q-18 27 -43 27q-16 0 -30.5 -13.5t-24.5 -13.5t-21.5 7.5t-11.5 23.5zM303 881 q0 -39 10 -50q6 -6 13 -6q4 4 9 17.5t5 29.5q0 47 -6 84t-12 37q-12 0 -15.5 -34.5t-3.5 -77.5z" />
<glyph unicode="&#xaf;" horiz-adv-x="612" d="M133 782q2 20 14 29q6 4 11 6h323q14 0 23 -20q4 -9 4 -19q0 -12 -5 -19t-9 -11q-6 -6 -13 -7h-323q-6 0 -13 7q-4 4 -8 11t-4 23z" />
<glyph unicode="&#xb0;" horiz-adv-x="391" d="M59 1128q2 41 21 76q16 29 50 53.5t99 24.5q39 0 60.5 -17.5t32.5 -37.5q10 -22 12 -53q-2 -43 -21 -76q-16 -29 -49 -51.5t-94 -22.5q-41 0 -63.5 15.5t-32.5 35.5q-12 23 -15 53zM117 1139q0 -18 8 -31q6 -10 19.5 -19.5t37.5 -9.5q35 0 53.5 12.5t28.5 28.5 q10 18 12 43q0 16 -8 31q-6 12 -18 22.5t-35 10.5q-37 0 -56.5 -14.5t-29.5 -30.5q-10 -20 -12 -43z" />
<glyph unicode="&#xb1;" horiz-adv-x="917" d="M180 233q2 20 15 29q6 4 10 6h528q14 0 23 -20q4 -9 4 -19q0 -12 -5 -19t-10 -11q-6 -6 -12 -6h-528q-6 0 -12 6q-4 4 -8.5 11t-4.5 23zM180 610q2 20 15 29q6 4 10 6h227v227q0 6 4 13q8 12 31 12q16 0 23.5 -4t11.5 -8q4 -6 6 -13v-227h225q14 0 23 -20q4 -9 4 -19 q0 -12 -5 -19t-10 -12q-6 -6 -12 -6h-225v-227q0 -6 -6 -12q-12 -12 -35 -13q-23 2 -31 15q-4 6 -4 12v225h-227q-6 0 -12 6q-4 4 -8.5 11.5t-4.5 23.5z" />
<glyph unicode="&#xb2;" horiz-adv-x="587" d="M61 459q0 10 12.5 31.5t31 43t41 38t42.5 16.5t36 -7.5t27 -16.5t18 -16t12 -7q6 0 18 12t28.5 26.5t37 26.5t43.5 12q33 0 57 -15t42.5 -32.5t34 -33t27.5 -15.5q10 2 13.5 3t7.5 1q16 0 16 -20q0 -37 -31.5 -59.5t-60.5 -22.5q-37 0 -57.5 14.5t-32.5 32.5t-23.5 32.5 t-29.5 14.5q-37 0 -50.5 -25.5t-13.5 -39.5q0 -18 2 -31.5t5 -29t6.5 -35t3.5 -52.5q0 -117 -13.5 -183.5t-30 -99t-32 -41t-21.5 -8.5q-29 0 -44 20.5t-22 48.5t-9 53.5t-2 35.5q0 61 10 110.5t22.5 85t22.5 59.5t12 38q-23 31 -51 31q-18 0 -35.5 -15.5t-30.5 -15.5 q-10 0 -24.5 9t-14.5 26zM221 184q0 -25 4 -38t8 -19q6 -8 15 -8q6 4 12 21.5t6 33.5q0 57 -7 100t-15 43q-14 0 -18.5 -40.5t-4.5 -92.5z" />
<glyph unicode="&#xb3;" horiz-adv-x="559" d="M-29 428q0 35 29 82t74 96t101 97.5t112.5 86t104.5 61t77 23.5q10 0 27.5 -5t34 -13t27.5 -19.5t11 -25.5q0 -27 -21.5 -65.5t-54 -80.5t-69.5 -84t-69.5 -75t-54.5 -54l-21 -22q0 -18 14 -18q33 2 42 2h13q57 0 58 -39q0 -10 -8.5 -24.5t-37.5 -37.5 q-14 -12 -35.5 -31.5t-41 -44t-33.5 -52t-14 -56.5q0 -47 37.5 -70.5t78.5 -23.5q45 0 100.5 35.5t107.5 87t96 106.5t69 92q6 18 23 19q14 0 26 -10q12 -11 12 -19q0 -4 -3 -9t-7 -11q-4 -8 -8 -15q-80 -104 -146.5 -177t-127 -117t-115.5 -64.5t-111 -20.5q-55 0 -100 31 t-45 94q0 55 28.5 107.5t63.5 93.5q39 49 92 92q0 2 -19.5 2h-47.5h-95q-31 0 -61.5 2t-55 9.5t-41 22.5t-16.5 42zM106 430q0 -6 12.5 -11t74.5 -5q10 10 34.5 38.5t56 65.5t64.5 78t60.5 75t45 56.5t17.5 24.5q0 4 -4 4t-34 -15.5t-69.5 -41t-85 -59.5t-83 -69.5 t-63.5 -72.5t-26 -68z" />
<glyph unicode="&#xb4;" d="M365 645q16 23 51 61.5t78 75.5t89 64.5t89 27.5q16 0 28.5 -12t12.5 -26q0 -29 -16.5 -48.5t-34.5 -19.5q-39 -2 -86.5 -24.5t-89.5 -48t-73.5 -47t-39.5 -21.5t-8 18z" />
<glyph unicode="&#xb5;" horiz-adv-x="1804" d="M-416 330q0 12 5 30.5t16.5 36t29 29.5t43.5 12q55 0 107.5 -33.5t105 -83t103.5 -108.5t101 -108.5t101.5 -83t104.5 -33.5q45 0 69.5 42t36 110.5t13.5 155.5t2 177q0 43 -1 107.5t-2 136t-2 145.5t-2 137.5t-2 109.5t-1 62q0 35 2 69t8 61.5t15 44t24 16.5 q18 -4 35.5 -20.5t17.5 -55.5q0 -29 -8 -29q-6 0 -12.5 7.5t-10.5 7.5q-8 0 -8 -17.5t-2 -58.5v-99.5t1 -155.5t3 -182t3 -180t2 -149.5t1 -87.5q0 -61 -6 -138t-28.5 -146.5t-69.5 -116.5t-127 -47q-47 0 -100.5 31.5t-106.5 80.5t-106.5 104.5t-102.5 104.5t-91 81t-75 32 q-14 0 -21 -7.5t-13.5 -16.5t-11.5 -16t-17 -7q-6 0 -13 6q-10 10 -10 43zM518 1122q0 63 13.5 86t17.5 23q8 0 15 -12.5t11 -24.5q96 -293 179 -522q35 -98 68.5 -192.5t62 -167t49 -117.5t29.5 -45q4 0 4 9v38q0 10 -1 58t-1 124q0 90 3 216t20.5 261t52 268t99 238.5 t163 171t241.5 65.5q18 0 49 -5t60.5 -17t51 -35.5t21.5 -60.5q0 -8 -10 -8q-12 0 -35.5 13t-91.5 13q-106 0 -199.5 -54t-165 -149.5t-118.5 -224.5t-62 -280q-6 -61 -9 -142.5t-4 -166.5t-2 -165.5t-1 -142.5q0 -78 -3 -124t-8 -72.5t-12.5 -35t-15.5 -8.5q-33 0 -80 73 t-99 185.5t-104.5 251t-94.5 270.5t-67.5 241.5t-25.5 166.5zM1268 760q0 104 42 203.5t120 164.5q25 23 56.5 34.5t61.5 11.5q59 0 97 -27t67 -62q29 -61 45.5 -127.5t16.5 -134.5q0 -61 -14.5 -122.5t-45.5 -116.5q-20 -35 -50 -70t-54 -57q-27 -16 -51.5 -21.5 t-47.5 -5.5q-39 0 -71.5 12.5t-55.5 30.5q-59 53 -87.5 128t-28.5 159zM1290 307q2 18 10 27q4 4 9 4h393q6 0 10 -6t6 -13q2 -8 2 -16q0 -16 -10 -27q-4 -4 -8 -4h-393q-6 0 -11 4q-8 8 -8 31zM1374 752q0 -72 16.5 -131.5t51.5 -88.5q35 -35 69 -34q16 0 34 9t38 25 q16 14 32.5 42t31 65t25 79t14.5 85q-14 -49 -50 -96q-4 -4 -10 -5q-4 0 -10 7v6v4q25 41 37 88t12 90q0 57 -17.5 104.5t-43.5 71.5q-31 25 -54 25q-16 0 -36.5 -9.5t-43.5 -25.5q-23 -20 -40 -54t-29 -76t-19.5 -89t-7.5 -92z" />
<glyph unicode="&#xb6;" horiz-adv-x="1110" d="M41 336q0 68 25.5 138.5t76 136t125 124t172.5 103.5q96 45 181 45q66 0 109.5 -24.5t43.5 -65.5l-129 -975q0 -25 6 -25t10.5 9.5t8.5 15.5l2 2q27 90 60.5 181t71.5 177t79 163t84 138q10 25 23.5 50.5t26.5 46t25.5 34t22.5 13.5q45 0 45 -29q0 -20 -25.5 -62.5 t-69.5 -121t-103.5 -198.5t-125.5 -294q-8 -23 -21 -67t-28.5 -98t-31 -111.5t-28.5 -108.5t-22.5 -88t-11.5 -49q-8 -35 -23.5 -45t-27.5 -10t-21.5 11t-15.5 26.5t-9 29.5t-3 21q0 4 2 49t4 99t5 102.5t3 58.5q2 6 5 46t7 95t9.5 118.5t9.5 120t7 98.5t3 52q0 18 -4 24.5 t-8 6.5q-8 0 -17 -6q-66 -72 -154.5 -113t-164.5 -41q-63 0 -101 17.5t-59.5 45t-32 62.5t-16.5 72z" />
<glyph unicode="&#xb7;" horiz-adv-x="288" d="M72 541q0 12 5 28.5t16 31.5t26.5 26.5t34.5 11.5q29 0 53 -24.5t24 -65.5q0 -23 -9 -43.5t-21.5 -35.5t-26.5 -23.5t-22 -8.5q-31 0 -46.5 13.5t-23.5 31t-9 33.5t-1 25z" />
<glyph unicode="&#xb8;" horiz-adv-x="530" d="M211 -236q0 4 8 5h12q16 0 43 7t33 38q0 12 -8 20q-6 8 -20.5 14.5t-42.5 8.5q-2 0 -5 2q-4 4 -4 8q8 31 18.5 56.5t18.5 35.5q12 31 25 31q6 0 12 -9.5t6 -19.5l-14 -47q0 -4 4 -8q2 -2 4 -2q47 -14 61.5 -37t14.5 -39q0 -8 -4 -23.5t-15.5 -30t-33 -25.5t-58.5 -11 q-51 0 -55 22q-2 2 0 4z" />
<glyph unicode="&#xb9;" horiz-adv-x="763" d="M121 186q0 117 48 185.5t109.5 104.5t120 47.5t76.5 11.5q86 0 120 -48.5t34 -117.5q0 -25 -12.5 -32t-20.5 -7q-12 0 -16.5 20.5t-15.5 45t-37.5 45t-88.5 20.5q-68 0 -109.5 -29t-63 -66.5t-29 -78.5t-7.5 -66q0 -55 18.5 -89t43 -52.5t51.5 -24.5t43 -6q53 0 96 26.5 t75 69.5t54.5 96.5t38 107.5t21.5 103.5t6 84.5q0 106 -29 232t-77 239.5t-109.5 195.5t-126.5 101q-8 0 -12.5 -10.5t-10.5 -21.5t-14 -21.5t-25 -10.5q-16 0 -29.5 12.5t-13.5 40.5q0 43 34 65.5t73 22.5q41 0 87 -33.5t90 -92t85 -136.5t71.5 -166t50 -182t19.5 -182 q0 -111 -24.5 -223.5t-73.5 -203.5t-124 -149.5t-175 -58.5q-43 0 -83 14.5t-70.5 44t-49 72.5t-18.5 100z" />
<glyph unicode="&#xba;" horiz-adv-x="616" d="M57 815q0 104 42 203.5t120 165.5q25 23 56.5 34t62.5 11q59 0 97 -26.5t67 -61.5q29 -61 45 -127.5t16 -134.5q0 -61 -14 -123t-45 -117q-20 -35 -50 -69.5t-55 -57.5q-27 -16 -51 -21.5t-47 -5.5q-39 0 -71.5 12.5t-55.5 30.5q-59 53 -88 128t-29 159zM80 362 q2 18 10 27q4 4 8 4h394q6 0 10 -6t6 -12q2 -9 2 -17q0 -16 -10 -26q-4 -4 -8 -4h-394q-6 0 -10 4q-8 8 -8 30zM164 807q0 -72 16.5 -131.5t50.5 -87.5q35 -35 70 -35q16 0 33.5 9t38.5 26q16 14 32.5 41.5t31 64.5t24.5 79t14 85q-14 -49 -49 -96q-4 -4 -10 -4q-4 0 -10 6 v6v4q25 41 37 88t12 90q0 57 -17.5 104.5t-44.5 71.5q-31 25 -53 25q-16 0 -36.5 -9t-43.5 -26q-23 -20 -40 -54t-29.5 -76t-19.5 -89t-7 -92z" />
<glyph unicode="&#xbb;" horiz-adv-x="387" d="M84 63q0 8 23.5 31t52 54.5t54.5 69.5t32 77q-4 39 -27.5 70.5t-50.5 56t-47.5 41t-20.5 26.5v3q0 10 19 16q18 -8 55 -28.5t76 -48.5t67.5 -59.5t28.5 -62.5v-6l-2 -16q-6 -41 -37 -77t-70.5 -65.5t-77.5 -52t-57 -37.5q-18 0 -18 8zM319 63q0 8 24 31t52.5 54.5 t54 69.5t31.5 77q-4 39 -27.5 70.5t-50 56t-47 41t-20.5 26.5v3q0 10 18 16q18 -8 55 -28.5t76 -48.5t68 -59.5t29 -62.5v-6l-2 -16q-6 -41 -37 -77t-71 -65.5t-78 -52t-56 -37.5q-18 0 -19 8z" />
<glyph unicode="&#xbc;" horiz-adv-x="608" d="M-176 817q0 27 57 45q14 4 72.5 19.5t125 31t120 28.5t59.5 15q47 14 53 31q6 29 7 60.5t4.5 59.5t14.5 45t38 17h2q25 0 35 -17t10 -38q0 -8 -1 -23.5t-1 -31v-28.5v-19q0 -10 10 -11q8 0 39 6.5t72 16.5t88 21.5t89 21.5t73.5 16.5t44.5 6.5q20 0 35.5 -7.5t15.5 -17.5 q0 -23 -48 -41t-118 -35.5t-148.5 -34t-138.5 -32.5q-10 -4 -19 -10.5t-14 -28.5q-10 -49 -21 -105.5t-20.5 -106.5t-15.5 -89t-6 -54q37 -20 93 -39.5t116 -19.5q43 0 92 13.5t106 41.5q8 4 15.5 10.5t17.5 6.5q12 0 24.5 -12.5t12.5 -24.5t-21.5 -29.5t-60.5 -33t-93 -27 t-120 -11.5q-55 0 -98 7.5t-88 23.5q-8 0 -9 -10t-1 -27q0 -18 -2.5 -70.5t-4.5 -111.5t-4 -113.5t-2 -76.5q0 -57 -4 -74t-26 -17q-16 0 -21.5 9.5t-5.5 23.5l2 37q2 33 -9 79t-27.5 94t-33 94t-26.5 81q-20 45 -55 90t-71 83t-64.5 62.5t-35.5 28.5q-12 8 -12 25 q0 2 3 13.5t10.5 21.5t17.5 19.5t22 9.5q6 0 29 -13q8 -4 41 -23.5t72 -41t73.5 -40t47.5 -22.5q8 -4 18 -4q8 0 16.5 31t13.5 77t9 99t4 98q0 29 -14 29q-113 -31 -203 -53q-78 -20 -144.5 -35.5t-76.5 -15.5q-20 0 -28.5 8t-8.5 18zM133 498q12 -10 22.5 -23.5t18.5 -28 t13.5 -23.5t9.5 -9q16 0 25 20.5t9 24.5q0 8 -28.5 24.5t-57.5 26.5q-4 0 -8 -1t-4 -11zM238 324q4 -25 9 -40.5t13 -15.5q6 0 8 22.5t2 55.5v19q0 6 -6 6q-10 0 -14 -7.5t-8 -17.5t-4 -22z" />
<glyph unicode="&#xbd;" horiz-adv-x="1374" d="M-221 967q0 117 43 218t122 175t189.5 116t247.5 42q160 0 288 -53.5t218 -137.5t139 -185.5t49 -199.5q0 -66 -21.5 -113t-56.5 -75l-8 -9q-8 -8 -8 -18q0 -4 2 -8t3 -7t5 -7q84 -84 150 -177q27 -39 53.5 -83t47 -91t32.5 -94t12 -92q-2 -68 -23.5 -119t-54 -87 t-73.5 -55.5t-82 -19.5q-33 0 -78 10.5t-97.5 42t-108.5 91t-114 157.5q-4 10 -6 23q-2 10 -3 24.5t-1 30.5q0 14 6 15q8 0 21.5 -17.5t23.5 -32.5q55 -76 115 -133q51 -51 114.5 -92t127.5 -41q41 0 71.5 14.5t50 37t29.5 50t10 56.5q0 72 -33.5 150.5t-85 153.5 t-112.5 137.5t-117 103.5q-10 -2 -22 -4q-10 -2 -24.5 -2h-31.5q-35 0 -73.5 6t-73.5 22q-2 0 -4 2q-2 0 -4 1t-4 1q-8 0 -14.5 -9t-6.5 -44q0 2 2 -26.5t4 -74.5t4.5 -102.5t2.5 -107.5q0 -70 -9.5 -136.5t-30 -117.5t-52 -83t-76.5 -32q-49 0 -96.5 25.5t-90.5 62.5 t-83 82t-74.5 82t-66.5 62.5t-58 25.5q-23 -4 -30 -21.5t-7 -33.5l4 -37q0 -6 -4 -12.5t-19 -8.5q-12 0 -19 11.5t-10 27t-3 31.5v27q0 16 3 35.5t14 38t31.5 33t55.5 18.5q37 0 79 -26t85 -64.5t86 -82.5t85 -83t80 -65t70 -26q29 0 51.5 32t22.5 126v191q0 49 -1 96t-2 87 t-2 70.5t-1 45.5q0 8 -9 24.5t-67 44.5q6 -4 -25.5 19.5t-73.5 62.5t-77 88t-35 97q0 37 31 51t68 14q25 0 51 -9t48.5 -19.5t41 -19.5t26.5 -9q12 0 13 35v39.5t-1 53t-2 50t-1 29.5q0 10 8 23t29 15q8 0 11 -13t3 -25v-213q0 -10 5 -22.5t28 -27.5q23 -14 74 -51t104 -78 q61 -47 133 -102q16 0 39.5 35t23.5 117t-51 174t-143 169.5t-221 129t-285 51.5q-92 0 -176 -29t-146.5 -90t-100.5 -155.5t-38 -225.5q0 -31 3 -62.5t14 -62.5q14 -41 26 -78q10 -31 19.5 -61.5t9.5 -40.5q0 -6 -2 -6h-2q-45 0 -67.5 28.5t-22.5 49.5v4q0 16 -18.5 85.5 t-18.5 166.5zM381 979q0 -18 23.5 -46t52 -52.5t56.5 -43t38 -18.5q4 0 4 12v16.5t-2 27t-4 25.5t-6 13q-47 27 -74 43.5t-42 23.5t-20.5 9t-9.5 2q-16 0 -16 -12zM606 795q0 -23 25.5 -38.5t59.5 -25.5t64.5 -15t41.5 -7q4 4 4 6q0 12 -29 35.5t-62.5 47t-63.5 42t-32 18.5 q-6 0 -7 -12t-1 -27v-24z" />
<glyph unicode="&#xbe;" horiz-adv-x="1255" d="M-47 420q6 35 40 75t84 79.5t110.5 77.5t120 67t111.5 46t85 17q2 0 18.5 -3t36 -11t34.5 -24.5t15 -43.5q0 -20 -15 -44.5t-40 -51t-56.5 -54.5t-64.5 -52q-78 -59 -176 -121v-8q0 -12 10 -15l56 -6q51 -6 51 -39q-4 -16 -14.5 -30.5t-43.5 -32.5q-16 -8 -39.5 -23.5 t-48 -38t-43 -51.5t-24.5 -61q0 -41 39 -71t82 -30q45 0 103 28t114.5 67.5t105.5 84t78 74.5q0 2 2 4q-4 18 -8 38l-8 40q-6 31 -11.5 74t-10.5 92t-8 101.5t-5 101.5q-6 117 -8 246q-4 78 11 138t58 68h4q10 0 19.5 -7t16.5 -31.5t11.5 -72.5t4.5 -132v-43q0 -12 16 -13 q14 2 77.5 32t140.5 66t148.5 65.5t102.5 29.5q29 0 33 -18q0 -18 -17.5 -36t-68.5 -40q-2 -2 -21.5 -10.5t-49.5 -20.5t-66.5 -28.5t-73.5 -32.5q-90 -39 -201 -88q-6 0 -12 -5q-12 -8 -13 -16q-4 -37 -6 -73t-2 -70q0 -14 3 -61.5t12.5 -109t25 -129t39 -123t57 -92 t78.5 -36.5q47 0 98.5 44t96.5 105.5t81 127t54 108.5q4 23 25 22q8 0 21 -8t13 -18q0 -4 -2 -11.5t-4 -11.5q-2 -8 -4 -12q-61 -117 -111.5 -197t-99.5 -131t-100 -78.5t-111 -38.5q-53 0 -108.5 62.5t-93.5 167.5q-164 -150 -280 -215.5t-212 -65.5q-68 0 -104.5 19.5 t-53.5 44.5q-20 29 -22 65q0 57 38 108.5t82 90.5t80.5 60.5t34.5 21.5q0 2 -19.5 5l-45.5 7q-127 23 -189.5 45.5t-62.5 69.5zM86 406q0 -6 11.5 -13.5t70.5 -17.5q12 8 42 31.5t66.5 55.5t76.5 65.5t73 62t54.5 48t21.5 21.5q0 4 -4 5q-25 0 -92.5 -27t-138 -67t-126 -84 t-55.5 -80z" />
<glyph unicode="&#xbf;" horiz-adv-x="788" d="M109 -72q0 47 26.5 96.5t67.5 99.5t87 101t87 102.5t67.5 102.5t26.5 100q0 25 -6 44.5t-14 35.5q0 6 12 11q20 -6 39 -21q14 -12 26.5 -34.5t12.5 -59.5q0 -41 -24.5 -88t-60.5 -96.5t-78 -99.5t-78 -99t-60.5 -96t-24.5 -88q0 -102 48 -169t165 -67q31 0 66.5 16.5 t67.5 49t53.5 80t21.5 108.5q0 45 -12.5 67.5t-46.5 22.5q-23 0 -57 -19.5t-81 -72.5q-8 -8 -14 -8q-10 0 -10 16q0 37 23.5 66.5t55 49t62.5 31t45 11.5q49 0 79 -42t30 -93q0 -104 -36 -177t-88 -119t-110.5 -67.5t-101.5 -21.5q-55 0 -103.5 21.5t-84 63.5t-57 102 t-21.5 140zM375 821q0 23 9 43.5t21.5 35.5t25.5 23.5t24 8.5q31 0 46 -13.5t23 -31t9.5 -34t1.5 -24.5q0 -12 -5.5 -28.5t-16.5 -31.5t-26.5 -26.5t-33.5 -11.5q-29 0 -53.5 24.5t-24.5 65.5z" />
<glyph unicode="&#xc0;" horiz-adv-x="1245" d="M-55 453q0 211 71.5 383t189.5 294.5t270.5 189t314.5 66.5q49 0 121.5 -12t140 -49t114.5 -105.5t47 -179.5q0 -35 -10 -80t-28.5 -92t-46 -94t-64.5 -86q0 -74 -10.5 -131t-23.5 -99t-25.5 -69t-18.5 -35q-10 -12 -10 -39q0 -29 31.5 -85t82 -111.5t113 -97 t123.5 -41.5q19 -1 19 -21q0 -16 -8.5 -25.5t-20.5 -13.5t-27.5 -5t-29.5 -1q-61 0 -117 29.5t-99 68.5t-72.5 79t-39.5 61q-10 23 -19.5 29.5t-15.5 6.5q-8 0 -15.5 -11t-29.5 -40q-55 -68 -114.5 -110.5t-118 -67.5t-114.5 -33t-102 -8q-123 0 -210 50t-142 129 t-80.5 173.5t-25.5 182.5zM37 526q0 -129 40 -229t102.5 -169t138 -104.5t147.5 -35.5q82 0 147.5 29.5t114.5 68.5t82 77t45 56q14 14 18.5 28.5t4.5 22.5t-8.5 30t-17.5 54.5t-16.5 75.5t-7.5 94q-45 -16 -84 -28q-35 -10 -68.5 -19.5t-49.5 -9.5q-12 0 -21.5 4t-9.5 16 q0 18 22 31q8 6 23 6q35 8 58.5 14.5t43 14.5t39 16.5t45.5 20.5q2 33 8.5 90t22.5 112.5t45 96.5t76 41q29 0 51.5 -38t30.5 -124q35 49 54.5 93.5t19.5 105.5t-23 124.5t-69 113.5t-115.5 83t-161.5 33q-174 0 -309.5 -73.5t-228.5 -188.5t-141 -256t-48 -277zM637 1710 q0 14 12.5 26.5t28.5 12.5q43 0 89 -26.5t89 -63.5t78 -75.5t51 -63.5q0 -18 -8 -19q-8 0 -40 21.5t-74 47t-89 48t-86 24.5q-18 0 -34.5 19.5t-16.5 48.5zM887 616q39 18 68.5 42t52.5 47q-6 96 -17.5 130.5t-32.5 34.5q-16 0 -28 -26.5t-22.5 -66.5t-15.5 -84t-5 -77z M895 559q12 -59 18.5 -92t10.5 -49.5t9 -20.5t15 -4t19.5 28t16.5 65.5t12.5 78.5t9.5 66q-4 -4 -20.5 -15.5t-37.5 -23.5z" />
<glyph unicode="&#xc1;" horiz-adv-x="1245" d="M-55 453q0 211 71.5 383t189.5 294.5t270.5 189t314.5 66.5q49 0 121.5 -12t140 -49t114.5 -105.5t47 -179.5q0 -35 -10 -80t-28.5 -92t-46 -94t-64.5 -86q0 -74 -10.5 -131t-23.5 -99t-25.5 -69t-18.5 -35q-10 -12 -10 -39q0 -29 31.5 -85t82 -111.5t113 -97 t123.5 -41.5q19 -1 19 -21q0 -16 -8.5 -25.5t-20.5 -13.5t-27.5 -5t-29.5 -1q-61 0 -117 29.5t-99 68.5t-72.5 79t-39.5 61q-10 23 -19.5 29.5t-15.5 6.5q-8 0 -15.5 -11t-29.5 -40q-55 -68 -114.5 -110.5t-118 -67.5t-114.5 -33t-102 -8q-123 0 -210 50t-142 129 t-80.5 173.5t-25.5 182.5zM37 526q0 -129 40 -229t102.5 -169t138 -104.5t147.5 -35.5q82 0 147.5 29.5t114.5 68.5t82 77t45 56q14 14 18.5 28.5t4.5 22.5t-8.5 30t-17.5 54.5t-16.5 75.5t-7.5 94q-45 -16 -84 -28q-35 -10 -68.5 -19.5t-49.5 -9.5q-12 0 -21.5 4t-9.5 16 q0 18 22 31q8 6 23 6q35 8 58.5 14.5t43 14.5t39 16.5t45.5 20.5q2 33 8.5 90t22.5 112.5t45 96.5t76 41q29 0 51.5 -38t30.5 -124q35 49 54.5 93.5t19.5 105.5t-23 124.5t-69 113.5t-115.5 83t-161.5 33q-174 0 -309.5 -73.5t-228.5 -188.5t-141 -256t-48 -277zM618 1470 q16 23 51.5 62t78.5 76t89 64.5t89 27.5q16 0 28.5 -12.5t12.5 -26.5q0 -29 -16.5 -48.5t-35.5 -19.5q-39 -2 -86 -24.5t-89 -48t-73.5 -47t-39.5 -21.5t-9 18zM887 616q39 18 68.5 42t52.5 47q-6 96 -17.5 130.5t-32.5 34.5q-16 0 -28 -26.5t-22.5 -66.5t-15.5 -84t-5 -77z M895 559q12 -59 18.5 -92t10.5 -49.5t9 -20.5t15 -4t19.5 28t16.5 65.5t12.5 78.5t9.5 66q-4 -4 -20.5 -15.5t-37.5 -23.5z" />
<glyph unicode="&#xc2;" horiz-adv-x="1245" d="M-55 453q0 211 71.5 383t189.5 294.5t270.5 189t314.5 66.5q49 0 121.5 -12t140 -49t114.5 -105.5t47 -179.5q0 -35 -10 -80t-28.5 -92t-46 -94t-64.5 -86q0 -74 -10.5 -131t-23.5 -99t-25.5 -69t-18.5 -35q-10 -12 -10 -39q0 -29 31.5 -85t82 -111.5t113 -97 t123.5 -41.5q19 -1 19 -21q0 -16 -8.5 -25.5t-20.5 -13.5t-27.5 -5t-29.5 -1q-61 0 -117 29.5t-99 68.5t-72.5 79t-39.5 61q-10 23 -19.5 29.5t-15.5 6.5q-8 0 -15.5 -11t-29.5 -40q-55 -68 -114.5 -110.5t-118 -67.5t-114.5 -33t-102 -8q-123 0 -210 50t-142 129 t-80.5 173.5t-25.5 182.5zM37 526q0 -129 40 -229t102.5 -169t138 -104.5t147.5 -35.5q82 0 147.5 29.5t114.5 68.5t82 77t45 56q14 14 18.5 28.5t4.5 22.5t-8.5 30t-17.5 54.5t-16.5 75.5t-7.5 94q-45 -16 -84 -28q-35 -10 -68.5 -19.5t-49.5 -9.5q-12 0 -21.5 4t-9.5 16 q0 18 22 31q8 6 23 6q35 8 58.5 14.5t43 14.5t39 16.5t45.5 20.5q2 33 8.5 90t22.5 112.5t45 96.5t76 41q29 0 51.5 -38t30.5 -124q35 49 54.5 93.5t19.5 105.5t-23 124.5t-69 113.5t-115.5 83t-161.5 33q-174 0 -309.5 -73.5t-228.5 -188.5t-141 -256t-48 -277zM520 1499 q18 16 45 51t59.5 71t70.5 64.5t79 32.5h17q31 0 61.5 -30.5t55 -72.5t42 -83t23.5 -59q-6 -20 -21 -17q-8 2 -22.5 24.5t-36 50.5t-51 54.5t-68.5 34.5q-39 -2 -79 -23.5t-74.5 -47t-59 -47t-33.5 -21.5q-8 0 -8 18zM887 616q39 18 68.5 42t52.5 47q-6 96 -17.5 130.5 t-32.5 34.5q-16 0 -28 -26.5t-22.5 -66.5t-15.5 -84t-5 -77zM895 559q12 -59 18.5 -92t10.5 -49.5t9 -20.5t15 -4t19.5 28t16.5 65.5t12.5 78.5t9.5 66q-4 -4 -20.5 -15.5t-37.5 -23.5z" />
<glyph unicode="&#xc3;" horiz-adv-x="1245" d="M-55 453q0 211 71.5 383t189.5 294.5t270.5 189t314.5 66.5q49 0 121.5 -12t140 -49t114.5 -105.5t47 -179.5q0 -35 -10 -80t-28.5 -92t-46 -94t-64.5 -86q0 -74 -10.5 -131t-23.5 -99t-25.5 -69t-18.5 -35q-10 -12 -10 -39q0 -29 31.5 -85t82 -111.5t113 -97 t123.5 -41.5q19 -1 19 -21q0 -16 -8.5 -25.5t-20.5 -13.5t-27.5 -5t-29.5 -1q-61 0 -117 29.5t-99 68.5t-72.5 79t-39.5 61q-10 23 -19.5 29.5t-15.5 6.5q-8 0 -15.5 -11t-29.5 -40q-55 -68 -114.5 -110.5t-118 -67.5t-114.5 -33t-102 -8q-123 0 -210 50t-142 129 t-80.5 173.5t-25.5 182.5zM37 526q0 -129 40 -229t102.5 -169t138 -104.5t147.5 -35.5q82 0 147.5 29.5t114.5 68.5t82 77t45 56q14 14 18.5 28.5t4.5 22.5t-8.5 30t-17.5 54.5t-16.5 75.5t-7.5 94q-45 -16 -84 -28q-35 -10 -68.5 -19.5t-49.5 -9.5q-12 0 -21.5 4t-9.5 16 q0 18 22 31q8 6 23 6q35 8 58.5 14.5t43 14.5t39 16.5t45.5 20.5q2 33 8.5 90t22.5 112.5t45 96.5t76 41q29 0 51.5 -38t30.5 -124q35 49 54.5 93.5t19.5 105.5t-23 124.5t-69 113.5t-115.5 83t-161.5 33q-174 0 -309.5 -73.5t-228.5 -188.5t-141 -256t-48 -277zM541 1538 q0 45 38.5 68.5t75.5 23.5q31 0 55.5 -12t49 -27.5t52.5 -28t69 -12.5q29 0 46 19.5t21 23.5q10 0 15.5 -14.5t5.5 -22.5q0 -45 -39 -68.5t-76 -23.5q-31 0 -53.5 12.5t-45 28t-49 28.5t-63.5 13q-47 0 -62.5 -20.5t-19.5 -24.5q-10 0 -15 14.5t-5 22.5zM887 616 q39 18 68.5 42t52.5 47q-6 96 -17.5 130.5t-32.5 34.5q-16 0 -28 -26.5t-22.5 -66.5t-15.5 -84t-5 -77zM895 559q12 -59 18.5 -92t10.5 -49.5t9 -20.5t15 -4t19.5 28t16.5 65.5t12.5 78.5t9.5 66q-4 -4 -20.5 -15.5t-37.5 -23.5z" />
<glyph unicode="&#xc4;" horiz-adv-x="1245" d="M-55 453q0 211 71.5 383t189.5 294.5t270.5 189t314.5 66.5q49 0 121.5 -12t140 -49t114.5 -105.5t47 -179.5q0 -35 -10 -80t-28.5 -92t-46 -94t-64.5 -86q0 -74 -10.5 -131t-23.5 -99t-25.5 -69t-18.5 -35q-10 -12 -10 -39q0 -29 31.5 -85t82 -111.5t113 -97 t123.5 -41.5q19 -1 19 -21q0 -16 -8.5 -25.5t-20.5 -13.5t-27.5 -5t-29.5 -1q-61 0 -117 29.5t-99 68.5t-72.5 79t-39.5 61q-10 23 -19.5 29.5t-15.5 6.5q-8 0 -15.5 -11t-29.5 -40q-55 -68 -114.5 -110.5t-118 -67.5t-114.5 -33t-102 -8q-123 0 -210 50t-142 129 t-80.5 173.5t-25.5 182.5zM37 526q0 -129 40 -229t102.5 -169t138 -104.5t147.5 -35.5q82 0 147.5 29.5t114.5 68.5t82 77t45 56q14 14 18.5 28.5t4.5 22.5t-8.5 30t-17.5 54.5t-16.5 75.5t-7.5 94q-45 -16 -84 -28q-35 -10 -68.5 -19.5t-49.5 -9.5q-12 0 -21.5 4t-9.5 16 q0 18 22 31q8 6 23 6q35 8 58.5 14.5t43 14.5t39 16.5t45.5 20.5q2 33 8.5 90t22.5 112.5t45 96.5t76 41q29 0 51.5 -38t30.5 -124q35 49 54.5 93.5t19.5 105.5t-23 124.5t-69 113.5t-115.5 83t-161.5 33q-174 0 -309.5 -73.5t-228.5 -188.5t-141 -256t-48 -277zM508 1554 q0 20 17.5 51t49.5 31q23 0 43.5 -20t20.5 -53q0 -41 -24.5 -67t-41.5 -26q-25 0 -38 11.5t-19 25t-7 27.5t-1 20zM795 1561q0 20 17 50.5t50 30.5q23 0 43.5 -20t20.5 -53q0 -41 -24.5 -66.5t-41.5 -25.5q-25 0 -38 11t-19 24.5t-7 27.5t-1 21zM887 616q39 18 68.5 42 t52.5 47q-6 96 -17.5 130.5t-32.5 34.5q-16 0 -28 -26.5t-22.5 -66.5t-15.5 -84t-5 -77zM895 559q12 -59 18.5 -92t10.5 -49.5t9 -20.5t15 -4t19.5 28t16.5 65.5t12.5 78.5t9.5 66q-4 -4 -20.5 -15.5t-37.5 -23.5z" />
<glyph unicode="&#xc5;" horiz-adv-x="1245" d="M-55 453q0 211 71.5 383t189.5 294.5t270.5 189t314.5 66.5q49 0 121.5 -12t140 -49t114.5 -105.5t47 -179.5q0 -35 -10 -80t-28.5 -92t-46 -94t-64.5 -86q0 -74 -10.5 -131t-23.5 -99t-25.5 -69t-18.5 -35q-10 -12 -10 -39q0 -29 31.5 -85t82 -111.5t113 -97 t123.5 -41.5q19 -1 19 -21q0 -16 -8.5 -25.5t-20.5 -13.5t-27.5 -5t-29.5 -1q-61 0 -117 29.5t-99 68.5t-72.5 79t-39.5 61q-10 23 -19.5 29.5t-15.5 6.5q-8 0 -15.5 -11t-29.5 -40q-55 -68 -114.5 -110.5t-118 -67.5t-114.5 -33t-102 -8q-123 0 -210 50t-142 129 t-80.5 173.5t-25.5 182.5zM37 526q0 -129 40 -229t102.5 -169t138 -104.5t147.5 -35.5q82 0 147.5 29.5t114.5 68.5t82 77t45 56q14 14 18.5 28.5t4.5 22.5t-8.5 30t-17.5 54.5t-16.5 75.5t-7.5 94q-45 -16 -84 -28q-35 -10 -68.5 -19.5t-49.5 -9.5q-12 0 -21.5 4t-9.5 16 q0 18 22 31q8 6 23 6q35 8 58.5 14.5t43 14.5t39 16.5t45.5 20.5q2 33 8.5 90t22.5 112.5t45 96.5t76 41q29 0 51.5 -38t30.5 -124q35 49 54.5 93.5t19.5 105.5t-23 124.5t-69 113.5t-115.5 83t-161.5 33q-174 0 -309.5 -73.5t-228.5 -188.5t-141 -256t-48 -277zM631 1579 q2 41 20 76q16 29 50 53.5t100 24.5q39 0 60.5 -17.5t31.5 -38.5q10 -22 12 -53q-2 -43 -20 -76q-16 -29 -49 -51t-95 -22q-41 0 -63.5 15t-32.5 36q-12 23 -14 53zM688 1589q0 -18 8 -30q6 -10 19.5 -19.5t38.5 -9.5q35 0 53 12t29 29q10 18 12 43q0 16 -8 31 q-6 12 -18.5 22t-35.5 10q-37 0 -56 -14t-30 -31q-10 -20 -12 -43zM887 616q39 18 68.5 42t52.5 47q-6 96 -17.5 130.5t-32.5 34.5q-16 0 -28 -26.5t-22.5 -66.5t-15.5 -84t-5 -77zM895 559q12 -59 18.5 -92t10.5 -49.5t9 -20.5t15 -4t19.5 28t16.5 65.5t12.5 78.5t9.5 66 q-4 -4 -20.5 -15.5t-37.5 -23.5z" />
<glyph unicode="&#xc6;" horiz-adv-x="1976" d="M-55 698q0 4 6 8.5t24 4.5q57 0 144 12q39 154 121 276.5t190.5 208.5t236.5 132t263 46q31 0 69.5 -4t81.5 -15t85 -29.5t79 -49.5q70 41 139.5 71t133 50.5t118 29.5t90.5 9q53 0 84 -15.5t31 -50.5q0 -47 -38 -96t-100.5 -97t-142 -93t-161.5 -84q-195 -94 -443 -181 q2 -27 21 -49q16 -18 49 -33.5t94 -15.5q43 0 84 8.5t96.5 31t131 61t184.5 100.5q8 4 13 6t9 2q8 0 18.5 -8t10.5 -19q0 -14 -27 -28q-20 -14 -67 -46t-106.5 -77t-122 -100.5t-114.5 -118t-86 -132t-34 -141.5q0 -47 14.5 -93t45 -81t76.5 -56.5t112 -21.5q96 0 185 28 t170 75t157 107.5t147 125.5q2 4 8 11q4 4 9.5 7t13.5 3q10 0 20.5 -8.5t10.5 -20.5q0 -20 -37 -61t-98.5 -88t-140.5 -97.5t-161.5 -91.5t-163.5 -66.5t-147 -25.5q-139 0 -231 51t-109 168q-55 -68 -114.5 -110.5t-118 -67.5t-114.5 -33t-101 -8q-123 0 -210 50 t-142.5 129t-81 173.5t-25.5 182.5q0 47 4 91t10 87q-12 4 -37.5 11t-51 16.5t-45 19.5t-19.5 20zM176 526q0 -129 40 -229t102.5 -169t138 -104.5t147.5 -35.5q80 0 144.5 28.5t113.5 66.5t82 76t47 56q4 41 21.5 96.5t53.5 118t90 130t134 130.5q33 27 33 33q0 2 -4 2 q-6 0 -22.5 -5t-34 -12.5t-33 -14.5t-21.5 -9t-25.5 -8t-47 -13.5t-61.5 -13.5t-68 -6q-74 0 -109 47t-45 107q-12 0 -79.5 -21.5t-165 -49.5t-210 -54.5t-213.5 -36.5q-4 -29 -6 -55.5t-2 -53.5zM203 735q86 14 181 35t185 42.5t167 45t126 43.5q49 102 126 183.5 t165 144.5q-45 41 -106.5 66.5t-143.5 25.5q-141 0 -257 -49t-204 -131t-148.5 -187.5t-90.5 -218.5zM981 958q0 -10 12 -10t25 6q8 2 14 7q27 8 89.5 34.5t143.5 63.5t167 81t157.5 86t117.5 77.5t46 58.5q0 25 -49 24q-82 0 -168 -27.5t-166 -69.5t-150.5 -92t-124 -98 t-84 -86t-30.5 -55z" />
<glyph unicode="&#xc7;" horiz-adv-x="1204" d="M-111 723q0 150 50.5 293t137.5 255.5t202.5 181.5t248.5 69q123 0 229.5 -42t183.5 -109.5t121 -154t44 -172.5q0 -47 -19.5 -65t-48.5 -18q-31 0 -70.5 17t-76.5 44t-66.5 55.5t-42.5 52.5q-8 16 -14 20.5t-10 4.5q-10 0 -15.5 -15.5t-25.5 -15.5q-23 0 -23 27 q0 29 14.5 79t14.5 99q0 29 -8 54.5t-29.5 45t-57.5 30.5t-93 11q-100 0 -197.5 -48t-174.5 -136t-124 -214t-47 -279q0 -147 59.5 -298t169 -273t263 -198.5t343.5 -76.5q106 0 179 24.5t119 53t71 53t37 24.5q8 0 11 -3l7 -7l4 -8q0 -16 -13 -41t-34 -39 q-6 -4 -37.5 -25.5t-89 -46t-136.5 -44t-177 -19.5q-84 0 -160 12l-10 -37q0 -4 4 -8q2 -2 4 -2q47 -14 61.5 -36.5t14.5 -39.5q0 -8 -4 -23.5t-15.5 -29.5t-33 -25.5t-58.5 -11.5q-51 0 -55 23q-2 2 0 4q0 4 8 4h13q16 0 42.5 7t32.5 38q0 12 -8 20q-6 8 -20.5 14.5 t-42.5 8.5q-2 0 -4 2q-4 4 -5 8q8 31 19.5 56.5t17.5 35.5q-156 33 -280.5 111t-213.5 189.5t-137.5 247.5t-48.5 286zM784 1374q0 -4 21.5 -53t55.5 -106.5t76 -104.5t83 -47q16 0 16 14q0 27 -31.5 78t-72.5 101.5t-83 87t-61 36.5q-4 0 -4 -6z" />
<glyph unicode="&#xc8;" horiz-adv-x="1085" d="M-946 698q0 4 6 8.5t25 4.5q43 0 111.5 9t151.5 23.5t174 34t175 40t155.5 42t118.5 41.5q47 94 117 172t150.5 138.5t167 105.5t167 73.5t149.5 43t114 14.5q53 0 83.5 -15.5t30.5 -50.5q0 -47 -38 -96t-100 -97t-142 -93t-162 -84q-195 -94 -442 -181q2 -27 20 -49 q16 -18 49 -33.5t94 -15.5q43 0 84 8.5t96.5 31t131 61t184.5 100.5q8 4 13 6t10 2q8 0 18 -8t10 -19q0 -14 -26 -28q-20 -14 -67.5 -46t-107 -77t-122 -100.5t-114.5 -118t-86 -132t-34 -141.5q0 -47 14.5 -93t45 -81t76.5 -56.5t112 -21.5q96 0 185 28t170 75t157 107.5 t147 125.5q2 4 9 11q4 4 9 7t13 3q10 0 20.5 -8.5t10.5 -20.5q0 -20 -37 -61t-98.5 -88t-140 -97.5t-161.5 -91.5t-164 -66.5t-147 -25.5q-76 0 -138 14.5t-107 47t-71 83t-26 121.5q0 37 14.5 94.5t49.5 125t92 141t145 145.5q33 27 33 33q0 2 -4 2q-6 0 -22.5 -5 t-34 -12.5t-32.5 -14.5t-22 -9q-6 -2 -25.5 -8t-47 -13.5t-61 -13.5t-68.5 -6q-74 0 -109 47t-45 107q-8 0 -49 -12.5t-102.5 -31t-138.5 -40t-157.5 -40t-160.5 -30.5t-146 -12q-12 4 -37.5 11t-51 16.5t-45 19.5t-19.5 20zM90 958q0 -10 12 -10t25 6q8 2 14 7 q27 8 89.5 34.5t143.5 63.5t167 81t157.5 86t117.5 77.5t46 58.5q0 25 -49 24q-82 0 -168 -27.5t-166 -69.5t-150.5 -92t-123.5 -98t-84 -86t-31 -55zM369 1731q0 14 12 26t29 12q43 0 89 -26.5t89 -63.5t78 -75.5t51 -63.5q0 -18 -8 -18t-40 21.5t-74 47t-89 48t-86 24.5 q-18 0 -34.5 19.5t-16.5 48.5z" />
<glyph unicode="&#xc9;" horiz-adv-x="1085" d="M-946 698q0 4 6 8.5t25 4.5q43 0 111.5 9t151.5 23.5t174 34t175 40t155.5 42t118.5 41.5q47 94 117 172t150.5 138.5t167 105.5t167 73.5t149.5 43t114 14.5q53 0 83.5 -15.5t30.5 -50.5q0 -47 -38 -96t-100 -97t-142 -93t-162 -84q-195 -94 -442 -181q2 -27 20 -49 q16 -18 49 -33.5t94 -15.5q43 0 84 8.5t96.5 31t131 61t184.5 100.5q8 4 13 6t10 2q8 0 18 -8t10 -19q0 -14 -26 -28q-20 -14 -67.5 -46t-107 -77t-122 -100.5t-114.5 -118t-86 -132t-34 -141.5q0 -47 14.5 -93t45 -81t76.5 -56.5t112 -21.5q96 0 185 28t170 75t157 107.5 t147 125.5q2 4 9 11q4 4 9 7t13 3q10 0 20.5 -8.5t10.5 -20.5q0 -20 -37 -61t-98.5 -88t-140 -97.5t-161.5 -91.5t-164 -66.5t-147 -25.5q-76 0 -138 14.5t-107 47t-71 83t-26 121.5q0 37 14.5 94.5t49.5 125t92 141t145 145.5q33 27 33 33q0 2 -4 2q-6 0 -22.5 -5 t-34 -12.5t-32.5 -14.5t-22 -9q-6 -2 -25.5 -8t-47 -13.5t-61 -13.5t-68.5 -6q-74 0 -109 47t-45 107q-8 0 -49 -12.5t-102.5 -31t-138.5 -40t-157.5 -40t-160.5 -30.5t-146 -12q-12 4 -37.5 11t-51 16.5t-45 19.5t-19.5 20zM90 958q0 -10 12 -10t25 6q8 2 14 7 q27 8 89.5 34.5t143.5 63.5t167 81t157.5 86t117.5 77.5t46 58.5q0 25 -49 24q-82 0 -168 -27.5t-166 -69.5t-150.5 -92t-123.5 -98t-84 -86t-31 -55zM412 1499q16 23 51 61.5t78 75.5t89 65t89 28q16 0 28.5 -12.5t12.5 -26.5q0 -29 -16.5 -48.5t-34.5 -19.5 q-39 -2 -86.5 -24.5t-89 -48t-73.5 -47t-40 -21.5t-8 18z" />
<glyph unicode="&#xca;" horiz-adv-x="1085" d="M-946 698q0 4 6 8.5t25 4.5q43 0 111.5 9t151.5 23.5t174 34t175 40t155.5 42t118.5 41.5q47 94 117 172t150.5 138.5t167 105.5t167 73.5t149.5 43t114 14.5q53 0 83.5 -15.5t30.5 -50.5q0 -47 -38 -96t-100 -97t-142 -93t-162 -84q-195 -94 -442 -181q2 -27 20 -49 q16 -18 49 -33.5t94 -15.5q43 0 84 8.5t96.5 31t131 61t184.5 100.5q8 4 13 6t10 2q8 0 18 -8t10 -19q0 -14 -26 -28q-20 -14 -67.5 -46t-107 -77t-122 -100.5t-114.5 -118t-86 -132t-34 -141.5q0 -47 14.5 -93t45 -81t76.5 -56.5t112 -21.5q96 0 185 28t170 75t157 107.5 t147 125.5q2 4 9 11q4 4 9 7t13 3q10 0 20.5 -8.5t10.5 -20.5q0 -20 -37 -61t-98.5 -88t-140 -97.5t-161.5 -91.5t-164 -66.5t-147 -25.5q-76 0 -138 14.5t-107 47t-71 83t-26 121.5q0 37 14.5 94.5t49.5 125t92 141t145 145.5q33 27 33 33q0 2 -4 2q-6 0 -22.5 -5 t-34 -12.5t-32.5 -14.5t-22 -9q-6 -2 -25.5 -8t-47 -13.5t-61 -13.5t-68.5 -6q-74 0 -109 47t-45 107q-8 0 -49 -12.5t-102.5 -31t-138.5 -40t-157.5 -40t-160.5 -30.5t-146 -12q-12 4 -37.5 11t-51 16.5t-45 19.5t-19.5 20zM90 958q0 -10 12 -10t25 6q8 2 14 7 q27 8 89.5 34.5t143.5 63.5t167 81t157.5 86t117.5 77.5t46 58.5q0 25 -49 24q-82 0 -168 -27.5t-166 -69.5t-150.5 -92t-123.5 -98t-84 -86t-31 -55zM315 1546q18 16 45 51t60 71t70.5 64.5t78.5 32.5h17q31 0 61.5 -30.5t55 -72.5t42 -83t23.5 -59q-6 -20 -20 -17 q-8 2 -22.5 24.5t-36 50.5t-51.5 54.5t-69 34.5q-39 -2 -78.5 -23.5t-74.5 -47t-59.5 -47t-32.5 -21.5t-9 18z" />
<glyph unicode="&#xcb;" horiz-adv-x="1085" d="M-946 698q0 4 6 8.5t25 4.5q43 0 111.5 9t151.5 23.5t174 34t175 40t155.5 42t118.5 41.5q47 94 117 172t150.5 138.5t167 105.5t167 73.5t149.5 43t114 14.5q53 0 83.5 -15.5t30.5 -50.5q0 -47 -38 -96t-100 -97t-142 -93t-162 -84q-195 -94 -442 -181q2 -27 20 -49 q16 -18 49 -33.5t94 -15.5q43 0 84 8.5t96.5 31t131 61t184.5 100.5q8 4 13 6t10 2q8 0 18 -8t10 -19q0 -14 -26 -28q-20 -14 -67.5 -46t-107 -77t-122 -100.5t-114.5 -118t-86 -132t-34 -141.5q0 -47 14.5 -93t45 -81t76.5 -56.5t112 -21.5q96 0 185 28t170 75t157 107.5 t147 125.5q2 4 9 11q4 4 9 7t13 3q10 0 20.5 -8.5t10.5 -20.5q0 -20 -37 -61t-98.5 -88t-140 -97.5t-161.5 -91.5t-164 -66.5t-147 -25.5q-76 0 -138 14.5t-107 47t-71 83t-26 121.5q0 37 14.5 94.5t49.5 125t92 141t145 145.5q33 27 33 33q0 2 -4 2q-6 0 -22.5 -5 t-34 -12.5t-32.5 -14.5t-22 -9q-6 -2 -25.5 -8t-47 -13.5t-61 -13.5t-68.5 -6q-74 0 -109 47t-45 107q-8 0 -49 -12.5t-102.5 -31t-138.5 -40t-157.5 -40t-160.5 -30.5t-146 -12q-12 4 -37.5 11t-51 16.5t-45 19.5t-19.5 20zM90 958q0 -10 12 -10t25 6q8 2 14 7 q27 8 89.5 34.5t143.5 63.5t167 81t157.5 86t117.5 77.5t46 58.5q0 25 -49 24q-82 0 -168 -27.5t-166 -69.5t-150.5 -92t-123.5 -98t-84 -86t-31 -55zM334 1618q0 20 17.5 51t49.5 31q23 0 43.5 -20.5t20.5 -53.5q0 -41 -24.5 -66.5t-41.5 -25.5q-25 0 -38 11t-19 24.5 t-7 28t-1 20.5zM621 1624q0 20 17 51t50 31q23 0 43.5 -20.5t20.5 -53.5q0 -41 -25 -66.5t-41 -25.5q-25 0 -38 11.5t-19 24.5t-7 27.5t-1 20.5z" />
<glyph unicode="&#xcc;" horiz-adv-x="985" d="M-264 338q0 41 31.5 70.5t76.5 29.5q63 0 119.5 -29.5t109 -74.5t103.5 -97.5t103.5 -97.5t108.5 -74.5t122 -29.5q72 0 120 35.5t77.5 94t45 129.5t21.5 140.5t7 130t3 97.5q0 12 -6 12q-4 0 -7 -2l-9 -6q-4 -2 -20.5 -10.5t-41 -16.5t-56.5 -15.5t-64 -7.5 q-59 0 -106.5 30t-79.5 73t-48 91t-16 85q0 92 18.5 202.5t55 206t91 159t123.5 63.5q51 0 88 -59.5t62 -139.5t40 -161t21 -124q6 -41 8.5 -78.5t2.5 -67.5t2 -47.5t12 -17.5q6 0 25 19q20 23 34.5 46.5t24.5 42.5t16.5 31.5t12.5 12.5q4 0 8 -6q8 -12 8 -41q0 -8 -11 -35 t-29.5 -59.5t-43.5 -63t-51 -49.5q-4 -49 -5 -127t-11.5 -166t-32 -178t-63.5 -162.5t-109.5 -118t-167.5 -45.5q-63 0 -127 30t-123 75t-115.5 96t-104.5 96t-88 75t-69 30q-16 0 -25.5 -8.5t-16.5 -18.5t-13 -18t-17 -8q-6 0 -15 13t-9 44zM389 1835q0 14 12.5 26.5 t28.5 12.5q43 0 89 -26.5t89 -63.5t78 -75.5t51 -63.5q0 -18 -8 -19q-8 0 -40 21.5t-74 47t-89 48t-86 24.5q-18 0 -34.5 19.5t-16.5 48.5zM434 1036q0 -61 11.5 -120.5t37 -106.5t66.5 -77t102 -30q29 0 51.5 6.5t40.5 16.5q21 9 39 23q0 49 -3 119.5t-12 147.5 t-23.5 152.5t-35 136t-50 97.5t-66.5 37q-29 0 -57.5 -44t-51 -106.5t-36 -131.5t-13.5 -120z" />
<glyph unicode="&#xcd;" horiz-adv-x="985" d="M-264 338q0 41 31.5 70.5t76.5 29.5q63 0 119.5 -29.5t109 -74.5t103.5 -97.5t103.5 -97.5t108.5 -74.5t122 -29.5q72 0 120 35.5t77.5 94t45 129.5t21.5 140.5t7 130t3 97.5q0 12 -6 12q-4 0 -7 -2l-9 -6q-4 -2 -20.5 -10.5t-41 -16.5t-56.5 -15.5t-64 -7.5 q-59 0 -106.5 30t-79.5 73t-48 91t-16 85q0 92 18.5 202.5t55 206t91 159t123.5 63.5q51 0 88 -59.5t62 -139.5t40 -161t21 -124q6 -41 8.5 -78.5t2.5 -67.5t2 -47.5t12 -17.5q6 0 25 19q20 23 34.5 46.5t24.5 42.5t16.5 31.5t12.5 12.5q4 0 8 -6q8 -12 8 -41q0 -8 -11 -35 t-29.5 -59.5t-43.5 -63t-51 -49.5q-4 -49 -5 -127t-11.5 -166t-32 -178t-63.5 -162.5t-109.5 -118t-167.5 -45.5q-63 0 -127 30t-123 75t-115.5 96t-104.5 96t-88 75t-69 30q-16 0 -25.5 -8.5t-16.5 -18.5t-13 -18t-17 -8q-6 0 -15 13t-9 44zM360 1604q16 23 51 61.5 t78 75.5t89.5 64.5t89.5 27.5q16 0 28.5 -12.5t12.5 -26.5q0 -29 -16.5 -48.5t-35.5 -19.5q-39 -2 -86 -24.5t-89 -48t-73.5 -47t-39.5 -21.5t-9 19zM434 1036q0 -61 11.5 -120.5t37 -106.5t66.5 -77t102 -30q29 0 51.5 6.5t40.5 16.5q21 9 39 23q0 49 -3 119.5t-12 147.5 t-23.5 152.5t-35 136t-50 97.5t-66.5 37q-29 0 -57.5 -44t-51 -106.5t-36 -131.5t-13.5 -120z" />
<glyph unicode="&#xce;" horiz-adv-x="985" d="M-264 338q0 41 31.5 70.5t76.5 29.5q63 0 119.5 -29.5t109 -74.5t103.5 -97.5t103.5 -97.5t108.5 -74.5t122 -29.5q72 0 120 35.5t77.5 94t45 129.5t21.5 140.5t7 130t3 97.5q0 12 -6 12q-4 0 -7 -2l-9 -6q-4 -2 -20.5 -10.5t-41 -16.5t-56.5 -15.5t-64 -7.5 q-59 0 -106.5 30t-79.5 73t-48 91t-16 85q0 92 18.5 202.5t55 206t91 159t123.5 63.5q51 0 88 -59.5t62 -139.5t40 -161t21 -124q6 -41 8.5 -78.5t2.5 -67.5t2 -47.5t12 -17.5q6 0 25 19q20 23 34.5 46.5t24.5 42.5t16.5 31.5t12.5 12.5q4 0 8 -6q8 -12 8 -41q0 -8 -11 -35 t-29.5 -59.5t-43.5 -63t-51 -49.5q-4 -49 -5 -127t-11.5 -166t-32 -178t-63.5 -162.5t-109.5 -118t-167.5 -45.5q-63 0 -127 30t-123 75t-115.5 96t-104.5 96t-88 75t-69 30q-16 0 -25.5 -8.5t-16.5 -18.5t-13 -18t-17 -8q-6 0 -15 13t-9 44zM348 1638q18 16 45 51t59.5 71 t70.5 64.5t79 33.5h16q31 0 62 -31t55.5 -73t42 -83t23.5 -59q-6 -20 -21 -17q-8 2 -22.5 24.5t-36 50.5t-51 54.5t-68.5 34.5q-39 -2 -79 -23.5t-74.5 -47t-59 -47t-33.5 -21.5q-8 0 -8 18zM434 1036q0 -61 11.5 -120.5t37 -106.5t66.5 -77t102 -30q29 0 51.5 6.5 t40.5 16.5q21 9 39 23q0 49 -3 119.5t-12 147.5t-23.5 152.5t-35 136t-50 97.5t-66.5 37q-29 0 -57.5 -44t-51 -106.5t-36 -131.5t-13.5 -120z" />
<glyph unicode="&#xcf;" horiz-adv-x="985" d="M-264 338q0 41 31.5 70.5t76.5 29.5q63 0 119.5 -29.5t109 -74.5t103.5 -97.5t103.5 -97.5t108.5 -74.5t122 -29.5q72 0 120 35.5t77.5 94t45 129.5t21.5 140.5t7 130t3 97.5q0 12 -6 12q-4 0 -7 -2l-9 -6q-4 -2 -20.5 -10.5t-41 -16.5t-56.5 -15.5t-64 -7.5 q-59 0 -106.5 30t-79.5 73t-48 91t-16 85q0 92 18.5 202.5t55 206t91 159t123.5 63.5q51 0 88 -59.5t62 -139.5t40 -161t21 -124q6 -41 8.5 -78.5t2.5 -67.5t2 -47.5t12 -17.5q6 0 25 19q20 23 34.5 46.5t24.5 42.5t16.5 31.5t12.5 12.5q4 0 8 -6q8 -12 8 -41q0 -8 -11 -35 t-29.5 -59.5t-43.5 -63t-51 -49.5q-4 -49 -5 -127t-11.5 -166t-32 -178t-63.5 -162.5t-109.5 -118t-167.5 -45.5q-63 0 -127 30t-123 75t-115.5 96t-104.5 96t-88 75t-69 30q-16 0 -25.5 -8.5t-16.5 -18.5t-13 -18t-17 -8q-6 0 -15 13t-9 44zM395 1722q0 20 17.5 51t50.5 31 q23 0 43 -20t20 -53q0 -41 -24.5 -67t-40.5 -26q-25 0 -38 11.5t-19.5 25t-7.5 27.5t-1 20zM434 1036q0 -61 11.5 -120.5t37 -106.5t66.5 -77t102 -30q29 0 51.5 6.5t40.5 16.5q21 9 39 23q0 49 -3 119.5t-12 147.5t-23.5 152.5t-35 136t-50 97.5t-66.5 37q-29 0 -57.5 -44 t-51 -106.5t-36 -131.5t-13.5 -120zM682 1729q0 20 17.5 50.5t50.5 30.5q23 0 43 -20t20 -53q0 -41 -24.5 -66.5t-40.5 -25.5q-25 0 -38.5 11t-19.5 24.5t-7 27.5t-1 21z" />
<glyph unicode="&#xd0;" horiz-adv-x="1230" d="M-168 598q0 53 20.5 82t53.5 43t69.5 16t71.5 2q27 0 51.5 -5t46.5 -11q-123 121 -204.5 256t-81.5 264v2q0 66 30.5 112t73.5 75.5t89 43t79 13.5q98 0 208 -41t215 -112.5t201.5 -166t169 -203t115.5 -223t43 -225.5q0 -16 -2 -33q-2 -16 -3 -33.5t-5 -33.5 q0 -25 33 -25q18 0 52 2t74 6.5t79 10.5t67 16q2 0 6 2q8 4 13 4q10 0 13 -4t7 -8q2 -6 4 -10q0 -14 -19.5 -24.5t-33.5 -18.5q-43 -27 -125 -38t-180 -11q-6 0 -15.5 -3.5t-15.5 -17.5q-27 -72 -80 -125q-45 -47 -118.5 -85t-186.5 -38q-70 0 -129 14.5t-104 32.5 q-53 23 -97 50q-14 0 -14 -29v-35q0 -37 -3 -91t-7 -106.5t-9 -94.5t-10 -54q-4 -14 -7 -30.5t-11 -30t-22.5 -22.5t-40.5 -9q-35 0 -64 58t-50.5 148.5t-32.5 200t-11 211.5q0 14 1 47t6 67t15.5 59.5t30.5 25.5q16 0 36.5 -18.5t31.5 -30.5q2 -6 15 -17.5t27.5 -24 t27 -21.5t14.5 -9q4 0 7 36t4 82t2 89t1 59q0 2 -4 15q-10 8 -49 25.5t-84 17.5q-25 0 -54.5 -6.5t-55 -18.5t-43 -30.5t-17.5 -45.5q0 -16 10 -38.5t35 -55.5q0 -2 2 -4q4 -4 4 -10q0 -4 -2 -6q-4 -4 -10 -4q-8 0 -13 2q-4 0 -6 2q-84 33 -109.5 73.5t-25.5 71.5zM-35 1270 q0 -45 19.5 -95.5t48 -99.5t62.5 -95t63.5 -81t50 -56.5t22.5 -23.5q8 -8 13 -8q4 0 5 7t1 18q0 6 -1 39.5t-1 81t-1 103.5t-1 107t9 70.5t19 19.5h15q12 0 20 -33.5t12.5 -85t5.5 -112.5t1 -119v-149q0 -25 6 -31q4 -4 8 -6q121 -102 237.5 -160.5t211.5 -91.5 q111 -37 208 -51q12 0 13 16q2 18 2 34v30q0 121 -45 237.5t-119 220t-167 190.5t-189.5 150.5t-188.5 98.5t-162 35q-55 0 -90 -15.5t-54 -40t-26.5 -52.5t-7.5 -52zM100 272q0 -43 5.5 -100t13.5 -117.5t18 -119t21.5 -104.5t21.5 -74.5t19 -28.5q10 0 15 13t7 23l23 400 q0 16 -2 24.5t-6 12.5q-4 6 -11 6q-14 8 -31.5 22.5t-34 28.5t-29.5 24.5t-17 10.5q-12 0 -13 -21zM315 319q0 -43 46.5 -75.5t111 -55t132 -34t108.5 -11.5q57 0 104 22.5t81 53.5t52.5 60.5t18.5 39.5q0 4 -10.5 8.5t-20.5 6.5q-14 2 -31 4q-111 12 -208 48t-173 75 q-88 45 -166 100q-16 10 -24 10q-6 0 -9 -23.5t-6.5 -60t-4.5 -82t-1 -86.5z" />
<glyph unicode="&#xd1;" horiz-adv-x="1216" d="M-416 330q0 12 5 30.5t16.5 36t29 29.5t43.5 12q55 0 107.5 -33.5t105 -83t103.5 -108.5t101 -108.5t101.5 -83t104.5 -33.5q45 0 69.5 42t36 110.5t13.5 155.5t2 177q0 43 -1 107.5t-2 136t-2 145.5t-2 137.5t-2 109.5t-1 62q0 35 2 69t8 61.5t15 44t24 16.5 q18 -4 35.5 -20.5t17.5 -55.5q0 -29 -8 -29q-6 0 -12.5 7.5t-10.5 7.5q-8 0 -8 -17.5t-2 -58.5v-99.5t1 -155.5t3 -182t3 -180t2 -149.5t1 -87.5q0 -61 -6 -138t-28.5 -146.5t-69.5 -116.5t-127 -47q-47 0 -100.5 31.5t-106.5 80.5t-106.5 104.5t-102.5 104.5t-91 81t-75 32 q-14 0 -21 -7.5t-13.5 -16.5t-11.5 -16t-17 -7q-6 0 -13 6q-10 10 -10 43zM518 1122q0 63 13.5 86t17.5 23q8 0 15 -12.5t11 -24.5q96 -293 179 -522q35 -98 68.5 -192.5t62 -167t49 -117.5t29.5 -45q4 0 4 9v38q0 10 -1 58t-1 124q0 90 3 216t20.5 261t52 268t99 238.5 t163 171t241.5 65.5q18 0 49 -5t60.5 -17t51 -35.5t21.5 -60.5q0 -8 -10 -8q-12 0 -35.5 13t-91.5 13q-106 0 -199.5 -54t-165 -149.5t-118.5 -224.5t-62 -280q-6 -61 -9 -142.5t-4 -166.5t-2 -165.5t-1 -142.5q0 -78 -3 -124t-8 -72.5t-12.5 -35t-15.5 -8.5q-33 0 -80 73 t-99 185.5t-104.5 251t-94.5 270.5t-67.5 241.5t-25.5 166.5zM627 1595q0 45 39 69t75 24q31 0 55.5 -12.5t49 -28t52.5 -27.5t69 -12q29 0 46 19.5t21 23.5q10 0 15.5 -14.5t5.5 -22.5q0 -45 -39 -68.5t-76 -23.5q-31 0 -53.5 12t-45 27.5t-49 29t-63.5 13.5 q-47 0 -62.5 -20.5t-19.5 -24.5q-10 0 -15 14t-5 22z" />
<glyph unicode="&#xd2;" horiz-adv-x="1292" d="M-6 563q0 158 34.5 287t94 230.5t137.5 175t164 120.5t173 70.5t167 23.5q61 0 114.5 -18t92.5 -49t61.5 -69t22.5 -74q0 -29 -7.5 -47.5t-16.5 -32t-16 -21.5t-7 -14q0 -4 2 -8t5 -8.5t11 -8.5q57 -39 93 -94t55.5 -116.5t25.5 -122t6 -109.5q0 -127 -43 -231.5 t-96 -182.5q-61 -90 -137 -164q0 -8 11 -13t26.5 -7t32 -3t28.5 -1q72 0 128 22.5t98 51t68 58.5t36 42l8 10t18.5 22.5t20.5 21.5t14 9q15 -8 15 -18q-29 -70 -76 -124t-105.5 -91t-125 -56.5t-132.5 -19.5q-55 0 -85.5 4t-48 9.5t-25 9.5t-15.5 4q-6 0 -27.5 -13.5 t-56.5 -30t-85 -29.5t-113 -13q-123 0 -224.5 42t-172 121.5t-109.5 194.5t-39 260zM96 668q0 -88 24.5 -198t85 -207t160 -162.5t248.5 -65.5q41 0 67 4t38 10q14 8 20 17q-35 20 -81 65t-87 113.5t-69.5 161t-28.5 206.5q0 45 5 103.5t20.5 120t43 120t74 104.5t113 73.5 t158.5 27.5h18t17 -2q10 14 18 31q6 14 12 32.5t6 41.5q0 18 -7 43.5t-28.5 48t-59.5 38t-99 15.5q-51 0 -121 -14.5t-143.5 -48t-146 -89t-130 -138.5t-92.5 -194.5t-35 -256.5zM471 1759q0 14 12.5 26.5t28.5 12.5q43 0 89 -26.5t89 -63.5t78 -75.5t51 -63.5q0 -18 -8 -19 q-8 0 -40 21.5t-74 47.5t-89 48.5t-86 24.5q-18 0 -34.5 19.5t-16.5 47.5zM555 662q0 -154 45 -259.5t98 -169.5q63 -76 144 -122q80 51 145 131q55 68 101.5 173t46.5 259q0 102 -22.5 181t-60.5 132t-88.5 81t-105.5 28q-78 0 -135 -35t-94 -94.5t-55.5 -138t-18.5 -166.5 z" />
<glyph unicode="&#xd3;" horiz-adv-x="1292" d="M-6 563q0 158 34.5 287t94 230.5t137.5 175t164 120.5t173 70.5t167 23.5q61 0 114.5 -18t92.5 -49t61.5 -69t22.5 -74q0 -29 -7.5 -47.5t-16.5 -32t-16 -21.5t-7 -14q0 -4 2 -8t5 -8.5t11 -8.5q57 -39 93 -94t55.5 -116.5t25.5 -122t6 -109.5q0 -127 -43 -231.5 t-96 -182.5q-61 -90 -137 -164q0 -8 11 -13t26.5 -7t32 -3t28.5 -1q72 0 128 22.5t98 51t68 58.5t36 42l8 10t18.5 22.5t20.5 21.5t14 9q15 -8 15 -18q-29 -70 -76 -124t-105.5 -91t-125 -56.5t-132.5 -19.5q-55 0 -85.5 4t-48 9.5t-25 9.5t-15.5 4q-6 0 -27.5 -13.5 t-56.5 -30t-85 -29.5t-113 -13q-123 0 -224.5 42t-172 121.5t-109.5 194.5t-39 260zM96 668q0 -88 24.5 -198t85 -207t160 -162.5t248.5 -65.5q41 0 67 4t38 10q14 8 20 17q-35 20 -81 65t-87 113.5t-69.5 161t-28.5 206.5q0 45 5 103.5t20.5 120t43 120t74 104.5t113 73.5 t158.5 27.5h18t17 -2q10 14 18 31q6 14 12 32.5t6 41.5q0 18 -7 43.5t-28.5 48t-59.5 38t-99 15.5q-51 0 -121 -14.5t-143.5 -48t-146 -89t-130 -138.5t-92.5 -194.5t-35 -256.5zM471 1522q16 23 51 61.5t78 75.5t89 64.5t89 27.5q16 0 28.5 -12.5t12.5 -26.5 q0 -29 -16.5 -48t-34.5 -19q-39 -2 -86 -25t-89 -48.5t-74 -47t-40 -21.5t-8 19zM555 662q0 -154 45 -259.5t98 -169.5q63 -76 144 -122q80 51 145 131q55 68 101.5 173t46.5 259q0 102 -22.5 181t-60.5 132t-88.5 81t-105.5 28q-78 0 -135 -35t-94 -94.5t-55.5 -138 t-18.5 -166.5z" />
<glyph unicode="&#xd4;" horiz-adv-x="1292" d="M-6 563q0 158 34.5 287t94 230.5t137.5 175t164 120.5t173 70.5t167 23.5q61 0 114.5 -18t92.5 -49t61.5 -69t22.5 -74q0 -29 -7.5 -47.5t-16.5 -32t-16 -21.5t-7 -14q0 -4 2 -8t5 -8.5t11 -8.5q57 -39 93 -94t55.5 -116.5t25.5 -122t6 -109.5q0 -127 -43 -231.5 t-96 -182.5q-61 -90 -137 -164q0 -8 11 -13t26.5 -7t32 -3t28.5 -1q72 0 128 22.5t98 51t68 58.5t36 42l8 10t18.5 22.5t20.5 21.5t14 9q15 -8 15 -18q-29 -70 -76 -124t-105.5 -91t-125 -56.5t-132.5 -19.5q-55 0 -85.5 4t-48 9.5t-25 9.5t-15.5 4q-6 0 -27.5 -13.5 t-56.5 -30t-85 -29.5t-113 -13q-123 0 -224.5 42t-172 121.5t-109.5 194.5t-39 260zM96 668q0 -88 24.5 -198t85 -207t160 -162.5t248.5 -65.5q41 0 67 4t38 10q14 8 20 17q-35 20 -81 65t-87 113.5t-69.5 161t-28.5 206.5q0 45 5 103.5t20.5 120t43 120t74 104.5t113 73.5 t158.5 27.5h18t17 -2q10 14 18 31q6 14 12 32.5t6 41.5q0 18 -7 43.5t-28.5 48t-59.5 38t-99 15.5q-51 0 -121 -14.5t-143.5 -48t-146 -89t-130 -138.5t-92.5 -194.5t-35 -256.5zM420 1589q18 16 45 51t59.5 71t70.5 64.5t79 32.5h16q31 0 61.5 -30.5t55 -72.5t42 -83 t23.5 -59q-6 -20 -20 -17q-8 2 -22.5 24.5t-36 50.5t-51 54.5t-68.5 34.5q-39 -2 -79 -23.5t-75 -47t-59.5 -47t-32.5 -21.5t-8 18zM555 662q0 -154 45 -259.5t98 -169.5q63 -76 144 -122q80 51 145 131q55 68 101.5 173t46.5 259q0 102 -22.5 181t-60.5 132t-88.5 81 t-105.5 28q-78 0 -135 -35t-94 -94.5t-55.5 -138t-18.5 -166.5z" />
<glyph unicode="&#xd5;" horiz-adv-x="1292" d="M-6 563q0 158 34.5 287t94 230.5t137.5 175t164 120.5t173 70.5t167 23.5q61 0 114.5 -18t92.5 -49t61.5 -69t22.5 -74q0 -29 -7.5 -47.5t-16.5 -32t-16 -21.5t-7 -14q0 -4 2 -8t5 -8.5t11 -8.5q57 -39 93 -94t55.5 -116.5t25.5 -122t6 -109.5q0 -127 -43 -231.5 t-96 -182.5q-61 -90 -137 -164q0 -8 11 -13t26.5 -7t32 -3t28.5 -1q72 0 128 22.5t98 51t68 58.5t36 42l8 10t18.5 22.5t20.5 21.5t14 9q15 -8 15 -18q-29 -70 -76 -124t-105.5 -91t-125 -56.5t-132.5 -19.5q-55 0 -85.5 4t-48 9.5t-25 9.5t-15.5 4q-6 0 -27.5 -13.5 t-56.5 -30t-85 -29.5t-113 -13q-123 0 -224.5 42t-172 121.5t-109.5 194.5t-39 260zM96 668q0 -88 24.5 -198t85 -207t160 -162.5t248.5 -65.5q41 0 67 4t38 10q14 8 20 17q-35 20 -81 65t-87 113.5t-69.5 161t-28.5 206.5q0 45 5 103.5t20.5 120t43 120t74 104.5t113 73.5 t158.5 27.5h18t17 -2q10 14 18 31q6 14 12 32.5t6 41.5q0 18 -7 43.5t-28.5 48t-59.5 38t-99 15.5q-51 0 -121 -14.5t-143.5 -48t-146 -89t-130 -138.5t-92.5 -194.5t-35 -256.5zM498 1606q0 45 38.5 68.5t75.5 23.5q31 0 55.5 -12.5t49 -28t52.5 -27.5t69 -12q29 0 46 19.5 t21 23.5q10 0 15.5 -14.5t5.5 -22.5q0 -45 -39 -68.5t-76 -23.5q-31 0 -53.5 12t-45 27.5t-49 29t-63.5 13.5q-47 0 -62.5 -20.5t-19.5 -24.5q-10 0 -15 14t-5 23zM555 662q0 -154 45 -259.5t98 -169.5q63 -76 144 -122q80 51 145 131q55 68 101.5 173t46.5 259 q0 102 -22.5 181t-60.5 132t-88.5 81t-105.5 28q-78 0 -135 -35t-94 -94.5t-55.5 -138t-18.5 -166.5z" />
<glyph unicode="&#xd6;" horiz-adv-x="1292" d="M-6 563q0 158 34.5 287t94 230.5t137.5 175t164 120.5t173 70.5t167 23.5q61 0 114.5 -18t92.5 -49t61.5 -69t22.5 -74q0 -29 -7.5 -47.5t-16.5 -32t-16 -21.5t-7 -14q0 -4 2 -8t5 -8.5t11 -8.5q57 -39 93 -94t55.5 -116.5t25.5 -122t6 -109.5q0 -127 -43 -231.5 t-96 -182.5q-61 -90 -137 -164q0 -8 11 -13t26.5 -7t32 -3t28.5 -1q72 0 128 22.5t98 51t68 58.5t36 42l8 10t18.5 22.5t20.5 21.5t14 9q15 -8 15 -18q-29 -70 -76 -124t-105.5 -91t-125 -56.5t-132.5 -19.5q-55 0 -85.5 4t-48 9.5t-25 9.5t-15.5 4q-6 0 -27.5 -13.5 t-56.5 -30t-85 -29.5t-113 -13q-123 0 -224.5 42t-172 121.5t-109.5 194.5t-39 260zM96 668q0 -88 24.5 -198t85 -207t160 -162.5t248.5 -65.5q41 0 67 4t38 10q14 8 20 17q-35 20 -81 65t-87 113.5t-69.5 161t-28.5 206.5q0 45 5 103.5t20.5 120t43 120t74 104.5t113 73.5 t158.5 27.5h18t17 -2q10 14 18 31q6 14 12 32.5t6 41.5q0 18 -7 43.5t-28.5 48t-59.5 38t-99 15.5q-51 0 -121 -14.5t-143.5 -48t-146 -89t-130 -138.5t-92.5 -194.5t-35 -256.5zM436 1620q0 20 17.5 51t50.5 31q23 0 43 -20.5t20 -53.5q0 -41 -24.5 -66.5t-40.5 -25.5 q-25 0 -38 11.5t-19.5 24.5t-7.5 27.5t-1 20.5zM555 662q0 -154 45 -259.5t98 -169.5q63 -76 144 -122q80 51 145 131q55 68 101.5 173t46.5 259q0 102 -22.5 181t-60.5 132t-88.5 81t-105.5 28q-78 0 -135 -35t-94 -94.5t-55.5 -138t-18.5 -166.5zM723 1626q0 20 17.5 51 t50.5 31q23 0 43 -20.5t20 -53.5q0 -41 -24.5 -66.5t-41.5 -25.5q-25 0 -38 11.5t-19 24.5t-7 27.5t-1 20.5z" />
<glyph unicode="&#xd7;" horiz-adv-x="917" d="M250 332q0 6 2 8q0 2 2 4l162 162l-162 160q-2 2 -2 4q-2 2 -2 10q0 16 12 29q16 16 31 16q8 0 12 -4q2 -2 4 -2l160 -160l160 160q6 6 12 6q10 0 23 -8q6 -4 10 -8q14 -14 14 -27q0 -4 -4 -12q-2 -4 -2 -6l-160 -158l162 -162q0 -2 2 -4q0 -2 1 -3t1 -5q0 -14 -16 -33 q-12 -10 -27 -10q-10 0 -12 2q-2 0 -4 2l-160 160l-160 -162q-2 -2 -4 -2q-2 -2 -10 -2q-6 0 -14.5 3t-18.5 13q-8 8 -10 16.5t-2 12.5z" />
<glyph unicode="&#xd8;" horiz-adv-x="1292" d="M-6 563q0 158 34.5 287t94 230.5t137.5 175t164 120.5t173 70.5t167 23.5q49 0 92 -12l45 123q2 4 10 10q4 4 13.5 7.5t21.5 3.5q27 0 32 -8.5t5 -10.5l-55 -153q59 -31 93 -77t34 -93q0 -29 -7.5 -47.5t-16.5 -32t-16 -21.5t-7 -14q0 -4 2 -8t5 -8.5t11 -8.5 q57 -39 93 -94t55.5 -116.5t25.5 -122t6 -109.5q0 -127 -43 -231.5t-96 -182.5q-61 -90 -137 -164q0 -8 11 -13t26.5 -7t32 -3t28.5 -1q72 0 128 22.5t98 51t68 58.5t36 42l8 10t18.5 22.5t20.5 21.5t14 9q15 -8 15 -18q-29 -70 -76 -124t-105.5 -91t-125 -56.5 t-132.5 -19.5q-55 0 -85.5 4t-48 9.5t-25 9.5t-15.5 4q-6 0 -27.5 -13.5t-56.5 -30t-85 -29.5t-113 -13q-35 0 -69 4t-67 10l-67 -190q-2 -4 -8 -11q-12 -12 -39 -10q-23 0 -29 9.5t-6 13.5l74 211q-156 59 -245 207.5t-89 373.5zM96 668q0 -68 13.5 -148t46 -158.5 t85 -148.5t130.5 -115l121 340q-18 80 -19 174q0 57 9.5 136t37 155t80.5 140.5t143 95.5l93 262q-16 4 -34 6t-38 2q-51 0 -121 -14.5t-143.5 -48t-146 -89t-130 -138.5t-92.5 -194.5t-35 -256.5zM442 63q76 -29 172 -28q41 0 67 4t38 10q14 9 20 17q-43 27 -102 89 t-105 162zM555 662q0 -154 45 -259.5t98 -169.5q63 -76 144 -122q80 51 145 131q55 68 101.5 173t46.5 259q0 102 -22.5 181t-60.5 132t-88.5 81t-105.5 28q-78 0 -135 -35t-94 -94.5t-55.5 -138t-18.5 -166.5zM831 1157q14 2 27.5 3t28.5 1h18t17 -2q10 14 18 31 q6 14 12 32.5t6 41.5t-11 51t-40 53z" />
<glyph unicode="&#xd9;" horiz-adv-x="1239" d="M-117 713q0 16 11 32q10 14 34.5 49t51 77t49 84t28.5 71q12 57 21.5 114.5t22 103.5t29.5 76t46 30q33 0 41 -8.5t8 -18.5q0 -2 -3 -32.5t-12 -75t-26.5 -93.5t-44.5 -90q-8 -61 -12 -138t-4 -161q0 -117 10 -236.5t32.5 -215t59.5 -155.5t92 -60q47 0 100.5 61 t107 157.5t105.5 217.5t97 239.5t80 223t57 170.5q2 14 7.5 25t27.5 11q12 0 22.5 -2t10.5 -18q0 -18 -8 -59q-2 -23 -6.5 -78.5t-9.5 -122t-8 -132t-3 -106.5q0 -96 15.5 -205.5t48 -202.5t83 -155.5t117.5 -62.5q14 0 22.5 -6t8.5 -35q0 -18 -6 -35t-37 -17 q-86 0 -147.5 41t-100.5 134.5t-57.5 248t-18.5 381.5q0 12 -10 13h-2q-10 0 -12 -14.5t-10 -32.5q-4 -12 -29 -74t-64 -147t-89 -181t-107.5 -177t-117.5 -134t-118 -53q-72 0 -119 58t-75.5 146t-41 193.5t-12.5 200.5q0 41 3.5 86t8.5 85t8 67.5t3 33.5q0 14 -10 14 t-23.5 -22.5t-29 -49t-33 -49t-35.5 -22.5q-27 0 -27 33zM373 1536q0 14 12 26.5t29 12.5q43 0 89 -26.5t89 -63.5t78 -75.5t51 -63.5q0 -18 -8 -19q-8 0 -40 21.5t-74 47t-89 48t-86 24.5q-18 0 -34.5 19.5t-16.5 48.5z" />
<glyph unicode="&#xda;" horiz-adv-x="1239" d="M-117 713q0 16 11 32q10 14 34.5 49t51 77t49 84t28.5 71q12 57 21.5 114.5t22 103.5t29.5 76t46 30q33 0 41 -8.5t8 -18.5q0 -2 -3 -32.5t-12 -75t-26.5 -93.5t-44.5 -90q-8 -61 -12 -138t-4 -161q0 -117 10 -236.5t32.5 -215t59.5 -155.5t92 -60q47 0 100.5 61 t107 157.5t105.5 217.5t97 239.5t80 223t57 170.5q2 14 7.5 25t27.5 11q12 0 22.5 -2t10.5 -18q0 -18 -8 -59q-2 -23 -6.5 -78.5t-9.5 -122t-8 -132t-3 -106.5q0 -96 15.5 -205.5t48 -202.5t83 -155.5t117.5 -62.5q14 0 22.5 -6t8.5 -35q0 -18 -6 -35t-37 -17 q-86 0 -147.5 41t-100.5 134.5t-57.5 248t-18.5 381.5q0 12 -10 13h-2q-10 0 -12 -14.5t-10 -32.5q-4 -12 -29 -74t-64 -147t-89 -181t-107.5 -177t-117.5 -134t-118 -53q-72 0 -119 58t-75.5 146t-41 193.5t-12.5 200.5q0 41 3.5 86t8.5 85t8 67.5t3 33.5q0 14 -10 14 t-23.5 -22.5t-29 -49t-33 -49t-35.5 -22.5q-27 0 -27 33zM514 1321q16 23 51 61.5t78 75.5t89 64.5t89 27.5q16 0 28.5 -12.5t12.5 -26.5q0 -29 -16.5 -48t-34.5 -19q-39 -2 -86 -24.5t-89 -48t-74 -47t-40 -21.5t-8 18z" />
<glyph unicode="&#xdb;" horiz-adv-x="1239" d="M-117 713q0 16 11 32q10 14 34.5 49t51 77t49 84t28.5 71q12 57 21.5 114.5t22 103.5t29.5 76t46 30q33 0 41 -8.5t8 -18.5q0 -2 -3 -32.5t-12 -75t-26.5 -93.5t-44.5 -90q-8 -61 -12 -138t-4 -161q0 -117 10 -236.5t32.5 -215t59.5 -155.5t92 -60q47 0 100.5 61 t107 157.5t105.5 217.5t97 239.5t80 223t57 170.5q2 14 7.5 25t27.5 11q12 0 22.5 -2t10.5 -18q0 -18 -8 -59q-2 -23 -6.5 -78.5t-9.5 -122t-8 -132t-3 -106.5q0 -96 15.5 -205.5t48 -202.5t83 -155.5t117.5 -62.5q14 0 22.5 -6t8.5 -35q0 -18 -6 -35t-37 -17 q-86 0 -147.5 41t-100.5 134.5t-57.5 248t-18.5 381.5q0 12 -10 13h-2q-10 0 -12 -14.5t-10 -32.5q-4 -12 -29 -74t-64 -147t-89 -181t-107.5 -177t-117.5 -134t-118 -53q-72 0 -119 58t-75.5 146t-41 193.5t-12.5 200.5q0 41 3.5 86t8.5 85t8 67.5t3 33.5q0 14 -10 14 t-23.5 -22.5t-29 -49t-33 -49t-35.5 -22.5q-27 0 -27 33zM379 1350q18 16 45 51t59.5 70.5t70.5 64.5t79 33h16q31 0 61.5 -31t55.5 -73t42 -83t23 -59q-6 -20 -20 -16q-8 2 -22.5 24.5t-36 50t-51 54t-68.5 34.5q-39 -2 -79 -23.5t-75 -47t-59.5 -47t-32.5 -21.5t-8 19z " />
<glyph unicode="&#xdc;" horiz-adv-x="1239" d="M-117 713q0 16 11 32q10 14 34.5 49t51 77t49 84t28.5 71q12 57 21.5 114.5t22 103.5t29.5 76t46 30q33 0 41 -8.5t8 -18.5q0 -2 -3 -32.5t-12 -75t-26.5 -93.5t-44.5 -90q-8 -61 -12 -138t-4 -161q0 -117 10 -236.5t32.5 -215t59.5 -155.5t92 -60q47 0 100.5 61 t107 157.5t105.5 217.5t97 239.5t80 223t57 170.5q2 14 7.5 25t27.5 11q12 0 22.5 -2t10.5 -18q0 -18 -8 -59q-2 -23 -6.5 -78.5t-9.5 -122t-8 -132t-3 -106.5q0 -96 15.5 -205.5t48 -202.5t83 -155.5t117.5 -62.5q14 0 22.5 -6t8.5 -35q0 -18 -6 -35t-37 -17 q-86 0 -147.5 41t-100.5 134.5t-57.5 248t-18.5 381.5q0 12 -10 13h-2q-10 0 -12 -14.5t-10 -32.5q-4 -12 -29 -74t-64 -147t-89 -181t-107.5 -177t-117.5 -134t-118 -53q-72 0 -119 58t-75.5 146t-41 193.5t-12.5 200.5q0 41 3.5 86t8.5 85t8 67.5t3 33.5q0 14 -10 14 t-23.5 -22.5t-29 -49t-33 -49t-35.5 -22.5q-27 0 -27 33zM369 1386q0 20 17 51t50 31q23 0 43.5 -20t20.5 -53q0 -41 -24.5 -66.5t-41.5 -25.5q-25 0 -38 11t-19 24.5t-7 27.5t-1 20zM655 1393q0 20 17.5 51t50.5 31q23 0 43 -20.5t20 -53.5q0 -41 -24.5 -66.5t-40.5 -25.5 q-25 0 -38 11t-19.5 24.5t-7.5 27.5t-1 21z" />
<glyph unicode="&#xdd;" horiz-adv-x="1083" d="M-10 782q0 10 12 23q45 70 82 125q31 47 57.5 89t28.5 50q2 111 18 199q6 37 16.5 73.5t24 64.5t33 45t43.5 17q25 -4 32 -17t7 -32q0 -23 -7 -56.5t-19.5 -73.5t-29 -84t-34.5 -85q-2 -27 -3 -55.5t-1 -63.5q0 -78 5 -165.5t16.5 -176t28.5 -170t42 -144t57.5 -99.5 t73.5 -37t92 61.5t105.5 155.5t106.5 208t93 219t66 189t25 119q2 0 2 17.5t1 38t6 38t17 17.5q16 0 24.5 -59.5t8.5 -174.5q0 -57 -3 -111.5t-11 -95.5q-4 -25 -9.5 -88t-8.5 -151t-7 -191.5t-7 -208t-5 -204t-4 -178t-3 -129t-1 -56.5t-2.5 -36.5t-8.5 -71.5t-19 -87 t-37 -85t-59.5 -64.5t-86.5 -25.5q-59 0 -112.5 32.5t-101 80.5t-89.5 104.5t-78.5 104.5t-69.5 81t-61 33q-16 0 -24.5 -17.5t-21.5 -17.5q2 0 -17 8t-19 29q0 12 10 27.5t28.5 29.5t43 24.5t53.5 10.5q45 0 88 -30.5t85 -77t83 -100.5t82 -100t81 -77t78 -31q43 0 68 43 t36 101.5t14 119t3 95.5q0 174 4 344t10.5 318.5t13.5 263t13 177.5q0 18 -6 19q-8 0 -22 -35q-10 -27 -34 -91.5t-59.5 -145t-83 -166.5t-101.5 -159t-114.5 -119t-126.5 -46q-55 0 -96 41t-68.5 104.5t-45 142.5t-26.5 153.5t-12 138t-3 96.5q0 59 3 96t3 47q0 25 -4 25 t-16.5 -20.5t-28 -48t-32 -54.5t-24.5 -37q-6 -6 -14 -13t-19 -7q-10 0 -19 11t-9 19zM532 1419q16 23 51 62t78.5 75.5t89.5 64.5t89 28q16 0 28.5 -12.5t12.5 -26.5q0 -29 -16.5 -48.5t-35.5 -19.5q-39 -2 -86 -24.5t-89 -48t-73.5 -47t-39.5 -21.5t-9 18z" />
<glyph unicode="&#xde;" horiz-adv-x="1417" d="M-238 219q0 12 10.5 26.5t27 27t36 20.5t37.5 8q45 0 99.5 -37t112.5 -92t117.5 -120.5t114 -121t102.5 -92.5t85 -37q33 0 53.5 33t29.5 77t12 88t3 69q0 39 -1 126t-1 199v132t1 158t2 170t3 173q-66 -10 -132 -39t-119.5 -81t-87.5 -133t-34 -193q0 -68 17.5 -156 t75.5 -180q6 -10 16 -23.5t10 -27.5q0 -4 -7 -19.5t-26 -15.5q-25 0 -30.5 15t-28.5 52q-10 20 -28.5 58.5t-35 86.5t-28.5 105t-12 117q6 121 57 223q20 43 53 87t81 83t112.5 67.5t148.5 43.5q2 92 3 172t3 139q2 70 4 131q0 16 12.5 30.5t28.5 14.5t20.5 -8t4.5 -37 q0 -4 -1 -40t-2 -94t-2 -136t-3 -166q16 2 33.5 3t35.5 1q168 0 298.5 -42t227.5 -107.5t164.5 -147.5t108.5 -163t59.5 -151.5t18.5 -113.5q0 -76 -24.5 -140.5t-67.5 -110.5t-101.5 -71.5t-128.5 -25.5q-78 0 -173 45t-179 118.5t-140 168t-56 192.5q0 37 15 56.5t40 19.5 q18 0 47 -15.5t55.5 -42t45 -63.5t18.5 -80q0 -10 -4 -10t-20.5 22.5t-37 49t-43 49t-39.5 22.5q-10 -4 -10 -18q0 -27 14.5 -65t36.5 -70q55 -82 118 -143.5t122 -101.5t109.5 -60.5t80.5 -20.5q27 0 66 7t75 33t60.5 75t24.5 131q0 70 -29 148.5t-82 156.5t-128 149.5 t-167 127t-198.5 88t-223.5 32.5q-6 0 -12 -1t-12 -1q-2 -98 -3 -202.5t-2 -204t-2 -187.5t-1 -155v-281q0 -55 -12.5 -108.5t-38 -96.5t-66.5 -69.5t-96 -26.5q-41 0 -97.5 36t-117 91t-122 117.5t-115.5 118t-98 91t-69 35.5l-39 -4q-10 0 -21.5 9.5t-11.5 23.5z" />
<glyph unicode="&#xdf;" horiz-adv-x="550" d="M-135 -659q0 16 10 31.5t25 15.5q18 0 31.5 -10.5t26.5 -21.5t28.5 -21.5t40.5 -10.5q35 0 53 20.5t29.5 79t17.5 166t18 281.5q-43 8 -60 28.5t-17 43.5q0 33 23.5 62.5t64.5 55.5q4 92 7 191.5t4 197t2 189.5t1 172q0 92 5 195.5t22.5 191.5t52.5 145.5t94 57.5 q88 0 133 -65.5t45 -155.5q0 -43 -12 -90.5t-27 -88.5q-18 -47 -39 -92q0 -10 27 -14q12 -2 29 -2q96 0 162.5 -32t107.5 -81t58.5 -111.5t17.5 -123.5q0 -123 -61.5 -239t-153.5 -208t-202 -152.5t-204 -72.5q-2 -57 -5 -130t-11 -146.5t-21.5 -144t-36 -126t-55.5 -89.5 t-76 -34q-39 6 -66.5 22.5t-47 38t-29.5 42t-12 35.5zM225 12v-84q74 8 165 52.5t172 118t136.5 171.5t55.5 219q0 74 -30 134.5t-78 104.5t-108.5 67.5t-121.5 23.5q-4 0 -22.5 15.5t-18.5 44.5q0 16 8 32q16 39 29 76q10 33 19 72t9 78q0 20 -5 43.5t-19.5 43t-41 32 t-71.5 12.5q-14 0 -25.5 -40t-19.5 -99.5t-12 -127t-4 -120.5q0 -86 -1 -183.5t-3 -199t-5.5 -202.5t-5.5 -198q94 39 205 39q2 0 11.5 -3t19.5 -8t18 -12.5t8 -15.5t-30 -16l-25 -5q-24 -5 -59 -14.5t-76 -21.5t-74 -29z" />
<glyph unicode="&#xe0;" horiz-adv-x="950" d="M20 113q0 61 44.5 139t115 146.5t161.5 115.5t185 47q43 0 83 -20.5t40 -67.5q0 -41 -26.5 -83t-69.5 -82t-96.5 -75.5t-104.5 -65.5t-96 -51.5t-72 -29.5q-12 -4 -12 -12t11.5 -15.5t27.5 -7.5q10 0 16 2q16 4 47 14.5t69 31t80 51t81 77.5q18 23 32.5 32t24.5 9 q12 0 18.5 -9t10.5 -20.5t5 -21.5t1 -12q0 -6 6 -34t21.5 -57.5t42 -54t67.5 -24.5q45 0 100.5 35.5t107.5 87t96 106.5t69 92q6 18 22 19q14 0 27 -10q12 -11 12 -19q0 -4 -3 -9t-7 -11q-4 -8 -8 -15q-80 -104 -144.5 -174.5t-121 -112.5t-108.5 -60.5t-107 -18.5 q-37 0 -66 17.5t-47 45t-28.5 61t-10.5 64.5v12q0 10 -8 11q-4 0 -6 -6q-6 -10 -39 -40t-80 -62t-103.5 -57.5t-107.5 -25.5q-57 0 -88 16.5t-45 40t-16.5 48t-2.5 43.5zM129 154q0 -23 12 -23q6 0 39 14.5t78 37t96.5 54t95.5 64.5t72.5 67.5t28.5 65.5q0 29 -16.5 44.5 t-71.5 15.5q-43 0 -100.5 -32t-109.5 -81t-88 -109.5t-36 -117.5zM301 836q0 14 12.5 26t28.5 12q43 0 89 -26.5t89 -63t78 -75.5t51 -64q0 -18 -8 -18t-40 21.5t-74 47t-89 48t-86 24.5q-18 0 -34.5 19.5t-16.5 48.5z" />
<glyph unicode="&#xe1;" horiz-adv-x="950" d="M20 113q0 61 44.5 139t115 146.5t161.5 115.5t185 47q43 0 83 -20.5t40 -67.5q0 -41 -26.5 -83t-69.5 -82t-96.5 -75.5t-104.5 -65.5t-96 -51.5t-72 -29.5q-12 -4 -12 -12t11.5 -15.5t27.5 -7.5q10 0 16 2q16 4 47 14.5t69 31t80 51t81 77.5q18 23 32.5 32t24.5 9 q12 0 18.5 -9t10.5 -20.5t5 -21.5t1 -12q0 -6 6 -34t21.5 -57.5t42 -54t67.5 -24.5q45 0 100.5 35.5t107.5 87t96 106.5t69 92q6 18 22 19q14 0 27 -10q12 -11 12 -19q0 -4 -3 -9t-7 -11q-4 -8 -8 -15q-80 -104 -144.5 -174.5t-121 -112.5t-108.5 -60.5t-107 -18.5 q-37 0 -66 17.5t-47 45t-28.5 61t-10.5 64.5v12q0 10 -8 11q-4 0 -6 -6q-6 -10 -39 -40t-80 -62t-103.5 -57.5t-107.5 -25.5q-57 0 -88 16.5t-45 40t-16.5 48t-2.5 43.5zM129 154q0 -23 12 -23q6 0 39 14.5t78 37t96.5 54t95.5 64.5t72.5 67.5t28.5 65.5q0 29 -16.5 44.5 t-71.5 15.5q-43 0 -100.5 -32t-109.5 -81t-88 -109.5t-36 -117.5zM365 645q16 23 51 61.5t78 75.5t89 64.5t89 27.5q16 0 28.5 -12t12.5 -26q0 -29 -16.5 -48.5t-34.5 -19.5q-39 -2 -86.5 -24.5t-89.5 -48t-73.5 -47t-39.5 -21.5t-8 18z" />
<glyph unicode="&#xe2;" horiz-adv-x="950" d="M20 113q0 61 44.5 139t115 146.5t161.5 115.5t185 47q43 0 83 -20.5t40 -67.5q0 -41 -26.5 -83t-69.5 -82t-96.5 -75.5t-104.5 -65.5t-96 -51.5t-72 -29.5q-12 -4 -12 -12t11.5 -15.5t27.5 -7.5q10 0 16 2q16 4 47 14.5t69 31t80 51t81 77.5q18 23 32.5 32t24.5 9 q12 0 18.5 -9t10.5 -20.5t5 -21.5t1 -12q0 -6 6 -34t21.5 -57.5t42 -54t67.5 -24.5q45 0 100.5 35.5t107.5 87t96 106.5t69 92q6 18 22 19q14 0 27 -10q12 -11 12 -19q0 -4 -3 -9t-7 -11q-4 -8 -8 -15q-80 -104 -144.5 -174.5t-121 -112.5t-108.5 -60.5t-107 -18.5 q-37 0 -66 17.5t-47 45t-28.5 61t-10.5 64.5v12q0 10 -8 11q-4 0 -6 -6q-6 -10 -39 -40t-80 -62t-103.5 -57.5t-107.5 -25.5q-57 0 -88 16.5t-45 40t-16.5 48t-2.5 43.5zM129 154q0 -23 12 -23q6 0 39 14.5t78 37t96.5 54t95.5 64.5t72.5 67.5t28.5 65.5q0 29 -16.5 44.5 t-71.5 15.5q-43 0 -100.5 -32t-109.5 -81t-88 -109.5t-36 -117.5zM285 649q18 16 44.5 51t59.5 71t71 64.5t79 32.5h16q31 0 61.5 -30.5t55 -72.5t42 -83t23.5 -59q-6 -20 -20 -17q-8 2 -22.5 24.5t-36 50.5t-51 54.5t-68.5 34.5q-39 -2 -79 -23.5t-75 -47t-59.5 -47 t-32.5 -21.5t-8 18z" />
<glyph unicode="&#xe3;" horiz-adv-x="950" d="M20 113q0 61 44.5 139t115 146.5t161.5 115.5t185 47q43 0 83 -20.5t40 -67.5q0 -41 -26.5 -83t-69.5 -82t-96.5 -75.5t-104.5 -65.5t-96 -51.5t-72 -29.5q-12 -4 -12 -12t11.5 -15.5t27.5 -7.5q10 0 16 2q16 4 47 14.5t69 31t80 51t81 77.5q18 23 32.5 32t24.5 9 q12 0 18.5 -9t10.5 -20.5t5 -21.5t1 -12q0 -6 6 -34t21.5 -57.5t42 -54t67.5 -24.5q45 0 100.5 35.5t107.5 87t96 106.5t69 92q6 18 22 19q14 0 27 -10q12 -11 12 -19q0 -4 -3 -9t-7 -11q-4 -8 -8 -15q-80 -104 -144.5 -174.5t-121 -112.5t-108.5 -60.5t-107 -18.5 q-37 0 -66 17.5t-47 45t-28.5 61t-10.5 64.5v12q0 10 -8 11q-4 0 -6 -6q-6 -10 -39 -40t-80 -62t-103.5 -57.5t-107.5 -25.5q-57 0 -88 16.5t-45 40t-16.5 48t-2.5 43.5zM129 154q0 -23 12 -23q6 0 39 14.5t78 37t96.5 54t95.5 64.5t72.5 67.5t28.5 65.5q0 29 -16.5 44.5 t-71.5 15.5q-43 0 -100.5 -32t-109.5 -81t-88 -109.5t-36 -117.5zM246 735q0 45 39 68.5t75 23.5q31 0 55.5 -12t49 -27.5t52.5 -27.5t69 -12q29 0 46 19t21 24q10 0 15.5 -14.5t5.5 -22.5q0 -45 -39 -68.5t-76 -23.5q-31 0 -53.5 12t-45 27.5t-49 28.5t-63.5 13 q-47 0 -62.5 -20.5t-19.5 -24.5q-10 0 -15 14.5t-5 22.5z" />
<glyph unicode="&#xe4;" horiz-adv-x="950" d="M20 113q0 61 44.5 139t115 146.5t161.5 115.5t185 47q43 0 83 -20.5t40 -67.5q0 -41 -26.5 -83t-69.5 -82t-96.5 -75.5t-104.5 -65.5t-96 -51.5t-72 -29.5q-12 -4 -12 -12t11.5 -15.5t27.5 -7.5q10 0 16 2q16 4 47 14.5t69 31t80 51t81 77.5q18 23 32.5 32t24.5 9 q12 0 18.5 -9t10.5 -20.5t5 -21.5t1 -12q0 -6 6 -34t21.5 -57.5t42 -54t67.5 -24.5q45 0 100.5 35.5t107.5 87t96 106.5t69 92q6 18 22 19q14 0 27 -10q12 -11 12 -19q0 -4 -3 -9t-7 -11q-4 -8 -8 -15q-80 -104 -144.5 -174.5t-121 -112.5t-108.5 -60.5t-107 -18.5 q-37 0 -66 17.5t-47 45t-28.5 61t-10.5 64.5v12q0 10 -8 11q-4 0 -6 -6q-6 -10 -39 -40t-80 -62t-103.5 -57.5t-107.5 -25.5q-57 0 -88 16.5t-45 40t-16.5 48t-2.5 43.5zM129 154q0 -23 12 -23q6 0 39 14.5t78 37t96.5 54t95.5 64.5t72.5 67.5t28.5 65.5q0 29 -16.5 44.5 t-71.5 15.5q-43 0 -100.5 -32t-109.5 -81t-88 -109.5t-36 -117.5zM254 752q0 20 17.5 51t50.5 31q23 0 43 -20.5t20 -53.5q0 -41 -24.5 -66.5t-41.5 -25.5q-25 0 -38 11t-19 24.5t-7 27.5t-1 21zM541 758q0 20 17 51t50 31q23 0 43.5 -20.5t20.5 -53.5q0 -41 -24.5 -66.5 t-41.5 -25.5q-25 0 -38 11t-19 24.5t-7 28t-1 20.5z" />
<glyph unicode="&#xe5;" horiz-adv-x="950" d="M20 113q0 61 44.5 139t115 146.5t161.5 115.5t185 47q43 0 83 -20.5t40 -67.5q0 -41 -26.5 -83t-69.5 -82t-96.5 -75.5t-104.5 -65.5t-96 -51.5t-72 -29.5q-12 -4 -12 -12t11.5 -15.5t27.5 -7.5q10 0 16 2q16 4 47 14.5t69 31t80 51t81 77.5q18 23 32.5 32t24.5 9 q12 0 18.5 -9t10.5 -20.5t5 -21.5t1 -12q0 -6 6 -34t21.5 -57.5t42 -54t67.5 -24.5q45 0 100.5 35.5t107.5 87t96 106.5t69 92q6 18 22 19q14 0 27 -10q12 -11 12 -19q0 -4 -3 -9t-7 -11q-4 -8 -8 -15q-80 -104 -144.5 -174.5t-121 -112.5t-108.5 -60.5t-107 -18.5 q-37 0 -66 17.5t-47 45t-28.5 61t-10.5 64.5v12q0 10 -8 11q-4 0 -6 -6q-6 -10 -39 -40t-80 -62t-103.5 -57.5t-107.5 -25.5q-57 0 -88 16.5t-45 40t-16.5 48t-2.5 43.5zM129 154q0 -23 12 -23q6 0 39 14.5t78 37t96.5 54t95.5 64.5t72.5 67.5t28.5 65.5q0 29 -16.5 44.5 t-71.5 15.5q-43 0 -100.5 -32t-109.5 -81t-88 -109.5t-36 -117.5zM373 741q2 41 20 76q16 29 50 53.5t100 24.5q39 0 60.5 -17.5t31.5 -37.5q10 -23 12 -54q-2 -43 -20 -75q-16 -29 -49 -51.5t-95 -22.5q-41 0 -63.5 15.5t-32.5 35.5q-12 23 -14 53zM430 752q0 -18 8 -31 q6 -10 19.5 -19.5t38.5 -9.5q35 0 53 12.5t29 28.5q10 18 12 43q0 16 -8 31q-6 12 -18.5 22.5t-35.5 10.5q-37 0 -56 -14.5t-30 -30.5q-10 -20 -12 -43z" />
<glyph unicode="&#xe6;" horiz-adv-x="1060" d="M20 145q0 61 44.5 139t115 147t161.5 116t185 47q41 0 78 -17.5t43 -58.5q29 27 61.5 42t67.5 15q53 0 85 -28.5t32 -67.5q0 -57 -39 -122.5t-86 -123.5q-53 -68 -123 -133q6 -18 25 -32q16 -12 47 -22.5t84 -10.5q74 0 137 35.5t115.5 87t91.5 106.5t63 92q6 18 23 19 q14 0 26 -10q13 -11 13 -19q0 -4 -3 -9t-7 -11q-4 -8 -9 -15q-80 -104 -144.5 -174.5t-120.5 -112.5t-108.5 -60.5t-107.5 -18.5q-59 0 -102 13t-72 35.5t-46.5 54.5t-25.5 67q-8 23 -8 51q-2 6 -2 18q-4 4 -6 4q-4 0 -6 -6q-6 -10 -39 -39.5t-80 -61.5t-103.5 -57.5 t-107.5 -25.5q-57 0 -88 16.5t-45 40t-16.5 48t-2.5 42.5zM129 186q0 -23 12 -22q6 0 39 14.5t78 37t96.5 54t95.5 64.5t72.5 67.5t28.5 65.5q0 29 -16.5 44t-71.5 15q-43 0 -100.5 -31.5t-109.5 -80.5t-88 -109.5t-36 -118.5zM172 106q0 -8 11.5 -15t27.5 -7 q47 0 100.5 25.5t98.5 59.5t74.5 63.5t29.5 39.5q2 10 4 21.5t6 21.5q-43 -37 -92 -68.5t-96 -57t-87 -44t-65 -26.5q-12 -4 -12 -13zM596 227q0 -23 1 -35t3 -20t6 -14q49 41 88 90q33 41 60.5 94.5t27.5 110.5q0 27 -16 36t-29 9q-10 0 -33.5 -12.5t-47 -43t-42 -83 t-18.5 -132.5z" />
<glyph unicode="&#xe7;" horiz-adv-x="684" d="M123 225q0 106 46 182t108.5 125.5t124 72t92.5 22.5q66 0 92 -32t26 -60q0 -29 -10 -52.5t-23.5 -42t-28.5 -31t-28 -20.5q-4 -4 -13 -15.5t-22.5 -23.5t-32 -22.5t-42.5 -10.5q-37 0 -58 11q-10 6 -18 12q-10 8 -10 22t11 34t24.5 36.5t26.5 27.5t20 11q12 0 17 -8 t10 -17.5t13.5 -17.5t26.5 -8q20 0 32.5 21.5t12.5 45.5q0 29 -17.5 50.5t-51.5 21.5q-45 0 -86 -23.5t-73 -64.5t-51.5 -95t-19.5 -114q0 -37 7.5 -77t31 -73.5t65.5 -55t113 -21.5q49 0 111.5 41t121 98t107.5 115.5t74 95.5q6 18 22 18q14 0 27 -10q12 -10 12 -18 q0 -4 -3 -9.5t-7 -11.5q-4 -8 -8 -14q-160 -209 -286 -304t-244 -95q-16 0 -32 2t-30 6l-10 -35q0 -4 4 -8q2 -2 4 -2q47 -14 61.5 -37t14.5 -39q0 -8 -4 -23.5t-15.5 -30t-33 -25.5t-58.5 -11q-51 0 -55 22q-2 2 0 4q0 4 8 5h12q16 0 43 7t33 38q0 12 -8 20 q-6 8 -20.5 14.5t-42.5 8.5q-2 0 -5 2q-4 4 -4 8q8 31 19.5 56.5t17.5 35.5v2q-74 33 -107.5 105.5t-33.5 158.5z" />
<glyph unicode="&#xe8;" horiz-adv-x="446" d="M-102 240q0 47 21.5 105t58 109.5t85 86t99.5 34.5q53 0 85 -28.5t32 -67.5q0 -57 -39 -122.5t-86 -123.5q-53 -68 -123 -133q6 -18 24 -32q16 -12 47 -22.5t84 -10.5q74 0 137.5 35.5t116 87t91 106.5t63.5 92q6 18 22 19q14 0 27 -10q12 -11 12 -19q0 -4 -3 -9t-7 -11 q-4 -8 -8 -15q-80 -104 -144.5 -174.5t-121 -112.5t-108.5 -60.5t-107 -18.5q-86 0 -136.5 26.5t-78 68.5t-35.5 94t-8 106zM-72 858q0 14 12.5 26.5t28.5 12.5q43 0 89 -26.5t89 -63.5t78 -75.5t51 -63.5q0 -18 -8 -19q-8 0 -39.5 21.5t-73.5 47t-89.5 48t-85.5 25.5 q-18 0 -35 19t-17 48zM-18 198.5q2 -14.5 4 -24.5t6 -16q49 41 88 90q33 41 60.5 94.5t27.5 110.5q0 27 -16.5 36t-28.5 9q-39 0 -65.5 -35t-44 -80t-24.5 -88t-7 -57q-2 -25 0 -39.5z" />
<glyph unicode="&#xe9;" horiz-adv-x="446" d="M-102 240q0 47 21.5 105t58 109.5t85 86t99.5 34.5q53 0 85 -28.5t32 -67.5q0 -57 -39 -122.5t-86 -123.5q-53 -68 -123 -133q6 -18 24 -32q16 -12 47 -22.5t84 -10.5q74 0 137.5 35.5t116 87t91 106.5t63.5 92q6 18 22 19q14 0 27 -10q12 -11 12 -19q0 -4 -3 -9t-7 -11 q-4 -8 -8 -15q-80 -104 -144.5 -174.5t-121 -112.5t-108.5 -60.5t-107 -18.5q-86 0 -136.5 26.5t-78 68.5t-35.5 94t-8 106zM-18 198.5q2 -14.5 4 -24.5t6 -16q49 41 88 90q33 41 60.5 94.5t27.5 110.5q0 27 -16.5 36t-28.5 9q-39 0 -65.5 -35t-44 -80t-24.5 -88t-7 -57 q-2 -25 0 -39.5zM49 645q16 23 51 61.5t78 75.5t89 64.5t89 27.5q16 0 28.5 -12t12.5 -26q0 -29 -16 -48.5t-35 -19.5q-39 -2 -86 -24.5t-89 -48t-73.5 -47t-40.5 -21.5q-8 0 -8 18z" />
<glyph unicode="&#xea;" horiz-adv-x="446" d="M-102 240q0 47 21.5 105t58 109.5t85 86t99.5 34.5q53 0 85 -28.5t32 -67.5q0 -57 -39 -122.5t-86 -123.5q-53 -68 -123 -133q6 -18 24 -32q16 -12 47 -22.5t84 -10.5q74 0 137.5 35.5t116 87t91 106.5t63.5 92q6 18 22 19q14 0 27 -10q12 -11 12 -19q0 -4 -3 -9t-7 -11 q-4 -8 -8 -15q-80 -104 -144.5 -174.5t-121 -112.5t-108.5 -60.5t-107 -18.5q-86 0 -136.5 26.5t-78 68.5t-35.5 94t-8 106zM-76 643q18 16 45 51t59.5 71t70.5 64.5t79 32.5h17q31 0 61.5 -30.5t55 -72.5t42 -83.5t23.5 -59.5q-6 -20 -21 -16q-8 2 -22.5 24.5t-36 50 t-51 54.5t-68.5 35q-39 -2 -79 -23.5t-74.5 -47t-59 -47t-33.5 -21.5q-8 0 -8 18zM-18 198.5q2 -14.5 4 -24.5t6 -16q49 41 88 90q33 41 60.5 94.5t27.5 110.5q0 27 -16.5 36t-28.5 9q-39 0 -65.5 -35t-44 -80t-24.5 -88t-7 -57q-2 -25 0 -39.5z" />
<glyph unicode="&#xeb;" horiz-adv-x="446" d="M-102 240q0 47 21.5 105t58 109.5t85 86t99.5 34.5q53 0 85 -28.5t32 -67.5q0 -57 -39 -122.5t-86 -123.5q-53 -68 -123 -133q6 -18 24 -32q16 -12 47 -22.5t84 -10.5q74 0 137.5 35.5t116 87t91 106.5t63.5 92q6 18 22 19q14 0 27 -10q12 -11 12 -19q0 -4 -3 -9t-7 -11 q-4 -8 -8 -15q-80 -104 -144.5 -174.5t-121 -112.5t-108.5 -60.5t-107 -18.5q-86 0 -136.5 26.5t-78 68.5t-35.5 94t-8 106zM-18 198.5q2 -14.5 4 -24.5t6 -16q49 41 88 90q33 41 60.5 94.5t27.5 110.5q0 27 -16.5 36t-28.5 9q-39 0 -65.5 -35t-44 -80t-24.5 -88t-7 -57 q-2 -25 0 -39.5zM14 797q0 20 17.5 51t50.5 31q23 0 43 -20.5t20 -53.5q0 -41 -24.5 -66.5t-40.5 -25.5q-25 0 -38 11t-19.5 24.5t-7.5 28t-1 20.5zM301 803q0 20 17.5 51t50.5 31q23 0 43 -20.5t20 -53.5q0 -41 -24.5 -66.5t-40.5 -25.5q-25 0 -38.5 11t-19.5 24.5t-7 28 t-1 20.5z" />
<glyph unicode="&#xec;" horiz-adv-x="475" d="M133 836q0 14 12.5 26t28.5 12q43 0 89 -26.5t89 -63t78 -75.5t51 -64q0 -18 -8 -18t-40 21.5t-74 47t-89 48t-86 24.5q-18 0 -34.5 19.5t-16.5 48.5zM295 479q0 27 2 35q0 16 16.5 32.5t32.5 16.5q41 0 41 -55q0 -10 -1 -45t-2 -82t-4 -101.5t-5 -102.5t-4 -85t-4 -49 q-4 -31 -18.5 -40t-24.5 -9q-14 0 -15.5 17.5t-3.5 31.5q2 20 3 43t1 47q0 45 -2 94t-5 96.5t-5 87.5t-2 68z" />
<glyph unicode="&#xed;" horiz-adv-x="370" d="M133 645q16 23 51 61.5t78 75.5t89 64.5t89 27.5q16 0 28.5 -12t12.5 -26q0 -29 -16 -48.5t-35 -19.5q-39 -2 -86 -24.5t-89 -48t-73.5 -47t-40.5 -21.5q-8 0 -8 18zM190 479q0 27 3 35q0 16 16 32.5t33 16.5q41 0 41 -55q0 -10 -1 -45t-2 -82t-4.5 -101.5t-5.5 -102.5 t-4 -85t-4 -49q-4 -31 -18.5 -40t-24.5 -9q-14 0 -15 17.5t-3 31.5q2 20 3 43t1 47q0 45 -2 94t-5 96.5t-5.5 87.5t-2.5 68z" />
<glyph unicode="&#xee;" horiz-adv-x="514" d="M133 614q18 16 45 51t59.5 71t70.5 64.5t79 33.5h16q31 0 62 -31t55.5 -73t42 -83t23.5 -59q-6 -20 -21 -17q-8 2 -22.5 24.5t-36 50.5t-51 54.5t-68.5 34.5q-39 -2 -79 -23.5t-74.5 -47t-59 -47t-33.5 -21.5q-8 0 -8 18zM334 479q0 27 2 35q0 16 16.5 32.5t32.5 16.5 q41 0 41 -55q0 -10 -1 -45t-2 -82t-4 -101.5t-5 -102.5t-4 -85t-4 -49q-4 -31 -18.5 -40t-25.5 -9q-14 0 -15 17.5t-3 31.5q2 20 3 43t1 47q0 45 -2 94t-5 96.5t-5 87.5t-2 68z" />
<glyph unicode="&#xef;" horiz-adv-x="460" d="M133 791q0 20 17.5 50.5t50.5 30.5q23 0 43 -20t20 -53q0 -41 -24.5 -66.5t-40.5 -25.5q-25 0 -38.5 11t-19.5 24.5t-7 27.5t-1 21zM281 479q0 27 2 35q0 16 16 32.5t33 16.5q41 0 41 -55q0 -10 -1 -45t-2 -82t-4.5 -101.5t-5.5 -102.5t-4 -85t-4 -49q-4 -31 -18.5 -40 t-24.5 -9q-14 0 -15 17.5t-3 31.5q2 20 3 43t1 47q0 45 -2 94t-5 96.5t-5 87.5t-2 68zM420 797q0 20 17.5 51t49.5 31q23 0 43.5 -20.5t20.5 -53.5q0 -41 -24.5 -66.5t-41.5 -25.5q-25 0 -38 11t-19 24.5t-7 28t-1 20.5z" />
<glyph unicode="&#xf0;" horiz-adv-x="763" d="M121 186q0 117 48 185.5t109.5 104.5t120 47.5t76.5 11.5q86 0 120 -48.5t34 -117.5q0 -25 -12.5 -32t-20.5 -7q-12 0 -16.5 20.5t-15.5 45t-37.5 45t-88.5 20.5q-68 0 -109.5 -29t-63 -66.5t-29 -78.5t-7.5 -66q0 -55 18.5 -89t43 -52.5t51.5 -24.5t43 -6q53 0 96 26.5 t75 69.5t54.5 96.5t38 107.5t21.5 103.5t6 84.5q0 63 -13.5 150t-37.5 179q-47 -16 -86 -30.5t-47 -14.5q-12 0 -17 15q0 12 13.5 25t34 26.5t42 25t39.5 19.5q-23 74 -51.5 140.5t-62 117.5t-71.5 82t-79 31q-10 0 -15.5 -9.5t-11.5 -21.5t-14 -21.5t-27 -9.5 q-16 0 -29.5 12.5t-13.5 40.5q0 43 34 65.5t73 22.5q55 0 104 -36.5t92 -96t78 -137.5t62 -158q23 8 50.5 13.5t49.5 5.5q51 -8 68.5 -19.5t17.5 -27.5q0 -23 -12 -31t-29 -8q-18 0 -36.5 5t-26.5 5q-25 0 -62 -10q23 -86 35 -162t12 -129q0 -111 -23.5 -224.5t-72.5 -206.5 t-124 -151.5t-177 -58.5q-43 0 -83 14.5t-70.5 44t-49 72.5t-18.5 100z" />
<glyph unicode="&#xf1;" horiz-adv-x="1177" d="M82 199q0 16 15.5 52t49.5 91q10 14 28 45t39.5 60.5t47 52t49.5 22.5q27 0 42.5 -21.5t23.5 -54t9 -72.5t1 -77q0 -16 1 -40t2 -45.5t2 -38.5t1 -23q0 -23 4 -23t9.5 7t9.5 18q4 8 19.5 40.5t33.5 70.5t34.5 71l20.5 41t14.5 31.5t22.5 50t24.5 51t24.5 37.5 q12 12 23 12q12 0 23.5 -23.5t22.5 -58.5t22.5 -78t23.5 -80q16 -51 45 -104t71 -96t95 -71t121 -28q66 0 106.5 19.5t59.5 30.5q20 -1 20 -17q0 -23 -18 -33q-66 -47 -132.5 -62t-119.5 -15q-74 0 -129.5 27.5t-95 69.5t-65.5 94t-41 100.5t-21.5 87t-6.5 55.5q0 25 -10 24 q-6 0 -14 -18q-2 -6 -16.5 -36t-35 -71t-43 -88t-43 -88t-35 -70.5t-18.5 -35.5q-20 -31 -37 -31q-16 0 -28 20.5t-17 38.5q-2 8 -3 29t-2 47.5t-1 57v59.5l2 104q0 29 -3 52.5t-21 23.5q-12 0 -32.5 -19.5t-44.5 -49t-51.5 -65.5t-54.5 -66q-10 -10 -14 -11q-10 0 -10 17z M268 723q0 45 39 68.5t76 23.5q31 0 55.5 -12t49 -27.5t52 -28t68.5 -12.5q29 0 46.5 19.5t21.5 23.5q10 0 15 -14.5t5 -22.5q0 -45 -39 -68.5t-75 -23.5q-31 0 -53.5 12.5t-45 28t-49 28.5t-63.5 13q-47 0 -62.5 -20.5t-19.5 -24.5q-10 0 -15.5 14.5t-5.5 22.5z" />
<glyph unicode="&#xf2;" horiz-adv-x="931" d="M133 260q0 43 14.5 82t34 66.5t38 43t26.5 15.5q16 0 21 8t9 19q16 51 48 90q27 35 68.5 63.5t107.5 28.5q86 0 131 -45t67 -99q25 -63 29 -141q0 -63 -22.5 -118.5t-51.5 -96.5q10 -2 20.5 -2h20.5q59 0 119.5 14.5t114 39t93.5 56t58 68.5q8 23 21 23q10 0 24.5 -8.5 t14.5 -20.5l-19 -35q-37 -55 -85 -92t-102 -59.5t-113.5 -32.5t-117.5 -10q-45 0 -88 6q-43 -49 -81.5 -77t-71.5 -40t-58.5 -14t-44.5 -2q-61 0 -103 25.5t-68.5 65.5t-39 88t-14.5 91zM217 313q0 -16 4 -54t24.5 -79t59.5 -71.5t111 -30.5q35 0 59.5 8t40.5 18 q21 11 33 27q0 4 -16.5 6t-43 8.5t-58.5 20.5t-64 45q-4 4 -19.5 21.5t-32 44t-32 58.5t-19.5 66q0 12 -6 13q-12 -8 -20 -21q-8 -12 -14.5 -31.5t-6.5 -48.5zM334 961q0 14 12 26t29 12q43 0 89 -26.5t89 -63.5t78 -75.5t51 -63.5q0 -18 -8 -18t-40 21.5t-74 47t-89 48 t-86 24.5q-18 0 -34.5 19.5t-16.5 48.5zM348 469q0 -33 6 -60.5t8 -31.5q27 -66 63 -103.5t69.5 -57t59.5 -25t32 -5.5t18 15.5t24.5 41t20.5 59.5t8 71q0 45 -10 87t-31.5 73.5t-55.5 50t-79 18.5q-53 0 -93 -33.5t-40 -99.5z" />
<glyph unicode="&#xf3;" horiz-adv-x="931" d="M133 260q0 43 14.5 82t34 66.5t38 43t26.5 15.5q16 0 21 8t9 19q16 51 48 90q27 35 68.5 63.5t107.5 28.5q86 0 131 -45t67 -99q25 -63 29 -141q0 -63 -22.5 -118.5t-51.5 -96.5q10 -2 20.5 -2h20.5q59 0 119.5 14.5t114 39t93.5 56t58 68.5q8 23 21 23q10 0 24.5 -8.5 t14.5 -20.5l-19 -35q-37 -55 -85 -92t-102 -59.5t-113.5 -32.5t-117.5 -10q-45 0 -88 6q-43 -49 -81.5 -77t-71.5 -40t-58.5 -14t-44.5 -2q-61 0 -103 25.5t-68.5 65.5t-39 88t-14.5 91zM217 313q0 -16 4 -54t24.5 -79t59.5 -71.5t111 -30.5q35 0 59.5 8t40.5 18 q21 11 33 27q0 4 -16.5 6t-43 8.5t-58.5 20.5t-64 45q-4 4 -19.5 21.5t-32 44t-32 58.5t-19.5 66q0 12 -6 13q-12 -8 -20 -21q-8 -12 -14.5 -31.5t-6.5 -48.5zM348 469q0 -33 6 -60.5t8 -31.5q27 -66 63 -103.5t69.5 -57t59.5 -25t32 -5.5t18 15.5t24.5 41t20.5 59.5t8 71 q0 45 -10 87t-31.5 73.5t-55.5 50t-79 18.5q-53 0 -93 -33.5t-40 -99.5zM467 754q16 23 51 61.5t78 75.5t89 64.5t89 27.5q16 0 28.5 -12.5t12.5 -26.5q0 -29 -16.5 -48t-34.5 -19q-39 -2 -86 -25t-89 -48.5t-74 -47t-40 -21.5t-8 19z" />
<glyph unicode="&#xf4;" horiz-adv-x="931" d="M133 260q0 43 14.5 82t34 66.5t38 43t26.5 15.5q16 0 21 8t9 19q16 51 48 90q27 35 68.5 63.5t107.5 28.5q86 0 131 -45t67 -99q25 -63 29 -141q0 -63 -22.5 -118.5t-51.5 -96.5q10 -2 20.5 -2h20.5q59 0 119.5 14.5t114 39t93.5 56t58 68.5q8 23 21 23q10 0 24.5 -8.5 t14.5 -20.5l-19 -35q-37 -55 -85 -92t-102 -59.5t-113.5 -32.5t-117.5 -10q-45 0 -88 6q-43 -49 -81.5 -77t-71.5 -40t-58.5 -14t-44.5 -2q-61 0 -103 25.5t-68.5 65.5t-39 88t-14.5 91zM217 313q0 -16 4 -54t24.5 -79t59.5 -71.5t111 -30.5q35 0 59.5 8t40.5 18 q21 11 33 27q0 4 -16.5 6t-43 8.5t-58.5 20.5t-64 45q-4 4 -19.5 21.5t-32 44t-32 58.5t-19.5 66q0 12 -6 13q-12 -8 -20 -21q-8 -12 -14.5 -31.5t-6.5 -48.5zM295 741q18 16 45 51t59.5 71t70.5 64.5t79 33.5h16q31 0 61.5 -31t55.5 -73t42.5 -83t23.5 -59q-6 -20 -21 -17 q-8 2 -22.5 24.5t-36 50.5t-51 54.5t-68.5 34.5q-39 -2 -79 -23.5t-75 -47t-59.5 -47t-32.5 -21.5t-8 18zM348 469q0 -33 6 -60.5t8 -31.5q27 -66 63 -103.5t69.5 -57t59.5 -25t32 -5.5t18 15.5t24.5 41t20.5 59.5t8 71q0 45 -10 87t-31.5 73.5t-55.5 50t-79 18.5 q-53 0 -93 -33.5t-40 -99.5z" />
<glyph unicode="&#xf5;" horiz-adv-x="931" d="M133 260q0 43 14.5 82t34 66.5t38 43t26.5 15.5q16 0 21 8t9 19q16 51 48 90q27 35 68.5 63.5t107.5 28.5q86 0 131 -45t67 -99q25 -63 29 -141q0 -63 -22.5 -118.5t-51.5 -96.5q10 -2 20.5 -2h20.5q59 0 119.5 14.5t114 39t93.5 56t58 68.5q8 23 21 23q10 0 24.5 -8.5 t14.5 -20.5l-19 -35q-37 -55 -85 -92t-102 -59.5t-113.5 -32.5t-117.5 -10q-45 0 -88 6q-43 -49 -81.5 -77t-71.5 -40t-58.5 -14t-44.5 -2q-61 0 -103 25.5t-68.5 65.5t-39 88t-14.5 91zM217 313q0 -16 4 -54t24.5 -79t59.5 -71.5t111 -30.5q35 0 59.5 8t40.5 18 q21 11 33 27q0 4 -16.5 6t-43 8.5t-58.5 20.5t-64 45q-4 4 -19.5 21.5t-32 44t-32 58.5t-19.5 66q0 12 -6 13q-12 -8 -20 -21q-8 -12 -14.5 -31.5t-6.5 -48.5zM252 805q0 45 39 68.5t76 23.5q31 0 55 -12.5t49 -27.5t52.5 -27.5t68.5 -12.5q29 0 46 19.5t21 23.5 q10 0 15.5 -14.5t5.5 -22.5q0 -45 -39 -68.5t-76 -23.5q-31 0 -53.5 12.5t-45 27.5t-49 28.5t-63.5 13.5q-47 0 -62.5 -20.5t-19.5 -24.5q-10 0 -15 14.5t-5 22.5zM348 469q0 -33 6 -60.5t8 -31.5q27 -66 63 -103.5t69.5 -57t59.5 -25t32 -5.5t18 15.5t24.5 41t20.5 59.5 t8 71q0 45 -10 87t-31.5 73.5t-55.5 50t-79 18.5q-53 0 -93 -33.5t-40 -99.5z" />
<glyph unicode="&#xf6;" horiz-adv-x="931" d="M133 260q0 43 14.5 82t34 66.5t38 43t26.5 15.5q16 0 21 8t9 19q16 51 48 90q27 35 68.5 63.5t107.5 28.5q86 0 131 -45t67 -99q25 -63 29 -141q0 -63 -22.5 -118.5t-51.5 -96.5q10 -2 20.5 -2h20.5q59 0 119.5 14.5t114 39t93.5 56t58 68.5q8 23 21 23q10 0 24.5 -8.5 t14.5 -20.5l-19 -35q-37 -55 -85 -92t-102 -59.5t-113.5 -32.5t-117.5 -10q-45 0 -88 6q-43 -49 -81.5 -77t-71.5 -40t-58.5 -14t-44.5 -2q-61 0 -103 25.5t-68.5 65.5t-39 88t-14.5 91zM217 313q0 -16 4 -54t24.5 -79t59.5 -71.5t111 -30.5q35 0 59.5 8t40.5 18 q21 11 33 27q0 4 -16.5 6t-43 8.5t-58.5 20.5t-64 45q-4 4 -19.5 21.5t-32 44t-32 58.5t-19.5 66q0 12 -6 13q-12 -8 -20 -21q-8 -12 -14.5 -31.5t-6.5 -48.5zM283 825q0 20 17 51t50 31q23 0 43.5 -20t20.5 -53q0 -41 -24.5 -67t-41.5 -26q-25 0 -38 11.5t-19 25t-7 27.5 t-1 20zM348 469q0 -33 6 -60.5t8 -31.5q27 -66 63 -103.5t69.5 -57t59.5 -25t32 -5.5t18 15.5t24.5 41t20.5 59.5t8 71q0 45 -10 87t-31.5 73.5t-55.5 50t-79 18.5q-53 0 -93 -33.5t-40 -99.5zM569 831q0 20 17.5 51t50.5 31q23 0 43 -20t20 -53q0 -41 -24.5 -66.5 t-40.5 -25.5q-25 0 -38 11t-19.5 24.5t-7.5 27.5t-1 20z" />
<glyph unicode="&#xf7;" horiz-adv-x="917" d="M180 479q2 20 15 29q6 4 10 6h528q14 0 23 -20q4 -9 4 -19q0 -12 -5 -19t-10 -12q-6 -6 -12 -6h-528q-6 0 -12 6q-4 4 -8.5 11.5t-4.5 23.5zM397 246q0 12 5.5 28.5t16.5 32t26.5 26.5t33.5 11q29 0 53.5 -24.5t24.5 -65.5q0 -23 -9 -43.5t-21.5 -35.5t-27 -23.5 t-22.5 -8.5q-31 0 -46 13.5t-23.5 31t-9.5 34t-1 24.5zM397 725q0 12 5.5 28.5t16.5 32t26.5 26.5t33.5 11q29 0 53.5 -24.5t24.5 -65.5q0 -23 -9 -43t-21.5 -35.5t-27 -23.5t-22.5 -8q-31 0 -46 13t-23.5 30.5t-9.5 34t-1 24.5z" />
<glyph unicode="&#xf8;" horiz-adv-x="931" d="M133 260q0 43 14.5 82t34 66.5t38 43t26.5 15.5q16 0 21 8t9 19q16 51 48 90q27 35 68.5 63.5t107.5 28.5q10 0 18 -1t19 -3l77 178q2 4 11 10q4 4 13 7t21 3q27 0 32 -8t5 -10l-88 -205q43 -29 67.5 -72t35.5 -83q12 -49 16 -101q0 -63 -22.5 -118.5t-51.5 -96.5 q10 -2 20.5 -2h20.5q59 0 119.5 14.5t114 39t93.5 56t58 68.5q8 23 21 23q10 0 24.5 -8.5t14.5 -20.5l-19 -35q-37 -55 -85 -92t-102 -59.5t-113.5 -32.5t-117.5 -10q-45 0 -88 6q-43 -49 -81.5 -77t-71.5 -40t-58.5 -14t-44.5 -2q-10 0 -17 1t-15 1l-70 -164q-2 -4 -8 -10 q-12 -12 -39 -11q-23 0 -29 9.5t-6 13.5l80 186q-63 37 -91 108t-30 136zM217 313q0 -16 4 -54t24.5 -79t59.5 -71.5t111 -30.5q35 0 59.5 8t40.5 18q21 11 33 27q0 4 -16.5 6t-43 8.5t-58.5 20.5t-64 45q-4 4 -19.5 21.5t-32 44t-32 58.5t-19.5 66q0 12 -6 13 q-12 -8 -20 -21q-8 -12 -14.5 -31.5t-6.5 -48.5zM348 469q0 -33 6 -60.5t8 -31.5q27 -66 63 -103.5t69.5 -57t59.5 -25t32 -5.5t18 15.5t24.5 41t20.5 59.5t8 71q0 45 -10 87t-31.5 73.5t-55.5 50t-79 18.5q-53 0 -93 -33.5t-40 -99.5z" />
<glyph unicode="&#xf9;" horiz-adv-x="856" d="M125 201q0 53 15.5 116.5t33.5 116.5q23 63 51 125q2 4 6 8q8 8 19 8q16 0 25.5 -11t9.5 -21q0 -6 -4 -15q-12 -31 -22.5 -68.5t-16.5 -71.5t-10.5 -61.5t-6.5 -39.5q0 -86 21.5 -118t52.5 -32q49 0 89 43t70.5 100.5t52 114t34.5 84.5q12 29 28 29q12 0 24.5 -7 t12.5 -18q0 -8 -2 -12q-6 -23 -10 -36t-6 -26.5t-2 -32v-48.5q0 -35 8 -79t25.5 -83t43 -66.5t62.5 -27.5q49 0 91 30.5t72 68.5t47 69.5t17 35.5q6 18 23 19q10 0 24.5 -8.5t14.5 -20.5q0 -8 -6 -16t-13 -19q-49 -84 -98 -134t-92 -76.5t-79 -36t-60 -9.5q-70 0 -102.5 38 t-46 82t-16.5 82t-11 38t-13 -12q-37 -66 -74.5 -106t-69.5 -61.5t-56.5 -27.5t-34.5 -6q-41 0 -64.5 22.5t-36 54.5t-16.5 65.5t-4 56.5zM254 836q0 14 12.5 26t28.5 12q43 0 89 -26.5t89 -63t78 -75.5t51 -64q0 -18 -8 -18t-40 21.5t-74 47t-89 48t-86 24.5 q-18 0 -34.5 19.5t-16.5 48.5z" />
<glyph unicode="&#xfa;" horiz-adv-x="856" d="M125 201q0 53 15.5 116.5t33.5 116.5q23 63 51 125q2 4 6 8q8 8 19 8q16 0 25.5 -11t9.5 -21q0 -6 -4 -15q-12 -31 -22.5 -68.5t-16.5 -71.5t-10.5 -61.5t-6.5 -39.5q0 -86 21.5 -118t52.5 -32q49 0 89 43t70.5 100.5t52 114t34.5 84.5q12 29 28 29q12 0 24.5 -7 t12.5 -18q0 -8 -2 -12q-6 -23 -10 -36t-6 -26.5t-2 -32v-48.5q0 -35 8 -79t25.5 -83t43 -66.5t62.5 -27.5q49 0 91 30.5t72 68.5t47 69.5t17 35.5q6 18 23 19q10 0 24.5 -8.5t14.5 -20.5q0 -8 -6 -16t-13 -19q-49 -84 -98 -134t-92 -76.5t-79 -36t-60 -9.5q-70 0 -102.5 38 t-46 82t-16.5 82t-11 38t-13 -12q-37 -66 -74.5 -106t-69.5 -61.5t-56.5 -27.5t-34.5 -6q-41 0 -64.5 22.5t-36 54.5t-16.5 65.5t-4 56.5zM356 645q16 23 51 61.5t78 75.5t89.5 64.5t89.5 27.5q16 0 28.5 -12t12.5 -26q0 -29 -16.5 -48.5t-35.5 -19.5q-39 -2 -86 -24.5 t-89 -48t-73.5 -47t-39.5 -21.5t-9 18z" />
<glyph unicode="&#xfb;" horiz-adv-x="856" d="M125 201q0 53 15.5 116.5t33.5 116.5q23 63 51 125q2 4 6 8q8 8 19 8q16 0 25.5 -11t9.5 -21q0 -6 -4 -15q-12 -31 -22.5 -68.5t-16.5 -71.5t-10.5 -61.5t-6.5 -39.5q0 -86 21.5 -118t52.5 -32q49 0 89 43t70.5 100.5t52 114t34.5 84.5q12 29 28 29q12 0 24.5 -7 t12.5 -18q0 -8 -2 -12q-6 -23 -10 -36t-6 -26.5t-2 -32v-48.5q0 -35 8 -79t25.5 -83t43 -66.5t62.5 -27.5q49 0 91 30.5t72 68.5t47 69.5t17 35.5q6 18 23 19q10 0 24.5 -8.5t14.5 -20.5q0 -8 -6 -16t-13 -19q-49 -84 -98 -134t-92 -76.5t-79 -36t-60 -9.5q-70 0 -102.5 38 t-46 82t-16.5 82t-11 38t-13 -12q-37 -66 -74.5 -106t-69.5 -61.5t-56.5 -27.5t-34.5 -6q-41 0 -64.5 22.5t-36 54.5t-16.5 65.5t-4 56.5zM225 668q18 16 45 51t59.5 70.5t70.5 64.5t79 33h17q31 0 61.5 -31t55 -73t42 -83t23.5 -59q-6 -20 -21 -16q-8 2 -22 24.5t-35.5 50 t-51.5 54t-69 34.5q-39 -2 -79 -23.5t-74.5 -47t-59 -47t-33.5 -21.5q-8 0 -8 19z" />
<glyph unicode="&#xfc;" horiz-adv-x="856" d="M125 201q0 53 15.5 116.5t33.5 116.5q23 63 51 125q2 4 6 8q8 8 19 8q16 0 25.5 -11t9.5 -21q0 -6 -4 -15q-12 -31 -22.5 -68.5t-16.5 -71.5t-10.5 -61.5t-6.5 -39.5q0 -86 21.5 -118t52.5 -32q49 0 89 43t70.5 100.5t52 114t34.5 84.5q12 29 28 29q12 0 24.5 -7 t12.5 -18q0 -8 -2 -12q-6 -23 -10 -36t-6 -26.5t-2 -32v-48.5q0 -35 8 -79t25.5 -83t43 -66.5t62.5 -27.5q49 0 91 30.5t72 68.5t47 69.5t17 35.5q6 18 23 19q10 0 24.5 -8.5t14.5 -20.5q0 -8 -6 -16t-13 -19q-49 -84 -98 -134t-92 -76.5t-79 -36t-60 -9.5q-70 0 -102.5 38 t-46 82t-16.5 82t-11 38t-13 -12q-37 -66 -74.5 -106t-69.5 -61.5t-56.5 -27.5t-34.5 -6q-41 0 -64.5 22.5t-36 54.5t-16.5 65.5t-4 56.5zM252 774q0 20 17.5 51t49.5 31q23 0 43.5 -20.5t20.5 -53.5q0 -41 -24.5 -66.5t-41.5 -25.5q-25 0 -38 11.5t-19 24.5t-7 27.5 t-1 20.5zM539 780q0 20 17 51t50 31q23 0 43.5 -20.5t20.5 -53.5q0 -41 -24.5 -66.5t-41.5 -25.5q-25 0 -38 11.5t-19 24.5t-7 27.5t-1 20.5z" />
<glyph unicode="&#xfd;" horiz-adv-x="720" d="M-80 -436q0 20 11.5 35.5t26.5 25.5t32.5 15.5t29.5 5.5q35 0 70 -23.5t66.5 -57.5t63.5 -75t63.5 -74.5t62.5 -57.5t62 -24q35 0 53 39t26.5 105.5t9.5 154.5t1 186.5t2 200t12 195.5q0 18 -6 18q-10 0 -28.5 -36.5t-49.5 -81.5t-73 -82t-97 -37q-35 2 -61 24 q-23 18 -42.5 60.5t-19.5 120.5q0 39 6 85t17 87q8 47 22 92q6 29 31 29q27 -6 34 -13.5t7 -17.5q0 -4 -3 -22.5t-8 -46t-8.5 -61.5t-3.5 -67q0 -90 30 -123.5t50 -33.5q25 0 50.5 25.5t49 64.5t44 86t38 89t28.5 74.5t16 43.5q10 23 18 36t22 13h17q10 0 15 -10.5t5 -20.5 q0 -12 -5 -46t-9 -56q-2 -6 -4 -48.5t-6 -102.5t-7 -129t-6.5 -128t-6.5 -101t-3 -49q0 -10 -1 -58t-2 -106.5t-2 -110.5t-3 -67q0 -4 -3 -47t-19.5 -92t-51 -90t-98.5 -41q-51 0 -95 22.5t-80 55.5t-65.5 72t-55.5 71.5t-48.5 55t-42.5 22.5q-14 0 -27.5 -7t-23.5 -7 q-14 0 -20.5 12t-6.5 29zM295 645q16 23 51 61.5t78 75.5t89 64.5t89 27.5q16 0 28.5 -12t12.5 -26q0 -29 -16.5 -48.5t-34.5 -19.5q-39 -2 -86 -24.5t-89 -48t-74 -47t-40 -21.5t-8 18z" />
<glyph unicode="&#xfe;" horiz-adv-x="851" d="M10 -414q0 68 10.5 147t24.5 155.5t27.5 144t19.5 110.5q2 14 5 62.5t5 115t5.5 142.5t5.5 146.5t3 130t1 91.5q0 20 -3 25.5t-8 5.5q-16 0 -28 -19.5t-23 -19.5q-18 0 -18 29q0 25 11 44t25.5 39.5l29 41t20.5 45.5q2 6 3 29.5t3 51t3 52.5t1 31q0 27 1 64.5t8.5 72.5 t20.5 60.5t38 25.5q27 0 35 -19.5t12 -35.5q0 -45 -9.5 -97.5t-21.5 -97.5t-22.5 -77.5t-10.5 -39.5q0 -8 -1 -58t-4 -123t-5 -155.5t-5 -154.5t-4 -121t-1 -53q0 -10 4 -10q8 0 34.5 35.5t68.5 77.5t100.5 78t132.5 36q96 0 137 -57.5t41 -137.5q0 -55 -17.5 -115.5 t-47 -113.5t-70.5 -95t-90 -61q6 -2 14 -4t39 -2q33 0 83 11.5t113.5 48t138.5 105.5t154 183q6 18 23 19q14 0 27 -10q12 -11 12 -19q0 -4 -3 -9t-7 -11q-4 -8 -9 -15q-80 -104 -153.5 -174.5t-141 -115t-130 -62.5t-117.5 -18q-80 0 -137.5 17t-94.5 44t-55 58.5t-18 60.5 q0 33 51 33q20 0 38.5 -17.5t38 -37t41 -37t46.5 -17.5q37 12 68.5 44t54 75t36 91t13.5 93q0 63 -30 108.5t-97 45.5q-68 0 -118 -39t-86 -91.5t-61.5 -105.5t-44.5 -80q0 -2 -1 -36.5t-3 -84t-4 -106.5t-4 -107.5t-3 -86t-1 -39.5q0 -41 -1 -99.5t-6 -112t-15.5 -91 t-30.5 -37.5q-25 0 -38 19.5t-19.5 49t-7.5 64.5t-1 67z" />
<glyph unicode="&#xff;" horiz-adv-x="690" d="M-80 -436q0 20 11.5 35.5t26.5 25.5t32.5 15.5t29.5 5.5q35 0 70 -23.5t66.5 -57.5t63.5 -75t63.5 -74.5t62.5 -57.5t62 -24q35 0 53 39t26.5 105.5t9.5 154.5t1 186.5t2 200t12 195.5q0 18 -6 18q-10 0 -28.5 -36.5t-49.5 -81.5t-73 -82t-97 -37q-35 2 -61 24 q-23 18 -42.5 60.5t-19.5 120.5q0 39 6 85t17 87q8 47 22 92q6 29 31 29q27 -6 34 -13.5t7 -17.5q0 -4 -3 -22.5t-8 -46t-8.5 -61.5t-3.5 -67q0 -90 30 -123.5t50 -33.5q25 0 50.5 25.5t49 64.5t44 86t38 89t28.5 74.5t16 43.5q10 23 18 36t22 13h17q10 0 15 -10.5t5 -20.5 q0 -12 -5 -46t-9 -56q-2 -6 -4 -48.5t-6 -102.5t-7 -129t-6.5 -128t-6.5 -101t-3 -49q0 -10 -1 -58t-2 -106.5t-2 -110.5t-3 -67q0 -4 -3 -47t-19.5 -92t-51 -90t-98.5 -41q-51 0 -95 22.5t-80 55.5t-65.5 72t-55.5 71.5t-48.5 55t-42.5 22.5q-14 0 -27.5 -7t-23.5 -7 q-14 0 -20.5 12t-6.5 29zM186 739q0 20 17.5 51t50.5 31q23 0 43 -20t20 -53q0 -41 -24.5 -67t-40.5 -26q-25 0 -38 11.5t-19.5 25t-7.5 27.5t-1 20zM473 745q0 20 17.5 51t50.5 31q23 0 43 -20t20 -53q0 -41 -24.5 -66.5t-40.5 -25.5q-25 0 -38.5 11t-19.5 24.5t-7 27.5 t-1 20z" />
<glyph unicode="&#x152;" horiz-adv-x="2011" d="M-6 563q0 158 34.5 287t94 230.5t137.5 175t164 120.5t173 70.5t167 23.5q61 0 114.5 -18t92.5 -49t61.5 -69t22.5 -74q0 -29 -7.5 -47.5t-16.5 -32t-16 -21.5t-7 -14q-2 -2 0 -6q0 -4 8 -13q78 88 185.5 157t215 116t200.5 70.5t144 23.5q53 0 84 -15.5t31 -50.5 q0 -47 -38 -96t-100.5 -97t-142 -93t-161.5 -84q-195 -94 -443 -180q2 -27 21 -50q16 -18 49 -33.5t94 -15.5q43 0 84 8.5t96.5 31t131 61.5t184.5 100q8 4 13 6t9 2q8 0 18.5 -8t10.5 -18q0 -14 -27 -29q-20 -14 -67 -46t-106.5 -77t-122 -100.5t-115 -118t-86 -132 t-33.5 -141.5q0 -47 14.5 -93t45 -80.5t76.5 -56t112 -21.5q96 0 185 27.5t170 74.5t156.5 107.5t147.5 125.5q2 4 8 11q4 4 9.5 7t13.5 3q10 0 20.5 -8.5t10.5 -20.5q0 -20 -37 -61t-98.5 -88t-140.5 -97.5t-162 -91.5t-163.5 -66.5t-146.5 -25.5q-139 0 -231.5 51.5 t-108.5 169.5q-82 -104 -201.5 -171.5t-285.5 -67.5q-123 0 -224.5 42t-172 121.5t-109.5 194.5t-39 260zM96 668q0 -88 24.5 -198t85 -207t160 -162.5t248.5 -65.5q66 0 117 20.5t111 55.5q33 18 65 47q29 25 61.5 60.5t65.5 88.5q10 43 30.5 94.5t55.5 106.5t85 113.5 t120 113.5q33 27 33 33q0 2 -4 2q-6 0 -22.5 -5t-34 -12.5t-33 -14.5t-21.5 -9t-25.5 -8t-47 -13.5t-61.5 -13.5t-69 -6q-74 0 -108.5 47t-44.5 107q4 59 24.5 115.5t55.5 105.5q-10 8 -13.5 13t-8.5 8t-14 4.5t-32 1.5q-16 0 -16 6q0 10 19.5 27.5t19.5 35.5q10 14 18 31 q6 14 12 32.5t6 41.5q0 18 -7 43.5t-28.5 48t-59.5 38t-99 15.5q-51 0 -121 -14.5t-143.5 -48t-146 -89t-130 -138.5t-92.5 -194.5t-35 -256.5zM1016 1004q0 -10 12 -11q12 0 25 6q8 2 14 7q27 8 89.5 34.5t143 63.5t166.5 81t158 86t118 77.5t46 58.5q0 25 -49 25 q-82 0 -168 -28t-166 -70t-150.5 -92t-124 -98t-84 -86t-30.5 -54z" />
<glyph unicode="&#x153;" horiz-adv-x="1138" d="M133 260q0 43 14.5 82t34 66.5t38 43t26.5 15.5q16 0 21 8t9 19q16 51 48 90q27 35 68.5 63.5t107.5 28.5q47 0 82.5 -16.5t60.5 -41t41 -55.5t25 -61q33 33 69.5 53t75.5 20q53 0 85 -28.5t32 -67.5q0 -57 -39 -122.5t-86 -123.5q-53 -68 -123 -133q6 -18 25 -32 q16 -12 46.5 -22.5t84.5 -10.5q74 0 137 35.5t115.5 87t91.5 106.5t63 92q6 18 23 19q14 0 26 -10q13 -11 13 -19q0 -4 -3.5 -9t-7.5 -11q-4 -8 -8 -15q-80 -104 -144.5 -174.5t-120.5 -112.5t-108.5 -60.5t-107.5 -18.5q-119 0 -173 48t-73 116q-41 -45 -78 -69t-67.5 -35 t-56 -13t-42.5 -2q-61 0 -103 25.5t-68.5 65.5t-39 88t-14.5 91zM217 313q0 -16 4 -54t24.5 -79t59.5 -71.5t111 -30.5q35 0 59.5 8t40.5 18q21 11 33 27q0 4 -16.5 6t-43 8.5t-58.5 20.5t-64 45q-4 4 -19.5 21.5t-32 44t-32 58.5t-19.5 66q0 12 -6 13q-12 -8 -20 -21 q-8 -12 -14.5 -31.5t-6.5 -48.5zM348 469q0 -33 6 -60.5t8 -31.5q27 -66 63 -103.5t69.5 -57t59.5 -25t32 -5.5q4 0 6 2q-2 12 -2 24.5v27.5q0 41 17 91t46 97q-12 72 -54 123t-118 51q-53 0 -93 -33.5t-40 -99.5zM674 198.5q2 -14.5 4 -24.5t6 -16q49 41 88 90 q33 41 60.5 94.5t27.5 110.5q0 27 -16.5 36t-28.5 9q-39 0 -65.5 -35t-44 -80t-24.5 -88t-7 -57q-2 -25 0 -39.5z" />
<glyph unicode="&#x178;" horiz-adv-x="1083" d="M-10 782q0 10 12 23q45 70 82 125q31 47 57.5 89t28.5 50q2 111 18 199q6 37 16.5 73.5t24 64.5t33 45t43.5 17q25 -4 32 -17t7 -32q0 -23 -7 -56.5t-19.5 -73.5t-29 -84t-34.5 -85q-2 -27 -3 -55.5t-1 -63.5q0 -78 5 -165.5t16.5 -176t28.5 -170t42 -144t57.5 -99.5 t73.5 -37t92 61.5t105.5 155.5t106.5 208t93 219t66 189t25 119q2 0 2 17.5t1 38t6 38t17 17.5q16 0 24.5 -59.5t8.5 -174.5q0 -57 -3 -111.5t-11 -95.5q-4 -25 -9.5 -88t-8.5 -151t-7 -191.5t-7 -208t-5 -204t-4 -178t-3 -129t-1 -56.5t-2.5 -36.5t-8.5 -71.5t-19 -87 t-37 -85t-59.5 -64.5t-86.5 -25.5q-59 0 -112.5 32.5t-101 80.5t-89.5 104.5t-78.5 104.5t-69.5 81t-61 33q-16 0 -24.5 -17.5t-21.5 -17.5q2 0 -17 8t-19 29q0 12 10 27.5t28.5 29.5t43 24.5t53.5 10.5q45 0 88 -30.5t85 -77t83 -100.5t82 -100t81 -77t78 -31q43 0 68 43 t36 101.5t14 119t3 95.5q0 174 4 344t10.5 318.5t13.5 263t13 177.5q0 18 -6 19q-8 0 -22 -35q-10 -27 -34 -91.5t-59.5 -145t-83 -166.5t-101.5 -159t-114.5 -119t-126.5 -46q-55 0 -96 41t-68.5 104.5t-45 142.5t-26.5 153.5t-12 138t-3 96.5q0 59 3 96t3 47q0 25 -4 25 t-16.5 -20.5t-28 -48t-32 -54.5t-24.5 -37q-6 -6 -14 -13t-19 -7q-10 0 -19 11t-9 19zM487 1532q0 20 17.5 51t50.5 31q23 0 43 -20.5t20 -53.5q0 -41 -24.5 -66.5t-40.5 -25.5q-25 0 -38 11t-19.5 24.5t-7.5 28t-1 20.5zM774 1538q0 20 17.5 51t50.5 31q23 0 43 -20.5 t20 -53.5q0 -41 -24.5 -66.5t-40.5 -25.5q-25 0 -38.5 11.5t-19.5 24.5t-7 27.5t-1 20.5z" />
<glyph unicode="&#x2c6;" d="M299 563q18 16 45 51t59.5 71t70.5 64.5t79 32.5h16q31 0 62 -30.5t55.5 -72.5t42 -83t23.5 -59q-6 -20 -21 -17q-8 2 -22.5 24.5t-36 50.5t-51 54.5t-68.5 34.5q-39 -2 -79 -23.5t-74.5 -47t-59.5 -47t-33 -21.5t-8 18z" />
<glyph unicode="&#x2dc;" d="M268 723q0 45 39 68.5t76 23.5q31 0 55.5 -12t49 -27.5t52 -28t68.5 -12.5q29 0 46.5 19.5t21.5 23.5q10 0 15 -14.5t5 -22.5q0 -45 -39 -68.5t-75 -23.5q-31 0 -53.5 12.5t-45 28t-49 28.5t-63.5 13q-47 0 -62.5 -20.5t-19.5 -24.5q-10 0 -15.5 14.5t-5.5 22.5z" />
<glyph unicode="&#x2000;" horiz-adv-x="948" />
<glyph unicode="&#x2001;" horiz-adv-x="1896" />
<glyph unicode="&#x2002;" horiz-adv-x="948" />
<glyph unicode="&#x2003;" horiz-adv-x="1896" />
<glyph unicode="&#x2004;" horiz-adv-x="632" />
<glyph unicode="&#x2005;" horiz-adv-x="474" />
<glyph unicode="&#x2006;" horiz-adv-x="316" />
<glyph unicode="&#x2007;" horiz-adv-x="316" />
<glyph unicode="&#x2008;" horiz-adv-x="237" />
<glyph unicode="&#x2009;" horiz-adv-x="379" />
<glyph unicode="&#x200a;" horiz-adv-x="105" />
<glyph unicode="&#x2010;" horiz-adv-x="956" d="M283 336q2 20 14 29q6 4 10 6h529q14 0 22 -21q4 -8 4 -18q0 -12 -5 -19.5t-9 -11.5q-6 -6 -12 -6h-529q-6 0 -12 6q-4 4 -8 11t-4 24z" />
<glyph unicode="&#x2011;" horiz-adv-x="956" d="M283 336q2 20 14 29q6 4 10 6h529q14 0 22 -21q4 -8 4 -18q0 -12 -5 -19.5t-9 -11.5q-6 -6 -12 -6h-529q-6 0 -12 6q-4 4 -8 11t-4 24z" />
<glyph unicode="&#x2012;" horiz-adv-x="956" d="M283 336q2 20 14 29q6 4 10 6h529q14 0 22 -21q4 -8 4 -18q0 -12 -5 -19.5t-9 -11.5q-6 -6 -12 -6h-529q-6 0 -12 6q-4 4 -8 11t-4 24z" />
<glyph unicode="&#x2013;" horiz-adv-x="915" d="M-2 336q2 20 14 29q6 4 11 6h866q14 0 22 -21q4 -8 4 -18q0 -12 -5 -19.5t-9 -11.5q-6 -6 -12 -6h-866q-6 0 -13 6q-4 4 -8 11t-4 24z" />
<glyph unicode="&#x2014;" horiz-adv-x="1429" d="M-2 336q2 20 14 29q6 4 11 6h1380q14 0 22 -21q5 -8 5 -18q0 -12 -5.5 -19.5t-9.5 -11.5q-6 -6 -12 -6h-1380q-6 0 -13 6q-4 4 -8 11t-4 24z" />
<glyph unicode="&#x2018;" horiz-adv-x="247" d="M80 1245q0 33 5 61.5t19 51.5q12 20 35 20q10 0 21 -6q18 -10 26.5 -25.5t8.5 -31.5q0 -14 -5 -21q-20 -35 -25 -86t-5 -100q0 -29 1 -55.5t1 -44.5q0 -25 -4 -33q0 -4 -4 -4q-6 0 -15 6q-10 18 -20 49t-18.5 67.5t-14.5 75.5t-6 76z" />
<glyph unicode="&#x2019;" horiz-adv-x="247" d="M80 1315q0 16 8 31.5t27 25.5q8 6 20 6q23 0 35 -20q14 -23 19.5 -51.5t5.5 -61.5q0 -37 -6.5 -76t-14.5 -75.5t-19.5 -67.5t-19.5 -49q-10 -6 -14 -6t-4 4q-4 8 -4 33q0 18 1 44.5t1 55.5q0 49 -5.5 100.5t-25.5 85.5q-4 6 -4 21z" />
<glyph unicode="&#x201a;" horiz-adv-x="247" d="M80 123q0 16 8 31.5t27 25.5q8 6 20 6q23 0 35 -20q14 -23 19.5 -51.5t5.5 -61.5q0 -37 -6.5 -75.5t-14.5 -75.5t-19.5 -68t-19.5 -49q-10 -6 -14 -6t-4 4q-4 8 -4 33q0 18 1 44.5t1 55.5q0 49 -5.5 100.5t-25.5 85.5q-4 6 -4 21z" />
<glyph unicode="&#x201c;" horiz-adv-x="434" d="M82 1245q0 33 5 61.5t19 51.5q12 20 35 20q10 0 21 -6q18 -10 26.5 -25.5t8.5 -31.5q0 -14 -4 -21q-20 -35 -25.5 -86t-5.5 -100q0 -29 1 -55.5t1 -44.5q0 -25 -4 -33q0 -4 -4 -4q-6 0 -15 6q-10 18 -20 49t-18.5 67.5t-14.5 75.5t-6 76zM268 1245q0 33 5.5 61.5 t19.5 51.5q12 20 35 20q10 0 20 -6q18 -10 26.5 -25.5t8.5 -31.5q0 -14 -4 -21q-20 -35 -25.5 -86t-5.5 -100q0 -29 1 -55.5t1 -44.5q0 -25 -4 -33q0 -4 -4 -4q-6 0 -14 6q-10 18 -20.5 49t-18.5 67.5t-14.5 75.5t-6.5 76z" />
<glyph unicode="&#x201d;" horiz-adv-x="434" d="M80 1315q0 16 8 31.5t27 25.5q8 6 20 6q23 0 35 -20q14 -23 19.5 -51.5t5.5 -61.5q0 -37 -6.5 -76t-14.5 -75.5t-19.5 -67.5t-19.5 -49q-10 -6 -14 -6t-4 4q-4 8 -4 33q0 18 1 44.5t1 55.5q0 49 -5.5 100.5t-25.5 85.5q-4 6 -4 21zM266 1315q0 16 8.5 31.5t26.5 25.5 q8 6 21 6q23 0 34 -20q14 -23 19.5 -51.5t5.5 -61.5q0 -37 -6 -76t-14.5 -75.5t-19.5 -67.5t-19 -49q-10 -6 -15 -6q-4 0 -4 4q-4 8 -4 33q0 18 1 44.5t1 55.5q0 49 -5 100.5t-26 85.5q-4 6 -4 21z" />
<glyph unicode="&#x201e;" horiz-adv-x="434" d="M80 141q0 16 8 31.5t27 26.5q8 6 20 6q23 0 35 -21q14 -23 19.5 -51t5.5 -61q0 -37 -6.5 -76t-14.5 -76t-19.5 -67.5t-19.5 -49.5q-10 -6 -14 -6t-4 4q-4 8 -4 33q0 18 1 45t1 55q0 49 -5.5 100.5t-25.5 86.5q-4 6 -4 20zM266 141q0 16 8.5 31.5t26.5 26.5q8 6 21 6 q23 0 34 -21q14 -23 19.5 -51t5.5 -61q0 -37 -6 -76t-14.5 -76t-19.5 -67.5t-19 -49.5q-10 -6 -15 -6q-4 0 -4 4q-4 8 -4 33q0 18 1 45t1 55q0 49 -5 100.5t-26 86.5q-4 6 -4 20z" />
<glyph unicode="&#x2022;" horiz-adv-x="438" d="M72 602q0 20 10 52t30.5 61.5t48 50t64.5 20.5q53 0 99.5 -45t46.5 -123q0 -43 -17.5 -81.5t-41 -66.5t-48 -44t-41.5 -16q-57 0 -88 24.5t-45 57t-16 64.5t-2 46z" />
<glyph unicode="&#x2026;" horiz-adv-x="751" d="M72 61q0 12 5 28.5t16 32t26.5 27t34.5 11.5q29 0 53 -24.5t24 -65.5q0 -23 -9 -43.5t-21.5 -36t-26.5 -23.5t-22 -8q-31 0 -46.5 13.5t-23.5 30.5t-9 33.5t-1 24.5zM313 61q0 12 5.5 28.5t16.5 32t26.5 27t33.5 11.5q29 0 53.5 -24.5t24.5 -65.5q0 -23 -9 -43.5 t-21.5 -36t-27 -23.5t-22.5 -8q-31 0 -46 13.5t-23.5 30.5t-9.5 33.5t-1 24.5q0 12 5.5 28.5t16.5 32t26.5 27t33.5 11.5q29 0 53.5 -24.5t24.5 -65.5q0 -23 -9 -43.5t-21.5 -36t-27 -23.5t-22.5 -8q-31 0 -46 13.5t-23.5 30.5t-9.5 33.5t-1 24.5zM555 61q0 12 5 28.5 t16.5 32t26.5 27t34 11.5q29 0 53.5 -24.5t24.5 -65.5q0 -23 -9.5 -43.5t-21.5 -36t-26.5 -23.5t-22.5 -8q-31 0 -46.5 13.5t-23.5 30.5t-9 33.5t-1 24.5z" />
<glyph unicode="&#x202f;" horiz-adv-x="379" />
<glyph unicode="&#x2039;" horiz-adv-x="387" d="M82 303v6q0 31 28.5 62.5t67.5 59.5t76 48.5t55 28.5q18 -6 19 -16v-3q0 -10 -21.5 -26.5t-47.5 -41t-49.5 -56t-27.5 -70.5q6 -39 32 -77t54.5 -69.5t52 -54.5t23.5 -31t-18 -8q-18 14 -56.5 37t-78 52.5t-70.5 65.5t-37 77z" />
<glyph unicode="&#x203a;" horiz-adv-x="387" d="M82 502q0 8 18 8q18 -16 56.5 -38.5t78 -51.5t70.5 -65t37 -76l2 -17v-6q0 -31 -28.5 -62.5t-67.5 -59.5t-76 -48t-55 -29q-18 6 -19 17v2q0 8 20.5 25.5t47.5 42t50.5 56t27.5 70.5q-6 39 -32 77t-54.5 70t-52 54.5t-23.5 30.5z" />
<glyph unicode="&#x205f;" horiz-adv-x="474" />
<glyph unicode="&#x20ac;" horiz-adv-x="1353" d="M55 551q2 20 13 27q4 4 10 4h129q-6 43 -6 88h-86q-6 2 -13 6q-10 6 -10 31q2 20 12 26q4 4 11 4h88q10 113 54 219.5t112.5 188.5t157.5 131t192 49q100 0 187 -35t150.5 -90t99.5 -123.5t36 -138.5q0 -41 -16.5 -57.5t-42.5 -16.5q-27 0 -59 15.5t-62.5 37t-55 47 t-36.5 44.5q-4 4 -7.5 8t-5.5 6q-4 -4 -12 -8q-8 -16 -23 -17q-16 0 -19 7.5t-3 19.5q0 10 2 23.5t6 27.5q4 18 8 42t4 46q0 43 -29.5 77t-117.5 34q-72 0 -147.5 -41t-139 -112.5t-104.5 -170t-41 -213.5h442q8 0 12.5 -6t8.5 -12q4 -8 4 -17q0 -18 -13 -26q-6 -4 -12 -6 h-440q4 -23 8 -44.5t8 -43.5h387q8 0 12.5 -6.5t8.5 -12.5q4 -8 4 -16q0 -18 -12 -27q-6 -4 -13 -6h-366q33 -92 91 -174t139 -145.5t182.5 -100.5t218.5 -37q63 0 110 11.5t83 28t58.5 35t36.5 30.5q25 20 35 20q8 0 11 -3t8 -7l4 -8q0 -35 -32 -68t-85 -57.5t-126 -39.5 t-153 -15q-135 0 -250.5 41t-204.5 112.5t-149.5 168.5t-87.5 208h-141q-6 2 -12 6q-10 6 -11 31zM930 1198q4 -14 22.5 -53t44 -81t57 -75t62.5 -33q10 1 10 7q0 23 -24.5 61.5t-56 76.5t-64.5 66.5t-51 30.5z" />
<glyph unicode="&#x2122;" horiz-adv-x="1314" d="M-129 1040q0 12 16.5 21.5t42 19t56 17.5t61.5 14q23 4 41 9t35 9q4 4 8 22.5t8 41.5t9.5 47.5t12.5 44t19.5 32.5t28.5 13t22.5 -11t6.5 -46q0 -4 -1 -17.5t-3.5 -31t-5.5 -36t-5 -32.5q10 0 66 17q25 6 55.5 14t58 15t50 12.5t34.5 5.5q16 0 28.5 -7.5t12.5 -17.5 q0 -12 -15 -24.5t-48 -18.5q-10 -2 -51 -12.5t-87 -21.5t-83 -21l-37 -11q-12 -43 -19.5 -84.5t-7.5 -87.5q0 -31 2 -68.5t9.5 -72.5t22.5 -58.5t42 -23.5q23 0 49.5 17.5t54 43t51 54.5t40.5 51q4 4 7 11.5t3 9.5q16 27 40.5 58.5t51.5 31.5q20 0 30.5 -14.5t15.5 -34 t6 -44t1 -47.5q0 -49 3 -60t7 -11q10 0 24.5 26.5t29.5 59.5q12 33 26.5 56.5t30.5 23.5t16 -11q0 -16 -6 -25t-6 -42q0 -31 14.5 -61.5t61.5 -30.5q18 0 34.5 29.5t29 67.5t19.5 71.5t7 42.5q0 16 3 25t24 9q10 0 23.5 -4t13.5 -20q0 -10 8 -53t26.5 -90.5t46 -85 t66.5 -37.5q25 0 44 13t34.5 31.5t26 36t14.5 25.5q6 20 22 21q10 0 21.5 -8.5t11.5 -18.5q0 -35 -23.5 -66.5t-55.5 -56t-67.5 -39t-60.5 -14.5q-39 0 -66.5 24.5t-46 57.5t-28.5 66.5t-14 52.5q-4 -14 -13 -35q-2 -4 -10 -26.5t-22.5 -48.5t-36 -46.5t-47.5 -20.5 q-25 0 -39.5 15.5t-23.5 37t-13 47t-6 44.5q-14 -25 -18.5 -34l-6.5 -13q-20 -43 -45 -74t-41 -33q-18 0 -29.5 16.5t-15.5 42t-5 59.5t-1 71q0 14 -1 26t-7 12q-4 0 -14.5 -12l-24.5 -28q-27 -37 -58.5 -75t-66.5 -69t-74 -50t-82 -19q-23 0 -44 19t-37.5 53t-26 78 t-9.5 95q0 70 7.5 126.5t9.5 72.5q-6 -2 -39 -9t-70 -16q-31 -8 -58.5 -14t-49.5 -10q-16 0 -23.5 8t-7.5 16z" />
<glyph unicode="&#x25fc;" horiz-adv-x="604" d="M0 0v604h604v-604h-604z" />
<glyph unicode="&#xfb01;" horiz-adv-x="747" d="M-526 -438q2 14 12 34.5t29.5 42t47 38t66.5 22.5q37 0 72 -28.5t67.5 -69.5t64.5 -90.5t63.5 -90.5t63.5 -68.5t67 -27.5t57 42t35.5 105.5t20.5 139.5t9.5 144.5t2.5 120.5t2 69q0 6 -34 10t-76 11t-76 18.5t-34 31.5t11.5 42t23.5 22l17 -6q16 -6 43.5 -12.5 t59.5 -12.5t63 -6q18 401 18 768q0 92 5 195.5t22.5 191.5t52.5 145.5t94 57.5q31 0 54.5 -34t23.5 -120q0 -59 -10.5 -142t-33 -172t-56 -175t-82.5 -150q-2 -2 -3 -41t-2.5 -96t-1.5 -122.5t-1 -124t-2 -100.5t-1 -48q-2 -8 -2 -23q0 -16 13.5 -20t58.5 -4q76 4 137 16 q51 10 94 31.5t43 56.5q0 45 -3 94t-6 96.5t-5 87.5t-2 68q0 27 4 35q0 16 18.5 32.5t38.5 16.5q29 0 38.5 -13t9.5 -42v-42v-76t-1 -93t-2 -93t-4.5 -79t-5.5 -47q0 -23 -57 -49q-6 -2 -38 -13.5t-80 -23.5t-106.5 -22.5t-117.5 -10.5q-12 0 -20.5 -6t-8.5 -31 q0 -53 -2 -127t-9 -153.5t-20.5 -157.5t-36 -140.5t-56 -101.5t-81.5 -39q-47 0 -85.5 29t-73.5 72t-69 93t-67.5 93t-69.5 71.5t-79 28.5q-25 0 -31 -12t-8 -25.5t-6 -25.5t-23 -12q-14 0 -24 15t-10 32zM242 881q0 -45 3 -74t9 -29q10 0 19.5 23.5t18.5 58.5t16 78 t12.5 82t8.5 69.5t3 40.5q0 137 -29 138q-14 0 -25.5 -40t-19.5 -99.5t-12 -127t-4 -120.5zM545 797q0 20 16.5 51t48.5 31q23 0 42.5 -20.5t19.5 -53.5q0 -41 -23.5 -66.5t-40.5 -25.5q-25 0 -37 11t-18 24.5t-7 28t-1 20.5z" />
<glyph unicode="&#xfb02;" horiz-adv-x="1026" d="M-526 -438q2 14 12 34.5t29.5 42t47 38t66.5 22.5q37 0 72 -28.5t67.5 -69.5t64.5 -90.5t63.5 -90.5t63.5 -68.5t67 -27.5t57 42t35.5 105.5t20.5 139.5t9.5 144.5t2.5 120.5t2 69q0 6 -34 10t-76 11t-76 18.5t-34 31.5t11.5 42t23.5 22l17 -6q16 -6 43.5 -12.5 t59.5 -12.5t63 -6q18 401 18 768q0 92 5 195.5t22.5 191.5t52.5 145.5t94 57.5q31 0 54.5 -34t23.5 -120q0 -59 -10.5 -142t-33 -172t-56 -175t-82.5 -150q-2 -2 -3 -41t-2.5 -96t-1.5 -122.5t-1 -124t-2 -100.5t-1 -48q-2 -8 -2 -23q0 -16 13.5 -20t58.5 -4q47 0 118.5 10 t147.5 41q-14 72 -20 148.5t-6 156.5q0 111 12 225.5t36.5 206.5t62.5 150.5t87 58.5q39 0 60.5 -37t33 -85t13.5 -95t2 -70q0 -96 -19.5 -193t-45 -179t-50 -143.5t-37.5 -86.5q-8 -16 -12 -27.5t-4 -27.5q0 -35 19.5 -87t52 -101.5t76.5 -84t92 -34.5q39 0 76.5 31.5 t71.5 73.5t60.5 86t42.5 69q6 18 23 18q14 0 27 -10q12 -10 12 -18q0 -4 -3 -9.5t-7 -11.5q-4 -8 -9 -14q-72 -109 -127 -173.5t-96 -98t-69.5 -43t-47.5 -9.5q-55 0 -100 26.5t-82 74t-65.5 113t-46.5 143.5q-18 -6 -52 -17.5t-77 -22t-93.5 -17.5t-101.5 -7 q-12 0 -20.5 -6t-8.5 -31q0 -53 -2 -127t-9 -153.5t-20.5 -157.5t-36 -140.5t-56 -101.5t-81.5 -39q-47 0 -85.5 29t-73.5 72t-69 93t-67.5 93t-69.5 71.5t-79 28.5q-25 0 -31 -12t-8 -25.5t-6 -25.5t-23 -12q-14 0 -24 15t-10 32zM242 881q0 -45 3 -74t9 -29 q10 0 19.5 23.5t18.5 58.5t16 78t12.5 82t8.5 69.5t3 40.5q0 137 -29 138q-14 0 -25.5 -40t-19.5 -99.5t-12 -127t-4 -120.5zM627 539q0 -115 5 -181.5t11 -100.5t11 -43t8 -9q6 0 22 34.5t32.5 100.5t30 163t13.5 224q0 23 -3 52.5t-9.5 57t-16.5 48t-24 26.5 q-10 0 -23.5 -20.5t-26 -65.5t-21.5 -115.5t-9 -170.5z" />
</font>
</defs>
</svg>
